<?xml version="1.0" encoding="UTF-8" standalone="no"?>
<!DOCTYPE svg PUBLIC "-//W3C//DTD SVG 1.1//EN" "http://www.w3.org/Graphics/SVG/1.1/DTD/svg11.dtd">
<svg width="100%" height="100%" viewBox="0 0 512 512" version="1.1" xmlns="http://www.w3.org/2000/svg" xmlns:xlink="http://www.w3.org/1999/xlink" xml:space="preserve" xmlns:serif="http://www.serif.com/" style="fill-rule:evenodd;clip-rule:evenodd;stroke-linecap:round;stroke-linejoin:round;stroke-miterlimit:1.5;">
    <g transform="matrix(0.955595,-0.456766,0.456766,0.955595,-186.31,244.331)">
        <path d="M113.652,204.429C118.291,197.315 137.377,175.982 147.35,169.889C161,161.548 183.596,157.918 191.286,156.095C198.976,154.273 209.327,154.47 217.781,152.882C226.234,151.295 233.375,152.823 239.268,151.797C245.161,150.77 258.406,147.61 267.16,148.984C298.147,153.85 315.803,156.08 334.524,163.244C345.671,167.509 372.922,179.727 376.504,189.459C380.086,199.19 358.751,217.294 356.016,221.632C351.806,228.309 341.736,236.059 335.938,239.464C330.141,242.869 311.286,253.115 302.558,256.556C293.831,259.997 278.173,264.295 267.498,266.984C256.823,269.673 241.709,271.533 227.121,272.616C212.533,273.698 208.96,274.989 195.311,274.748C181.663,274.507 167.277,276.261 158.641,273.306C148.657,269.891 130.964,260.799 123.878,256C116.113,250.741 99.818,235.513 99.185,228.884C98.551,222.255 110.241,209.658 113.652,204.429Z" style="fill:none;stroke:black;stroke-width:9.6px;"/>
        <path d="M144.952,192.589C145.493,192.264 148.266,190.606 149.176,190.147C150.447,189.507 152.873,188.982 155.333,188.678C157.745,188.381 160.195,188.289 161.633,188.643L168.114,189.098C171.631,189.79 175.874,192.814 179.956,194.191C182.2,194.948 184.404,195.25 186.453,194.731C189.957,193.843 194.63,191.562 199.348,190.375C202.124,189.678 204.915,189.354 207.444,190.115C208.301,190.376 209.208,189.892 209.469,189.035C209.73,188.178 209.246,187.271 208.39,187.01C206.036,186.285 203.491,186.275 200.908,186.688C195.414,187.564 189.725,190.431 185.631,191.44C184.184,191.797 182.64,191.49 181.062,190.946C176.843,189.493 172.441,186.394 168.802,185.654L162.495,185.196C160.765,184.758 157.812,184.766 154.904,185.106C151.96,185.45 149.072,186.133 147.547,186.889C146.434,187.442 143.805,188.919 142.79,189.605C141.199,190.681 141.827,192.383 141.982,192.585C142.203,192.873 142.69,193.418 143.72,193.294C144.228,193.231 144.663,192.966 144.952,192.589Z"/>
        <path d="M194.79,208.839C196.804,208.431 199.416,207.78 201.942,207.41C203.522,207.179 205.065,207.051 206.371,207.211C209.109,207.546 212.351,208.309 215.487,209.368C218.593,210.418 221.599,211.755 223.889,213.274C225.775,214.524 227.618,216.317 229.623,217.553C230.673,218.2 231.765,218.708 232.914,218.977C237.073,219.952 242.654,219.15 249.413,219.967C251.491,220.218 253.687,220.631 255.992,221.321C256.875,221.587 257.808,221.087 258.075,220.204C258.341,219.321 257.841,218.388 256.958,218.121C254.461,217.36 252.081,216.898 249.827,216.614C243.229,215.782 237.77,216.581 233.713,215.608C232.922,215.418 232.177,215.047 231.455,214.596C229.488,213.37 227.688,211.589 225.839,210.349C223.331,208.668 220.044,207.164 216.637,205.993C213.262,204.833 209.77,204 206.819,203.623C205.23,203.42 203.35,203.534 201.424,203.805C198.827,204.172 196.14,204.822 194.068,205.231C193.073,205.43 192.426,206.4 192.625,207.396C192.824,208.392 193.794,209.039 194.79,208.839Z"/>
        <g transform="matrix(1,0,0,1,-11.4267,1.1813)">
            <path d="M137.48,221.503L137.471,221.505C137.227,221.58 137.024,221.678 136.813,221.822L136.477,222.09C127.648,227.32 123.824,231.369 124.703,232.221C123.715,233.432 124.667,233.273 127.364,231.845C129.651,230.942 133.33,228.853 138.353,225.244L138.955,224.864C139.859,224.288 142.576,222.412 144.036,222.175C146.204,221.83 148.242,221.661 150.278,221.677C152.334,221.693 154.385,221.891 156.559,222.232C162.023,223.155 168.089,225.786 174.051,226.642C176.85,227.044 179.628,227.073 182.33,226.423C185.468,225.676 190.148,223.554 194.661,222.438C197.349,221.773 199.966,221.44 202.032,222.263C203.011,222.639 204.111,222.149 204.487,221.17C204.863,220.191 204.373,219.091 203.394,218.715C201.248,217.922 198.689,217.926 195.994,218.446C190.862,219.436 185.175,222.278 181.533,223.234C179.24,223.829 176.87,223.837 174.481,223.521C168.542,222.735 162.504,220.097 157.064,219.203C154.741,218.793 152.546,218.556 150.345,218.482C148.135,218.408 145.918,218.504 143.554,218.803C141.919,219.005 138.911,220.674 137.48,221.503Z"/>
        </g>
        <path d="M193.826,243.665C194.189,243.054 195.068,242.593 196.022,242.117C197.805,241.227 199.907,240.483 201.187,239.818C203.638,238.569 207.406,237.495 211.22,237.09C214.903,236.698 218.632,236.899 221.161,238.173C222.894,239.076 225.445,239.774 228.083,240.137C230.623,240.486 233.24,240.507 235.279,240.137C238.86,239.444 243.839,237.128 248.278,236.095C250.025,235.689 251.665,235.389 253.103,235.797C253.989,236.093 254.949,235.613 255.244,234.727C255.54,233.84 255.06,232.881 254.174,232.585C252.235,231.84 249.913,231.796 247.466,232.265C242.998,233.122 238.11,235.73 234.545,236.467C232.844,236.839 230.644,236.876 228.501,236.656C226.277,236.427 224.11,235.943 222.631,235.233C219.633,233.746 215.243,233.446 210.887,233.889C206.636,234.321 202.423,235.436 199.671,236.785C198.151,237.517 195.514,238.326 193.552,239.362C192.258,240.046 191.242,240.873 190.692,241.737C190.16,242.602 190.43,243.736 191.295,244.268C192.16,244.8 193.294,244.53 193.826,243.665Z"/>
        <path d="M251.987,251.813L255.558,247.621C257.165,246.79 260.282,244.737 263.299,243.536C265,242.859 266.635,242.336 267.783,242.897C269.59,243.992 271.72,244.555 274.021,244.812C276.869,245.129 279.96,244.884 282.869,244.987C284.62,245.036 286.682,245.261 288.547,245.058C289.623,244.94 290.635,244.667 291.546,244.238C295.054,242.398 299.459,240.005 304.79,237.883C307.587,236.77 310.59,235.64 313.97,234.893C314.837,234.762 315.435,233.951 315.303,233.084C315.172,232.217 314.361,231.619 313.494,231.75C308.78,232.151 304.55,233.071 300.82,234.377C296.204,235.993 292.424,238.137 289.264,239.673C288.681,239.982 287.992,240.119 287.272,240.19C285.796,240.337 284.226,240.256 282.869,240.295C279.091,240.519 275.059,241.367 271.573,240.806C270.731,240.671 269.928,240.445 269.181,240.101C267.742,239.365 265.786,239.414 263.673,240.007C260.098,241.011 255.968,243.56 254.003,244.511C253.576,244.716 252.863,245.308 252.093,246.108C251.076,247.164 249.867,248.611 249.125,249.499C248.487,250.289 248.609,251.448 249.399,252.087C250.189,252.725 251.348,252.603 251.987,251.813Z"/>
        <g transform="matrix(1,0,0,1,8.55947,-4.13524)">
            <path d="M283.549,227.851C284.458,228.529 287.434,225.927 288.066,225.749L294.317,223.547C295.516,223.159 296.903,223.058 298.359,223.13C302.023,223.312 306.047,224.433 309.131,224.558C312.136,224.666 314.794,224.327 317.286,223.637C320.975,222.616 324.257,220.861 328.069,219.526L338.015,217.518C338.864,217.446 339.494,216.698 339.421,215.849C339.349,215.001 338.601,214.371 337.752,214.443C336.161,214.487 333.639,214.552 331.281,214.764C329.541,214.921 327.901,215.187 326.732,215.515C322.948,216.713 319.624,218.162 316.02,219.24C313.904,219.874 311.697,220.439 309.131,220.531C306.092,220.654 302.053,219.978 298.438,219.976C296.596,219.974 294.851,220.112 293.344,220.629L287.263,222.537C286.404,222.726 282.479,223.965 281.205,224.913C280.193,225.665 280.084,226.623 280.204,227.255C280.423,228.247 281.407,228.873 282.398,228.654C282.892,228.545 283.295,228.246 283.549,227.851Z"/>
        </g>
        <path d="M249.471,210.498L256.248,205.903C257.702,205.591 259.972,204.409 262.155,203.766C263.223,203.451 264.258,203.201 265.057,203.589C267.905,205.058 271.264,206.203 274.735,207.053C278.131,207.885 281.635,208.421 284.924,208.523C286.373,208.502 287.763,208.343 289.114,208.075C294.169,207.074 298.608,204.584 303.879,204.467L312.91,202.555C313.624,202.403 314.081,201.7 313.928,200.985C313.776,200.271 313.073,199.814 312.358,199.966L303.879,201.343C302.453,201.306 301.075,201.427 299.723,201.646C294.792,202.445 290.277,204.698 284.924,204.595C281.284,204.714 277.303,204.361 273.572,203.445C271.005,202.815 268.569,201.907 266.426,200.851C265.307,200.276 263.917,200.209 262.431,200.475C260.004,200.911 257.252,202.34 255.596,202.648C254.996,202.755 253.895,203.272 252.638,204.017C250.86,205.071 248.668,206.583 247.322,207.511C246.498,208.104 246.31,209.254 246.903,210.079C247.496,210.903 248.647,211.091 249.471,210.498Z"/>
        <path d="M226.579,192.067C228.221,190.767 230.455,189.584 232.75,188.757C235.186,187.88 237.676,187.371 239.546,187.49C240.218,187.538 240.94,187.804 241.677,188.154C243.789,189.159 245.985,190.727 247.773,191.198C251.634,192.23 255.944,193.805 260.181,194.707C262.141,195.125 264.086,195.396 265.97,195.429C268.236,195.469 270.495,195.262 272.743,194.934C275.985,194.461 279.201,193.723 282.377,193.139C283.172,192.99 284.053,193.02 284.954,193.038C287.513,193.088 290.22,193.446 291.809,193.728C292.704,193.953 293.613,193.409 293.838,192.514C294.063,191.619 293.519,190.709 292.624,190.485C291.375,190.029 289.51,189.245 287.434,188.859C285.44,188.489 283.313,188.543 281.534,188.922C278.424,189.594 275.278,190.415 272.101,190.986C270.07,191.351 268.027,191.619 265.97,191.655C263.766,191.694 261.455,191.353 259.139,190.85C255.5,190.06 251.851,188.894 248.542,188.122C246.635,187.67 244.208,185.891 242.007,185.032C241.24,184.732 240.495,184.519 239.785,184.453C237.581,184.246 234.623,184.735 231.704,185.651C229.007,186.497 226.351,187.72 224.371,189.124C223.559,189.733 223.394,190.887 224.003,191.699C224.613,192.512 225.767,192.677 226.579,192.067Z"/>
        <g transform="matrix(1,0,0,1,11.7175,-2.2961)">
            <path d="M325.357,187.387L325.387,187.425C325.728,188.273 322.695,187.714 321.889,187.941C319.829,188.528 317.542,188.464 315.241,188.078C311.44,187.44 307.623,186 304.572,185.069C301.533,184.059 299.451,181.161 296.33,179.462C294.958,178.715 293.42,178.155 291.576,177.983C289.193,177.743 286.999,177.711 284.92,177.929C282.591,178.173 280.411,178.753 278.276,179.741C277.366,180.191 276.993,181.296 277.443,182.206C277.893,183.116 278.998,183.49 279.908,183.04C281.639,182.127 283.426,181.553 285.351,181.256C287.211,180.969 289.187,180.919 291.341,181.035C292.733,181.12 293.913,181.488 294.955,182.035C298.255,183.767 300.456,186.79 303.642,187.857C306.758,188.986 310.653,190.64 314.557,191.532C317.399,192.182 320.246,192.4 322.863,191.835C323.61,191.673 325.166,191.771 326.155,191.591C326.75,191.483 327.232,191.267 327.595,191.023C327.8,191.049 329.034,191.204 329.861,191.328C331.41,191.561 333.104,191.717 334.259,191.909C335.163,192.167 336.106,191.642 336.364,190.738C336.621,189.834 336.097,188.891 335.193,188.633C333.651,188.053 331.183,187.052 329.216,186.754C327.531,186.498 326.141,186.859 325.357,187.387ZM325.357,187.387C325.209,187.485 325.083,187.589 324.98,187.697C325.066,187.607 325.266,187.32 325.357,187.387Z"/>
        </g>
        <path d="M202.126,178.132C205,176.266 207.66,173.932 210.695,172.097C212.513,170.997 214.467,170.082 216.694,169.588C218.159,169.28 220.655,169.156 223.137,169.323C225.516,169.483 227.882,169.895 229.258,170.596C231.346,171.673 234.252,173.075 237.219,173.71C239.325,174.161 241.461,174.211 243.411,173.595L250.985,170.194C252.625,169.405 255.774,168.491 258.948,168.082C260.332,167.903 261.718,167.894 262.989,167.911C264.331,167.93 265.545,167.902 266.435,168.399C267.136,168.876 268.092,168.694 268.568,167.993C269.045,167.293 268.863,166.337 268.162,165.86C266.387,164.518 263.44,163.957 260.285,164.159C256.09,164.427 251.598,165.987 249.441,167.107L242.399,170.557C240.968,171.06 239.38,171.03 237.81,170.741C235.1,170.242 232.439,169.005 230.519,168.075C229.163,167.412 227.024,166.976 224.734,166.735C221.543,166.399 218.055,166.431 216.136,166.8C213.561,167.258 211.283,168.217 209.138,169.371C205.996,171.063 203.173,173.224 200.177,174.93C199.294,175.468 199.013,176.622 199.551,177.505C200.089,178.389 201.243,178.67 202.126,178.132Z"/>
        <path d="M144.743,249.278C145.148,249.137 146.557,248.653 146.983,248.543L158.612,246.417C161.218,245.749 164.078,245.925 166.914,246.518C171.477,247.473 175.974,249.506 179.375,251.18L185.1,252.518C186.534,253.224 188.101,253.48 189.751,253.428C194.777,253.267 200.68,249.711 204.988,251.117C205.759,251.374 206.593,250.957 206.85,250.186C207.107,249.415 206.69,248.58 205.919,248.323C201.363,246.773 195.01,250.181 189.67,250.285C188.554,250.307 187.491,250.152 186.528,249.662L180.835,248.26C177.241,246.435 172.477,244.236 167.638,243.16C164.27,242.412 160.864,242.217 157.751,242.975L146.087,244.959C145.297,245.152 143.449,245.532 142.381,246.336C141.476,247.017 140.972,247.938 141.016,249.075C141.062,250.109 141.939,250.912 142.973,250.866C143.881,250.825 144.61,250.144 144.743,249.278Z"/>
    </g>
    <g transform="matrix(0.981673,0.273826,-0.273826,0.981673,-1.90577,-113.823)">
        <path d="M113.652,204.429C118.291,197.315 137.377,175.982 147.35,169.889C161,161.548 183.596,157.918 191.286,156.095C198.976,154.273 209.327,154.47 217.781,152.882C226.234,151.295 233.375,152.823 239.268,151.797C245.161,150.77 258.406,147.61 267.16,148.984C298.147,153.85 315.803,156.08 334.524,163.244C345.671,167.509 372.922,179.727 376.504,189.459C380.086,199.19 358.751,217.294 356.016,221.632C351.806,228.309 341.736,236.059 335.938,239.464C330.141,242.869 311.286,253.115 302.558,256.556C293.831,259.997 278.173,264.295 267.498,266.984C256.823,269.673 241.709,271.533 227.121,272.616C212.533,273.698 208.96,274.989 195.311,274.748C181.663,274.507 167.277,276.261 158.641,273.306C148.657,269.891 130.964,260.799 123.878,256C116.113,250.741 99.818,235.513 99.185,228.884C98.551,222.255 110.241,209.658 113.652,204.429Z" style="fill:none;stroke:black;stroke-width:9.97px;"/>
        <path d="M145.002,192.643C145.565,192.304 148.305,190.667 149.208,190.211C150.474,189.573 152.891,189.051 155.341,188.748C157.743,188.452 160.184,188.358 161.616,188.711L168.1,189.166C171.615,189.857 175.855,192.879 179.934,194.254C182.192,195.016 184.409,195.318 186.47,194.795C189.973,193.907 194.646,191.625 199.364,190.438C202.127,189.743 204.907,189.418 207.425,190.176C208.316,190.447 209.259,189.944 209.53,189.054C209.801,188.163 209.299,187.22 208.408,186.949C206.045,186.221 203.491,186.21 200.897,186.624C195.401,187.5 189.71,190.366 185.615,191.376C184.18,191.729 182.649,191.422 181.083,190.883C176.862,189.428 172.457,186.328 168.816,185.587L162.512,185.128C160.776,184.689 157.813,184.696 154.896,185.036C151.942,185.381 149.045,186.067 147.515,186.825C146.4,187.379 143.766,188.858 142.75,189.545C141.104,190.658 141.765,192.42 141.925,192.629C142.154,192.928 142.66,193.494 143.729,193.365C144.253,193.3 144.701,193.029 145.002,192.643Z"/>
        <path d="M194.804,208.91C196.818,208.502 199.428,207.85 201.952,207.481C203.526,207.25 205.061,207.123 206.362,207.282C209.096,207.616 212.333,208.377 215.464,209.435C218.565,210.482 221.565,211.816 223.851,213.331C225.737,214.581 227.581,216.375 229.587,217.611C230.643,218.262 231.743,218.772 232.899,219.043C237.059,220.018 242.642,219.217 249.405,220.033C251.48,220.283 253.672,220.695 255.973,221.383C256.891,221.66 257.86,221.14 258.137,220.223C258.414,219.305 257.894,218.335 256.977,218.058C254.476,217.296 252.092,216.833 249.835,216.548C243.24,215.716 237.784,216.514 233.729,215.541C232.664,215.286 231.686,214.706 230.736,214.033C229.062,212.848 227.486,211.37 225.878,210.292C223.365,208.607 220.073,207.1 216.659,205.927C213.28,204.765 209.783,203.93 206.828,203.553C205.233,203.349 203.346,203.462 201.414,203.735C198.816,204.101 196.127,204.751 194.054,205.16C193.019,205.367 192.347,206.375 192.554,207.41C192.761,208.445 193.769,209.117 194.804,208.91Z"/>
        <g transform="matrix(1,0,0,1,-11.4267,1.1813)">
            <path d="M137.458,221.434L137.453,221.435C137.2,221.513 136.989,221.615 136.77,221.765L136.438,222.03C127.165,227.51 123.188,231.747 124.189,232.588C123.164,233.853 124.2,233.659 127.089,232.116C129.481,231.145 133.261,228.985 138.383,225.31L138.992,224.925C139.891,224.351 142.592,222.478 144.045,222.242C146.209,221.895 148.244,221.725 150.277,221.74C152.33,221.755 154.378,221.952 156.549,222.292C162.014,223.215 168.08,225.846 174.042,226.703C176.849,227.107 179.635,227.137 182.346,226.485C185.485,225.74 190.165,223.62 194.678,222.506C197.351,221.847 199.952,221.514 202.005,222.333C203.023,222.723 204.166,222.214 204.556,221.197C204.947,220.179 204.438,219.036 203.42,218.646C201.263,217.85 198.69,217.852 195.982,218.376C190.848,219.369 185.16,222.214 181.517,223.171C179.233,223.765 176.87,223.774 174.49,223.46C168.551,222.675 162.513,220.037 157.074,219.144C154.748,218.732 152.551,218.494 150.346,218.419C148.133,218.344 145.913,218.439 143.544,218.737C141.908,218.938 138.899,220.6 137.458,221.434Z"/>
        </g>
        <path d="M193.888,243.703C194.245,243.101 195.113,242.649 196.052,242.18C197.835,241.289 199.937,240.544 201.217,239.878C203.662,238.631 207.421,237.558 211.227,237.152C214.897,236.762 218.613,236.961 221.132,238.231C222.87,239.138 225.429,239.84 228.075,240.205C230.622,240.558 233.247,240.579 235.294,240.209C238.875,239.517 243.855,237.206 248.294,236.171C250.028,235.766 251.654,235.458 253.082,235.86C254.003,236.167 255,235.669 255.307,234.748C255.615,233.826 255.116,232.829 254.195,232.522C252.247,231.769 249.911,231.72 247.45,232.19C242.982,233.043 238.096,235.658 234.531,236.395C232.836,236.767 230.645,236.806 228.51,236.588C226.294,236.361 224.134,235.881 222.659,235.176C219.652,233.684 215.25,233.382 210.881,233.826C206.621,234.259 202.399,235.375 199.641,236.726C198.12,237.457 195.482,238.265 193.518,239.301C192.211,239.99 191.186,240.827 190.63,241.699C190.077,242.598 190.358,243.777 191.257,244.33C192.156,244.883 193.335,244.602 193.888,243.703Z"/>
        <path d="M252.043,251.858L255.588,247.682C257.194,246.851 260.307,244.796 263.322,243.595C265.004,242.925 266.619,242.397 267.756,242.952C269.568,244.058 271.706,244.629 274.016,244.891C276.866,245.215 279.958,244.972 282.869,245.079C284.624,245.13 286.691,245.357 288.56,245.155C289.647,245.037 290.67,244.76 291.591,244.328C295.095,242.487 299.496,240.097 304.82,237.967C307.611,236.851 310.605,235.709 313.979,234.955C314.88,234.819 315.501,233.976 315.365,233.075C315.228,232.173 314.386,231.552 313.484,231.689C308.762,232.078 304.523,232.987 300.785,234.289C296.164,235.899 292.382,238.048 289.219,239.583C288.648,239.887 287.971,240.023 287.265,240.093C285.792,240.241 284.224,240.162 282.869,240.203C279.095,240.435 275.07,241.297 271.587,240.743C270.749,240.61 269.951,240.387 269.209,240.046C267.758,239.303 265.786,239.35 263.656,239.947C260.076,240.95 255.94,243.499 253.972,244.45L249.069,249.454C248.406,250.274 248.533,251.479 249.354,252.143C250.174,252.807 251.379,252.679 252.043,251.858Z"/>
        <g transform="matrix(1,0,0,1,8.55947,-4.13524)">
            <path d="M283.596,227.908C284.504,228.573 287.454,225.989 288.082,225.812L294.336,223.604C295.529,223.218 296.91,223.119 298.357,223.192C302.023,223.378 306.046,224.508 309.131,224.637C312.145,224.75 314.811,224.415 317.311,223.724C321.002,222.703 324.283,220.943 328.095,219.604L338.02,217.579C338.902,217.503 339.557,216.726 339.482,215.844C339.406,214.962 338.629,214.307 337.747,214.383C336.154,214.424 333.631,214.483 331.27,214.69C329.525,214.844 327.88,215.109 326.706,215.437C322.922,216.632 319.597,218.074 315.995,219.154C313.886,219.786 311.689,220.357 309.131,220.452C306.093,220.58 302.054,219.912 298.44,219.914C296.59,219.914 294.838,220.052 293.325,220.571L287.247,222.474C286.384,222.663 282.442,223.906 281.16,224.857C280.117,225.631 280.01,226.619 280.133,227.271C280.362,228.301 281.383,228.953 282.414,228.724C282.919,228.613 283.333,228.31 283.596,227.908Z"/>
        </g>
        <path d="M249.513,210.556L256.26,205.967C257.715,205.654 259.988,204.47 262.172,203.825C263.224,203.515 264.243,203.26 265.03,203.643C267.881,205.116 271.246,206.263 274.721,207.117C278.122,207.953 281.63,208.494 284.924,208.6C286.377,208.578 287.772,208.418 289.127,208.149C294.179,207.145 298.611,204.65 303.879,204.529L312.92,202.606C313.663,202.448 314.137,201.717 313.979,200.974C313.821,200.232 313.09,199.757 312.347,199.915L303.879,201.282C302.449,201.243 301.067,201.363 299.711,201.581C294.784,202.375 290.272,204.625 284.924,204.518C281.29,204.641 277.314,204.297 273.588,203.385C271.024,202.758 268.593,201.851 266.453,200.797C265.323,200.216 263.92,200.146 262.419,200.415C259.992,200.85 257.239,202.277 255.584,202.584C254.979,202.692 253.869,203.211 252.603,203.96C250.822,205.013 248.628,206.524 247.28,207.452C246.423,208.068 246.228,209.264 246.844,210.121C247.461,210.978 248.656,211.173 249.513,210.556Z"/>
        <path d="M226.623,192.125C228.258,190.827 230.483,189.645 232.771,188.818C235.197,187.942 237.678,187.433 239.542,187.549C240.206,187.597 240.922,187.86 241.652,188.207C243.767,189.215 245.967,190.786 247.758,191.258C251.619,192.293 255.93,193.871 260.167,194.776C262.132,195.197 264.081,195.469 265.97,195.503C268.24,195.544 270.503,195.339 272.756,195.011C275.999,194.54 279.216,193.804 282.394,193.221L291.793,193.791C292.723,194.025 293.668,193.46 293.902,192.53C294.136,191.599 293.57,190.655 292.64,190.421C291.39,189.959 289.526,189.163 287.446,188.773C285.443,188.398 283.305,188.458 281.517,188.839C278.408,189.513 275.265,190.335 272.088,190.908C270.061,191.274 268.023,191.544 265.97,191.581C263.771,191.621 261.466,191.283 259.155,190.783C255.515,189.996 251.867,188.831 248.557,188.062C246.652,187.611 244.227,185.836 242.028,184.977C241.255,184.675 240.505,184.461 239.79,184.394C237.579,184.184 234.612,184.674 231.684,185.59C228.978,186.436 226.314,187.66 224.328,189.066C223.484,189.699 223.312,190.899 223.946,191.743C224.579,192.587 225.778,192.758 226.623,192.125Z"/>
        <g transform="matrix(1,0,0,1,11.7175,-2.2961)">
            <path d="M327.617,191.108L329.844,191.414C331.393,191.644 333.085,191.787 334.24,191.974C335.18,192.242 336.16,191.696 336.428,190.757C336.696,189.817 336.151,188.837 335.211,188.569C333.667,187.983 331.198,186.97 329.227,186.668C327.529,186.409 326.126,186.775 325.326,187.307L325.358,187.347C325.699,188.192 322.674,187.637 321.87,187.865C319.821,188.452 317.544,188.392 315.254,188.01C311.455,187.377 307.64,185.942 304.59,185.014C301.554,184.005 299.474,181.109 296.357,179.411C294.979,178.66 293.434,178.097 291.581,177.923C289.193,177.681 286.995,177.647 284.912,177.863C282.575,178.106 280.387,178.687 278.244,179.676C277.298,180.144 276.91,181.292 277.378,182.238C277.846,183.184 278.994,183.572 279.94,183.104C281.663,182.194 283.442,181.619 285.359,181.321C287.215,181.033 289.187,180.981 291.336,181.095C292.72,181.178 293.893,181.543 294.928,182.086C298.232,183.818 300.435,186.844 303.624,187.912C306.741,189.045 310.638,190.703 314.543,191.6C317.397,192.256 320.254,192.475 322.882,191.912C323.629,191.75 325.184,191.851 326.172,191.672C326.766,191.565 327.249,191.351 327.617,191.108ZM325.326,187.307C325.166,187.411 325.031,187.523 324.921,187.638C325.013,187.541 325.228,187.233 325.326,187.307Z"/>
        </g>
        <path d="M202.164,178.195C205.036,176.326 207.692,173.988 210.725,172.15C212.537,171.052 214.484,170.137 216.705,169.643C218.166,169.335 220.657,169.21 223.134,169.376C225.504,169.535 227.862,169.946 229.233,170.646C231.324,171.726 234.235,173.131 237.208,173.769C239.324,174.222 241.47,174.272 243.431,173.654L251.015,170.255C252.651,169.469 255.792,168.56 258.959,168.154C260.337,167.977 261.718,167.971 262.985,167.987C264.314,168.003 265.517,167.96 266.401,168.449C267.129,168.944 268.123,168.755 268.618,168.027C269.113,167.299 268.924,166.306 268.196,165.811C266.413,164.457 263.452,163.885 260.279,164.085C256.074,164.351 251.572,165.922 249.411,167.046L242.379,170.497C240.958,170.998 239.381,170.969 237.822,170.682C235.116,170.186 232.46,168.952 230.543,168.026C229.183,167.361 227.037,166.924 224.74,166.682C221.542,166.345 218.048,166.376 216.125,166.745C213.543,167.203 211.259,168.162 209.108,169.318C205.963,171.006 203.137,173.164 200.139,174.868C199.221,175.426 198.929,176.625 199.488,177.544C200.047,178.462 201.246,178.753 202.164,178.195Z"/>
        <path d="M144.81,249.323C145.223,249.182 146.592,248.719 147.001,248.614L158.629,246.485C161.225,245.818 164.074,245.994 166.899,246.584C171.457,247.537 175.949,249.567 179.346,251.238L185.072,252.574C186.515,253.284 188.092,253.543 189.753,253.489C194.773,253.328 200.667,249.768 204.969,251.172C205.771,251.439 206.638,251.005 206.905,250.204C207.172,249.403 206.739,248.535 205.937,248.268C201.377,246.715 195.015,250.12 189.669,250.224C188.563,250.245 187.51,250.091 186.556,249.606L180.864,248.202C177.266,246.375 172.497,244.172 167.652,243.094C164.274,242.343 160.857,242.148 157.734,242.907L146.069,244.889C145.273,245.083 143.413,245.468 142.336,246.278C141.412,246.974 140.898,247.916 140.942,249.079C140.99,250.153 141.901,250.987 142.976,250.939C143.908,250.898 144.659,250.207 144.81,249.323Z"/>
    </g>
    <g transform="matrix(0.0358969,-0.965382,0.965382,0.0358969,198.964,370.277)">
        <path d="M113.652,204.429C118.291,197.315 137.377,175.982 147.35,169.889C161,161.548 183.596,157.918 191.286,156.095C198.976,154.273 209.327,154.47 217.781,152.882C226.234,151.295 233.375,152.823 239.268,151.797C245.161,150.77 258.406,147.61 267.16,148.984C298.147,153.85 315.803,156.08 334.524,163.244C345.671,167.509 372.922,179.727 376.504,189.459C380.086,199.19 358.751,217.294 356.016,221.632C351.806,228.309 341.736,236.059 335.938,239.464C330.141,242.869 311.286,253.115 302.558,256.556C293.831,259.997 278.173,264.295 267.498,266.984C256.823,269.673 241.709,271.533 227.121,272.616C212.533,273.698 208.96,274.989 195.311,274.748C181.663,274.507 167.277,276.261 158.641,273.306C148.657,269.891 130.964,260.799 123.878,256C116.113,250.741 99.818,235.513 99.185,228.884C98.551,222.255 110.241,209.658 113.652,204.429Z" style="fill:none;stroke:black;stroke-width:10.52px;"/>
        <path d="M145.071,192.724C145.654,192.373 148.36,190.756 149.255,190.304C150.513,189.67 152.917,189.152 155.354,188.85C157.741,188.555 160.168,188.459 161.591,188.809L168.081,189.264C171.592,189.954 175.828,192.974 179.902,194.347C182.179,195.114 184.415,195.416 186.493,194.889C189.997,194 194.669,191.718 199.387,190.53C202.133,189.838 204.895,189.512 207.398,190.265C208.338,190.551 209.333,190.02 209.619,189.081C209.905,188.141 209.375,187.146 208.435,186.86C206.059,186.127 203.49,186.116 200.882,186.531C195.384,187.407 189.689,190.273 185.591,191.282C184.174,191.631 182.662,191.324 181.115,190.79C176.89,189.333 172.48,186.231 168.836,185.489L162.536,185.03C160.793,184.588 157.815,184.592 154.883,184.934C151.916,185.28 149.006,185.971 147.469,186.732C146.35,187.287 143.71,188.77 142.691,189.458C140.966,190.624 141.674,192.474 141.842,192.693C142.084,193.008 142.615,193.605 143.742,193.47C144.287,193.402 144.754,193.123 145.071,192.724Z"/>
        <path d="M194.825,209.013C196.836,208.605 199.444,207.953 201.967,207.584C203.531,207.354 205.057,207.226 206.349,207.384C209.077,207.717 212.307,208.476 215.431,209.531C218.523,210.575 221.515,211.904 223.795,213.415C225.682,214.665 227.528,216.459 229.534,217.695C230.601,218.352 231.71,218.866 232.876,219.139C237.039,220.114 242.626,219.313 249.393,220.129C251.463,220.378 253.65,220.789 255.945,221.475C256.913,221.767 257.936,221.218 258.229,220.25C258.521,219.282 257.972,218.259 257.004,217.967C254.498,217.203 252.109,216.738 249.847,216.453C243.256,215.62 237.804,216.418 233.752,215.445C232.699,215.192 231.733,214.618 230.793,213.952C229.119,212.766 227.543,211.288 225.933,210.208C223.415,208.519 220.114,207.008 216.692,205.831C213.306,204.666 209.801,203.829 206.841,203.45C205.238,203.245 203.341,203.358 201.399,203.632C198.799,203.998 196.108,204.648 194.034,205.057C192.942,205.275 192.233,206.339 192.451,207.431C192.67,208.523 193.733,209.232 194.825,209.013Z"/>
        <g transform="matrix(1,0,0,1,-11.4267,1.1813)">
            <path d="M137.424,221.334L137.239,221.391C137.045,221.472 136.88,221.562 136.706,221.681L136.381,221.942C126.452,227.79 122.257,232.301 123.446,233.119C122.358,234.472 123.525,234.223 126.716,232.498C129.254,231.427 133.173,229.169 138.426,225.407L139.046,225.014C139.939,224.443 142.616,222.575 144.059,222.338C146.218,221.991 148.247,221.818 150.275,221.831C152.324,221.845 154.367,222.04 156.535,222.378C162,223.303 168.067,225.933 174.03,226.793C176.849,227.199 179.646,227.229 182.369,226.576C185.508,225.833 190.19,223.716 194.704,222.605C197.353,221.953 199.932,221.621 201.966,222.434C203.04,222.846 204.246,222.309 204.658,221.236C205.07,220.162 204.533,218.956 203.459,218.544C201.284,217.744 198.692,217.744 195.963,218.273C190.827,219.27 185.139,222.12 181.495,223.08C179.221,223.672 176.871,223.683 174.502,223.37C168.564,222.588 162.527,219.95 157.088,219.057C154.758,218.644 152.557,218.405 150.348,218.328C148.13,218.251 145.905,218.344 143.531,218.641C141.892,218.84 138.881,220.494 137.424,221.334Z"/>
        </g>
        <path d="M193.977,243.758C194.326,243.169 195.178,242.731 196.096,242.271C197.878,241.379 199.98,240.632 201.261,239.964C203.697,238.72 207.443,237.648 211.236,237.244C214.887,236.855 218.584,237.051 221.09,238.315C222.835,239.227 225.405,239.935 228.063,240.305C230.622,240.661 233.259,240.683 235.315,240.313C238.896,239.623 243.879,237.321 248.317,236.28C250.032,235.878 251.637,235.558 253.051,235.952C254.023,236.276 255.075,235.75 255.399,234.778C255.723,233.806 255.197,232.754 254.225,232.43C252.263,231.666 249.909,231.609 247.427,232.08C242.958,232.929 238.074,235.552 234.51,236.29C232.824,236.662 230.645,236.703 228.522,236.488C226.318,236.265 224.168,235.792 222.701,235.092C219.681,233.594 215.259,233.289 210.871,233.734C206.599,234.168 202.364,235.286 199.598,236.639C198.075,237.369 195.434,238.176 193.469,239.211C192.143,239.909 191.106,240.76 190.541,241.644C189.957,242.592 190.254,243.836 191.202,244.419C192.15,245.003 193.394,244.706 193.977,243.758Z"/>
        <path d="M252.125,251.924L255.633,247.771C257.236,246.939 260.344,244.883 263.355,243.681C265.01,243.021 266.597,242.487 267.716,243.032C269.536,244.154 271.684,244.735 274.01,245.008C276.861,245.341 279.956,245.1 282.869,245.213C284.63,245.267 286.703,245.496 288.579,245.296C289.683,245.179 290.721,244.895 291.656,244.458C295.154,242.615 299.55,240.229 304.862,238.089C307.647,236.967 310.627,235.811 313.993,235.045C314.944,234.901 315.599,234.012 315.455,233.061C315.311,232.11 314.422,231.455 313.471,231.599C308.735,231.971 304.485,232.864 300.734,234.161C296.106,235.762 292.321,237.918 289.154,239.453C288.599,239.749 287.942,239.882 287.255,239.952C285.785,240.102 284.221,240.026 282.869,240.069C279.101,240.314 275.086,241.195 271.606,240.65C270.776,240.521 269.984,240.303 269.249,239.966C267.781,239.214 265.786,239.256 263.63,239.859C260.044,240.862 255.899,243.41 253.928,244.361L248.987,249.388C248.287,250.253 248.422,251.525 249.288,252.225C250.153,252.925 251.425,252.79 252.125,251.924Z"/>
        <g transform="matrix(1,0,0,1,8.55947,-4.13524)">
            <path d="M283.665,227.992C284.573,228.638 287.484,226.08 288.105,225.904L294.364,223.688C295.548,223.305 296.918,223.208 298.355,223.283C302.023,223.473 306.044,224.615 309.131,224.752C312.158,224.871 314.836,224.542 317.347,223.849C321.041,222.831 324.32,221.061 328.133,219.719L338.028,217.667C338.958,217.587 339.649,216.767 339.569,215.837C339.49,214.906 338.67,214.215 337.739,214.295C336.145,214.331 333.619,214.382 331.255,214.582C329.5,214.731 327.848,214.996 326.667,215.322C322.884,216.513 319.559,217.947 315.959,219.029C313.86,219.659 311.677,220.237 309.131,220.337C306.094,220.472 302.056,219.817 298.442,219.823C296.582,219.827 294.819,219.965 293.297,220.488L287.225,222.382C286.356,222.571 282.387,223.82 281.096,224.775C280.007,225.58 279.904,226.614 280.031,227.294C280.271,228.381 281.349,229.068 282.436,228.827C282.958,228.712 283.388,228.403 283.665,227.992Z"/>
        </g>
        <path d="M249.574,210.642L256.279,206.06C257.736,205.746 260.01,204.559 262.196,203.912C263.225,203.607 264.221,203.347 264.991,203.721C267.847,205.199 271.219,206.349 274.7,207.209C278.108,208.052 281.623,208.6 284.924,208.713C286.384,208.689 287.785,208.528 289.146,208.256C294.192,207.248 298.616,204.746 303.879,204.618L312.936,202.68C313.72,202.513 314.22,201.742 314.053,200.958C313.886,200.175 313.115,199.675 312.331,199.841L303.879,201.193C302.443,201.151 301.055,201.27 299.694,201.488C294.772,202.274 290.264,204.519 284.924,204.405C281.298,204.535 277.33,204.204 273.611,203.298C271.053,202.675 268.627,201.77 266.492,200.719C265.347,200.129 263.924,200.056 262.403,200.327C259.975,200.76 257.221,202.185 255.565,202.491C254.954,202.599 253.832,203.121 252.551,203.877C250.768,204.929 248.569,206.44 247.218,207.367C246.315,208.017 246.109,209.278 246.759,210.182C247.409,211.086 248.671,211.292 249.574,210.642Z"/>
        <path d="M226.686,192.209C228.312,190.914 230.524,189.732 232.801,188.907C235.213,188.032 237.681,187.522 239.535,187.636L247.736,191.346C251.598,192.385 255.91,193.966 260.148,194.877C262.119,195.3 264.075,195.575 265.97,195.611C268.246,195.655 270.515,195.45 272.774,195.124C276.02,194.656 279.238,193.922 282.418,193.342L291.77,193.884C292.751,194.131 293.748,193.534 293.995,192.553C294.241,191.572 293.644,190.575 292.663,190.328C291.411,189.857 289.55,189.045 287.463,188.648C285.448,188.265 283.293,188.334 281.493,188.719C278.386,189.395 275.244,190.22 272.07,190.795C270.049,191.162 268.018,191.434 265.97,191.473C263.779,191.515 261.481,191.181 259.178,190.685C255.538,189.901 251.889,188.74 248.579,187.974C246.677,187.525 244.254,185.755 242.059,184.897C241.278,184.592 240.519,184.375 239.796,184.307C237.576,184.095 234.596,184.585 231.654,185.501C228.936,186.348 226.261,187.573 224.265,188.982C223.374,189.65 223.194,190.915 223.862,191.806C224.53,192.697 225.795,192.877 226.686,192.209Z"/>
        <g transform="matrix(1,0,0,1,11.7175,-2.2961)">
            <path d="M325.285,187.195C325.181,187.097 324.938,187.444 324.835,187.552C324.954,187.426 325.104,187.303 325.285,187.195L325.316,187.234C325.657,188.075 322.642,187.526 321.843,187.754C319.809,188.34 317.548,188.287 315.274,187.912C311.478,187.286 307.665,185.857 304.617,184.935C301.585,183.927 299.508,181.035 296.397,179.338C295.009,178.581 293.453,178.013 291.588,177.835C289.193,177.59 286.989,177.555 284.899,177.768C282.551,178.009 280.352,178.591 278.198,179.582C277.2,180.076 276.79,181.287 277.284,182.285C277.777,183.283 278.988,183.692 279.986,183.199C281.698,182.291 283.466,181.715 285.372,181.416C287.221,181.126 289.187,181.072 291.33,181.182C292.7,181.263 293.863,181.622 294.889,182.159C298.198,183.892 300.404,186.922 303.597,187.991C306.716,189.131 310.615,190.794 314.524,191.699C317.393,192.363 320.265,192.584 322.91,192.023C323.656,191.863 325.209,191.968 326.197,191.79C326.789,191.684 327.275,191.473 327.649,191.232L329.82,191.538C331.368,191.764 333.058,191.888 334.214,192.067C335.205,192.35 336.239,191.775 336.522,190.783C336.804,189.792 336.229,188.758 335.238,188.475C333.691,187.88 331.22,186.85 329.242,186.544C327.526,186.279 326.106,186.652 325.285,187.195Z"/>
        </g>
        <path d="M202.22,178.286C205.088,176.413 207.74,174.07 210.77,172.228C212.572,171.132 214.51,170.218 216.72,169.722C218.177,169.415 220.66,169.288 223.128,169.453C225.487,169.611 227.834,170.021 229.197,170.718C231.293,171.802 234.211,173.212 237.191,173.853C239.322,174.312 241.484,174.362 243.46,173.741L251.059,170.343C252.69,169.561 255.82,168.661 258.974,168.259C260.345,168.084 261.719,168.084 262.979,168.097C264.291,168.11 265.478,168.043 266.352,168.521C267.12,169.044 268.168,168.845 268.691,168.076C269.213,167.308 269.014,166.261 268.246,165.738C266.452,164.369 263.469,163.779 260.27,163.978C256.05,164.24 251.535,165.828 249.367,166.958L242.35,170.411C240.944,170.907 239.383,170.88 237.839,170.598C235.141,170.105 232.491,168.876 230.579,167.954C229.213,167.287 227.056,166.848 224.748,166.605C221.541,166.267 218.037,166.296 216.109,166.665C213.517,167.122 211.224,168.083 209.063,169.24C205.916,170.925 203.085,173.077 200.083,174.776C199.115,175.366 198.807,176.631 199.397,177.599C199.986,178.568 201.251,178.876 202.22,178.286Z"/>
        <path d="M144.903,249.399C145.343,249.25 146.634,248.817 147.026,248.716L158.653,246.583C161.235,245.919 164.069,246.094 166.879,246.68C171.428,247.63 175.913,249.654 179.304,251.321L185.031,252.656C186.488,253.372 188.079,253.633 189.755,253.579C194.766,253.416 200.647,249.852 204.943,251.252C205.788,251.534 206.703,251.076 206.985,250.231C207.267,249.385 206.809,248.47 205.964,248.188C201.396,246.631 195.021,250.032 189.666,250.134C188.576,250.155 187.537,250.003 186.597,249.525L180.905,248.119C177.302,246.287 172.526,244.08 167.673,242.999C164.279,242.242 160.847,242.047 157.71,242.809L146.044,244.787C145.239,244.982 143.36,245.375 142.271,246.193C141.318,246.911 140.79,247.884 140.835,249.083C140.886,250.217 141.847,251.097 142.981,251.046C143.944,251.003 144.723,250.303 144.903,249.399Z"/>
    </g>
    <g transform="matrix(-0.606344,-0.873594,0.873594,-0.606344,351.694,721.391)">
        <path d="M113.652,204.429C118.291,197.315 137.377,175.982 147.35,169.889C161,161.548 183.596,157.918 191.286,156.095C198.976,154.273 209.327,154.47 217.781,152.882C226.234,151.295 233.375,152.823 239.268,151.797C245.161,150.77 258.406,147.61 267.16,148.984C298.147,153.85 315.803,156.08 334.524,163.244C345.671,167.509 372.922,179.727 376.504,189.459C380.086,199.19 358.751,217.294 356.016,221.632C351.806,228.309 341.736,236.059 335.938,239.464C330.141,242.869 311.286,253.115 302.558,256.556C293.831,259.997 278.173,264.295 267.498,266.984C256.823,269.673 241.709,271.533 227.121,272.616C212.533,273.698 208.96,274.989 195.311,274.748C181.663,274.507 167.277,276.261 158.641,273.306C148.657,269.891 130.964,260.799 123.878,256C116.113,250.741 99.818,235.513 99.185,228.884C98.551,222.255 110.241,209.658 113.652,204.429Z" style="fill:none;stroke:black;stroke-width:9.56px;"/>
        <path d="M144.947,192.583C145.486,192.26 148.262,190.6 149.173,190.141C150.444,189.5 152.872,188.975 155.332,188.671C157.745,188.374 160.196,188.282 161.635,188.636L168.115,189.091C171.632,189.783 175.876,192.807 179.958,194.184C182.201,194.941 184.404,195.243 186.452,194.724C189.956,193.836 194.629,191.555 199.347,190.369C202.123,189.671 204.916,189.347 207.446,190.109C208.299,190.369 209.203,189.887 209.463,189.033C209.723,188.18 209.241,187.276 208.388,187.016C206.035,186.291 203.491,186.282 200.909,186.694C195.415,187.571 189.727,190.437 185.633,191.447C184.185,191.804 182.64,191.497 181.06,190.953C176.841,189.5 172.439,186.401 168.801,185.661L162.493,185.203C160.764,184.765 157.812,184.774 154.905,185.113C151.962,185.457 149.074,186.14 147.551,186.896C146.437,187.448 143.809,188.925 142.795,189.611C141.208,190.683 141.833,192.379 141.988,192.58C142.208,192.867 142.693,193.41 143.719,193.286C144.226,193.223 144.659,192.959 144.947,192.583Z"/>
        <path d="M194.789,208.832C196.803,208.424 199.415,207.772 201.941,207.403C203.522,207.171 205.065,207.044 206.372,207.204C209.11,207.539 212.353,208.302 215.489,209.362C218.596,210.412 221.602,211.749 223.893,213.268C225.778,214.518 227.621,216.311 229.626,217.547C230.676,218.194 231.768,218.701 232.916,218.97C237.074,219.945 242.655,219.144 249.414,219.96C251.493,220.211 253.689,220.625 255.994,221.314C256.873,221.58 257.803,221.081 258.068,220.202C258.334,219.323 257.835,218.393 256.956,218.128C254.459,217.367 252.079,216.905 249.826,216.621C243.227,215.789 237.769,216.587 233.712,215.614C232.919,215.424 232.174,215.053 231.452,214.602C229.484,213.376 227.685,211.595 225.835,210.355C223.328,208.674 220.041,207.171 216.634,206C213.26,204.84 209.768,204.007 206.818,203.63C205.23,203.428 203.35,203.541 201.425,203.813C198.828,204.179 196.141,204.829 194.07,205.238C193.078,205.437 192.434,206.403 192.632,207.395C192.831,208.386 193.797,209.031 194.789,208.832Z"/>
        <g transform="matrix(1,0,0,1,-11.4267,1.1813)">
            <path d="M137.483,221.51L137.473,221.512C137.23,221.586 137.028,221.685 136.818,221.828L136.481,222.096C127.699,227.3 123.89,231.329 124.756,232.184C123.772,233.39 124.715,233.233 127.392,231.817C129.669,230.921 133.338,228.839 138.35,225.237L138.951,224.858C139.855,224.281 142.574,222.405 144.035,222.169C146.203,221.823 148.242,221.655 150.278,221.671C152.334,221.687 154.385,221.885 156.56,222.226C162.024,223.149 168.09,225.78 174.051,226.636C176.85,227.038 179.627,227.067 182.329,226.416C185.467,225.669 190.146,223.548 194.659,222.431C197.349,221.766 199.967,221.433 202.035,222.256C203.01,222.63 204.105,222.143 204.48,221.167C204.854,220.192 204.366,219.097 203.391,218.722C201.246,217.93 198.689,217.934 195.996,218.453C190.863,219.443 185.177,222.285 181.535,223.24C179.241,223.835 176.87,223.843 174.48,223.527C168.541,222.741 162.503,220.103 157.063,219.209C154.74,218.799 152.546,218.562 150.344,218.488C148.136,218.414 145.919,218.511 143.555,218.81C141.921,219.012 138.912,220.681 137.483,221.51Z"/>
        </g>
        <path d="M193.82,243.661C194.183,243.049 195.064,242.587 196.019,242.11C197.802,241.221 199.904,240.477 201.184,239.812C203.635,238.563 207.405,237.489 211.22,237.083C214.904,236.691 218.634,236.893 221.164,238.167C222.896,239.07 225.447,239.767 228.084,240.13C230.623,240.479 233.239,240.5 235.278,240.129C238.859,239.437 243.837,237.12 248.276,236.088C250.025,235.681 251.666,235.382 253.105,235.791C253.988,236.085 254.944,235.607 255.238,234.724C255.532,233.842 255.054,232.886 254.172,232.592C252.234,231.847 249.913,231.803 247.467,232.273C243,233.13 238.112,235.738 234.547,236.474C232.844,236.846 230.644,236.883 228.501,236.663C226.276,236.434 224.107,235.949 222.628,235.239C219.631,233.752 215.242,233.452 210.888,233.895C206.637,234.327 202.425,235.443 199.674,236.791C198.154,237.523 195.517,238.332 193.556,239.369C192.263,240.052 191.248,240.877 190.698,241.741C190.168,242.602 190.437,243.732 191.299,244.262C192.16,244.792 193.29,244.523 193.82,243.661Z"/>
        <path d="M251.981,251.808L255.555,247.615C257.162,246.784 260.279,244.731 263.297,243.53C264.999,242.852 266.636,242.33 267.786,242.892C269.593,243.985 271.722,244.548 274.021,244.803C276.869,245.12 279.96,244.875 282.869,244.977C284.619,245.026 286.681,245.251 288.546,245.048C289.62,244.931 290.632,244.657 291.542,244.229C295.05,242.389 299.455,239.996 304.787,237.875C307.584,236.762 310.589,235.632 313.969,234.887C314.833,234.756 315.428,233.949 315.297,233.085C315.166,232.221 314.359,231.626 313.495,231.757C308.782,232.158 304.552,233.08 300.823,234.386C296.208,236.002 292.429,238.147 289.268,239.682C288.685,239.992 287.994,240.129 287.273,240.2C285.797,240.346 284.226,240.265 282.869,240.304C279.091,240.527 275.058,241.374 271.572,240.813C270.729,240.677 269.925,240.451 269.178,240.106C267.74,239.371 265.786,239.421 263.675,240.014C260.1,241.018 255.971,243.566 254.006,244.517C253.579,244.722 252.867,245.314 252.098,246.113C251.082,247.169 249.873,248.616 249.131,249.504C248.495,250.29 248.617,251.445 249.404,252.081C250.19,252.717 251.345,252.595 251.981,251.808Z"/>
        <g transform="matrix(1,0,0,1,8.55947,-4.13524)">
            <path d="M283.544,227.845C284.453,228.525 287.432,225.92 288.065,225.743L294.315,223.541C295.515,223.153 296.903,223.052 298.359,223.124C302.023,223.306 306.047,224.426 309.131,224.55C312.135,224.658 314.792,224.319 317.284,223.629C320.973,222.607 324.254,220.853 328.066,219.518L338.015,217.512C338.86,217.44 339.487,216.695 339.415,215.85C339.343,215.005 338.598,214.377 337.753,214.449C336.162,214.494 333.64,214.559 331.282,214.772C329.543,214.929 327.904,215.195 326.735,215.523C322.95,216.721 319.627,218.17 316.022,219.249C313.906,219.883 311.698,220.447 309.131,220.539C306.092,220.661 302.053,219.984 298.438,219.982C296.597,219.981 294.853,220.118 293.346,220.635L287.265,222.543C286.406,222.732 282.483,223.971 281.209,224.919C280.2,225.669 280.091,226.623 280.211,227.254C280.43,228.241 281.409,228.865 282.397,228.647C282.889,228.538 283.291,228.239 283.544,227.845Z"/>
        </g>
        <path d="M249.467,210.492L256.246,205.897C257.7,205.585 259.971,204.402 262.153,203.76C263.223,203.444 264.26,203.194 265.06,203.584C267.907,205.052 271.266,206.197 274.736,207.047C278.132,207.878 281.636,208.413 284.924,208.516C286.372,208.494 287.762,208.335 289.112,208.068C294.169,207.067 298.608,204.578 303.879,204.461L312.909,202.55C313.62,202.399 314.075,201.698 313.923,200.986C313.772,200.274 313.071,199.82 312.359,199.971L303.879,201.349C302.453,201.312 301.076,201.433 299.724,201.652C294.793,202.452 290.277,204.706 284.924,204.603C281.284,204.721 277.302,204.368 273.571,203.451C271.003,202.82 268.567,201.913 266.424,200.856C265.305,200.282 263.917,200.215 262.432,200.482C260.005,200.917 257.253,202.346 255.598,202.654C254.997,202.762 253.898,203.278 252.642,204.023C250.864,205.077 248.672,206.589 247.326,207.517C246.505,208.107 246.318,209.253 246.909,210.074C247.499,210.895 248.646,211.082 249.467,210.492Z"/>
        <path d="M226.575,192.062C228.217,190.761 230.452,189.578 232.748,188.751C235.185,187.874 237.676,187.365 239.547,187.484C240.219,187.532 240.942,187.798 241.679,188.149C243.791,189.154 245.987,190.721 247.775,191.192C251.635,192.223 255.946,193.798 260.182,194.7C262.142,195.118 264.086,195.389 265.97,195.422C268.235,195.461 270.494,195.254 272.742,194.926C275.984,194.453 279.2,193.715 282.376,193.13C283.171,192.981 284.053,193.011 284.954,193.029C287.514,193.08 290.221,193.439 291.811,193.721C292.702,193.945 293.608,193.403 293.832,192.512C294.056,191.621 293.514,190.715 292.622,190.491C291.373,190.036 289.508,189.253 287.433,188.868C285.44,188.499 283.314,188.552 281.536,188.93C278.425,189.602 275.28,190.423 272.102,190.994C270.071,191.358 268.028,191.627 265.97,191.663C263.766,191.701 261.454,191.36 259.137,190.857C255.498,190.067 251.85,188.9 248.541,188.128C246.633,187.676 244.206,185.897 242.005,185.037C241.238,184.738 240.494,184.525 239.784,184.459C237.581,184.252 234.624,184.742 231.706,185.657C229.009,186.503 226.354,187.726 224.376,189.129C223.567,189.736 223.402,190.886 224.009,191.695C224.616,192.504 225.766,192.668 226.575,192.062Z"/>
        <g transform="matrix(1,0,0,1,11.7175,-2.2961)">
            <path d="M325.36,187.396C325.27,187.329 325.071,187.614 324.986,187.703C325.088,187.596 325.213,187.492 325.36,187.396L325.39,187.433C325.731,188.281 322.697,187.722 321.891,187.949C319.83,188.536 317.541,188.472 315.239,188.085C311.438,187.447 307.621,186.006 304.57,185.074C301.531,184.064 299.448,181.166 296.328,179.467C294.956,178.72 293.419,178.161 291.576,177.989C289.193,177.75 286.999,177.718 284.921,177.935C282.593,178.179 280.413,178.759 278.28,179.748C277.373,180.196 277.001,181.296 277.449,182.203C277.898,183.109 278.998,183.481 279.905,183.033C281.636,182.121 283.424,181.546 285.35,181.249C287.21,180.962 289.187,180.913 291.341,181.029C292.734,181.114 293.915,181.483 294.958,182.03C298.258,183.762 300.458,186.785 303.644,187.851C306.76,188.98 310.655,190.634 314.558,191.525C317.4,192.174 320.245,192.392 322.861,191.828C323.608,191.665 325.164,191.763 326.154,191.583C326.748,191.474 327.23,191.259 327.593,191.015C327.795,191.04 329.033,191.195 329.863,191.319C331.412,191.552 333.105,191.71 334.26,191.903C335.161,192.16 336.1,191.637 336.357,190.736C336.614,189.836 336.091,188.896 335.191,188.64C333.649,188.061 331.182,187.061 329.215,186.762C327.532,186.507 326.142,186.867 325.36,187.396Z"/>
        </g>
        <path d="M202.122,178.125C204.996,176.26 207.657,173.926 210.692,172.091C212.51,170.992 214.465,170.077 216.693,169.582C218.158,169.274 220.655,169.151 223.138,169.317C225.517,169.477 227.884,169.889 229.261,170.591C231.348,171.668 234.254,173.07 237.221,173.704C239.325,174.154 241.46,174.204 243.409,173.589L250.982,170.188C252.622,169.398 255.772,168.484 258.947,168.074C260.331,167.896 261.718,167.886 262.989,167.904C264.332,167.922 265.548,167.897 266.439,168.394C267.137,168.869 268.088,168.688 268.563,167.99C269.038,167.292 268.857,166.34 268.159,165.865C266.384,164.524 263.439,163.965 260.285,164.166C256.092,164.434 251.601,165.993 249.444,167.113L242.401,170.563C240.969,171.066 239.38,171.036 237.809,170.747C235.098,170.248 232.437,169.01 230.516,168.08C229.161,167.418 227.023,166.982 224.734,166.741C221.543,166.405 218.055,166.436 216.137,166.805C213.563,167.264 211.285,168.222 209.142,169.377C206,171.068 203.176,173.23 200.181,174.937C199.301,175.472 199.022,176.622 199.557,177.501C200.093,178.381 201.242,178.661 202.122,178.125Z"/>
        <path d="M144.736,249.274C145.14,249.133 146.554,248.646 146.981,248.536L158.61,246.41C161.217,245.742 164.078,245.918 166.915,246.512C171.479,247.467 175.977,249.5 179.377,251.175L185.103,252.512C186.536,253.218 188.102,253.474 189.751,253.421C194.778,253.261 200.682,249.705 204.989,251.112C205.757,251.368 206.589,250.952 206.845,250.184C207.101,249.416 206.685,248.585 205.917,248.329C201.362,246.779 195.01,250.187 189.67,250.292C188.553,250.314 187.489,250.158 186.525,249.668L180.832,248.266C177.239,246.441 172.475,244.242 167.637,243.167C164.269,242.419 160.865,242.224 157.753,242.982L146.089,244.966C145.299,245.159 143.453,245.538 142.385,246.342C141.483,247.022 140.98,247.94 141.023,249.075C141.069,250.105 141.943,250.904 142.973,250.858C143.878,250.818 144.605,250.138 144.736,249.274Z"/>
    </g>
</svg>
