<?xml version="1.0" encoding="utf-8"?>
<!-- Generator: Adobe Adobe Illustrator 24.2.0, SVG Export Plug-In . SVG Version: 6.00 Build 0)  -->
<svg version="1.1" id="Ebene_1" xmlns="http://www.w3.org/2000/svg" xmlns:xlink="http://www.w3.org/1999/xlink" x="0px" y="0px"
	 width="512px" height="512px" viewBox="0 0 512 512" style="enable-background:new 0 0 512 512;" xml:space="preserve">
<style type="text/css">
	.st0{fill:none;stroke:#000000;stroke-width:30;stroke-miterlimit:10;}
	.st1{fill:none;stroke:#000000;stroke-width:8;stroke-miterlimit:10;}
</style>
<g>
	<path d="M38.17,505.76c-3.26,0-6.48-0.93-9.27-2.73c-7.86-5.08-18.63-20.67-26.28-32.85c-3.6-5.74-3.47-13.07,0.33-18.67
		c1.67-2.46,42-60.85,140.17-114.34c63.76-34.74,122.69-79.42,161.7-122.58c35.81-39.62,72.83-80.59,108.59-100.08
		c26-14.17,39.61-63.8,45.42-84.99c1-3.65,1.86-6.8,2.64-9.31c1.7-5.49,5.69-9.97,10.95-12.28c5.27-2.32,11.28-2.23,16.48,0.23
		c2.21,1.04,3.15,1.18,3.16,1.18c0.15,0.01,0.28,0.01,0.4,0.01c0.02,0,0.03,0,0.05,0c9.58,0.12,16.63,5.69,18.88,14.88
		c1.95,7.98,1.05,17.87-27.83,87.87c-0.43,1.04-0.82,2-1.18,2.85c0.6,1.82,1.47,4.21,2.22,6.28c7.03,19.4,20.12,55.5,8.73,98.02
		c-12.76,47.63-31.64,97.32-121.18,180.97c-40.5,37.84-85.74,63.35-138.31,77.99c-44.43,12.38-86.2,14.66-119.75,16.49
		c-10.76,0.59-20.93,1.14-29.98,1.97l0,0c-19.32,1.76-40.67,8.29-40.89,8.35C41.55,505.51,39.85,505.76,38.17,505.76z M48.1,474.82
		C48.1,474.82,48.1,474.82,48.1,474.82S48.1,474.82,48.1,474.82z M38.1,461.93c1.94,2.8,3.82,5.4,5.45,7.54
		c9.3-2.39,23.54-5.57,37.44-6.84h0c9.67-0.88,20.14-1.45,31.22-2.06c65.11-3.55,154.28-8.42,236.61-85.33
		c83.05-77.59,99.64-120.56,111.5-164.85c8.61-32.14-1.69-60.56-7.85-77.53c-0.66-1.81-1.28-3.52-1.84-5.15
		c-6.09,6.72-13.01,12.5-20.88,16.79c-30.66,16.71-67.28,57.23-99.59,92.99c-41.48,45.9-103.69,93.16-170.69,129.67
		C90.84,404.55,52.64,444.62,38.1,461.93z M477.83,28.89L477.83,28.89C477.83,28.89,477.83,28.89,477.83,28.89z"/>
	<path d="M26.41,483.58c-2.71,0-5.37-1.28-7.03-3.68c-2.69-3.88-1.72-9.2,2.15-11.88c23.08-16,50.47-25.67,72.47-33.44
		c60.69-21.42,134.76-58.34,168.59-80.26c47.34-30.68,84.21-57.92,127.83-129.44c45.54-74.66,75.85-144.59,81.26-172.48
		c0.9-4.63,5.37-7.66,10.01-6.76c4.63,0.9,7.66,5.38,6.76,10.01c-7.63,39.33-48.69,121.12-83.45,178.12
		c-45.5,74.61-83.88,102.96-133.13,134.88c-34.65,22.45-110.33,60.2-172.19,82.03c-21.04,7.43-47.22,16.67-68.42,31.37
		C29.78,483.09,28.09,483.58,26.41,483.58z"/>
</g>
</svg>
