<?xml version="1.0" encoding="utf-8"?>
<!-- Generator: Adobe Adobe Illustrator 24.2.0, SVG Export Plug-In . SVG Version: 6.00 Build 0)  -->
<svg version="1.1" id="Ebene_1" xmlns="http://www.w3.org/2000/svg" xmlns:xlink="http://www.w3.org/1999/xlink" x="0px" y="0px"
	 width="512px" height="512px" viewBox="0 0 512 512" style="enable-background:new 0 0 512 512;" xml:space="preserve">
<style type="text/css">
	.st0{fill:none;stroke:#000000;stroke-width:20;stroke-linecap:round;stroke-miterlimit:10;}
</style>
<g>
	<path d="M11.53,511.63c-0.75-0.06-1.5-0.22-2.24-0.49c-4.26-1.58-6.42-6.31-4.84-10.57c19-51.15,71.23-117.97,155.24-198.6
		c81.05-77.8,164.53-142.47,196.66-166.67c19.41-14.62,29.1-26.09,37.65-36.21c11.48-13.6,21.4-25.34,48.52-36.25
		c4.21-1.69,9,0.35,10.69,4.56c1.69,4.21-0.35,9-4.56,10.69c-23.33,9.38-31.2,18.7-42.09,31.6c-8.66,10.25-19.43,23-40.32,38.74
		c-31.89,24.02-114.76,88.21-195.17,165.4C90.02,391.62,37.74,458.17,19.86,506.29C18.55,509.8,15.1,511.9,11.53,511.63z"/>
	<path d="M343.98,162.84c-2.1-0.16-4.14-1.12-5.61-2.84c-2.96-3.44-2.56-8.63,0.88-11.59c22.76-19.55,46.01-13.41,64.69-8.47
		c10.44,2.76,20.31,5.37,29.28,3.87c4.48-0.75,8.72,2.27,9.46,6.75c0.75,4.48-2.27,8.72-6.75,9.46c-12.47,2.08-24.53-1.1-36.2-4.19
		c-18.01-4.76-33.57-8.87-49.77,5.05C348.24,162.35,346.08,163,343.98,162.84z"/>
	<path d="M203.08,280.39c-2.1-0.16-4.14-1.12-5.61-2.84c-2.96-3.45-2.56-8.63,0.88-11.59c18.36-15.77,58.49-36.53,90.26-33.29
		c13.32,1.36,23.69,6.73,30.82,15.96c2.78,3.59,2.12,8.76-1.48,11.53c-3.59,2.78-8.76,2.12-11.53-1.48
		c-4.33-5.6-10.7-8.76-19.48-9.66c-25.49-2.59-61.59,15.41-77.88,29.4C207.34,279.9,205.18,280.55,203.08,280.39z"/>
	<path d="M67.39,420.74c-1.55-0.12-3.09-0.68-4.42-1.71c-3.58-2.79-4.23-7.95-1.45-11.54c24.13-31.04,65.44-62.58,99.15-58.42
		c12.33,1.51,29.36,8.57,40.42,33.58c1.84,4.15-0.04,9.01-4.19,10.84c-4.15,1.84-9.01-0.04-10.84-4.19
		c-6.47-14.62-15.43-22.44-27.39-23.91c-12.04-1.47-27.12,3.48-43.59,14.35c-14.54,9.59-29.33,23.38-40.57,37.85
		C72.76,419.85,70.05,420.95,67.39,420.74z"/>
	<path d="M332.57,171.74c-1.71-0.13-3.4-0.79-4.79-2.01c-3.42-2.99-3.76-8.18-0.77-11.6c38.05-43.49,35.45-55.4,32.44-69.19
		c-1.52-6.98-3.25-14.89-1.18-25.99c0.83-4.46,5.11-7.41,9.59-6.57c4.46,0.83,7.41,5.13,6.57,9.59c-1.46,7.83-0.28,13.23,1.08,19.47
		c4.46,20.42,4.35,37.26-36.13,83.52C337.62,170.99,335.07,171.93,332.57,171.74z"/>
	<path d="M249.54,239.52c-2.1-0.16-4.14-1.12-5.61-2.84c-2.96-3.44-2.56-8.63,0.88-11.59c25.7-22.08,53.18-61.65,52.75-87.09
		c-0.12-7.34-2.55-12.8-7.41-16.7c-3.54-2.84-4.11-8.01-1.27-11.56c2.84-3.54,8.01-4.11,11.56-1.27
		c8.67,6.95,13.36,17.06,13.56,29.25c0.53,31.77-29.73,75.15-58.48,99.84C253.8,239.03,251.64,239.68,249.54,239.52z"/>
	<path d="M95.51,386.78c-1.82-0.14-3.6-0.88-5.02-2.22c-3.3-3.12-3.45-8.32-0.33-11.62c51.56-54.53,80.54-105.39,75.63-132.71
		c-1.42-7.9-5.74-13.53-13.21-17.21c-4.07-2.01-5.75-6.93-3.74-11.01c2.01-4.07,6.94-5.75,11.01-3.74
		c12.13,5.98,19.79,16.02,22.13,29.05c6,33.34-23.11,86.89-79.86,146.91C100.33,386.11,97.89,386.96,95.51,386.78z"/>
	<g>
		<ellipse transform="matrix(0.0757 -0.9971 0.9971 0.0757 -222.4627 581.4632)" cx="202.4" cy="410.72" rx="24.01" ry="24.62"/>
		<path d="M199.55,448.32c-21.07-1.6-36.93-19.77-35.36-40.5s20-36.3,41.07-34.7s36.93,19.77,35.36,40.5
			C239.04,434.36,220.62,449.92,199.55,448.32z M203.18,400.45c-6.01-0.46-11.24,3.78-11.67,9.45c-0.43,5.67,4.11,10.65,10.11,11.1
			c6.01,0.46,11.24-3.78,11.67-9.45C213.72,405.89,209.19,400.91,203.18,400.45z"/>
	</g>
	<path d="M127.83,353.29c-1.55-0.12-3.09-0.68-4.42-1.71c-3.58-2.79-4.23-7.95-1.45-11.54c22.78-29.31,61.23-50.26,91.42-49.81
		c14.5,0.21,25.86,5.37,32.82,14.91c2.68,3.67,1.88,8.81-1.79,11.49c-3.67,2.68-8.81,1.88-11.49-1.79
		c-4.81-6.58-13.41-8.07-19.79-8.17c-25.03-0.37-58.65,18.31-78.2,43.46C133.19,352.4,130.49,353.49,127.83,353.29z"/>
	<g>
		<ellipse transform="matrix(0.0757 -0.9971 0.9971 0.0757 -94.7277 566.9756)" cx="258.46" cy="334.58" rx="24.78" ry="25.51"/>
		<path d="M255.54,372.95c-21.56-1.64-37.79-20.18-36.18-41.34c1.61-21.16,20.45-37.04,42.01-35.4
			c21.56,1.64,37.79,20.18,36.18,41.34C295.94,358.71,277.1,374.59,255.54,372.95z M259.29,323.54
			c-6.49-0.49-12.15,4.06-12.61,10.15c-0.46,6.09,4.44,11.45,10.93,11.94c6.49,0.49,12.15-4.06,12.61-10.15
			C270.69,329.38,265.78,324.03,259.29,323.54z"/>
	</g>
	<g>
		<ellipse transform="matrix(0.0757 -0.9971 0.9971 0.0757 24.9894 578.3846)" cx="324.47" cy="275.71" rx="22.81" ry="23.32"/>
		<path d="M321.7,312.12c-20.35-1.54-35.67-19.14-34.15-39.21c1.52-20.08,19.32-35.15,39.67-33.61
			c20.35,1.54,35.67,19.13,34.15,39.21C359.85,298.59,342.06,313.67,321.7,312.12z M325.16,266.63c-5.29-0.4-9.9,3.35-10.28,8.36
			c-0.38,5.01,3.61,9.41,8.9,9.81c5.29,0.4,9.89-3.35,10.27-8.36C334.43,271.43,330.44,267.03,325.16,266.63z"/>
	</g>
	<path d="M272.78,218.24c-2.1-0.16-4.14-1.12-5.61-2.84c-2.96-3.44-2.56-8.63,0.88-11.59c24.99-21.47,86.64-45.78,115.37-15.71
		c3.14,3.28,3.02,8.49-0.26,11.62c-3.28,3.13-8.49,3.02-11.62-0.26c-18.82-19.7-69.25-3.37-92.76,16.83
		C277.04,217.76,274.88,218.4,272.78,218.24z"/>
	<g>
		<ellipse transform="matrix(0.0757 -0.9971 0.9971 0.0757 146.4268 604.2869)" cx="399.16" cy="223.16" rx="24.52" ry="23.85"/>
		<path d="M396.26,261.28c-20.65-1.57-36.15-19.94-34.55-40.96s19.69-36.84,40.34-35.27c20.65,1.57,36.15,19.94,34.55,40.96
			S416.91,262.84,396.26,261.28z M399.98,212.37c-5.58-0.42-10.49,4.07-10.94,10.02c-0.45,5.95,3.72,11.13,9.3,11.56
			c5.58,0.42,10.49-4.07,10.94-10.02C409.73,217.98,405.56,212.8,399.98,212.37z"/>
	</g>
	<g>
		<ellipse transform="matrix(0.0757 -0.9971 0.9971 0.0757 276.8013 605.2248)" cx="464.85" cy="153.31" rx="24.84" ry="25.48"/>
		<path d="M461.93,191.74c-21.54-1.64-37.76-20.21-36.16-41.4c1.61-21.19,20.44-37.11,41.99-35.47s37.76,20.21,36.16,41.4
			C502.31,177.47,483.48,193.38,461.93,191.74z M465.69,142.2c-6.48-0.49-12.13,4.09-12.59,10.22c-0.46,6.13,4.43,11.51,10.9,12
			c6.48,0.49,12.13-4.09,12.59-10.22C477.06,148.07,472.17,142.69,465.69,142.2z"/>
	</g>
	<g>
		<ellipse transform="matrix(0.9854 -0.1704 0.1704 0.9854 -4.3762 81.0931)" cx="470.26" cy="66.04" rx="24.13" ry="23.3"/>
		<path d="M467,102.97c-6.57-0.5-12.91-2.69-18.45-6.45c-8.34-5.67-13.87-14.2-15.57-24.03c-3.48-20.11,10.41-39.36,30.97-42.91
			c20.55-3.55,40.1,9.91,43.58,30.02c1.7,9.83-0.64,19.73-6.6,27.87c-5.85,8-14.5,13.34-24.37,15.05
			C473.36,103.06,470.15,103.21,467,102.97z M471.39,56.45c-0.9-0.07-1.83-0.03-2.77,0.13c-5.66,0.98-9.54,6.02-8.64,11.24l0,0
			c0.42,2.44,1.83,4.58,3.97,6.03c2.29,1.55,5.11,2.14,7.94,1.65s5.29-1.99,6.92-4.22c1.53-2.09,2.13-4.58,1.71-7.02
			C479.78,59.91,475.93,56.79,471.39,56.45z"/>
	</g>
	<g>
		<ellipse transform="matrix(0.9999 -0.0103 0.0103 0.9999 -0.3538 3.6978)" cx="359.55" cy="36.27" rx="22.91" ry="22.21"/>
		<path d="M356.66,72.07c-8.48-0.64-16.4-4.13-22.58-10.01c-7.08-6.73-11.03-15.76-11.13-25.43c-0.1-9.67,3.67-18.78,10.62-25.65
			c6.83-6.76,15.93-10.53,25.63-10.63c20.19-0.21,36.77,15.74,36.96,35.54c0.2,19.8-16.06,36.08-36.25,36.28
			C358.82,72.19,357.73,72.15,356.66,72.07z M360.33,27.78c-0.28-0.02-0.57-0.03-0.86-0.03c-2.54,0.03-4.89,0.99-6.63,2.71
			c-1.62,1.61-2.51,3.7-2.49,5.89c0.02,2.19,0.95,4.27,2.6,5.85c1.77,1.68,4.15,2.6,6.68,2.57l0,0c5.08-0.05,9.17-3.91,9.12-8.6
			C368.71,31.75,365,28.14,360.33,27.78z"/>
	</g>
	<g>
		<ellipse transform="matrix(0.9961 -0.0886 0.0886 0.9961 -6.8396 26.5333)" cx="295.51" cy="90.32" rx="22.97" ry="23.56"/>
		<path d="M292.86,127.48c-17.6-1.34-32.24-15.49-33.88-33.91c-0.88-9.85,2.06-19.46,8.26-27.06c6.28-7.7,15.15-12.43,24.98-13.3
			c20.14-1.79,38.01,13.41,39.83,33.87c0.88,9.85-2.06,19.46-8.26,27.06c-6.28,7.7-15.15,12.43-24.98,13.3
			C296.8,127.62,294.81,127.63,292.86,127.48z M296.08,80.49c-0.47-0.04-0.95-0.03-1.44,0.01c-2.4,0.21-4.59,1.39-6.16,3.32
			c-1.66,2.03-2.44,4.63-2.2,7.32c0.48,5.41,5,9.45,10.11,9c2.4-0.21,4.59-1.39,6.16-3.32c1.66-2.03,2.44-4.63,2.2-7.32
			C304.31,84.61,300.56,80.83,296.08,80.49z"/>
	</g>
	<g>
		<ellipse transform="matrix(0.9794 -0.202 0.202 0.9794 -37.3484 33.638)" cx="146.13" cy="199.8" rx="23.58" ry="23.72"/>
		<path d="M143.39,237.12c-16.18-1.23-30.32-13.06-33.77-29.79c-4.17-20.21,8.82-40.03,28.95-44.18c9.77-2.01,19.74-0.08,28.07,5.44
			c8.3,5.5,13.99,13.92,16,23.69c4.17,20.21-8.82,40.03-28.95,44.18l0,0C150.22,237.17,146.76,237.37,143.39,237.12z M150.92,223.04
			l0.01,0L150.92,223.04z M146.82,189.81c-0.9-0.07-1.81-0.01-2.72,0.18c-5.33,1.1-8.76,6.4-7.65,11.81
			c1.12,5.41,6.37,8.92,11.69,7.82c5.33-1.1,8.76-6.4,7.65-11.81c-0.54-2.64-2.07-4.9-4.3-6.38
			C150.07,190.48,148.47,189.93,146.82,189.81z"/>
	</g>
	<path d="M58.31,432.41c-1.66-0.13-3.3-0.76-4.67-1.91c-3.47-2.92-3.92-8.11-0.99-11.58c44.4-52.72,61.59-103.32,43.81-128.9
		c-2.59-3.73-1.67-8.85,2.06-11.44c3.73-2.59,8.85-1.67,11.44,2.06c11.27,16.21,12.89,38.81,4.68,65.35
		c-7.95,25.69-25.03,54.58-49.41,83.53C63.46,431.61,60.86,432.61,58.31,432.41z"/>
	<g>
		<ellipse transform="matrix(0.9794 -0.202 0.202 0.9794 -53.3239 21.2358)" cx="77.4" cy="271.92" rx="23.62" ry="23.52"/>
		<path d="M74.48,309.05c-6.21-0.47-12.23-2.5-17.58-6.01c-8.34-5.46-14.03-13.84-16.04-23.58s-0.09-19.7,5.4-28.01
			c5.48-8.3,13.87-13.97,23.63-15.98c9.75-2.01,19.7-0.12,28.02,5.33c8.34,5.46,14.03,13.84,16.04,23.58
			c2.01,9.75,0.09,19.7-5.4,28.01c-5.48,8.3-13.87,13.97-23.63,15.98C81.43,309.09,77.93,309.31,74.48,309.05z M78.21,262.12
			c-0.92-0.07-1.86-0.01-2.79,0.18c-2.61,0.54-4.84,2.05-6.3,4.26c-1.45,2.19-1.95,4.8-1.43,7.36c0.53,2.56,2.03,4.76,4.22,6.2
			c2.21,1.45,4.87,1.95,7.47,1.42l0,0c2.6-0.54,4.84-2.05,6.3-4.25c1.45-2.19,1.95-4.8,1.43-7.36c-0.53-2.56-2.03-4.76-4.22-6.2
			C81.47,262.79,79.86,262.25,78.21,262.12z"/>
	</g>
	<path d="M172.03,309.15c-1.89-0.14-3.75-0.94-5.19-2.39c-3.21-3.21-3.2-8.42,0.01-11.63c50.35-50.24,67.86-89.93,58.54-132.72
		c-0.97-4.44,1.85-8.82,6.28-9.78c4.44-0.96,8.82,1.85,9.78,6.28c10.52,48.29-8.91,93.9-62.99,147.86
		C176.7,308.53,174.34,309.32,172.03,309.15z"/>
	<g>
		<ellipse transform="matrix(0.9794 -0.202 0.202 0.9794 -22.4003 46.7988)" cx="218.1" cy="133.16" rx="26.62" ry="26.02"/>
		<path d="M214.72,172.8c-6.62-0.5-13.03-2.63-18.74-6.29c-9.05-5.81-15.22-14.76-17.37-25.21c-2.16-10.45-0.03-21.11,5.98-30.02
			c5.95-8.81,15-14.86,25.49-17.02c21.78-4.49,43.09,9.31,47.52,30.76c4.42,21.45-9.69,42.55-31.47,47.05l0,0
			C222.32,172.84,218.49,173.08,214.72,172.8z M223.36,158.64l0.01,0L223.36,158.64z M219.36,120.85c-1.22-0.09-2.48-0.02-3.74,0.24
			c-3.44,0.71-6.39,2.67-8.31,5.51c-1.85,2.75-2.51,6-1.86,9.16c0.65,3.16,2.55,5.89,5.33,7.68c2.89,1.85,6.37,2.48,9.81,1.77l0,0
			c6.98-1.44,11.54-8.02,10.17-14.67C229.64,125.1,224.88,121.27,219.36,120.85z"/>
	</g>
</g>
</svg>
