<?xml version="1.0" encoding="utf-8"?>
<!-- Generator: Adobe Adobe Illustrator 24.2.0, SVG Export Plug-In . SVG Version: 6.00 Build 0)  -->
<svg version="1.1" id="Ebene_1" xmlns="http://www.w3.org/2000/svg" xmlns:xlink="http://www.w3.org/1999/xlink" x="0px" y="0px"
	 width="512px" height="512px" viewBox="0 0 512 512" style="enable-background:new 0 0 512 512;" xml:space="preserve">
<g>
	<path d="M316.98,410.66h-263c-8.57,0-15.52-6.95-15.52-15.52V259.05c-0.09-4.13,1.45-8.29,4.63-11.42l141.85-140.91
		c3.5-3.45,8.22-4.9,12.75-4.35l260.27-1.03c0.02,0,0.04,0,0.06,0c4.11,0,8.05,1.63,10.96,4.53c2.93,2.92,4.56,6.87,4.56,11
		l-0.26,136.49c0.02,0.31,0.03,0.63,0.03,0.94c0,3.97-1.52,7.95-4.55,10.98L328.31,405.73
		C325.49,408.77,321.45,410.66,316.98,410.66z M69.51,379.61h231.96l0.27-105.95l-232.23,0.52V379.61z M332.8,258.15l-0.27,99.46
		L442.24,247.9l0.24-115.46l-240.39,0.95L91.95,243.08l223.47-0.5c0.61-0.07,1.23-0.13,1.87-0.11c8.57,0.01,15.52,6.97,15.51,15.54
		v0.08C332.8,258.11,332.8,258.13,332.8,258.15z"/>
	<path d="M317.27,273.34c-3.97,0-7.95-1.52-10.98-4.55c-6.06-6.06-6.06-15.89,0-21.95l140.67-140.7c6.06-6.06,15.89-6.06,21.95,0
		c6.06,6.06,6.06,15.89,0,21.95L328.24,268.79C325.22,271.82,321.25,273.34,317.27,273.34z"/>
</g>
</svg>
