<?xml version="1.0" encoding="utf-8"?>
<!-- Generator: Adobe Adobe Illustrator 24.2.0, SVG Export Plug-In . SVG Version: 6.00 Build 0)  -->
<svg version="1.1" id="Ebene_1" xmlns="http://www.w3.org/2000/svg" xmlns:xlink="http://www.w3.org/1999/xlink" x="0px" y="0px"
	 width="512px" height="512px" viewBox="0 0 512 512" style="enable-background:new 0 0 512 512;" xml:space="preserve">
<style type="text/css">
	.st0{fill:none;stroke:#000000;stroke-width:30;stroke-miterlimit:10;}
</style>
<g>
	<path d="M146.84,201.61l-7.95-32.7c5.05-1.28,10.17-2.47,15.22-3.55l7.33,32.85L146.84,201.61z"/>
	<path d="M234.71,189.16l-1.17-33.63c5.61-0.24,11.18-0.39,16.56-0.45l0.64,33.65L234.71,189.16z"/>
	<path d="M181.3,356.97c-79.32,0-136.8-3.06-164.73-30.85C5.58,315.18,0,301.22,0,284.61c0-26.14,14.3-51.02,41.37-71.93
		c23.4-18.09,56.02-32.92,94.45-42.98l-0.16-0.43l10.84-2.29l6.36-1.62l0.1,0.25l1.74-0.37c22.75-4.81,46.79-7.95,71.55-9.35
		l-0.21-0.55l15.58-0.17l3.26-0.14l0.04,0.11l5.25-0.06c1.93-0.02,3.87-0.03,5.82-0.03c25.9,0,51.46,1.89,75.99,5.62l9.64,1.46
		l0.04,0.11c3.09,0.54,6.16,1.1,9.2,1.7l9.18,1.59l0.12,0.33c38.22,8.33,71.47,21.15,97.29,37.6c35.68,22.74,54.54,50.8,54.54,81.16
		c0,15.98-5.49,29.55-16.33,40.33c-32.96,32.79-110.28,32.41-208.17,31.92c-11.81-0.06-24.02-0.12-36.31-0.12
		c-12.36,0-24.52,0.06-36.28,0.12C203.32,356.92,192.11,356.97,181.3,356.97z M251.2,323.08c12.37,0,24.63,0.06,36.48,0.12
		c82.91,0.42,161.22,0.81,184.26-22.12c4.43-4.41,6.41-9.49,6.41-16.47c0-31.81-41.94-62.93-104.64-80.66
		c2.75,8.35,5.09,16.04,6.92,22.7c5.3,19.3,7.99,32.57-2.46,40.74c-4.43,3.47-10.09,4.6-15.57,3.11
		c-8.53-2.32-14.15-9.46-25.08-31.84c-6.11-12.51-13.14-28.62-20.12-46.09c-13.99-1.82-28.32-3-42.83-3.55
		c4.49,12.76,8.31,24.6,11.14,34.57c6.17,21.67,9.13,35.43-1.65,43.82c-4.35,3.43-10.04,4.58-15.53,3.08
		c-8.53-2.33-14.16-9.49-25.12-31.93c-6.42-13.14-13.84-30.24-21.17-48.72c-14.2,0.98-28.11,2.57-41.59,4.77
		c4.18,12.18,7.68,23.33,10.18,32.47c4.23,15.5,8.61,31.53-2.57,40.3c-4.43,3.46-10.08,4.6-15.54,3.13
		c-8.2-2.22-13.75-9.03-23.8-29.16c-4.86-9.74-10.46-22.16-16.17-35.87c-60.67,18.15-99.1,48.47-99.1,79.11
		c0,7.63,2.05,13.07,6.65,17.65c21.82,21.71,95.95,21.33,174.44,20.94C226.55,323.14,238.75,323.08,251.2,323.08z"/>
</g>
</svg>
