<?xml version="1.0" encoding="utf-8"?>
<!-- Generator: Adobe Adobe Illustrator 24.2.0, SVG Export Plug-In . SVG Version: 6.00 Build 0)  -->
<svg version="1.1" xmlns="http://www.w3.org/2000/svg" xmlns:xlink="http://www.w3.org/1999/xlink" x="0px" y="0px" width="512px"
	 height="512px" viewBox="0 0 512 512" style="enable-background:new 0 0 512 512;" xml:space="preserve">
<style type="text/css">
	.st0{fill:none;stroke:#000000;stroke-width:30;stroke-linecap:round;stroke-linejoin:round;stroke-miterlimit:10;}
	.st1{fill:none;stroke:#000000;stroke-width:25;stroke-linecap:round;stroke-linejoin:round;stroke-miterlimit:10;}
	.st2{fill:none;stroke:#000000;stroke-width:10;stroke-linecap:round;stroke-linejoin:round;stroke-miterlimit:10;}
</style>
<g id="Ebene_1">
</g>
<g id="Ebene_2">
	<g>
		<path d="M254.09,510.88c-2.77,0-5.41-0.92-7.56-2.52c-1.79-0.47-3.5-1.35-5-2.64c-22.2-19.15-34.29-44.81-32.34-68.65
			c0.92-11.27,5.2-37.26,9.94-60.44c2.61-12.76,5.18-23.74,7.42-31.77c4.03-14.44,6.91-19.72,12.3-22.6
			c4.96-2.64,12.69-4.08,32.4,5.18c-6.28-51.34-6.41-71.49,4.09-80.14c3.86-3.18,8.75-4.33,13.65-3.26
			c1.47-5.64,1.42-17.95,1.4-24.35c-0.05-13.45-0.08-24.07,4.29-31.36c2.54-4.24,6.58-7.09,11.39-8.03
			c5.66-1.11,11.2,0.49,16.89,3.55c0-1.31,0-2.6,0-3.85c0.02-45.06,1.47-60.19,10.47-67.06c3.74-2.86,8.48-3.78,13.01-2.55
			c7.23,1.96,12.36,8.58,29.43,33.79c0.99-5.42,2-10.87,2.96-15.54c2.39-11.65,3.7-18.07,10.43-21.24
			c2.81-1.33,10.23-3.57,17.87,4.57c1.83,1.95,3.77,4.54,6.13,8.15c3.75,5.76,7.89,13.14,11.89,20.28c0.76,1.35,1.57,2.81,2.41,4.28
			c2.41-2.99,4.88-5.96,7.09-8.56c16.85-19.88,21.44-23.42,28.96-22.27c4.45,0.69,8.15,3.58,9.89,7.73
			c10.67,25.38,17.29,55.67,19.13,87.61c0.01,0.11,0.02,0.21,0.02,0.32c3.57,62.62-11.06,126.49-39.14,170.85
			c-38.65,61.1-113.96,110.99-196.56,130.19C256,510.77,255.04,510.88,254.09,510.88z M252.29,346.8
			c-5.53,17.81-16.04,69.21-17.93,92.32c-1.44,17.64,9.9,34.8,21.67,45.69c34.69-8.64,68.85-23.45,99.08-42.99
			c32.83-21.21,59.49-47.13,77.09-74.96c25.32-40.01,38.5-98.16,35.28-155.62c-0.01-0.1-0.02-0.21-0.02-0.31
			c-1.25-21.96-4.92-42.96-10.75-61.75c-0.88,1.02-1.81,2.1-2.78,3.25c-7.93,9.36-14.26,17.58-15.8,20.13
			c-2.39,3.98-6.78,6.4-11.39,6.34c-9-0.14-12.67-6.7-23.59-26.18c-0.72-1.29-1.53-2.73-2.38-4.24c-0.56,3.09-1.09,6-1.52,8.42
			c-0.93,5.16-1.8,10.03-2.49,13.6c-1.28,6.61-2.3,11.84-8.26,14.74c-2.66,1.31-9.68,3.54-16.95-4.14c-1.38-1.46-2.95-3.39-4.96-6.1
			c-3.28-4.43-7.27-10.32-11.49-16.56c-1.84-2.72-4.09-6.04-6.38-9.37c-0.47,10.61-0.47,23.09-0.47,30.89
			c-0.01,16.71-0.07,24.95-1.31,29.69c-1.11,4.18-4.18,7.48-8.21,8.87c-6.92,2.39-11.82-1.29-17.49-5.55
			c-1.2-0.9-3.29-2.47-5.48-3.99c-0.11,3.5-0.09,7.42-0.08,10.56c0.07,18.48,0.13,37.6-11.95,46.39c-2.6,1.89-6.39,3.74-11.41,3.94
			c-1.02,14.17,3.04,46.57,4.71,59.95c1.26,10.04,2.16,17.29,2.27,21.38c0.14,5.3-3.05,10.11-7.98,12.06
			c-4.88,1.93-10.44,0.64-13.96-3.23C273.86,356.78,260.46,349.71,252.29,346.8z M277.22,359.96c0.02,0.02,0.03,0.04,0.05,0.06
			C277.25,360,277.24,359.98,277.22,359.96z M316.59,200.8L316.59,200.8z M416.51,159.51c-0.01,0.02-0.02,0.03-0.03,0.05
			C416.49,159.54,416.5,159.53,416.51,159.51z M450.22,131.35c0,0.01,0.01,0.02,0.01,0.02
			C450.23,131.37,450.22,131.36,450.22,131.35z"/>
		<path d="M249.79,501.21c-1.62,0-3.21-0.78-4.18-2.21c-1.57-2.31-0.96-5.45,1.34-7.01c76.51-51.92,119.84-94.58,136.36-134.25
			c24.4-58.6,31.39-105.8,21.99-148.55c-0.6-2.72,1.12-5.42,3.85-6.02c2.72-0.6,5.42,1.12,6.02,3.85
			c12.96,58.96-6.65,116.47-22.53,154.6c-17.31,41.57-61.8,85.66-140.01,138.73C251.75,500.93,250.76,501.21,249.79,501.21z"/>
		<path d="M391.37,352.83c-2.66,0-4.89-2.09-5.04-4.78c-0.03-0.59-3.6-59.81-34.11-103.78c-1.59-2.29-1.02-5.44,1.27-7.03
			c2.29-1.59,5.44-1.02,7.03,1.27c32.18,46.38,35.76,106.46,35.9,109c0.15,2.78-1.99,5.16-4.77,5.31
			C391.56,352.83,391.46,352.83,391.37,352.83z"/>
		<path d="M323.1,445.6c-1.44,0-2.86-0.61-3.86-1.79c-1.8-2.13-1.53-5.32,0.61-7.11c20.32-17.13,15.62-82.24-2.6-116.52
			c-1.31-2.46-0.37-5.52,2.09-6.83c2.46-1.31,5.52-0.37,6.83,2.09c9.59,18.04,16.1,44.72,16.99,69.64
			c0.59,16.37-0.81,45.85-16.81,59.34C325.4,445.21,324.25,445.6,323.1,445.6z"/>
		<path d="M88.35,429.13c-5.26,0-10.64-0.4-16.07-1.22c-1.96-0.3-3.74-1.02-5.27-2.08c-3.51-0.78-6.66-3.05-8.45-6.48
			C19.36,344.15,8.18,254.5,29.4,185.39c12.11-39.47,38.52-80.38,74.35-115.19c0.1-0.1,0.2-0.19,0.3-0.28
			c33.07-32.06,71.69-56.27,108.77-68.18c4.22-1.37,8.97-0.41,12.35,2.52c5.88,5.1,5.05,12.34,4,21.51
			c-0.67,5.8-1.77,13.28-3.12,21.05c-0.22,1.24-0.51,2.92-0.87,4.83c1.67-0.33,3.32-0.66,4.84-0.97c8.02-1.61,16.31-3.28,23.12-4.18
			c4.27-0.57,7.5-0.77,10.17-0.66c11.15,0.5,14.28,7.58,15.1,10.6c1.97,7.16-2.05,12.33-9.33,21.73c-2.92,3.76-6.39,8.09-9.87,12.37
			c30.24-3.46,38.62-3.87,44.83,0.35c3.86,2.61,6.24,6.81,6.51,11.51c0.65,11.31-9.88,22.25-44.04,51.59
			c-0.96,0.82-1.95,1.67-2.95,2.53c6.03,2.33,10.86,5.5,13.69,10.52c2.41,4.26,2.88,9.19,1.31,13.88
			c-2.68,8.05-10.77,14.94-21.01,23.66c-4.87,4.15-14.25,12.13-17.57,16.92c4,3.01,6.31,7.48,6.41,12.48
			c0.27,13.61-15.11,26.63-58.16,55.29c19.86,8.94,23.8,15.73,25.02,21.21c1.33,5.98-0.81,11.6-9.14,24.07
			c-4.63,6.93-11.3,16.03-19.28,26.32c-14.52,18.71-31.46,38.87-39.41,46.9C131.76,421.56,111.14,429.13,88.35,429.13z M78.71,403.3
			c15.92,1.84,36.33-0.72,48.78-13.3c13.58-13.71,48.07-57.07,58.43-73.7c-7.52-4.31-21.64-9.9-26.41-10.38
			c-5.23-0.16-9.83-3.54-11.55-8.5c-1.73-5.01-0.15-10.56,3.96-13.91c3.18-2.59,9.27-6.62,17.7-12.2
			c11.25-7.44,38.48-25.46,48.58-35.46c-3.11-3.94-4.18-8.01-4.43-11.22c-1.2-14.9,13.35-27.29,27.43-39.28
			c2.39-2.03,5.37-4.58,7.96-6.94c-2.57-0.67-5.13-1.24-6.59-1.56c-6.93-1.53-12.92-2.85-15.6-9.68c-1.56-3.99-1.04-8.47,1.4-12
			c2.77-4.01,9-9.43,21.69-20.34c5.91-5.08,15.36-13.19,23.11-20.45c-4.02,0.42-7.98,0.88-11.24,1.25
			c-7.48,0.86-14.55,1.67-20.06,2.06c-3.36,0.24-5.86,0.3-7.87,0.21c-10.54-0.52-13.43-7.28-14.18-10.17
			c-1.67-6.42,1.63-10.59,5.82-15.87c2.26-2.85,5.39-6.69,8.7-10.75c1.55-1.9,3.42-4.19,5.39-6.63c-1.69,0.33-3.3,0.66-4.74,0.95
			c-21.9,4.4-29.27,5.88-35.24-0.85c-3.07-3.46-4.07-8.36-2.62-12.77c0.69-2.1,2.25-9.02,4.04-19.3c0.64-3.67,1.17-7.03,1.63-10.04
			c-28.01,12.1-56.37,31.47-81.44,55.84c-0.1,0.09-0.19,0.18-0.29,0.27c-32.7,31.84-56.68,68.84-67.53,104.22
			c-9.66,31.47-11.98,68.58-6.71,107.31C51.69,335.77,62.68,371.34,78.71,403.3z M159.59,305.92c0.03,0,0.05,0,0.08,0
			C159.64,305.92,159.61,305.92,159.59,305.92z M225.4,242.07c0,0,0.01,0,0.01,0.01C225.41,242.07,225.4,242.07,225.4,242.07z
			 M220.57,25.76c-0.02,0.01-0.03,0.01-0.05,0.02C220.54,25.77,220.56,25.77,220.57,25.76z"/>
		<path d="M74.15,420.47c-2.53,0-4.72-1.9-5.01-4.48C58.5,322.08,62.99,259.61,83.28,219.4c38.84-77,77.2-104.09,102.67-117.76
			c2.46-1.32,5.52-0.4,6.84,2.06c1.32,2.46,0.4,5.52-2.06,6.84c-38.57,20.7-69.85,56.74-98.43,113.41
			c-19.36,38.37-23.53,99.04-13.12,190.91c0.31,2.77-1.68,5.27-4.45,5.58C74.53,420.46,74.34,420.47,74.15,420.47z"/>
		<path d="M94.59,216.39c-1.52,0-3.01-0.68-4.01-1.97c-1.7-2.21-1.28-5.38,0.93-7.08c2.01-1.55,49.95-37.95,106.1-43.72
			c2.79-0.29,5.25,1.73,5.54,4.51c0.29,2.77-1.73,5.25-4.51,5.54c-53.24,5.47-100.51,41.32-100.98,41.68
			C96.74,216.05,95.66,216.39,94.59,216.39z"/>
		<path d="M68.63,328.62c-2.77,0-5.02-2.23-5.05-5.01c-0.08-8.98,4.25-27.6,34.1-51.39c19.5-15.54,43.99-27.97,63.92-32.44
			c2.72-0.61,5.42,1.1,6.03,3.82c0.61,2.72-1.1,5.42-3.82,6.03c-37.88,8.5-90.36,47.32-90.13,73.89c0.02,2.79-2.22,5.07-5.01,5.09
			C68.66,328.62,68.65,328.62,68.63,328.62z"/>
		<path d="M239.19,510.54c-24.34,0-57.34-5.47-87.04-19.12c-53.72-24.7-82.58-58.13-90.15-67.79c-4.3-5.49-3.34-13.42,2.15-17.72
			c5.49-4.3,13.42-3.34,17.72,2.15c6.68,8.53,32.26,38.1,80.82,60.42c34.91,16.05,73.86,18.31,90.21,15.97
			c6.9-0.99,13.3,3.81,14.28,10.71c0.99,6.9-3.8,13.3-10.71,14.29C251.48,510.16,245.64,510.54,239.19,510.54z"/>
		<path d="M444.29,156.9c-3.81,0-7.57-1.71-10.05-4.98c-23.81-31.27-55.7-56.67-92.24-73.47c-40.2-18.48-84.13-25.82-127.05-21.24
			c-6.94,0.74-13.15-4.28-13.89-11.21c-0.74-6.93,4.28-13.15,11.21-13.89c47.44-5.06,95.95,3.03,140.27,23.41
			c40.28,18.52,75.48,46.56,101.78,81.11c4.22,5.55,3.15,13.47-2.4,17.69C449.64,156.06,446.95,156.9,444.29,156.9z"/>
	</g>
</g>
</svg>
