<?xml version="1.0" encoding="utf-8"?>
<!-- Generator: Adobe Adobe Illustrator 24.2.0, SVG Export Plug-In . SVG Version: 6.00 Build 0)  -->
<svg version="1.1" id="Ebene_1" xmlns="http://www.w3.org/2000/svg" xmlns:xlink="http://www.w3.org/1999/xlink" x="0px" y="0px"
	 width="512px" height="512px" viewBox="0 0 512 512" style="enable-background:new 0 0 512 512;" xml:space="preserve">
<style type="text/css">
	.st0{fill:none;stroke:#000000;stroke-width:30;stroke-miterlimit:10;}
</style>
<g>
	<rect x="109.93" y="60.12" width="33.7" height="391.76"/>
	<rect x="368.37" y="60.12" width="33.7" height="391.76"/>
	<path d="M256,120.24c-36.29,0-70.64-4.81-96.72-13.54c-40.79-13.66-49.35-32.87-49.35-46.57s8.56-32.92,49.35-46.57
		C185.36,4.81,219.71,0,256,0s70.64,4.81,96.72,13.54c40.79,13.66,49.35,32.87,49.35,46.57s-8.56,32.92-49.35,46.57
		C326.64,115.43,292.29,120.24,256,120.24z M143.79,60.12c1.51,2.6,9.25,9.61,30.8,16.08c22.19,6.67,51.1,10.34,81.4,10.34
		c30.3,0,59.21-3.67,81.4-10.34c21.55-6.47,29.29-13.48,30.8-16.08c-1.51-2.6-9.25-9.61-30.8-16.08
		C315.21,37.37,286.3,33.7,256,33.7c-30.3,0-59.21,3.67-81.4,10.34C153.04,50.51,145.3,57.52,143.79,60.12z"/>
	<path d="M256,512c-36.29,0-70.64-4.81-96.72-13.55c-40.79-13.66-49.35-32.87-49.35-46.57h33.7c0-0.24-0.04-0.43-0.06-0.48
		c0.72,2.1,7.98,9.64,31.03,16.56c22.19,6.67,51.1,10.34,81.4,10.34s59.21-3.67,81.4-10.34c23.05-6.92,30.3-14.46,31.03-16.56
		c-0.02,0.05-0.06,0.23-0.06,0.48h33.7c0,13.71-8.56,32.92-49.35,46.57C326.64,507.19,292.29,512,256,512z"/>
</g>
<path d="M186.55,291.24v-70.47c0-5.6,4.54-10.14,10.14-10.14h118.62c5.6,0,10.14,4.54,10.14,10.14v70.47
	c0,5.6-4.54,10.14-10.14,10.14H196.69C191.09,301.37,186.55,296.84,186.55,291.24z"/>
</svg>
