<?xml version="1.0" encoding="utf-8"?>
<!-- Generator: Adobe Adobe Illustrator 24.2.0, SVG Export Plug-In . SVG Version: 6.00 Build 0)  -->
<svg version="1.1" id="Ebene_1" xmlns="http://www.w3.org/2000/svg" xmlns:xlink="http://www.w3.org/1999/xlink" x="0px" y="0px"
	 width="512px" height="512px" viewBox="0 0 512 512" style="enable-background:new 0 0 512 512;" xml:space="preserve">
<style type="text/css">
	.st0{fill:none;stroke:#000000;stroke-width:30;stroke-miterlimit:10;}
	.st1{stroke:#000000;stroke-width:4;stroke-miterlimit:10;}
</style>
<polygon points="323.06,360.3 301.85,339.09 469.1,171.84 339.76,42.5 191.12,191.14 169.91,169.93 339.76,0.07 511.53,171.84 "/>
<polygon points="171.84,511.53 0.07,339.76 94.29,245.55 115.5,266.76 42.5,339.76 171.84,469.1 240.31,400.63 261.53,421.84 "/>
<g>
	<polygon points="417.94,195.34 395.61,173.06 417.94,150.77 440.27,173.06 	"/>
	<path d="M417.94,198.17l-25.16-25.11l25.16-25.11l25.16,25.11L417.94,198.17z M398.44,173.06l19.5,19.46l19.5-19.46l-19.5-19.46
		L398.44,173.06z"/>
</g>
<g>
	<polygon points="340.44,117.84 318.11,95.56 340.44,73.27 362.77,95.56 	"/>
	<path d="M340.44,120.67l-25.16-25.11l25.16-25.11l25.16,25.11L340.44,120.67z M320.94,95.56l19.5,19.46l19.5-19.46l-19.5-19.46
		L320.94,95.56z"/>
</g>
<g>
	<polygon points="379.96,157.36 357.63,135.08 379.96,112.79 402.29,135.08 	"/>
	<path d="M379.96,160.19l-25.16-25.11l25.16-25.11l25.16,25.11L379.96,160.19z M360.46,135.08l19.5,19.46l19.5-19.46l-19.5-19.46
		L360.46,135.08z"/>
</g>
<g>
	<polygon points="380.72,234.1 358.39,211.82 380.72,189.53 403.05,211.82 	"/>
	<path d="M380.72,236.93l-25.16-25.11l25.16-25.11l25.16,25.11L380.72,236.93z M361.22,211.81l19.5,19.46l19.5-19.46l-19.5-19.46
		L361.22,211.81z"/>
</g>
<g>
	<polygon points="303.22,156.6 280.9,134.32 303.22,112.03 325.55,134.32 	"/>
	<path d="M303.22,159.43l-25.16-25.11l25.16-25.11l25.16,25.11L303.22,159.43z M283.73,134.32l19.5,19.46l19.5-19.46l-19.5-19.46
		L283.73,134.32z"/>
</g>
<g>
	<polygon points="342.74,196.12 320.41,173.84 342.74,151.55 365.07,173.84 	"/>
	<path d="M342.74,198.95l-25.16-25.11l25.16-25.11l25.16,25.11L342.74,198.95z M323.25,173.84l19.5,19.46l19.5-19.46l-19.5-19.46
		L323.25,173.84z"/>
</g>
<g>
	<polygon points="264.48,193.81 242.15,171.52 264.48,149.24 286.81,171.52 	"/>
	<path d="M264.48,196.64l-25.16-25.11l25.16-25.11l25.16,25.11L264.48,196.64z M244.98,171.52l19.5,19.46l19.5-19.46l-19.5-19.46
		L244.98,171.52z"/>
</g>
<g>
	<polygon points="304,233.33 281.67,211.04 304,188.76 326.33,211.04 	"/>
	<path d="M304,236.15l-25.16-25.11L304,185.93l25.16,25.11L304,236.15z M284.5,211.04L304,230.5l19.5-19.46L304,191.58L284.5,211.04
		z"/>
</g>
<g>
	<polygon points="227.26,232.57 204.93,210.28 227.26,188 249.59,210.28 	"/>
	<path d="M227.26,235.39l-25.16-25.11l25.16-25.11l25.16,25.11L227.26,235.39z M207.76,210.28l19.5,19.46l19.5-19.46l-19.5-19.46
		L207.76,210.28z"/>
</g>
<g>
	<polygon points="266.78,272.09 244.45,249.8 266.78,227.52 289.11,249.8 	"/>
	<path d="M266.78,274.91l-25.16-25.11l25.16-25.11l25.16,25.11L266.78,274.91z M247.28,249.8l19.5,19.46l19.5-19.46l-19.5-19.46
		L247.28,249.8z"/>
</g>
<g>
	<polygon points="395.64,173.07 417.93,150.74 440.21,173.07 417.93,195.4 	"/>
	<path d="M417.93,198.23l-25.11-25.16l25.11-25.16l25.11,25.16L417.93,198.23z M398.47,173.07l19.46,19.5l19.46-19.5l-19.46-19.5
		L398.47,173.07z"/>
</g>
<g>
	<polygon points="403,211.81 380.72,234.14 358.43,211.81 380.72,189.48 	"/>
	<path d="M380.72,236.97l-25.11-25.16l25.11-25.16l25.11,25.16L380.72,236.97z M361.26,211.81l19.46,19.5l19.46-19.5l-19.46-19.5
		L361.26,211.81z"/>
</g>
<g>
	<polygon points="327.05,287.76 304.76,310.09 282.48,287.76 304.76,265.43 	"/>
	<path d="M304.76,312.92l-25.11-25.16l25.11-25.16l25.11,25.16L304.76,312.92z M285.3,287.76l19.46,19.5l19.46-19.5l-19.46-19.5
		L285.3,287.76z"/>
</g>
<g>
	<polygon points="365.02,249.79 342.74,272.12 320.45,249.79 342.74,227.46 	"/>
	<path d="M342.74,274.95l-25.11-25.16l25.11-25.16l25.11,25.16L342.74,274.95z M323.28,249.79l19.46,19.5l19.46-19.5l-19.46-19.5
		L323.28,249.79z"/>
</g>
<path d="M303.44,481.94c-4.1,0-8.11-1.66-11.03-4.75l-0.02-0.02L52.96,222.88c-3.63-3.85-4.99-9.42-3.56-14.52
	c1.44-5.1,5.51-9.13,10.62-10.52l126.18-34.4l141.65,181.61l-9.29,122.87c-0.44,5.96-4.38,11.13-10.04,13.15
	C306.86,481.65,305.14,481.94,303.44,481.94z M288.65,465.62c0,0.02,0,0.04,0,0.07L288.65,465.62z M91.73,220.29l199.45,211.83
	l5.88-77.78L174.83,197.63L91.73,220.29z"/>
</svg>
