<?xml version="1.0" encoding="utf-8"?>
<!-- Generator: Adobe Adobe Illustrator 24.2.0, SVG Export Plug-In . SVG Version: 6.00 Build 0)  -->
<svg version="1.1" id="Ebene_1" xmlns="http://www.w3.org/2000/svg" xmlns:xlink="http://www.w3.org/1999/xlink" x="0px" y="0px"
	 width="512px" height="512px" viewBox="0 0 512 512" style="enable-background:new 0 0 512 512;" xml:space="preserve">
<path d="M277.89,511.2c-49.93,0-99.31-20.05-146.22-41.24c-24.88-11.24-55.85-25.23-78.29-49.65
	c-18.7-20.34-31.75-48.57-37.73-81.61c-5.3-29.34-4.83-59.08-4.42-85.32c0.32-20.44,0.67-43.6,6.22-66.07
	c6.28-25.39,19.05-50.33,39.05-76.23c29.18-37.82,67.12-69,109.72-90.16c15.45-7.69,40.17-11.11,58.22-13.62
	c5.5-0.76,11.18-1.55,13.3-2.08c6.12-1.52,11.75-2.85,17.22-4.09c7.59-1.71,15.23,2.67,17.59,10.09
	c7.63,24.02,25.19,43.42,48.17,53.21c6.72,2.87,10.29,10.07,8.78,16.99c-0.86,4.39-1.3,8.89-1.3,13.36c0,15,2.77,28.33,8,38.54
	c7.79,15.21,21.02,23.8,40.44,26.28c6.51,0.83,11.72,5.79,12.87,12.25c5.67,31.8,32.75,54.88,64.4,54.88c8.95,0,17.8-1.8,26.29-5.36
	c5.14-2.15,11.05-1.28,15.34,2.27s6.27,9.18,5.14,14.64c-1.45,6.95-3.08,14.28-5.12,23.07c-10.86,46.83-24.88,100.76-53.93,148.19
	c-31.71,51.74-78.37,87.46-128.02,98.01C301.69,510.07,289.77,511.2,277.89,511.2z M248.97,33.37c-1.32,0.32-2.65,0.65-4.02,0.99
	c-3.65,0.91-9,1.65-16.4,2.67c-14.18,1.97-37.91,5.26-48.98,10.76c-38.56,19.16-72.9,47.38-99.32,81.63
	c-17.4,22.54-28.42,43.83-33.67,65.1c-4.73,19.15-5.05,39.58-5.35,59.34c-0.39,24.87-0.83,53.05,3.95,79.52
	c4.96,27.44,15.44,50.49,30.3,66.65c16.94,18.44,40.07,29.75,68.55,42.61c55.76,25.18,110.22,46.84,163.37,35.56
	c41.63-8.84,81.24-39.58,108.67-84.34c26.42-43.13,39.68-93.67,49.96-137.88c-4.01,0.51-8.05,0.76-12.1,0.76
	c-42.66,0-79.61-28.54-91.5-69.23c-23.96-5.6-42.12-19.45-52.9-40.49c-7.39-14.43-11.3-32.48-11.3-52.22c0-2.61,0.1-5.23,0.31-7.83
	C276.68,74.93,259.32,56.14,248.97,33.37z"/>
<path d="M121.92,328.41c-4.92,0-10.49-2.99-13.96-7.56c-1.22-1.52-2.17-3.3-2.75-5.25c-0.43-1.39-0.67-2.84-0.67-4.34
	c0-4.68,2.08-8.88,5.37-11.67c4.81-4.86,10.94-5.27,15.33-3.91c5.25,1.64,9.06,5.9,10.21,11.1c0.1,0.27,0.2,0.53,0.28,0.74
	c2.49,6.53,0.58,11.44-1.47,14.4C131.47,325.98,126.85,328.41,121.92,328.41z M105.81,310.12L105.81,310.12
	C105.81,310.12,105.81,310.12,105.81,310.12z M135.81,310.08c0,0,0,0.01,0,0.02C135.81,310.09,135.81,310.09,135.81,310.08z
	 M135.81,310.07C135.81,310.07,135.81,310.07,135.81,310.07C135.81,310.07,135.81,310.07,135.81,310.07z"/>
<path d="M192.2,258.12c-2.24,0-8.2,0-25.06-8.5c-13.05-6.58-21.6-11.65-21.6-21.83c0-2.74,1.04-11.55,2.68-19.14
	c1.15-5.31,2.45-9.56,3.99-12.97c5.21-11.57,13.49-13.3,17.96-13.3c9.22,0,19.92,8.54,30.99,18.06c4.3,3.69,8.7,7.72,12.07,11.04
	c5.05,4.96,9.41,9.25,9.41,16.32c0,7.77-6.62,15.58-8.8,18.14C206.97,254.01,199.69,258.12,192.2,258.12z"/>
<path d="M219.27,374.64c-3.55,0-7.05-0.65-9.37-1.2c-1.42-0.34-2.7-0.71-3.81-1.1c-8.01-2.85-10.87-9.41-10.87-14.61
	c0-2.34,0.78-14.08,16.21-15.47c1.83-0.16,4.06-0.26,6.18-0.28c1.14-0.21,3.62-1,4.72-1.35c0.9-0.29,1.67-0.53,2.23-0.69
	c6.4-1.82,11,0.18,13.74,2.17c3.87,2.82,6.17,7.35,6.17,12.14c0,8.89-7.02,13.25-10.8,15.59
	C228.48,373.07,223.77,374.64,219.27,374.64z M219.28,344.64L219.28,344.64L219.28,344.64z M218.11,341.99
	C218.11,341.99,218.11,341.99,218.11,341.99C218.11,341.99,218.11,341.99,218.11,341.99z"/>
<path d="M241.77,120.48c-12.28,0-21.55-8.05-21.55-18.73s9.26-18.73,21.55-18.73s21.55,8.05,21.55,18.73
	S254.05,120.48,241.77,120.48z"/>
<path d="M269.2,238.31c-6.08,0-13.12-3.91-15.14-12.64c-0.27-1.18-0.49-2.55-0.65-4.17c-0.22-2.2-0.33-4.53-0.33-5.48
	c0-9.25,7.08-16.49,16.12-16.49c4.49,0,8.74,1.96,11.65,5.39c4.24,4.99,3.91,10.54,3.47,13.64c0.43,3.63,0.77,9.53-3.69,14.59
	C277.74,236.42,273.57,238.31,269.2,238.31z M283.34,219.13L283.34,219.13L283.34,219.13z"/>
<path d="M307.44,319.87c-3.98,0-7.79-1.58-10.61-4.39c-2.81-2.81-4.39-6.63-4.39-10.61c0-5.89,1.82-7.98,10.58-17.98
	c6.16-7.04,10.23-11.69,16.13-12.87c2.57-0.63,5.41-0.54,8.61,0.64c5.9,2.19,9.87,7.9,9.87,14.22c0,1.22-0.02,2.33-0.04,3.13
	c-0.32,9.84-6.9,14.29-12.46,15.35c-1.4,1.59-3.11,3.55-5.19,5.98C317.99,315.62,314.35,319.87,307.44,319.87z M337.43,291.27
	L337.43,291.27L337.43,291.27z"/>
<path d="M337.19,423.42c-6.75,0-13-3.56-17.16-9.77c-1.25-1.86-4.14-6.73-4.14-11.77c0-1.92,0.58-11.68,12.07-14.91
	c1.44-0.4,2.99-0.73,4.04-0.93c2.08-0.4,6.12-1.07,9.84-1.07c5.98,0,10.78,1.79,14.27,5.31c3.08,3.11,4.76,7.26,4.72,11.69
	c0,3.22-0.83,7.84-7.35,14.12C347.2,422.15,341.16,423.42,337.19,423.42z"/>
<path d="M382.55,246.52c-15.81,0-23.01-9.52-23.01-18.36c0-5.44,2.68-10.39,7.17-13.22c3.19-2.01,8.38-3.73,15.21-0.76
	c0.28-0.09,0.56-0.18,0.79-0.25c2.97-0.95,9.91-3.16,16.5,1.65c3.97,2.9,6.35,7.6,6.35,12.58
	C405.57,237,398.36,246.52,382.55,246.52z M383.06,216.48L383.06,216.48z M382.05,216.48L382.05,216.48L382.05,216.48z"/>
</svg>
