<?xml version="1.0" encoding="UTF-8"?>
<svg version="1.1" xmlns="http://www.w3.org/2000/svg" width="384" height="378">
<path d="M0 0 C3.78862114 1.90658472 6.37466528 4.49262886 8.28125 8.28125 C9.75255661 12.94185597 9.90797181 18.15716513 7.91015625 22.6484375 C7.58789062 23.20917969 7.265625 23.76992187 6.93359375 24.34765625 C8.08859375 24.12078125 9.24359375 23.89390625 10.43359375 23.66015625 C15.17750501 23.07978413 18.80179197 23.960393 22.93359375 26.34765625 C26.94413449 30.35819699 28.73492284 34.16227627 29.24609375 39.78515625 C28.76779042 45.23781423 26.99596555 48.64040011 22.87109375 52.16015625 C19.09442181 54.97257152 17.54859177 55.47052686 12.93359375 55.41015625 C12.04671875 55.40113281 11.15984375 55.39210937 10.24609375 55.3828125 C9.48296875 55.37121094 8.71984375 55.35960937 7.93359375 55.34765625 C7.27359375 55.34765625 6.61359375 55.34765625 5.93359375 55.34765625 C6.44921875 56.33765625 6.96484375 57.32765625 7.49609375 58.34765625 C9.75462647 63.56454874 8.70597991 68.03049776 6.93359375 73.34765625 C8.10921875 73.12078125 9.28484375 72.89390625 10.49609375 72.66015625 C15.06821262 72.11085575 17.90676012 72.99233846 21.93359375 75.34765625 C26.14785452 79.44213183 28.09412225 82.74275407 28.24609375 88.59765625 C28.19963416 93.66838862 27.41365068 96.48092632 23.93359375 100.34765625 C19.63430736 104.12581702 15.76267059 104.64355591 10.21484375 104.5625 C5.50452846 104.11889154 2.72945034 102.22955139 -0.37890625 98.78515625 C-3.00009534 94.99899424 -3.20245946 92.94579019 -3.19140625 88.34765625 C-3.19527344 86.73890625 -3.19527344 86.73890625 -3.19921875 85.09765625 C-3.06640625 82.34765625 -3.06640625 82.34765625 -2.06640625 80.34765625 C-2.70707031 80.3940625 -3.34773438 80.44046875 -4.0078125 80.48828125 C-10.35350078 80.75307897 -14.0065805 80.29432034 -19.06640625 76.34765625 C-22.80487096 71.55475278 -23.71984007 67.77180763 -23.453125 61.7109375 C-22.68612102 57.02369095 -20.03316652 54.36965996 -16.87890625 51.03515625 C-12.19146964 48.22269428 -7.34884149 48.02159407 -2.00390625 48.78515625 C-1.04484375 49.06359375 -1.04484375 49.06359375 -0.06640625 49.34765625 C-0.56140625 48.52265625 -1.05640625 47.69765625 -1.56640625 46.84765625 C-3.74222995 41.77073428 -3.84582888 37.68592415 -2.06640625 32.34765625 C-1.73640625 31.68765625 -1.40640625 31.02765625 -1.06640625 30.34765625 C-2.79890625 30.68796875 -2.79890625 30.68796875 -4.56640625 31.03515625 C-9.31483698 31.61608129 -12.92837328 30.72932411 -17.06640625 28.34765625 C-20.92083563 24.59465922 -22.90449758 20.62780603 -23.171875 15.2109375 C-22.92359071 9.79466173 -21.37946325 6.72149458 -17.734375 2.7578125 C-12.64736562 -1.5429144 -6.27407802 -1.98066357 0 0 Z " fill="#000000" transform="translate(240.06640625,145.65234375)"/>
<path d="M0 0 C5.67981633 5.00364772 7.41159618 8.98417953 8.625 16.3125 C9.429375 15.673125 10.23375 15.03375 11.0625 14.375 C15.03136814 11.75404934 18.90936554 11.11498651 23.625 11.3125 C29.52274456 12.98352762 32.15024841 15.50916692 35.625 20.3125 C37.70710665 24.4767133 37.34470127 30.01032306 35.9765625 34.38671875 C34.05829046 38.16587862 31.48277225 40.76500992 27.68359375 42.65234375 C22.23933113 44.39822683 17.33649678 44.16824839 12.25 41.625 C6.67960986 36.71775154 5.17522794 33.67400318 4.703125 26.32421875 C4.67734375 25.66035156 4.6515625 24.99648437 4.625 24.3125 C3.92375 24.93125 3.2225 25.55 2.5 26.1875 C-1.6806009 29.27750936 -5.18948489 30.59246404 -10.375 30.1875 C-15.36241239 29.37692628 -18.86123576 27.03505931 -22.1875 23.25 C-24.70029597 19.150175 -24.95846242 14.98853451 -24.375 10.3125 C-23.04962562 5.89724679 -21.12666946 2.41527572 -17.25 -0.1875 C-11.54559288 -2.93542945 -5.59317291 -2.79658646 0 0 Z M6.625 17.3125 C7.625 19.3125 7.625 19.3125 7.625 19.3125 Z " fill="#000000" transform="translate(178.375,119.6875)"/>
<path d="M0 0 C4.50668504 3.99456174 6.46822415 8.10278583 7.1875 14.0625 C6.4978555 19.38261471 4.74066694 22.79142968 0.6875 26.25 C-2.998025 28.99453989 -4.6174319 29.59156107 -9.125 29.625 C-9.98867187 29.63917969 -10.85234375 29.65335938 -11.7421875 29.66796875 C-14.3741288 29.42609252 -15.98980544 28.76733541 -18.25 27.4375 C-18.59611328 28.55898437 -18.59611328 28.55898437 -18.94921875 29.703125 C-22.26161064 39.70576297 -22.26161064 39.70576297 -27.25 42.4375 C-32.09104313 44.69665346 -36.1691185 44.84716572 -41.25 43.4375 C-46.32826209 40.65882829 -49.41314023 37.94807931 -51.25 32.4375 C-51.78085489 26.17341233 -51.0733994 21.56562026 -47.25 16.4375 C-42.92589833 12.35426341 -38.33369816 12.01098507 -32.58203125 12.1015625 C-30.1083855 12.45790008 -28.40523777 13.19885761 -26.25 14.4375 C-26.02957031 13.44169922 -26.02957031 13.44169922 -25.8046875 12.42578125 C-24.19832293 6.10187475 -22.82670739 2.93661052 -17.25 -0.5625 C-11.15774167 -3.47618877 -5.9456389 -2.85848024 0 0 Z " fill="#000000" transform="translate(142.25,132.5625)"/>
<path d="M0 0 C3.78761227 1.90607701 6.38585444 4.48938231 8.2734375 8.2890625 C10.01932058 13.73332512 9.78934214 18.63615947 7.24609375 23.72265625 C2.90786704 28.64712981 -0.12772638 30.99465896 -6.72265625 31.4453125 C-11.9144031 31.22898971 -15.73061428 29.6482958 -19.44140625 26.03515625 C-22.58343629 20.83872195 -23.5815015 16.58408864 -22.7421875 10.59765625 C-21.3688816 6.02526204 -18.18684641 2.65220688 -14.16796875 0.1796875 C-9.6981604 -1.58995781 -4.55920702 -1.43929598 0 0 Z " fill="#000000" transform="translate(108.06640625,105.65234375)"/>
<path d="M0 0 C3.54626306 2.7582046 5.82578585 5.47735756 7.25 9.75 C7.88760472 15.14350878 7.63080219 19.65093226 4.56640625 24.2421875 C1.46678459 27.79249599 -1.66475733 29.42944764 -6.21484375 30.12890625 C-11.89619158 30.39375104 -15.35867624 29.61854712 -19.75 25.75 C-23.50041671 22.20230851 -24.5050679 19.107238 -24.84765625 14.09375 C-24.63133346 8.90200315 -23.05063955 5.08579197 -19.4375 1.375 C-12.81054136 -2.63199825 -7.04060524 -3.20027511 0 0 Z " fill="#000000" transform="translate(189.75,273.25)"/>
<path d="M0 0 C4.58436297 4.14775697 7.22626404 7.96914217 7.72265625 14.2890625 C7.48648055 19.33377538 5.81449026 23.15336136 2.3125 26.75 C-2.8839343 29.89203004 -7.13856761 30.89009525 -13.125 30.05078125 C-17.69739421 28.67747535 -21.07044937 25.49544016 -23.54296875 21.4765625 C-25.31261406 17.00675415 -25.16195223 11.86780077 -23.72265625 7.30859375 C-21.81657924 3.52098148 -19.23327394 0.92273931 -15.43359375 -0.96484375 C-10.00760862 -2.70486555 -5.10296073 -2.45698109 0 0 Z " fill="#000000" transform="translate(109.375,221.625)"/>
<path d="M0 0 C4.74874945 4.07035667 6.20566223 7.85497153 6.68359375 13.9765625 C6.57231809 18.29405822 5.17301672 21.66081262 2.15625 24.7578125 C-2.63579625 28.86863649 -5.61720292 29.61221569 -11.76953125 29.5234375 C-15.99556037 29.0799262 -17.99987186 27.88259995 -21.375 25.25 C-25.11346471 20.45709653 -26.02843382 16.67415138 -25.76171875 10.61328125 C-24.97685057 5.81686459 -22.32848708 3.13197555 -18.875 -0.0625 C-12.93650415 -4.0709847 -6.15451384 -3.1912294 0 0 Z " fill="#000000" transform="translate(243.375,76.75)"/>
<path d="M0 0 C4.4392404 4.0262878 6.4087333 8.12771874 7.125 14.0625 C6.4353555 19.38261471 4.67816694 22.79142968 0.625 26.25 C-4.35681996 29.95986593 -8.20619313 30.06918692 -14.3125 29.4375 C-18.8402962 28.09877306 -21.44198415 25.77276847 -23.75 21.6875 C-26.07982722 16.28471102 -26.1717148 11.78903524 -24.125 6.1875 C-18.18604361 -2.82333038 -9.41937708 -4.4431024 0 0 Z " fill="#000000" transform="translate(277.3125,348.5625)"/>
<path d="M0 0 C4.4392404 4.0262878 6.4087333 8.12771874 7.125 14.0625 C6.4353555 19.38261471 4.67816694 22.79142968 0.625 26.25 C-4.35681996 29.95986593 -8.20619313 30.06918692 -14.3125 29.4375 C-18.8402962 28.09877306 -21.44198415 25.77276847 -23.75 21.6875 C-26.07982722 16.28471102 -26.1717148 11.78903524 -24.125 6.1875 C-18.18604361 -2.82333038 -9.41937708 -4.4431024 0 0 Z " fill="#000000" transform="translate(195.3125,320.5625)"/>
<path d="M0 0 C4.2507153 2.09308541 6.4091062 4.9240197 8.26953125 9.23828125 C9.72490669 14.00290322 9.46540519 17.90985323 7.73828125 22.63671875 C4.80665121 27.08470915 1.12717621 30.08637001 -4.07421875 31.38671875 C-10.03647418 31.48627404 -14.55270365 30.48762779 -19.07421875 26.38671875 C-22.41898215 21.59359987 -23.83853806 17.28289626 -23.07421875 11.38671875 C-19.40731717 1.20088104 -10.29378205 -3.04354761 0 0 Z " fill="#000000" transform="translate(334.07421875,301.61328125)"/>
<path d="M0 0 C4.4392404 4.0262878 6.4087333 8.12771874 7.125 14.0625 C6.4353555 19.38261471 4.67816694 22.79142968 0.625 26.25 C-4.35681996 29.95986593 -8.20619313 30.06918692 -14.3125 29.4375 C-18.8402962 28.09877306 -21.44198415 25.77276847 -23.75 21.6875 C-26.07982722 16.28471102 -26.1717148 11.78903524 -24.125 6.1875 C-18.18604361 -2.82333038 -9.41937708 -4.4431024 0 0 Z " fill="#000000" transform="translate(141.3125,293.5625)"/>
<path d="M0 0 C4.50668504 3.99456174 6.46822415 8.10278583 7.1875 14.0625 C6.4978555 19.38261471 4.74066694 22.79142968 0.6875 26.25 C-4.29431996 29.95986593 -8.14369313 30.06918692 -14.25 29.4375 C-18.7777962 28.09877306 -21.37948415 25.77276847 -23.6875 21.6875 C-26.01732722 16.28471102 -26.1092148 11.78903524 -24.0625 6.1875 C-18.20858662 -2.69429962 -9.21967742 -4.43253722 0 0 Z " fill="#000000" transform="translate(286.25,265.5625)"/>
<path d="M0 0 C4.50668504 3.99456174 6.46822415 8.10278583 7.1875 14.0625 C6.4978555 19.38261471 4.74066694 22.79142968 0.6875 26.25 C-4.29431996 29.95986593 -8.14369313 30.06918692 -14.25 29.4375 C-18.7777962 28.09877306 -21.37948415 25.77276847 -23.6875 21.6875 C-26.01732722 16.28471102 -26.1092148 11.78903524 -24.0625 6.1875 C-18.20858662 -2.69429962 -9.21967742 -4.43253722 0 0 Z " fill="#000000" transform="translate(235.25,265.5625)"/>
<path d="M0 0 C4.50668504 3.99456174 6.46822415 8.10278583 7.1875 14.0625 C6.4978555 19.38261471 4.74066694 22.79142968 0.6875 26.25 C-4.29431996 29.95986593 -8.14369313 30.06918692 -14.25 29.4375 C-18.7777962 28.09877306 -21.37948415 25.77276847 -23.6875 21.6875 C-26.01732722 16.28471102 -26.1092148 11.78903524 -24.0625 6.1875 C-18.20858662 -2.69429962 -9.21967742 -4.43253722 0 0 Z " fill="#000000" transform="translate(175.25,233.5625)"/>
<path d="M0 0 C4.50668504 3.99456174 6.46822415 8.10278583 7.1875 14.0625 C6.4978555 19.38261471 4.74066694 22.79142968 0.6875 26.25 C-4.29431996 29.95986593 -8.14369313 30.06918692 -14.25 29.4375 C-18.7777962 28.09877306 -21.37948415 25.77276847 -23.6875 21.6875 C-26.01732722 16.28471102 -26.1092148 11.78903524 -24.0625 6.1875 C-18.20858662 -2.69429962 -9.21967742 -4.43253722 0 0 Z " fill="#000000" transform="translate(212.25,221.5625)"/>
<path d="M0 0 C4.2507153 2.09308541 6.4091062 4.9240197 8.26953125 9.23828125 C9.72490669 14.00290322 9.46540519 17.90985323 7.73828125 22.63671875 C4.80665121 27.08470915 1.12717621 30.08637001 -4.07421875 31.38671875 C-10.03647418 31.48627404 -14.55270365 30.48762779 -19.07421875 26.38671875 C-22.41898215 21.59359987 -23.83853806 17.28289626 -23.07421875 11.38671875 C-19.40731717 1.20088104 -10.29378205 -3.04354761 0 0 Z " fill="#000000" transform="translate(354.07421875,209.61328125)"/>
<path d="M0 0 C4.50668504 3.99456174 6.46822415 8.10278583 7.1875 14.0625 C6.4978555 19.38261471 4.74066694 22.79142968 0.6875 26.25 C-4.29431996 29.95986593 -8.14369313 30.06918692 -14.25 29.4375 C-18.7777962 28.09877306 -21.37948415 25.77276847 -23.6875 21.6875 C-26.01732722 16.28471102 -26.1092148 11.78903524 -24.0625 6.1875 C-18.20858662 -2.69429962 -9.21967742 -4.43253722 0 0 Z " fill="#000000" transform="translate(185.25,196.5625)"/>
<path d="M0 0 C4.4392404 4.0262878 6.4087333 8.12771874 7.125 14.0625 C6.4353555 19.38261471 4.67816694 22.79142968 0.625 26.25 C-4.35681996 29.95986593 -8.20619313 30.06918692 -14.3125 29.4375 C-18.8402962 28.09877306 -21.44198415 25.77276847 -23.75 21.6875 C-26.07982722 16.28471102 -26.1717148 11.78903524 -24.125 6.1875 C-18.18604361 -2.82333038 -9.41937708 -4.4431024 0 0 Z " fill="#000000" transform="translate(152.3125,188.5625)"/>
<path d="M0 0 C4.50668504 3.99456174 6.46822415 8.10278583 7.1875 14.0625 C6.4978555 19.38261471 4.74066694 22.79142968 0.6875 26.25 C-4.29431996 29.95986593 -8.14369313 30.06918692 -14.25 29.4375 C-18.7777962 28.09877306 -21.37948415 25.77276847 -23.6875 21.6875 C-26.01732722 16.28471102 -26.1092148 11.78903524 -24.0625 6.1875 C-18.20858662 -2.69429962 -9.21967742 -4.43253722 0 0 Z " fill="#000000" transform="translate(305.25,184.5625)"/>
<path d="M0 0 C4.50668504 3.99456174 6.46822415 8.10278583 7.1875 14.0625 C6.4978555 19.38261471 4.74066694 22.79142968 0.6875 26.25 C-4.29431996 29.95986593 -8.14369313 30.06918692 -14.25 29.4375 C-18.7777962 28.09877306 -21.37948415 25.77276847 -23.6875 21.6875 C-26.01732722 16.28471102 -26.1092148 11.78903524 -24.0625 6.1875 C-18.20858662 -2.69429962 -9.21967742 -4.43253722 0 0 Z " fill="#000000" transform="translate(213.25,178.5625)"/>
<path d="M0 0 C4.60011172 4.05247937 7.3278145 7.28120787 7.9375 13.5 C7.44063593 19.56174167 5.44591584 23.66097168 0.9375 27.75 C-3.89378123 30.02890624 -8.34551514 31.22081116 -13.58984375 29.6484375 C-17.91362648 27.66771021 -20.77002841 25.37625567 -23.375 21.3125 C-25.16316966 15.94799101 -25.06334152 11.20865476 -22.8125 6.0625 C-18.04329386 -2.37916104 -8.46904744 -4.23452372 0 0 Z " fill="#000000" transform="translate(94.375,177.6875)"/>
<path d="M0 0 C4.60011172 4.05247937 7.3278145 7.28120787 7.9375 13.5 C7.44063593 19.56174167 5.44591584 23.66097168 0.9375 27.75 C-3.89378123 30.02890624 -8.34551514 31.22081116 -13.58984375 29.6484375 C-17.91362648 27.66771021 -20.77002841 25.37625567 -23.375 21.3125 C-25.16316966 15.94799101 -25.06334152 11.20865476 -22.8125 6.0625 C-18.04329386 -2.37916104 -8.46904744 -4.23452372 0 0 Z " fill="#000000" transform="translate(174.375,156.6875)"/>
<path d="M0 0 C4.60011172 4.05247937 7.3278145 7.28120787 7.9375 13.5 C7.44063593 19.56174167 5.44591584 23.66097168 0.9375 27.75 C-3.89378123 30.02890624 -8.34551514 31.22081116 -13.58984375 29.6484375 C-17.91362648 27.66771021 -20.77002841 25.37625567 -23.375 21.3125 C-25.16316966 15.94799101 -25.06334152 11.20865476 -22.8125 6.0625 C-18.04329386 -2.37916104 -8.46904744 -4.23452372 0 0 Z " fill="#000000" transform="translate(304.375,131.6875)"/>
<path d="M0 0 C4.50668504 3.99456174 6.46822415 8.10278583 7.1875 14.0625 C6.4978555 19.38261471 4.74066694 22.79142968 0.6875 26.25 C-4.29431996 29.95986593 -8.14369313 30.06918692 -14.25 29.4375 C-18.7777962 28.09877306 -21.37948415 25.77276847 -23.6875 21.6875 C-26.01732722 16.28471102 -26.1092148 11.78903524 -24.0625 6.1875 C-18.20858662 -2.69429962 -9.21967742 -4.43253722 0 0 Z " fill="#000000" transform="translate(261.25,119.5625)"/>
<path d="M0 0 C4.50668504 3.99456174 6.46822415 8.10278583 7.1875 14.0625 C6.4978555 19.38261471 4.74066694 22.79142968 0.6875 26.25 C-4.29431996 29.95986593 -8.14369313 30.06918692 -14.25 29.4375 C-18.7777962 28.09877306 -21.37948415 25.77276847 -23.6875 21.6875 C-26.01732722 16.28471102 -26.1092148 11.78903524 -24.0625 6.1875 C-18.20858662 -2.69429962 -9.21967742 -4.43253722 0 0 Z " fill="#000000" transform="translate(330.25,99.5625)"/>
<path d="M0 0 C4.2507153 2.09308541 6.4091062 4.9240197 8.26953125 9.23828125 C9.72490669 14.00290322 9.46540519 17.90985323 7.73828125 22.63671875 C4.80665121 27.08470915 1.12717621 30.08637001 -4.07421875 31.38671875 C-10.03647418 31.48627404 -14.55270365 30.48762779 -19.07421875 26.38671875 C-22.41898215 21.59359987 -23.83853806 17.28289626 -23.07421875 11.38671875 C-19.40731717 1.20088104 -10.29378205 -3.04354761 0 0 Z " fill="#000000" transform="translate(279.07421875,75.61328125)"/>
<path d="M0 0 C4.50668504 3.99456174 6.46822415 8.10278583 7.1875 14.0625 C6.4978555 19.38261471 4.74066694 22.79142968 0.6875 26.25 C-4.29431996 29.95986593 -8.14369313 30.06918692 -14.25 29.4375 C-18.7777962 28.09877306 -21.37948415 25.77276847 -23.6875 21.6875 C-26.01732722 16.28471102 -26.1092148 11.78903524 -24.0625 6.1875 C-18.20858662 -2.69429962 -9.21967742 -4.43253722 0 0 Z " fill="#000000" transform="translate(121.25,33.5625)"/>
<path d="M0 0 C4.50668504 3.99456174 6.46822415 8.10278583 7.1875 14.0625 C6.4978555 19.38261471 4.74066694 22.79142968 0.6875 26.25 C-4.29431996 29.95986593 -8.14369313 30.06918692 -14.25 29.4375 C-18.7777962 28.09877306 -21.37948415 25.77276847 -23.6875 21.6875 C-26.01732722 16.28471102 -26.1092148 11.78903524 -24.0625 6.1875 C-18.20858662 -2.69429962 -9.21967742 -4.43253722 0 0 Z " fill="#000000" transform="translate(66.25,10.5625)"/>
<path d="M0 0 C4.2507153 2.09308541 6.4091062 4.9240197 8.26953125 9.23828125 C9.72490669 14.00290322 9.46540519 17.90985323 7.73828125 22.63671875 C4.80665121 27.08470915 1.12717621 30.08637001 -4.07421875 31.38671875 C-10.03647418 31.48627404 -14.55270365 30.48762779 -19.07421875 26.38671875 C-22.41898215 21.59359987 -23.83853806 17.28289626 -23.07421875 11.38671875 C-19.40731717 1.20088104 -10.29378205 -3.04354761 0 0 Z " fill="#000000" transform="translate(344.07421875,0.61328125)"/>
<path d="M0 0 C3.51520834 2.3707219 5.79390381 5.02530762 7.6875 8.8125 C8.1974099 14.39643133 8.42620063 19.25302088 6 24.375 C1.74485849 28.86014916 -1.94784992 30.39553396 -8.0390625 30.87109375 C-12.35655822 30.75981809 -15.72331262 29.36051672 -18.8203125 26.34375 C-23.15877512 21.28634215 -23.65718983 18.07579014 -23.59765625 11.578125 C-23.1014048 6.7651657 -20.77435415 4.09715971 -17.25 1 C-11.92876979 -2.26139916 -5.72081438 -2.05085798 0 0 Z " fill="#000000" transform="translate(252.3125,310.1875)"/>
<path d="M0 0 C3.94153264 3.26537013 6.58640143 6.09187063 7.265625 11.3203125 C7.34965731 17.32021959 7.12452008 21.07344992 2.9296875 25.734375 C-1.36959889 29.51253577 -5.24123566 30.03027466 -10.7890625 29.94921875 C-15.49937779 29.50561029 -18.27445591 27.61627014 -21.3828125 24.171875 C-24.97550816 18.98242571 -24.65167355 13.91133614 -24.0703125 7.734375 C-21.92044022 3.19575575 -19.59128238 0.88183569 -15.0703125 -1.265625 C-9.97606795 -2.82659434 -4.63690314 -2.83463513 0 0 Z " fill="#000000" transform="translate(141.0703125,246.265625)"/>
<path d="M0 0 C3.94153264 3.26537013 6.58640143 6.09187063 7.265625 11.3203125 C7.34965731 17.32021959 7.12452008 21.07344992 2.9296875 25.734375 C-1.36959889 29.51253577 -5.24123566 30.03027466 -10.7890625 29.94921875 C-15.49937779 29.50561029 -18.27445591 27.61627014 -21.3828125 24.171875 C-24.97550816 18.98242571 -24.65167355 13.91133614 -24.0703125 7.734375 C-21.92044022 3.19575575 -19.59128238 0.88183569 -15.0703125 -1.265625 C-9.97606795 -2.82659434 -4.63690314 -2.83463513 0 0 Z " fill="#000000" transform="translate(305.0703125,222.265625)"/>
<path d="M0 0 C3.49418231 2.9950134 5.37016506 5.544213 6.05859375 10.15234375 C6.06654538 16.33075853 6.01870201 20.49015616 1.625 25.25 C-2.67428639 29.02816077 -6.54592316 29.54589966 -12.09375 29.46484375 C-16.80406529 29.02123529 -19.57914341 27.13189514 -22.6875 23.6875 C-26.11932775 18.73041547 -25.97749058 14.16612281 -25.375 8.25 C-23.19711093 3.8135593 -20.46064574 1.00781087 -16.375 -1.75 C-10.7101454 -3.60694404 -5.2079955 -2.70044211 0 0 Z " fill="#000000" transform="translate(377.375,147.75)"/>
<path d="M0 0 C3.94153264 3.26537013 6.58640143 6.09187063 7.265625 11.3203125 C7.34965731 17.32021959 7.12452008 21.07344992 2.9296875 25.734375 C-1.36959889 29.51253577 -5.24123566 30.03027466 -10.7890625 29.94921875 C-15.49937779 29.50561029 -18.27445591 27.61627014 -21.3828125 24.171875 C-24.97550816 18.98242571 -24.65167355 13.91133614 -24.0703125 7.734375 C-21.92044022 3.19575575 -19.59128238 0.88183569 -15.0703125 -1.265625 C-9.97606795 -2.82659434 -4.63690314 -2.83463513 0 0 Z " fill="#000000" transform="translate(25.0703125,146.265625)"/>
<path d="M0 0 C3.94153264 3.26537013 6.58640143 6.09187063 7.265625 11.3203125 C7.34965731 17.32021959 7.12452008 21.07344992 2.9296875 25.734375 C-1.36959889 29.51253577 -5.24123566 30.03027466 -10.7890625 29.94921875 C-15.49937779 29.50561029 -18.27445591 27.61627014 -21.3828125 24.171875 C-24.97550816 18.98242571 -24.65167355 13.91133614 -24.0703125 7.734375 C-21.92044022 3.19575575 -19.59128238 0.88183569 -15.0703125 -1.265625 C-9.97606795 -2.82659434 -4.63690314 -2.83463513 0 0 Z " fill="#000000" transform="translate(152.0703125,94.265625)"/>
<path d="M0 0 C3.49418231 2.9950134 5.37016506 5.544213 6.05859375 10.15234375 C6.06654538 16.33075853 6.01870201 20.49015616 1.625 25.25 C-2.67428639 29.02816077 -6.54592316 29.54589966 -12.09375 29.46484375 C-16.80406529 29.02123529 -19.57914341 27.13189514 -22.6875 23.6875 C-26.11932775 18.73041547 -25.97749058 14.16612281 -25.375 8.25 C-23.19711093 3.8135593 -20.46064574 1.00781087 -16.375 -1.75 C-10.7101454 -3.60694404 -5.2079955 -2.70044211 0 0 Z " fill="#000000" transform="translate(336.375,60.75)"/>
<path d="M0 0 C3.94153264 3.26537013 6.58640143 6.09187063 7.265625 11.3203125 C7.34965731 17.32021959 7.12452008 21.07344992 2.9296875 25.734375 C-1.36959889 29.51253577 -5.24123566 30.03027466 -10.7890625 29.94921875 C-15.49937779 29.50561029 -18.27445591 27.61627014 -21.3828125 24.171875 C-24.97550816 18.98242571 -24.65167355 13.91133614 -24.0703125 7.734375 C-21.92044022 3.19575575 -19.59128238 0.88183569 -15.0703125 -1.265625 C-9.97606795 -2.82659434 -4.63690314 -2.83463513 0 0 Z " fill="#000000" transform="translate(175.0703125,60.265625)"/>
<path d="M0 0 C3.94153264 3.26537013 6.58640143 6.09187063 7.265625 11.3203125 C7.34965731 17.32021959 7.12452008 21.07344992 2.9296875 25.734375 C-1.36959889 29.51253577 -5.24123566 30.03027466 -10.7890625 29.94921875 C-15.49937779 29.50561029 -18.27445591 27.61627014 -21.3828125 24.171875 C-24.97550816 18.98242571 -24.65167355 13.91133614 -24.0703125 7.734375 C-21.92044022 3.19575575 -19.59128238 0.88183569 -15.0703125 -1.265625 C-9.97606795 -2.82659434 -4.63690314 -2.83463513 0 0 Z " fill="#000000" transform="translate(262.0703125,20.265625)"/>
<path d="M0 0 C4.37717169 2.27839822 6.97088197 4.86094034 8.99609375 9.31640625 C9.76631641 14.64444138 9.69852888 18.88551987 7.30859375 23.75390625 C2.90177705 28.63713557 -0.11344294 30.96340127 -6.73046875 31.4140625 C-11.83214466 31.19491835 -15.15846019 29.069956 -18.87890625 25.75390625 C-22.65753101 21.41960137 -22.33605077 17.90971696 -22.2890625 12.3046875 C-21.81372341 7.3233943 -19.58630094 4.70699552 -15.94140625 1.50390625 C-11.18519838 -1.4111889 -5.26177319 -1.79495187 0 0 Z " fill="#000000" transform="translate(36.00390625,225.68359375)"/>
<path d="M0 0 C4.36658319 1.70866299 7.69139349 4.90666308 10 9 C11.38203621 13.62645047 11.26099341 17.13002196 9.875 21.75 C7.3246336 26.1706351 4.92336381 29.35887873 0 31 C-5.3232961 31.50976619 -9.65894804 31.67052598 -14.5 29.25 C-18.22685808 25.89582773 -20.69215385 23.10806206 -21.203125 17.94921875 C-21.30867738 12.85631656 -20.93666985 9.35437254 -18 5 C-12.11871212 -0.3075037 -7.74801714 -0.60724663 0 0 Z " fill="#000000" transform="translate(201,86)"/>
</svg>
