<?xml version="1.0" encoding="UTF-8" standalone="no"?>
<!DOCTYPE svg PUBLIC "-//W3C//DTD SVG 1.1//EN" "http://www.w3.org/Graphics/SVG/1.1/DTD/svg11.dtd">
<svg width="100%" height="100%" viewBox="0 0 512 512" version="1.1" xmlns="http://www.w3.org/2000/svg" xmlns:xlink="http://www.w3.org/1999/xlink" xml:space="preserve" xmlns:serif="http://www.serif.com/" style="fill-rule:evenodd;clip-rule:evenodd;stroke-linecap:round;stroke-linejoin:round;stroke-miterlimit:1.5;">
    <g transform="matrix(-1.04566,-0.000268849,0.000268849,-1.04566,510.053,563.941)">
        <path d="M81.838,273.785C68.34,233.998 68.711,126.057 70.02,122.262C74.867,108.212 82.63,89.965 97.847,83.584C111.052,78.046 132.588,68.005 151.216,85.019C189.068,119.594 161.291,177.763 198.723,207.351C236.599,237.289 282.518,236.672 325.373,223.015C351.13,214.806 385.942,190.521 415.225,151.908C433.063,128.386 447.064,89.803 447.064,89.803L437.02,192.448L464.969,164.767L444.621,253.968L474.707,239.232C474.707,239.232 468.034,288.76 458.276,311.617C447.871,335.989 441.847,345.206 420.736,365.847C403.264,382.93 392.205,396.019 354.266,406.893C316.327,417.768 281.322,419.509 256,417.178C221.669,414.018 209.643,409.011 187.222,398.888C160.662,386.896 142.352,373.217 129.294,358.687C106.605,333.438 99.603,326.149 81.838,273.785Z" style="fill:none;stroke:black;stroke-width:15.94px;"/>
    </g>
    <g transform="matrix(-1.04566,-0.000268849,0.000268849,-1.04566,510.053,563.941)">
        <path d="M69.511,131.677C69.457,131.876 11.318,178.085 11.318,178.085C31.258,172.196 50.982,180.06 69.429,192.909" style="fill:none;stroke:black;stroke-width:15.94px;"/>
    </g>
    <g transform="matrix(-1.04152,-0.0929674,0.0929674,-1.04152,481.128,584.971)">
        <path d="M322.962,414.038C324.098,428.27 347.952,478.671 359.509,487.913L317.496,507.287L359.509,487.913L297.496,480.239L359.509,487.913" style="fill:none;stroke:black;stroke-width:15.94px;"/>
    </g>
    <g transform="matrix(-1.02135,-0.22417,0.22417,-1.02135,510.081,619.072)">
        <path d="M322.962,414.038C324.098,428.27 337.845,471.781 349.401,481.023L307.388,500.397L349.401,481.023L287.389,473.349L349.401,481.023" style="fill:none;stroke:black;stroke-width:15.94px;"/>
    </g>
    <g transform="matrix(-0.400885,0.593128,-0.593128,-0.400885,528.895,407.699)">
        <path d="M128.27,122.927L128.295,180.329" style="fill:none;stroke:black;stroke-width:8.73px;"/>
    </g>
    <g transform="matrix(-0.592377,-0.401993,0.401993,-0.592377,402.572,564.391)">
        <path d="M128.27,122.927L128.295,180.329" style="fill:none;stroke:black;stroke-width:8.73px;"/>
    </g>
</svg>
