<?xml version="1.0" encoding="utf-8"?>
<!-- Generator: Adobe Adobe Illustrator 24.2.0, SVG Export Plug-In . SVG Version: 6.00 Build 0)  -->
<svg version="1.1" id="Ebene_1" xmlns="http://www.w3.org/2000/svg" xmlns:xlink="http://www.w3.org/1999/xlink" x="0px" y="0px"
	 width="512px" height="512px" viewBox="0 0 512 512" style="enable-background:new 0 0 512 512;" xml:space="preserve">
<style type="text/css">
	.st0{stroke:#000000;stroke-miterlimit:10;}
	.st1{fill:none;stroke:#000000;stroke-width:8;stroke-linecap:round;stroke-linejoin:round;stroke-miterlimit:10;}
	.st2{fill:none;stroke:#000000;stroke-width:25;stroke-linecap:round;stroke-miterlimit:10;}
	.st3{fill:none;stroke:#000000;stroke-width:25;stroke-linecap:round;stroke-linejoin:round;stroke-miterlimit:10;}
	.st4{fill:none;stroke:#000000;stroke-width:15;stroke-linecap:round;stroke-linejoin:round;stroke-miterlimit:10;}
</style>
<path d="M412.99,229.21c-6.9,0-12.5-5.6-12.5-12.5V71.94c0-6.9,5.6-12.5,12.5-12.5s12.5,5.6,12.5,12.5v144.77
	C425.49,223.61,419.89,229.21,412.99,229.21z"/>
<path d="M368.6,216.72c-6.9,0-12.5-5.6-12.5-12.5V102.83c0-6.9,5.6-12.5,12.5-12.5s12.5,5.6,12.5,12.5v101.39
	C381.1,211.12,375.5,216.72,368.6,216.72z"/>
<path d="M234.66,210.54c-6.9,0-12.5-5.6-12.5-12.5V72.13c0-6.9,5.6-12.5,12.5-12.5s12.5,5.6,12.5,12.5v125.91
	C247.16,204.94,241.56,210.54,234.66,210.54z"/>
<path d="M193.32,224.83c-6.9,0-12.5-5.6-12.5-12.5V102.29c0-6.9,5.6-12.5,12.5-12.5s12.5,5.6,12.5,12.5v110.04
	C205.82,219.23,200.23,224.83,193.32,224.83z"/>
<path d="M110.84,432.53c-17.22,0-35.62-4.39-68.32-49.82c-7.08-9.84-15.69-15.59-23.28-20.66c-5.04-3.37-9.39-6.27-12.71-10.03
	c-5.55-6.28-6.98-13.85-4.03-21.33c2.13-5.4,10.41-16.1,17.11-23.44c13.47-14.74,23.16-19.76,32.43-16.82
	c39.12,12.46,60.42,13.45,71.4,12.08c5.35-0.66,8.66-1.94,10.54-3.04c0.54-1.15,1.26-2.23,2.17-3.21c0.21-0.22,0.27-0.33,0.27-0.33
	c0.26-0.79-0.11-4.03-0.35-6.17c-1.08-9.56-2.71-24.01,8.99-44.54c14.58-25.59,32.39-39.48,59.54-46.44
	c25.23-6.47,58.94-6.96,107.49-6.96c62.37,0,109.29,5.65,135.56,33.24c15.96,16.76,22.96,40.25,21.41,71.81
	c-1.63,33.2-16.64,54.73-45.88,65.8c-25.7,9.74-61.93,11.69-112.05,11.69c-27.62,0-53.44,4.24-78.41,8.35
	c-9.21,1.51-17.97,2.95-26.57,4.14c-0.41,0.15-0.83,0.28-1.27,0.39c-23.1,5.86-42.01,18.69-57.2,28.99
	c-13.92,9.45-23.99,16.27-34.45,16.27c-0.47,0-0.94,0-1.42,0.01C111.48,432.53,111.16,432.53,110.84,432.53z M27.41,337.31
	c1.66,1.24,3.9,2.74,5.72,3.95c8.42,5.62,19.95,13.33,29.68,26.84c28.51,39.6,40.21,39.48,48.77,39.42c0.56,0,1.1-0.01,1.64-0.01
	c3.21-0.29,13.16-7.03,20.42-11.96c15.12-10.26,35.54-24.11,60.99-31.43c1.39-0.81,2.96-1.36,4.66-1.58
	c9.35-1.21,19.07-2.81,29.37-4.5c24.75-4.07,52.8-8.68,82.47-8.68c104.75,0,130.84-10.54,132.97-53.72
	c1.2-24.35-3.56-41.8-14.54-53.34c-21.32-22.39-69.05-25.48-117.45-25.48c-94.76,0-123.06,1.74-145.32,40.78
	c-7.66,13.44-6.75,21.53-5.87,29.36c0.54,4.8,1.21,10.75-0.77,16.84c-0.92,4.96-4.8,11.92-13,16.93
	c-18.34,11.2-51.84,9.34-99.62-5.51C42.1,318.85,31.89,330.78,27.41,337.31z"/>
<path d="M496.93,366.4c-0.11,0-0.23,0-0.34-0.01c-4.14-0.18-7.34-3.69-7.16-7.83c1.83-40.94-3.71-58-7.26-61.62
	c-4.08-4.15-10.82-8.11-17.53-6.77c-4.06,0.82-8.01-1.82-8.82-5.89c-0.81-4.06,1.82-8.01,5.89-8.82c10.51-2.1,22.45,2.1,31.16,10.97
	c11.7,11.91,12.74,46.16,11.55,72.8C504.23,363.26,500.92,366.4,496.93,366.4z"/>
<path class="st0" d="M174.43,447.57c-0.8,0-1.5-0.02-2.03-0.04c-6-0.21-13.62-1.45-21.43-3.49c-7.82-2.05-15.06-4.69-20.4-7.46
	c-3.18-1.65-12.86-6.65-10.67-15.01c2.19-8.35,13.08-7.98,16.66-7.85c6,0.21,13.61,1.45,21.43,3.49l0,0
	c7.82,2.05,15.06,4.69,20.4,7.46c3.18,1.65,12.86,6.66,10.67,15.01C187.19,446.79,179.02,447.57,174.43,447.57z"/>
<path class="st0" d="M497.4,393.22c-8.33,0-14.38-8.79-14.38-20.91s6.05-20.91,14.38-20.91c8.33,0,14.38,8.79,14.38,20.91
	S505.73,393.22,497.4,393.22z"/>
<line class="st1" x1="117.75" y1="359.31" x2="92.56" y2="384.51"/>
<path d="M92.56,388.51c-1.02,0-2.05-0.39-2.83-1.17c-1.56-1.56-1.56-4.09,0-5.66l25.19-25.19c1.56-1.56,4.1-1.56,5.66,0
	s1.56,4.09,0,5.66l-25.19,25.19C94.61,388.12,93.58,388.51,92.56,388.51z"/>
<line class="st1" x1="118.16" y1="384.1" x2="92.97" y2="358.9"/>
<path d="M118.16,388.1c-1.02,0-2.05-0.39-2.83-1.17l-25.19-25.19c-1.56-1.56-1.56-4.09,0-5.66c1.56-1.56,4.09-1.56,5.66,0
	l25.19,25.19c1.56,1.56,1.56,4.09,0,5.66C120.21,387.71,119.19,388.1,118.16,388.1z"/>
</svg>
