<?xml version="1.0" encoding="UTF-8" standalone="no"?>
<!DOCTYPE svg PUBLIC "-//W3C//DTD SVG 1.1//EN" "http://www.w3.org/Graphics/SVG/1.1/DTD/svg11.dtd">
<svg width="100%" height="100%" viewBox="0 0 512 512" version="1.1" xmlns="http://www.w3.org/2000/svg" xmlns:xlink="http://www.w3.org/1999/xlink" xml:space="preserve" xmlns:serif="http://www.serif.com/" style="fill-rule:evenodd;clip-rule:evenodd;stroke-linecap:round;stroke-linejoin:round;stroke-miterlimit:1.5;">
    <g id="Ebene1">
        <g transform="matrix(1.02985,0,0,1.02985,-17.0864,-5.45249)">
            <path d="M179.342,494.563L352.621,495.481C352.621,495.481 358.084,474.625 359.46,458.835C367.41,367.606 350.862,294.776 332.054,202.131C345.235,184.619 354.497,169.641 359.64,151.537C342.933,124.769 322.261,102.687 296.718,86.362L235.625,85.702C209.844,100.578 187.468,125.283 170.623,149.745C174.6,167.191 185.547,188.89 199.239,207.071C187.491,238.956 171.991,329.43 169.003,424.379C167.477,472.841 177.256,493.802 179.342,494.563Z" style="fill:none;stroke:black;stroke-width:16.58px;"/>
        </g>
        <g transform="matrix(1.02985,0,0,1.02985,-17.0864,-5.45249)">
            <path d="M202.173,458.217L328.996,458.998C328.996,458.998 329.033,216.797 264.127,216.797C206.119,216.797 202.173,458.217 202.173,458.217Z" style="fill:none;stroke:black;stroke-width:13.03px;"/>
        </g>
        <g transform="matrix(1.02985,0,0,1.02985,-17.0864,-5.45249)">
            <path d="M237.025,85.702L237.219,53.062L294.453,53.805L294.52,85.702L237.025,85.702Z" style="fill:none;stroke:black;stroke-width:16.28px;"/>
        </g>
        <g transform="matrix(1.02985,0,0,1.02985,-17.0864,-5.45249)">
            <path d="M251.778,32.603L251.841,53.062" style="fill:none;stroke:black;stroke-width:10.36px;"/>
            <g transform="matrix(0.999153,0.0381554,-0.04033,0.833221,29.6428,-0.951675)">
                <path d="M251.638,28.748L252.599,53.262" style="fill:none;stroke:black;stroke-width:11.31px;"/>
            </g>
        </g>
        <g transform="matrix(1.02985,0,0,1.02985,-17.0864,-5.45249)">
            <path d="M240.713,31.099L290.12,31.099L284.142,12.365L248.341,12.27L240.713,31.099Z" style="fill:none;stroke:black;stroke-width:8.29px;"/>
        </g>
    </g>
</svg>
