<?xml version="1.0" encoding="utf-8"?>
<!-- Generator: Adobe Adobe Illustrator 24.2.0, SVG Export Plug-In . SVG Version: 6.00 Build 0)  -->
<svg version="1.1" id="Ebene_1" xmlns="http://www.w3.org/2000/svg" xmlns:xlink="http://www.w3.org/1999/xlink" x="0px" y="0px"
	 width="512px" height="512px" viewBox="0 0 512 512" style="enable-background:new 0 0 512 512;" xml:space="preserve">
<style type="text/css">
	.st0{fill:none;stroke:#000000;stroke-width:30;stroke-linecap:round;stroke-linejoin:round;stroke-miterlimit:10;}
</style>
<g>
	<path d="M131.86,503.32c-24.68,0-46.31-4.48-64.67-13.44c-33.38-16.29-54.86-46.55-63.84-89.95c-6.28-30.34-0.69-65,15.34-95.1
		c17.46-32.8,45.84-57.56,79.91-69.73c19.81-7.08,34.65-7.12,50.35-7.16c20.21-0.05,45.35-0.12,95.61-15.34
		c25.66-7.77,43.58-30.8,59.4-51.13c12.55-16.13,23.39-30.05,37.6-36.84c8.41-4.02,18.48-0.46,22.5,7.95
		c4.02,8.41,0.46,18.48-7.95,22.5c-7.02,3.36-16.42,15.44-25.52,27.12c-17.97,23.09-40.33,51.82-76.25,62.7
		c-55,16.66-84.08,16.74-105.31,16.79c-14.9,0.04-24.74,0.07-39.08,5.19c-26.14,9.34-47.97,28.45-61.47,53.81
		c-12.38,23.26-16.78,49.65-12.08,72.4c6.84,33.09,21.76,54.83,45.59,66.46c64.1,31.28,173.59-19.62,194.89-30.14
		c44.51-21.99,94.57-52.13,128.44-108.94c21.92-36.75,31.33-90.71,26.37-118.06c-1.66-9.17,4.42-17.95,13.59-19.62
		c9.18-1.67,17.95,4.42,19.62,13.59c7.03,38.73-6.41,100.83-30.59,141.37c-38.37,64.35-93.56,97.73-142.48,121.91
		c-18.02,8.9-54.49,25.33-96.34,35.38C172.47,500.56,151.22,503.32,131.86,503.32z"/>
	<path d="M483.84,273.2c-0.93,0-1.85-0.08-2.75-0.23c-0.19-0.02-0.38-0.04-0.57-0.06c-7.24-0.93-12.82-6.33-14.32-13.07
		c-18.2-29.7-38.03-61.15-41.87-65.84c-1.75-1.92-3.37-3.59-4.87-5.04c-0.5,1.23-1.03,2.55-1.6,3.99
		c-5.44,13.85-20.69,48.92-25.62,60.23c-0.82,5.07-3.94,9.7-8.84,12.26c-8.07,4.22-17.98,1.27-22.46-6.56
		c-0.48-0.77-0.9-1.58-1.25-2.42c-4.86-9.73-26.12-54.6-23.78-90.4c0.22-3.29,0.45-6.38,0.71-9.25
		c-15.89,2.03-38.02,5.99-65.69,14.55c-7.26,2.25-15.14-0.64-19.23-7.06c-4.09-6.42-3.37-14.77,1.74-20.41
		c2.79-3.07,5.59-6.24,8.31-9.3c19.74-22.29,40.16-45.34,72.28-52.56c25.26-5.68,48.91-4.51,63.15-2.82
		c5.46-10.71,14.69-26.26,27.29-38.46c21.29-20.61,56.2-30.96,57.67-31.39c4.51-1.32,9.37-0.69,13.4,1.72
		c4.03,2.41,6.87,6.4,7.84,10.99l7.42,35.13c1.91,9.04-3.43,17.84-12.43,19.86c-1.21,0.35-14.58,4.5-25.57,18.12
		c-6.3,7.8-10.18,15.86-12.44,21.72c9.36,9.03,24.25,25.28,34.57,45.8c11.87,23.6,10.22,49.98,5.27,89.47
		c1.77,6.98-1.1,14.59-7.57,18.54C489.88,272.4,486.84,273.2,483.84,273.2z M372.47,143.79c-0.28,1.02-1.73,7.02-2.88,24.48
		c-0.74,11.32,2.16,25.12,6.16,37.97c4.34-10.15,8.45-19.93,10.7-25.64c9.18-23.36,13.87-29.05,19.8-31.85
		c3.69-1.74,7.89-2.08,11.81-0.96c3.13,0.89,14.64,5.23,31.35,23.62c3.06,3.37,11.46,16.18,20.77,30.88
		c-0.33-9.86-1.97-17.6-5.4-24.41c-12.37-24.6-34.06-42.3-34.28-42.48c-4.85-3.92-7.17-10.22-5.99-16.35
		c0.46-2.39,5.01-24,22.02-45.07c9.47-11.73,19.98-19.05,28.35-23.49l-0.46-2.16c-9.11,4.13-19.43,9.85-26.48,16.67
		c-15.55,15.06-24.99,38.8-25.08,39.04c-3.06,7.78-11.36,12.17-19.49,10.3c-0.25-0.06-29.97-6.56-61.93,0.63
		c-8.14,1.83-15.38,5.44-22.2,10.3c15.48-2.54,27.09-3.49,34.06-4.06l1.96-0.16c5.99-0.5,11.82,2.23,15.26,7.17
		C373.71,132.79,374.41,138.62,372.47,143.79z M371.96,145c0,0,0,0.01-0.01,0.01C371.96,145.01,371.96,145.01,371.96,145z
		 M371.97,144.99c0,0,0,0.01,0,0.01C371.96,144.99,371.96,144.99,371.97,144.99z M371.97,144.98L371.97,144.98
		C371.97,144.98,371.97,144.98,371.97,144.98z"/>
</g>
</svg>
