<?xml version="1.0" encoding="utf-8"?>
<!-- Generator: Adobe Adobe Illustrator 24.2.0, SVG Export Plug-In . SVG Version: 6.00 Build 0)  -->
<svg version="1.1" id="Ebene_1" xmlns="http://www.w3.org/2000/svg" xmlns:xlink="http://www.w3.org/1999/xlink" x="0px" y="0px"
	 width="512px" height="512px" viewBox="0 0 512 512" style="enable-background:new 0 0 512 512;" xml:space="preserve">
<style type="text/css">
	.st0{fill:none;stroke:#000000;stroke-width:30;stroke-linecap:round;stroke-linejoin:round;stroke-miterlimit:10;}
	.st1{fill:none;stroke:#000000;stroke-width:18;stroke-linecap:round;stroke-linejoin:round;stroke-miterlimit:10;}
</style>
<g>
	<!-- bulb -->
	<path class="st0" d="M256,470c-76,0-106-50-98-110c7-42,52-60,98-60s91,18,98,60C362,420,332,470,256,470z"/>
	<path class="st0" d="M222,308c-22,55-20,113-2,158"/>
	<path class="st0" d="M290,308c22,55,20,113,2,158"/>
	<!-- stalks -->
	<path class="st0" d="M256,300v-150"/>
	<path class="st0" d="M224,304c-9,-62,-24,-104,-36,-148"/>
	<path class="st0" d="M288,304c9,-62,24,-104,36,-148"/>
	<!-- center fronds -->
	<path class="st1" d="M256,150v-92"/>
	<path class="st1" d="M256,122c-21,-22,-36,-34,-46,-50"/>
	<path class="st1" d="M256,96c-16,-16,-26,-26,-34,-38"/>
	<path class="st1" d="M256,122c21,-22,36,-34,46,-50"/>
	<path class="st1" d="M256,96c16,-16,26,-26,34,-38"/>
	<!-- left fronds -->
	<path class="st1" d="M188,156c-12,-40,-20,-65,-25,-94"/>
	<path class="st1" d="M182,120c-17,-15,-27,-25,-34,-40"/>
	<path class="st1" d="M178,96c-16,-10,-24,-18,-30,-32"/>
	<path class="st1" d="M184,120c16,-18,26,-28,34,-42"/>
	<!-- right fronds -->
	<path class="st1" d="M324,156c12,-40,20,-65,25,-94"/>
	<path class="st1" d="M330,120c17,-15,27,-25,34,-40"/>
	<path class="st1" d="M334,96c16,-10,24,-18,30,-32"/>
	<path class="st1" d="M328,120c-16,-18,-26,-28,-34,-42"/>
</g>
</svg>
