<?xml version="1.0" encoding="UTF-8" standalone="no"?>
<!DOCTYPE svg PUBLIC "-//W3C//DTD SVG 1.1//EN" "http://www.w3.org/Graphics/SVG/1.1/DTD/svg11.dtd">
<svg width="100%" height="100%" viewBox="0 0 512 512" version="1.1" xmlns="http://www.w3.org/2000/svg" xml:space="preserve" style="fill-rule:evenodd;clip-rule:evenodd;stroke-linecap:round;stroke-linejoin:round;">
  <g style="fill:none;stroke:#000;stroke-width:10px;">
    <path d="M256 94C236 96 218 107 208 124C198 141 198 161 208 178C217 194 232 207 256 222C280 207 295 194 304 178C314 161 314 141 304 124C294 107 276 96 256 94Z"/>
    <path d="M256 222C234 251 220 286 220 323C220 379 236 418 256 440C276 418 292 379 292 323C292 286 278 251 256 222Z"/>
    <path d="M256 94C261 75 275 60 295 54"/>
    <path d="M256 252L256 424"/>
  </g>
</svg>
