<?xml version="1.0" encoding="UTF-8" standalone="no"?>
<!DOCTYPE svg PUBLIC "-//W3C//DTD SVG 1.1//EN" "http://www.w3.org/Graphics/SVG/1.1/DTD/svg11.dtd">
<svg width="100%" height="100%" viewBox="0 0 512 512" version="1.1" xmlns="http://www.w3.org/2000/svg" xmlns:xlink="http://www.w3.org/1999/xlink" xml:space="preserve" xmlns:serif="http://www.serif.com/" style="fill-rule:evenodd;clip-rule:evenodd;stroke-linejoin:round;stroke-miterlimit:2;">
    <g transform="matrix(1.01646,0,0,1.01646,0.398232,-3.14674)">
        <g transform="matrix(1,0,0,1,-4.52571,-11.4087)">
            <path d="M259.378,479.942L316.599,493.649C322.053,494.955 327.542,491.588 328.849,486.133C330.156,480.678 326.788,475.189 321.333,473.883L264.112,460.176C258.658,458.87 253.168,462.238 251.862,467.692C250.555,473.147 253.923,478.636 259.378,479.942Z"/>
        </g>
        <g transform="matrix(1,0,0,1,-4.52571,-11.4087)">
            <path d="M212.612,491.279L265.219,478.967C270.681,477.689 274.077,472.218 272.799,466.756C271.521,461.295 266.049,457.899 260.588,459.177L207.981,471.489C202.52,472.767 199.123,478.238 200.401,483.7C201.68,489.161 207.151,492.557 212.612,491.279Z"/>
        </g>
        <g transform="matrix(1,0,0,1,-4.52571,-11.4087)">
            <path d="M254.901,463.484L225.878,495.028C222.081,499.156 222.349,505.59 226.476,509.388C230.604,513.186 237.038,512.918 240.836,508.79L269.858,477.245C273.656,473.118 273.388,466.683 269.26,462.886C265.133,459.088 258.698,459.356 254.901,463.484Z"/>
        </g>
        <g transform="matrix(1,0,0,1,-4.52571,-11.4087)">
            <path d="M253.211,470.48L252.48,507.85C252.371,513.458 256.834,518.1 262.442,518.21C268.05,518.319 272.692,513.856 272.802,508.248L273.532,470.878C273.642,465.27 269.178,460.628 263.571,460.518C257.963,460.409 253.321,464.872 253.211,470.48Z"/>
        </g>
        <g transform="matrix(1,0,0,1,-4.52571,-11.4087)">
            <path d="M255.704,478.804L289.449,510.835C293.517,514.696 299.955,514.528 303.816,510.46C307.678,506.392 307.51,499.954 303.442,496.093L269.696,464.063C265.628,460.201 259.19,460.369 255.329,464.437C251.468,468.505 251.635,474.943 255.704,478.804Z"/>
        </g>
        <g transform="matrix(1,0,0,1,-4.52571,-11.4087)">
            <path d="M231.354,187.803C182.987,205.146 163.934,209.287 136.893,227.568C77.896,267.451 57.465,330.037 61.798,369.904C66.141,409.864 65.249,410.883 82.926,437.449C108.847,476.403 148.244,477.03 186.444,478.759C197.488,479.258 208.554,479.223 219.609,479.096C232.169,478.951 244.723,478.454 257.274,477.955C262.878,477.732 267.247,473.001 267.025,467.397C266.802,461.793 262.071,457.423 256.467,457.646C244.107,458.137 231.744,458.629 219.375,458.772C208.705,458.895 198.023,458.937 187.363,458.454C155.395,457.007 121.539,458.789 99.847,426.189C84.575,403.238 85.756,402.231 82.004,367.708C78.236,333.031 96.959,279.098 148.276,244.406C173.983,227.028 192.234,223.423 238.215,206.935C243.494,205.042 246.244,199.219 244.351,193.939C242.458,188.659 236.634,185.91 231.354,187.803Z"/>
        </g>
        <g transform="matrix(1,0,0,1,-4.52571,-11.4087)">
            <path d="M233.265,36.225C233.265,36.225 251.442,88.79 252.803,98.054C254.043,106.491 255.273,113.238 251.815,127.686C249.634,136.795 238.884,175.229 223.439,195.217C197.738,228.477 185.385,237.325 165.077,257.164C138.494,283.135 126.104,303.624 120.21,323.051C116.253,336.095 114.369,361.608 116.324,375.718C118.247,389.596 121.636,410.913 128.305,424.072C135.284,437.842 142.643,450.877 155.737,460.075C168.587,469.1 181.206,471.921 200.132,475.458C217.745,478.749 239.488,478.674 258.547,479.567C264.15,479.83 268.912,475.495 269.174,469.892C269.437,464.289 265.102,459.527 259.499,459.264C241.35,458.414 220.637,458.612 203.865,455.478C188.404,452.589 177.917,450.815 167.42,443.442C157.167,436.241 151.899,425.665 146.435,414.884C140.661,403.492 138.122,384.942 136.457,372.928C134.824,361.147 136.356,339.843 139.66,328.952C144.808,311.984 156.062,294.386 179.28,271.703C200.262,251.205 212.968,242.009 239.522,207.645C256.764,185.332 269.147,142.587 271.582,132.418C275.938,114.221 274.474,105.726 272.912,95.1C271.472,85.3 252.489,29.625 252.489,29.625C250.668,24.32 244.882,21.492 239.577,23.313C234.272,25.134 231.444,30.92 233.265,36.225Z"/>
        </g>
        <g transform="matrix(1,0,0,1,-4.52571,-11.4087)">
            <path d="M263.24,461.337C262.8,461.012 261.487,460.042 260.878,459.57C252.155,452.818 243.831,445.4 236.548,437.092C218.956,417.023 214.663,390.876 220.347,365.933C225.598,342.892 233.077,330.247 240.45,317.632C245.934,308.248 251.358,298.873 256.046,286.126C271.59,243.857 279.485,203.245 276.561,158.715C275.652,144.888 271.858,132.391 269.744,118.696C268.136,108.282 261.753,87.522 258.958,80.561C255.519,71.997 244.971,46.036 240.515,34.78C238.45,29.565 232.54,27.008 227.325,29.072C222.11,31.137 219.552,37.047 221.617,42.262C226.082,53.54 236.651,79.554 240.096,88.135C242.564,94.281 248.237,112.602 249.656,121.797C251.678,134.892 255.411,146.825 256.279,160.047C259.013,201.667 251.498,239.604 236.969,279.111C225.685,309.795 209.933,320.158 200.53,361.417C193.406,392.674 199.218,425.341 221.264,450.49C229.405,459.777 238.686,468.095 248.436,475.642C251.425,477.956 255.524,480.746 259.607,481.314C265.162,482.087 270.3,478.205 271.074,472.65C271.808,467.376 268.346,462.478 263.24,461.337Z"/>
        </g>
        <g transform="matrix(1,0,0,1,-4.52571,-11.4087)">
            <path d="M243.409,36.39C250.185,60.884 256.961,85.379 263.989,109.802C269.192,127.879 274.375,145.967 280.103,163.885C289.053,191.879 301.878,226.449 320.303,249.631C360.489,300.191 375.511,321.408 374.211,361.966C373.514,383.711 366.148,409.217 354.811,428.305C348.012,439.752 339.96,448.971 330.701,452.572C321.935,455.981 305.932,456.715 291.183,457.096C274.176,457.536 258.586,457.467 254.115,458.536C248.66,459.842 245.291,465.33 246.597,470.785C247.902,476.24 253.39,479.609 258.845,478.304C262.808,477.355 276.637,477.805 291.708,477.415C309.037,476.966 327.769,475.521 338.069,471.515C350.903,466.523 362.861,454.553 372.287,438.684C385.285,416.798 393.726,387.551 394.525,362.618C395.971,317.533 380.886,293.187 336.214,236.984C319.211,215.591 307.722,183.529 299.463,157.695C293.795,139.966 288.669,122.068 283.522,104.181C276.513,79.825 269.756,55.398 262.998,30.971C261.503,25.565 255.9,22.391 250.494,23.886C245.088,25.381 241.913,30.984 243.409,36.39Z"/>
        </g>
        <g transform="matrix(1,0,0,1,-4.52571,-11.4087)">
            <path d="M252.343,26.052C258.416,70.225 264.447,85.577 270.206,107.609C274.559,124.262 281.405,163.34 289.637,178.064C300.289,197.116 328,218.1 348.369,231.762C391.499,260.689 426.522,299.087 430.092,351.614C432.816,391.696 418.077,425.046 404.36,437.887C387.564,453.609 369.735,452.348 348.18,455.349C319.366,459.361 288.884,459.678 259.822,460.982C254.219,461.233 249.874,465.987 250.125,471.59C250.377,477.193 255.13,481.538 260.733,481.287C290.418,479.955 321.551,479.578 350.982,475.48C377,471.858 397.977,471.703 418.25,452.725C434.615,437.407 453.621,398.054 450.37,350.236C446.36,291.242 408.131,247.37 359.691,214.881C341.735,202.839 316.767,184.94 307.377,168.145C299.722,154.452 293.919,117.956 289.871,102.469C284.278,81.074 278.376,66.178 272.479,23.284C271.715,17.727 266.584,13.836 261.027,14.6C255.471,15.364 251.58,20.496 252.343,26.052Z"/>
        </g>
    </g>
</svg>
