<?xml version="1.0" encoding="utf-8"?>
<!-- Generator: Adobe Adobe Illustrator 24.2.0, SVG Export Plug-In . SVG Version: 6.00 Build 0)  -->
<svg version="1.1" id="Ebene_1" xmlns="http://www.w3.org/2000/svg" xmlns:xlink="http://www.w3.org/1999/xlink" x="0px" y="0px"
	 width="512px" height="512px" viewBox="0 0 512 512" style="enable-background:new 0 0 512 512;" xml:space="preserve">
<style type="text/css">
	.st0{fill:none;stroke:#000000;stroke-width:30;stroke-linejoin:round;stroke-miterlimit:10;}
	.st1{stroke:#000000;stroke-width:30;stroke-linejoin:round;stroke-miterlimit:10;}
</style>
<g>
	<path d="M256,107.32c-45.69,0-88.82-3.98-121.45-11.21c-26.59-5.89-61.94-16.7-61.94-42.46s35.35-36.57,61.94-42.46
		C167.18,3.98,210.31,0,256,0s88.82,3.98,121.45,11.21c26.59,5.89,61.94,16.7,61.94,42.46s-35.35,36.57-61.94,42.46
		C344.82,103.34,301.69,107.32,256,107.32z M111.17,53.66c6.69,3.29,19.25,7.77,40.55,11.75c28.99,5.41,66.02,8.39,104.28,8.39
		s75.3-2.98,104.28-8.39c21.3-3.98,33.85-8.47,40.55-11.75c-6.69-3.29-19.25-7.77-40.55-11.75C331.3,36.5,294.26,33.51,256,33.51
		s-75.3,2.98-104.28,8.39C130.42,45.89,117.86,50.38,111.17,53.66z"/>
	<g>
		<rect x="177.15" y="229.29" width="157.71" height="90.32"/>
		<path d="M334.85,336.37H177.15c-9.25,0-16.76-7.5-16.76-16.76v-90.32c0-9.25,7.5-16.76,16.76-16.76h157.71
			c9.25,0,16.76,7.5,16.76,16.76v90.32C351.61,328.87,344.11,336.37,334.85,336.37z M193.9,302.86H318.1v-56.81H193.9V302.86z"/>
	</g>
	<path d="M392.43,512H118.6c-8.94,0-16.31-7.02-16.74-15.95L80.66,54.46l33.48-1.61l20.44,425.63H376.5l21.37-425.67l33.47,1.68
		l-22.17,441.58C408.72,505,401.36,512,392.43,512z"/>
</g>
</svg>
