<?xml version="1.0" encoding="UTF-8" standalone="no"?>
<!DOCTYPE svg PUBLIC "-//W3C//DTD SVG 1.1//EN" "http://www.w3.org/Graphics/SVG/1.1/DTD/svg11.dtd">
<svg width="100%" height="100%" viewBox="0 0 512 512" version="1.1" xmlns="http://www.w3.org/2000/svg" xmlns:xlink="http://www.w3.org/1999/xlink" xml:space="preserve" xmlns:serif="http://www.serif.com/" style="fill-rule:evenodd;clip-rule:evenodd;stroke-linecap:round;stroke-linejoin:round;stroke-miterlimit:1.5;">
    <g transform="matrix(1.04592,-0.420997,0.420997,1.04592,-182.891,-2.33194)">
        <path d="M254.14,142.043C317.921,142.043 369.703,167.574 369.703,199.021C369.703,230.469 319.781,249.597 256,249.597C192.219,249.597 138.577,230.469 138.577,199.021C138.577,167.574 190.359,142.043 254.14,142.043ZM194.391,150.25C199.198,166.533 197.775,196.244 194.098,210.396M237.942,142.599C243.545,161.59 239.21,198.743 234.655,215.517M280.043,143.482C285.781,160.676 284.479,197.947 277.089,218.564M315.709,150.805C319.539,167.875 317.247,194.709 315.436,209.839" style="fill:none;stroke:black;stroke-width:11.27px;"/>
    </g>
    <g transform="matrix(-0.333416,1.07705,-1.07705,-0.333416,695.169,-25.2839)">
        <path d="M254.14,142.043C317.921,142.043 369.703,167.574 369.703,199.021C369.703,230.469 319.781,249.597 256,249.597C192.219,249.597 138.577,230.469 138.577,199.021C138.577,167.574 190.359,142.043 254.14,142.043ZM194.391,150.25C199.198,166.533 199.434,181.668 195.757,195.82M237.942,142.599C243.545,161.59 242.575,179.798 238.02,196.572M280.043,143.482C285.781,160.676 280.702,180.205 277.375,197.82M315.709,150.805C319.539,167.875 319.075,182.763 317.265,197.893" style="fill:none;stroke:black;stroke-width:11.27px;"/>
    </g>
    <g transform="matrix(0.508893,-1.00609,1.00609,0.508893,-196.57,479.452)">
        <path d="M254.14,142.043C317.921,142.043 369.703,167.574 369.703,199.021C369.703,230.469 319.781,249.597 256,249.597C192.219,249.597 138.577,230.469 138.577,199.021C138.577,167.574 190.359,142.043 254.14,142.043ZM194.391,150.25C199.198,166.533 194.08,227.623 190.403,241.775M237.942,142.599C243.545,161.59 233.472,231.627 228.917,248.401M280.043,143.482C283.762,170.133 280.973,226.133 272.772,249.142M315.709,150.805C319.539,167.875 320.618,225.019 314.254,243.371" style="fill:none;stroke:black;stroke-width:11.27px;"/>
    </g>
    <g transform="matrix(1.12747,0,0,1.12747,47.6984,208.669)">
        <path d="M254.14,142.043C317.921,142.043 369.703,167.574 369.703,199.021C369.703,230.469 319.781,249.597 256,249.597C192.219,249.597 138.577,230.469 138.577,199.021C138.577,167.574 190.359,142.043 254.14,142.043ZM194.391,150.25C199.198,166.533 199.434,181.668 195.757,195.82M237.942,142.599C243.545,161.59 242.575,179.798 238.02,196.572M280.043,143.482C285.781,160.676 284.468,178.526 281.142,196.14M315.709,150.805C319.539,167.875 319.075,182.763 317.265,197.893" style="fill:none;stroke:black;stroke-width:11.27px;"/>
    </g>
</svg>
