<?xml version="1.0" encoding="utf-8"?>
<!-- Generator: Adobe Adobe Illustrator 24.2.0, SVG Export Plug-In . SVG Version: 6.00 Build 0)  -->
<svg version="1.1" id="Ebene_1" xmlns="http://www.w3.org/2000/svg" xmlns:xlink="http://www.w3.org/1999/xlink" x="0px" y="0px"
	 width="512px" height="512px" viewBox="0 0 512 512" style="enable-background:new 0 0 512 512;" xml:space="preserve">
<style type="text/css">
	.st0{fill:none;stroke:#000000;stroke-width:30;stroke-miterlimit:10;}
	.st1{fill:none;stroke:#000000;stroke-width:25;stroke-miterlimit:10;}
	.st2{fill:none;stroke:#000000;stroke-width:25;stroke-linecap:round;stroke-miterlimit:10;}
</style>
<g>
	<path d="M256.55,499.25c-3.24,0-6.5-0.07-9.77-0.21c-58.39-2.54-114.21-27.59-157.17-70.55c-42.96-42.96-68.01-98.77-70.55-157.16
		c-2.56-58.95,18.07-113.45,58.09-153.47l11.97,11.97l-11.97-11.97c40.02-40.02,94.53-60.65,153.47-58.09
		c58.39,2.54,114.21,27.59,157.17,70.55c42.96,42.96,68.01,98.77,70.55,157.17c2.56,58.95-18.07,113.45-58.09,153.47
		C362.45,478.75,311.73,499.25,256.55,499.25z M101.07,141.78c-33.23,33.23-50.35,78.72-48.21,128.07
		c2.17,49.91,23.72,97.75,60.67,134.7c36.95,36.95,84.79,58.5,134.71,60.67c49.35,2.15,94.84-14.97,128.07-48.21
		c69.01-69.01,63.42-186.89-12.47-262.78C287.97,78.36,170.09,72.77,101.07,141.78L101.07,141.78z"/>
	<path d="M87.68,418.92c-0.79-4.59-1.86-9.94-2.99-15.6c-10.73-53.69-30.71-153.64,54.33-238.68
		c33.18-33.18,72.41-50.35,119.91-52.49c41.35-1.86,83.18,7.84,120.07,16.4l-6.38,27.47c-35.13-8.15-74.95-17.39-112.43-15.7
		c-40.71,1.84-72.88,15.9-101.24,44.26c-74.38,74.38-57,161.29-46.62,213.21c1.17,5.85,2.27,11.38,3.13,16.33L87.68,418.92z"/>
	<path d="M115.66,417.24l-28.17-1.44c2.86-55.83,34.6-107.26,117.11-189.77c40.54-40.54,77.43-64.2,101.24-76.91
		c41.93-22.39,63.63-22.54,72.83-20.64l-5.7,27.62c-13.8-2.85-78.23,19.69-148.42,89.88C147.62,322.89,118.11,369.31,115.66,417.24z
		"/>
	<path d="M105.88,429.95l-8.61-26.86c40.41-12.95,116.68-43.14,173.4-99.86c58.43-58.43,89.67-146.12,90.96-161.96l28.11,2.28
		c-2.06,25.42-39.35,119.85-99.13,179.63C229.69,384.09,148.72,416.22,105.88,429.95z"/>
	<path d="M201.1,439.2c-19.76,0-38.49-2.14-55.97-4.13c-15.75-1.8-30.62-3.49-44.52-3.49v-28.2c15.5,0,31.14,1.78,47.71,3.67
		c17.57,2,35.33,4.03,53.44,4.03c42.48,0,86.92-11.14,135.59-59.81c47.69-47.69,38.14-135.25,24.49-206.2l27.69-5.33
		c14.97,77.79,24.83,174.4-32.24,231.47C301.55,426.96,248.39,439.2,201.1,439.2z"/>
	<path d="M379.41,145.12c-3.61,0-7.22-1.38-9.97-4.13c-5.51-5.51-5.51-14.44,0-19.94c3.77-3.77,7.4-7.31,10.92-10.73
		c22.66-22.07,39.04-38.02,53.36-77.74c2.64-7.33,10.72-11.13,18.05-8.48c7.33,2.64,11.13,10.72,8.49,18.05
		c-16.52,45.84-36.77,65.55-60.21,88.38c-3.45,3.36-7.01,6.83-10.65,10.47C386.62,143.74,383.01,145.12,379.41,145.12z"/>
	<path d="M385.07,157.71c-3.6,0-7.21-1.37-9.96-4.12c-5.51-5.5-5.52-14.43-0.02-19.94c24.39-24.44,78.03-64.46,124.34-59.39
		c7.74,0.85,13.33,7.81,12.49,15.55c-0.85,7.74-7.81,13.33-15.55,12.48c-33.17-3.62-78.76,28.68-101.31,51.28
		C392.3,156.33,388.68,157.71,385.07,157.71z"/>
	<path d="M486.97,162.04c-3.4,0-6.8-1.22-9.51-3.69c-8.19-7.49-23.09-13.72-37.96-15.86c-9.9-1.43-28.54-2.2-42.17,8.68
		c-6.08,4.86-14.96,3.86-19.82-2.22c-4.86-6.09-3.86-14.96,2.22-19.82c16.25-12.97,38.9-18.14,63.79-14.56
		c20.4,2.94,40.69,11.74,52.97,22.96c5.75,5.25,6.15,14.17,0.89,19.92C494.6,160.49,490.79,162.04,486.97,162.04z"/>
	<path d="M363.16,128.87c-5.77,0-11.19-3.57-13.27-9.32c-2.64-7.33,1.15-15.41,8.48-18.05c4.6-1.66,14.47-10.21,21.36-26.1
		c4.34-10,10.5-30.38,3.05-54.48c-2.3-7.44,1.86-15.34,9.3-17.64c7.44-2.3,15.34,1.86,17.64,9.3
		c16.79,54.28-14.03,105.43-41.78,115.44C366.36,128.6,364.75,128.87,363.16,128.87z"/>
	<path d="M14.09,413.01c-6.61,0-12.51-4.67-13.82-11.4c-1.49-7.64,3.49-15.05,11.14-16.54l42.91-8.39
		c7.64-1.49,15.05,3.49,16.54,11.13c1.49,7.64-3.49,15.05-11.14,16.54l-42.91,8.39C15.9,412.93,14.99,413.01,14.09,413.01z"/>
	<path d="M86.54,509.35c-2.08,0-4.19-0.46-6.18-1.44c-7-3.42-9.9-11.86-6.48-18.86l24.68-50.5c3.42-7,11.86-9.9,18.86-6.48
		c7,3.42,9.9,11.86,6.48,18.86l-24.68,50.5C96.78,506.44,91.76,509.35,86.54,509.35z"/>
	<path d="M44.43,467.22c-3.61,0-7.22-1.38-9.97-4.13c-5.51-5.51-5.51-14.44,0-19.94l37.59-37.59c5.51-5.51,14.44-5.51,19.94,0
		c5.51,5.51,5.51,14.44,0,19.94L54.4,463.09C51.65,465.85,48.04,467.22,44.43,467.22z"/>
</g>
</svg>
