<?xml version="1.0" encoding="utf-8"?>
<!-- Generator: Adobe Adobe Illustrator 24.2.0, SVG Export Plug-In . SVG Version: 6.00 Build 0)  -->
<svg version="1.1" id="Ebene_1" xmlns="http://www.w3.org/2000/svg" xmlns:xlink="http://www.w3.org/1999/xlink" x="0px" y="0px"
	 width="512px" height="512px" viewBox="0 0 512 512" style="enable-background:new 0 0 512 512;" xml:space="preserve">
<style type="text/css">
	.st0{fill:none;stroke:#000000;stroke-width:10;stroke-miterlimit:10;}
</style>
<g>
	<rect x="376.22" y="55.22" width="12.53" height="31"/>
	<rect x="376.24" y="425.87" width="12.53" height="31"/>
	<path d="M139.06,425.75c0,0,5.58-6.41,5.58-16.96c0-75.97,0-239.59,0-303.88c0-13.38-5.52-18.82-5.52-18.82l-15.73,0
		c0,0,6.18-0.82,6.18,18.25c0,65.16,0,243.6,0,304.9c0,6.79-6.07,16.5-6.07,16.5"/>
	<path d="M374.03,425.87c0,0-6.83-5.91-6.83-16.46c0-75.97,0-239.59,0-303.88c0-13.38,5.37-19.32,5.37-19.32l16,0.01
		c0,0-6.3-0.33-6.3,18.73c0,65.16,0,243.6,0,304.9c0,6.79,6.42,16.02,6.42,16.02"/>
	<rect x="123.23" y="55.09" width="12.53" height="31"/>
	<rect x="123.23" y="425.74" width="12.53" height="31.17"/>
	<g>
		<path d="M250.72,384.26c-17.72,0-34.38-6.9-46.92-19.43c-12.53-12.53-19.43-29.19-19.43-46.92s6.9-34.38,19.43-46.92
			s29.19-19.43,46.92-19.43c8.74,0,17.23,1.67,25.24,4.97l-2.97,7.22c-7.06-2.91-14.56-4.38-22.27-4.38
			c-15.64,0-30.34,6.09-41.39,17.15s-17.14,25.76-17.14,41.39c0,15.64,6.09,30.34,17.15,41.39s25.76,17.15,41.39,17.15
			s30.34-6.09,41.39-17.15c11.06-11.06,17.15-25.76,17.15-41.39c0-7.91-1.55-15.57-4.6-22.79l7.19-3.04
			c3.46,8.18,5.22,16.87,5.22,25.83c0,17.72-6.9,34.38-19.43,46.92C285.11,377.35,268.45,384.26,250.72,384.26z"/>
		<path d="M245.2,311.98c-5.43,0-9.84-4.41-9.84-9.84s4.41-9.84,9.84-9.84c5.43,0,9.84,4.41,9.84,9.84S250.63,311.98,245.2,311.98z
			 M245.2,296.2c-3.27,0-5.94,2.66-5.94,5.94s2.66,5.94,5.94,5.94s5.94-2.66,5.94-5.94S248.48,296.2,245.2,296.2z"/>
		<path d="M261.89,332.8c-4.82,0-8.75-3.93-8.75-8.75s3.92-8.75,8.75-8.75c4.82,0,8.75,3.92,8.75,8.75
			C270.64,328.88,266.71,332.8,261.89,332.8z M261.89,320.51c-1.95,0-3.54,1.59-3.54,3.54c0,1.95,1.59,3.54,3.54,3.54
			s3.54-1.59,3.54-3.54C265.43,322.1,263.84,320.51,261.89,320.51z"/>
		<path d="M225.17,343.08c-3.42,0-6.2-2.8-6.2-6.25s2.78-6.25,6.2-6.25s6.2,2.8,6.2,6.25S228.59,343.08,225.17,343.08z
			 M225.17,334.49c-1.26,0-2.29,1.05-2.29,2.34s1.03,2.34,2.29,2.34s2.29-1.05,2.29-2.34S226.43,334.49,225.17,334.49z"/>
		<path d="M211.98,311.98c-2.37,0-4.3-1.93-4.3-4.3c0-2.37,1.93-4.3,4.3-4.3c2.37,0,4.3,1.93,4.3,4.3
			C216.28,310.05,214.35,311.98,211.98,311.98z M211.98,307.29c-0.22,0-0.39,0.17-0.39,0.39c0,0.22,0.17,0.39,0.39,0.39
			c0.22,0,0.39-0.17,0.39-0.39C212.37,307.47,212.2,307.29,211.98,307.29z"/>
		<path d="M238.48,288.7c-4.06,0-7.36-3.3-7.36-7.36c0-4.06,3.3-7.36,7.36-7.36c4.06,0,7.36,3.3,7.36,7.36
			C245.84,285.4,242.54,288.7,238.48,288.7z M238.48,277.88c-1.91,0-3.46,1.55-3.46,3.46s1.55,3.46,3.46,3.46
			c1.91,0,3.46-1.55,3.46-3.46S240.39,277.88,238.48,277.88z"/>
		<path d="M295.08,335.19c-4.75,0-8.61-3.86-8.61-8.61s3.86-8.61,8.61-8.61c4.75,0,8.61,3.86,8.61,8.61
			C303.68,331.33,299.82,335.19,295.08,335.19z M295.08,321.88c-2.59,0-4.7,2.11-4.7,4.7c0,2.59,2.11,4.7,4.7,4.7
			c2.59,0,4.7-2.11,4.7-4.7C299.78,323.99,297.67,321.88,295.08,321.88z"/>
		<path d="M266.09,367.59c-4.02,0-7.29-3.27-7.29-7.29c0-4.02,3.27-7.29,7.29-7.29s7.29,3.27,7.29,7.29S270.11,367.59,266.09,367.59
			z M266.09,356.9c-1.87,0-3.39,1.52-3.39,3.39c0,1.87,1.52,3.39,3.39,3.39c1.87,0,3.39-1.52,3.39-3.39
			C269.47,358.42,267.96,356.9,266.09,356.9z"/>
		<path d="M227.37,327.27c-4.63,0-8.39-3.76-8.39-8.39s3.76-8.39,8.39-8.39c4.63,0,8.39,3.76,8.39,8.39
			C235.76,323.51,231.99,327.27,227.37,327.27z M227.37,314.4c-2.47,0-4.49,2.01-4.49,4.49s2.01,4.49,4.49,4.49
			c2.47,0,4.49-2.01,4.49-4.49S229.84,314.4,227.37,314.4z"/>
		<path d="M273.44,341.11c-2.18,0-3.96-1.78-3.96-3.96s1.78-3.96,3.96-3.96s3.96,1.78,3.96,3.96S275.62,341.11,273.44,341.11z
			 M273.44,337.08c-0.03,0-0.06,0.03-0.06,0.06c0,0.07,0.11,0.06,0.11,0C273.5,337.11,273.47,337.08,273.44,337.08z"/>
		<path d="M248.53,336.98c-1.76,0-3.2-1.43-3.2-3.2c0-1.76,1.43-3.2,3.2-3.2s3.2,1.43,3.2,3.2
			C251.73,335.54,250.29,336.98,248.53,336.98z M248.53,333.07c-0.39,0-0.71,0.32-0.71,0.71s0.32,0.71,0.71,0.71
			c0.39,0,0.71-0.32,0.71-0.71S248.92,333.07,248.53,333.07z"/>
		<path d="M223.53,297.84c-1.72,0-3.12-1.4-3.12-3.12s1.4-3.12,3.12-3.12c1.72,0,3.12,1.4,3.12,3.12S225.25,297.84,223.53,297.84z
			 M223.53,293.93c-0.43,0-0.78,0.35-0.78,0.78c0,0.43,0.35,0.78,0.78,0.78c0.43,0,0.78-0.35,0.78-0.78
			C224.31,294.28,223.96,293.93,223.53,293.93z"/>
		<path d="M241.26,357.44c-3.25,0-5.9-2.64-5.9-5.9s2.64-5.9,5.9-5.9c3.25,0,5.9,2.64,5.9,5.9S244.51,357.44,241.26,357.44z
			 M241.26,349.55c-1.1,0-1.99,0.89-1.99,1.99s0.89,1.99,1.99,1.99c1.1,0,1.99-0.89,1.99-1.99S242.36,349.55,241.26,349.55z"/>
		<path d="M222.5,284.82c-2.67,0-4.84-2.17-4.84-4.84s2.17-4.84,4.84-4.84c2.67,0,4.84,2.17,4.84,4.84S225.17,284.82,222.5,284.82z
			 M222.5,279.04c-0.52,0-0.94,0.42-0.94,0.94c0,0.52,0.42,0.94,0.94,0.94c0.52,0,0.94-0.42,0.94-0.94
			C223.44,279.46,223.02,279.04,222.5,279.04z"/>
		<path d="M296.42,307.29c-3.01,0-5.46-2.22-5.46-4.94c0-2.73,2.45-4.94,5.46-4.94s5.46,2.22,5.46,4.94
			C301.88,305.08,299.43,307.29,296.42,307.29z M296.42,301.31c-0.92,0-1.56,0.55-1.56,1.04c0,0.49,0.64,1.04,1.56,1.04
			s1.56-0.55,1.56-1.04C297.98,301.86,297.34,301.31,296.42,301.31z"/>
		<path d="M203.05,330.69c-2.53,0-4.59-1.93-4.59-4.29s2.06-4.29,4.59-4.29c2.53,0,4.59,1.93,4.59,4.29S205.58,330.69,203.05,330.69
			z M203.05,326c-0.42,0-0.68,0.25-0.68,0.39c0,0.14,0.26,0.39,0.68,0.39c0.42,0,0.68-0.25,0.68-0.39
			C203.73,326.26,203.47,326,203.05,326z"/>
		<path d="M223.49,366.4c-3.21,0-5.83-2.61-5.83-5.83c0-3.21,2.61-5.83,5.83-5.83c3.21,0,5.83,2.61,5.83,5.83
			C229.32,363.79,226.7,366.4,223.49,366.4z M223.49,358.65c-1.06,0-1.92,0.86-1.92,1.92s0.86,1.92,1.92,1.92
			c1.06,0,1.92-0.86,1.92-1.92S224.55,358.65,223.49,358.65z"/>
		<path d="M283.64,350.99c-2.29,0-4.15-1.93-4.15-4.29s1.86-4.29,4.15-4.29s4.15,1.93,4.15,4.29S285.93,350.99,283.64,350.99z
			 M283.64,346.31c-0.1,0-0.24,0.15-0.24,0.39c0,0.24,0.14,0.39,0.24,0.39c0.1,0,0.24-0.15,0.24-0.39S283.74,346.31,283.64,346.31z"
			/>
		<path d="M245.88,322.75l15.82-37.91c-3.04-1.26-5.18-4.26-5.18-7.74c0-4.62,3.76-8.38,8.38-8.38c1.13,0,2.23,0.23,3.25,0.66
			l5.71-13.67l4.8,2.01l-8.6,20.58l-2.75-3.24c-0.61-0.72-1.49-1.12-2.42-1.12c-1.75,0-3.18,1.42-3.18,3.18s1.42,3.18,3.18,3.18
			c0.08,0,0.16-0.01,0.25-0.02l4.24-0.33l-13.83,33.14l24.88-10.38l0.58,0.78l-0.15-0.96l1.9-0.79l28.27-11.56l1.97,4.82
			l-26.85,10.97c-0.63,2.01-2.51,3.47-4.72,3.47c-0.8,0-1.58-0.2-2.28-0.56L245.88,322.75z"/>
	</g>
	<rect x="160.11" y="146.35" width="160.95" height="13.52"/>
	<rect x="180.4" y="185.12" width="160.95" height="13.52"/>
	<path d="M388.57,86.22l-265.18-0.13l0.01-4l265.18,0.13L388.57,86.22z M388.6,77.22l-265.18-0.13l0.01-4l265.18,0.13L388.6,77.22z
		 M388.63,68.22l-265.18-0.13l0.01-4l265.18,0.13L388.63,68.22z M388.66,59.22l-265.18-0.13l0.01-4l265.18,0.13L388.66,59.22z"/>
	<path d="M388.57,456.87l-265.18-0.13l0.01-4l265.18,0.13L388.57,456.87z M388.6,447.87l-265.18-0.13l0.01-4l265.18,0.13
		L388.6,447.87z M388.63,438.87l-265.18-0.13l0.01-4l265.18,0.13L388.63,438.87z M388.66,429.87l-265.18-0.13l0.01-4l265.18,0.13
		L388.66,429.87z"/>
</g>
</svg>
