<?xml version="1.0" encoding="utf-8"?>
<!-- Generator: Adobe Adobe Illustrator 24.2.0, SVG Export Plug-In . SVG Version: 6.00 Build 0)  -->
<svg version="1.1" id="Ebene_1" xmlns="http://www.w3.org/2000/svg" xmlns:xlink="http://www.w3.org/1999/xlink" x="0px" y="0px"
	 width="512px" height="512px" viewBox="0 0 512 512" style="enable-background:new 0 0 512 512;" xml:space="preserve">
<style type="text/css">
	.st0{fill:none;stroke:#000000;stroke-width:30;stroke-miterlimit:10;}
	.st1{fill:none;stroke:#000000;stroke-width:30;stroke-linecap:round;stroke-miterlimit:10;}
</style>
<g>
	<path d="M380.93,511.57c-0.83,0-1.67-0.01-2.51-0.03c-32.88-0.68-65.22-14.63-93.54-40.33c-36.3-32.96-46.66-62.58-56.67-91.23
		c-7.56-21.63-14.7-42.06-33.95-64.28c-27.36-31.58-54.28-38.05-82.78-44.89c-26.44-6.35-53.77-12.92-77.06-39.79
		C-20.22,167.95,0.4,83.81,47.54,36.67c22.7-22.7,61.73-36.93,99.42-36.22c28.7,0.53,70.68,9.54,107.68,49.4
		c30.9,33.28,35.58,63.16,39.72,89.53c3.15,20.11,5.88,37.47,19.9,56.07c15.12,20.05,32.18,24.27,55.79,30.1
		c22.38,5.53,50.22,12.4,80.18,35.7l0,0c46.23,35.96,58.01,76.7,59.74,104.54c2.73,43.91-17.45,84.96-38.66,106.17
		C445.36,497.91,414.16,511.57,380.93,511.57z M144.15,34.48c-31.94,0-59.33,13.06-72.54,26.27
		c-18.04,18.04-31.02,43.72-34.72,68.69c-3.03,20.42-1.44,50.76,23.27,79.28c16.13,18.62,35.17,23.19,59.28,28.98
		c29.42,7.07,66.04,15.86,100.56,55.71c23.51,27.13,32.08,51.64,40.36,75.34c9.4,26.89,17.51,50.11,47.41,77.25
		c22.14,20.1,46.82,31,71.36,31.5c24.66,0.52,48.21-9.73,68.1-29.62c15.29-15.29,30.81-46.84,28.75-79.98
		c-1.89-30.33-17.59-57.17-46.66-79.78l0,0c-24.24-18.85-46.2-24.28-67.44-29.52c-25.76-6.36-52.41-12.94-74.81-42.65
		c-19.16-25.4-22.98-49.79-26.35-71.3c-3.87-24.67-7.21-45.97-31.03-71.63c-28.86-31.09-61.26-38.11-83.36-38.52
		C145.6,34.49,144.87,34.48,144.15,34.48z"/>
	<path d="M203.08,147.1c-5.82,0-11.49-2.98-14.66-8.35c-3.21-4.87-22.65-20.39-29.65-23.63c-6.03-2.79-21.89-6.45-27.47-6.06
		c-7.52,3.54-16.69,1.12-21.42-6.01c-5.2-7.84-3.05-18.4,4.78-23.6c18.31-12.14,58.03,4.58,58.41,4.76
		c10.53,4.87,37.27,24.73,44.65,37.18c4.79,8.09,2.12,18.53-5.97,23.33C209.02,146.33,206.03,147.1,203.08,147.1z M133.47,107.84
		c0,0-0.01,0-0.01,0.01C133.46,107.84,133.47,107.84,133.47,107.84z"/>
	<path d="M172,204.59c-4.81,0-9.55-2.03-12.88-5.88c-0.44-0.25-1.09-0.58-1.48-0.79c-19.83-10.29-42.27-21.96-64.26-21.59
		c-9.38,0.19-17.15-7.34-17.3-16.74c-0.16-9.4,7.34-17.15,16.74-17.3c30.53-0.49,58.25,13.87,80.51,25.41
		c3.14,1.63,8.38,4.35,12.38,9.77c5.57,7.57,3.96,18.23-3.62,23.81C179.04,203.51,175.51,204.59,172,204.59z"/>
	<path d="M423.62,389.62c-4.11,0-8.22-1.48-11.49-4.47c-3.1-2.84-4.91-6.56-5.4-10.42c-6.75-10.31-13.31-20-21.27-28.1
		c-10.47-10.66-22.48-17.09-33.82-18.1c-9.37-0.84-16.28-9.11-15.44-18.48c0.84-9.37,9.09-16.29,18.48-15.44
		c19.39,1.74,38.95,11.73,55.08,28.15c11.13,11.33,19.48,24.12,27.54,36.48c6.64,10.18,3.55,19.74-1.11,24.84
		C432.82,387.75,428.23,389.62,423.62,389.62z M408.77,377.85h0.01H408.77z M411.06,361.1c0,0.01-0.01,0.01-0.02,0.02
		C411.05,361.11,411.06,361.1,411.06,361.1z"/>
	<path d="M371.28,433.55c-7.06,0-13.66-4.43-16.09-11.48c-3.11-9.02-11.89-17.1-19.87-23.96c-11.36-9.77-23.33-19.1-35.56-27.73
		c-7.68-5.42-9.52-16.04-4.09-23.73c5.42-7.68,16.05-9.52,23.73-4.09c13.11,9.25,25.94,19.25,38.12,29.73
		c12.2,10.49,24.26,22.43,29.87,38.68c3.07,8.89-1.65,18.58-10.54,21.65C375,433.25,373.12,433.55,371.28,433.55z"/>
</g>
</svg>
