<?xml version="1.0" encoding="utf-8"?>
<!-- Generator: Adobe Adobe Illustrator 24.2.0, SVG Export Plug-In . SVG Version: 6.00 Build 0)  -->
<svg version="1.1" id="Ebene_1" xmlns="http://www.w3.org/2000/svg" xmlns:xlink="http://www.w3.org/1999/xlink" x="0px" y="0px"
	 width="512px" height="512px" viewBox="0 0 512 512" style="enable-background:new 0 0 512 512;" xml:space="preserve">
<style type="text/css">
	.st0{fill:none;stroke:#000000;stroke-width:25;stroke-linecap:round;stroke-linejoin:round;stroke-miterlimit:10;}
	.st1{fill:none;stroke:#000000;stroke-width:25;stroke-miterlimit:10;}
	.st2{fill:none;stroke:#000000;stroke-width:20;stroke-linecap:round;stroke-linejoin:round;stroke-miterlimit:10;}
	.st3{fill:none;stroke:#000000;stroke-width:25;stroke-linecap:round;stroke-miterlimit:10;}
</style>
<path d="M122.23,497.27c-29.07,0-42.29-18.5-53.19-33.76c-4.09-5.73-7.96-11.14-12.52-15.7c-3.36-3.36-8.24-6.54-13.4-9.91
	c-17.92-11.69-42.46-27.7-42.46-74.27c0-33.08,10.94-61.3,33.44-86.27c20-22.2,46.23-38.52,69.24-52.08l0,0
	c26.8-15.79,52.81-18.87,77.96-21.84c11.3-1.34,21.96-2.6,32.57-4.97c18.96-4.24,44.83-27.65,63.72-44.74
	c21.21-19.18,31.87-28.41,42.59-28.41c15.64,0,22.97,13.88,27.35,22.17c1.14,2.15,2.84,5.38,3.73,6.34c1.39,1.04,3.67,1.79,6.3,2.65
	c7.4,2.43,19.78,6.5,24.9,23.92c4.24,14.44-8.08,26.71-25.12,43.69c-14.05,13.99-31.53,31.41-42.33,52.39
	c-14.97,29.07-19.98,49.36-24.83,68.99c-3.25,13.14-6.6,26.72-12.78,42.12c-0.72,1.8-1.44,3.65-2.18,5.55
	c-12.95,33.24-32.52,83.48-138.31,102.72C131.59,496.82,126.72,497.27,122.23,497.27z M320.25,150.74
	c-5.27,2.85-17.08,13.54-25.9,21.52c-22.12,20.01-49.65,44.91-75.03,50.6c-11.86,2.66-23.67,4.05-35.1,5.4
	c-23.62,2.79-45.93,5.43-68.2,18.55c-47.62,28.06-90.37,58.1-90.37,116.81c0,33.03,14.42,42.44,31.12,53.33
	c6.01,3.92,12.22,7.97,17.42,13.17c6.02,6.02,10.68,12.54,15.18,18.84c11.88,16.62,19.05,26.65,43.04,22.29
	c41.29-7.51,70.89-20.27,90.49-39c16.3-15.59,23.05-32.91,29.01-48.2c0.77-1.98,1.52-3.91,2.27-5.78
	c5.53-13.79,8.53-25.95,11.71-38.82c4.95-20.04,10.57-42.76,26.87-74.43c12.6-24.47,31.62-43.42,46.91-58.65
	c6.92-6.9,16.23-16.17,18.31-20.39c-1.28-3.48-2.87-4-8.25-5.77c-4.13-1.36-9.26-3.04-14.13-6.89c-4.66-3.68-7.47-9.02-10.2-14.17
	C324.12,156.71,321.85,152.43,320.25,150.74z M321.56,150.15L321.56,150.15z"/>
<path d="M358.25,168.51c-1.95,0-3.92-0.57-5.65-1.75c-4.56-3.12-5.72-9.35-2.59-13.9c0.16-0.23,15.9-22.89,45.95-40.63
	c33.67-19.89,70.87-24.6,107.58-13.63c5.29,1.58,8.3,7.15,6.72,12.44c-1.58,5.29-7.16,8.3-12.44,6.72
	c-31.68-9.47-62.52-5.53-91.68,11.69c-21.69,12.81-36.24,29.79-39.62,34.72C364.57,166.99,361.43,168.51,358.25,168.51z"/>
<path d="M358.09,154.25c-1.64,0-3.09-0.2-4.31-0.47c-6.39-1.43-17.62-7.44-21.1-31.6c-2.11-14.67-0.96-33.08,3.24-51.83
	s11.02-35.89,19.19-48.26c13.45-20.36,26.18-21,32.57-19.57c6.39,1.43,17.62,7.44,21.1,31.59c2.11,14.67,0.96,33.08-3.24,51.83
	c-4.2,18.75-11.02,35.89-19.19,48.26C375.47,150.69,365.06,154.25,358.09,154.25z M383.25,22.05c-0.83,0-5.46,1.82-11.81,11.64
	c-6.71,10.37-12.39,24.94-16,41.05c-3.61,16.1-4.69,31.71-3.05,43.94c1.59,11.89,5.14,15.39,5.77,15.59
	c0.61,0.09,5.35-1.56,11.87-11.63c6.71-10.37,12.39-24.94,16-41.05c3.61-16.1,4.69-31.7,3.05-43.94c-1.59-11.89-5.14-15.4-5.77-15.6
	C383.29,22.05,383.28,22.05,383.25,22.05z"/>
<path d="M67.4,459.46c-5.75,0-11.01-2.07-14.9-5.95c-4.94-4.94-6.94-12.1-5.49-19.67c1.13-5.91,4.33-11.74,9.01-16.42l0,0
	c0,0,0,0,0,0c0,0,0,0,0,0c4.68-4.68,10.51-7.88,16.42-9.01c7.56-1.45,14.73,0.55,19.67,5.49c9.13,9.13,7.58,24.98-3.53,36.09
	c-4.68,4.68-10.51,7.88-16.42,9.01C70.55,459.31,68.96,459.46,67.4,459.46z M64.87,426.26L64.87,426.26L64.87,426.26z"/>
</svg>
