<?xml version="1.0" encoding="UTF-8" standalone="no"?>
<!DOCTYPE svg PUBLIC "-//W3C//DTD SVG 1.1//EN" "http://www.w3.org/Graphics/SVG/1.1/DTD/svg11.dtd">
<svg width="100%" height="100%" viewBox="0 0 512 512" version="1.1" xmlns="http://www.w3.org/2000/svg" xmlns:xlink="http://www.w3.org/1999/xlink" xml:space="preserve" xmlns:serif="http://www.serif.com/" style="fill-rule:evenodd;clip-rule:evenodd;stroke-linecap:round;stroke-linejoin:round;stroke-miterlimit:1.5;">
    <g>
        <g transform="matrix(0.901982,0,0,0.830187,-13.317,113.981)">
            <path d="M298.583,92.765C373.847,92.765 440.752,179.74 434.952,286.455C427.283,427.533 382.396,468.149 297.403,469.594C214.07,471.011 161.674,419.717 162.215,286.455C162.649,179.555 223.32,92.765 298.583,92.765Z" style="fill:none;stroke:black;stroke-width:14.07px;"/>
        </g>
        <g transform="matrix(1.19156,0,0,1.19156,-42.2298,-77.1797)">
            <path d="M206.99,235.562C192.325,199.061 170.997,182.346 135.192,170.259C157.309,156.402 196.444,164.132 209.889,184.89C197.095,137.027 196.986,144.884 163.511,106.995C196.492,106.712 223.101,128.83 239.514,154.026C234.47,124.475 233.009,107.507 244.424,71.607C263.066,100.628 256.925,115.315 265.344,154.828C282.416,121.12 293.115,113.77 329.129,110.381C304.315,134.29 299.093,145.972 289.376,178.408C317.369,160.147 328.926,153.348 365.378,172.19C310.55,191.961 302.372,199.343 288.966,230.793" style="fill:none;stroke:black;stroke-width:10.23px;"/>
        </g>
        <g transform="matrix(1.04973,0,0,1.04973,-23.0556,-6.9805)">
            <g transform="matrix(1.13511,0,0,1.13511,-33.5828,-69.5188)">
                <path d="M183.837,324.777L198.086,305.787L210.266,324.839" style="fill:none;stroke:black;stroke-width:5.63px;"/>
            </g>
            <g transform="matrix(1.13511,0,0,1.13511,-82.9907,-69.5188)">
                <path d="M208.853,322.592L210.266,324.839" style="fill:none;stroke:black;stroke-width:5.63px;"/>
            </g>
            <g transform="matrix(1.13511,0,0,1.13511,-33.5828,12.501)">
                <path d="M183.837,324.777L198.086,305.787L210.266,324.839" style="fill:none;stroke:black;stroke-width:5.63px;"/>
            </g>
            <g transform="matrix(1.13511,0,0,1.13511,-82.9907,12.501)">
                <path d="M207.041,320.97L210.266,324.839" style="fill:none;stroke:black;stroke-width:5.63px;"/>
            </g>
            <g transform="matrix(1.13511,0,0,1.13511,-34.6875,93.2524)">
                <path d="M192.148,313.905L198.086,305.787L210.266,324.839" style="fill:none;stroke:black;stroke-width:5.63px;"/>
            </g>
            <g transform="matrix(1.13511,0,0,1.13511,-9.45744,-27.027)">
                <path d="M183.837,324.777L198.086,305.787L210.266,324.839" style="fill:none;stroke:black;stroke-width:5.63px;"/>
            </g>
            <g transform="matrix(1.13511,0,0,1.13511,-8.71979,-110.048)">
                <path d="M183.837,324.777L198.086,305.787L210.266,324.839" style="fill:none;stroke:black;stroke-width:5.63px;"/>
            </g>
            <g transform="matrix(1.13511,0,0,1.13511,-8.71979,51.5098)">
                <path d="M183.837,324.777L198.086,305.787L210.266,324.839" style="fill:none;stroke:black;stroke-width:5.63px;"/>
            </g>
            <g transform="matrix(1.13511,0,0,1.13511,-59.1834,-27.027)">
                <path d="M183.837,324.777L198.086,305.787L210.266,324.839" style="fill:none;stroke:black;stroke-width:5.63px;"/>
            </g>
            <g transform="matrix(1.13511,0,0,1.13511,-58.4458,-110.048)">
                <path d="M204.325,315.516L210.266,324.839" style="fill:none;stroke:black;stroke-width:5.63px;"/>
            </g>
            <g transform="matrix(1.13511,0,0,1.13511,-58.4458,51.5098)">
                <path d="M192.715,313.399L198.086,305.787L210.266,324.839" style="fill:none;stroke:black;stroke-width:5.63px;"/>
            </g>
            <g transform="matrix(1.13511,0,0,1.13511,67.3482,-69.5188)">
                <path d="M183.837,324.777L198.086,305.787L210.266,324.839" style="fill:none;stroke:black;stroke-width:5.63px;"/>
            </g>
            <g transform="matrix(1.13511,0,0,1.13511,67.3482,12.501)">
                <path d="M183.837,324.777L198.086,305.787L210.266,324.839" style="fill:none;stroke:black;stroke-width:5.63px;"/>
            </g>
            <g transform="matrix(1.13511,0,0,1.13511,66.2435,93.2524)">
                <path d="M183.837,324.777L198.086,305.787L210.266,324.839" style="fill:none;stroke:black;stroke-width:5.63px;"/>
            </g>
            <g transform="matrix(1.13511,0,0,1.13511,66.2435,-145.013)">
                <path d="M183.837,324.777L198.086,305.787L210.266,324.839" style="fill:none;stroke:black;stroke-width:5.63px;"/>
            </g>
            <g transform="matrix(1.13511,0,0,1.13511,91.4736,-27.027)">
                <path d="M183.837,324.777L198.086,305.787L210.266,324.839" style="fill:none;stroke:black;stroke-width:5.63px;"/>
            </g>
            <g transform="matrix(1.13511,0,0,1.13511,92.2112,-110.048)">
                <path d="M183.837,324.777L198.086,305.787L210.266,324.839" style="fill:none;stroke:black;stroke-width:5.63px;"/>
            </g>
            <g transform="matrix(1.13511,0,0,1.13511,92.2112,51.5098)">
                <path d="M183.837,324.777L198.086,305.787L210.266,324.839" style="fill:none;stroke:black;stroke-width:5.63px;"/>
            </g>
            <g transform="matrix(1.13511,0,0,1.13511,16.1923,-69.5188)">
                <path d="M183.837,324.777L198.086,305.787L210.266,324.839" style="fill:none;stroke:black;stroke-width:5.63px;"/>
            </g>
            <g transform="matrix(1.13511,0,0,1.13511,16.1923,12.501)">
                <path d="M183.837,324.777L198.086,305.787L210.266,324.839" style="fill:none;stroke:black;stroke-width:5.63px;"/>
            </g>
            <g transform="matrix(1.13511,0,0,1.13511,15.0876,93.2524)">
                <path d="M183.837,324.777L198.086,305.787L210.266,324.839" style="fill:none;stroke:black;stroke-width:5.63px;"/>
            </g>
            <g transform="matrix(1.13511,0,0,1.13511,15.0876,-145.013)">
                <path d="M183.837,324.777L198.086,305.787L210.266,324.839" style="fill:none;stroke:black;stroke-width:5.63px;"/>
            </g>
            <g transform="matrix(1.13511,0,0,1.13511,40.3177,-27.027)">
                <path d="M183.837,324.777L198.086,305.787L210.266,324.839" style="fill:none;stroke:black;stroke-width:5.63px;"/>
            </g>
            <g transform="matrix(1.13511,0,0,1.13511,41.0553,-110.048)">
                <path d="M183.837,324.777L198.086,305.787L210.266,324.839" style="fill:none;stroke:black;stroke-width:5.63px;"/>
            </g>
            <g transform="matrix(1.13511,0,0,1.13511,41.0553,51.5098)">
                <path d="M183.837,324.777L198.086,305.787L210.266,324.839" style="fill:none;stroke:black;stroke-width:5.63px;"/>
            </g>
            <g transform="matrix(1.13511,0,0,1.13511,117.903,-69.5188)">
                <path d="M183.837,324.777L198.086,305.787L210.266,324.839" style="fill:none;stroke:black;stroke-width:5.63px;"/>
            </g>
            <g transform="matrix(1.13511,0,0,1.13511,167.524,-69.5188)">
                <path d="M183.837,324.777L185.043,322.897" style="fill:none;stroke:black;stroke-width:5.63px;"/>
            </g>
            <g transform="matrix(1.13511,0,0,1.13511,117.903,12.501)">
                <path d="M183.837,324.777L198.086,305.787L210.266,324.839" style="fill:none;stroke:black;stroke-width:5.63px;"/>
            </g>
            <g transform="matrix(1.13511,0,0,1.13511,167.524,12.501)">
                <path d="M183.837,324.777L186.969,321.675" style="fill:none;stroke:black;stroke-width:5.63px;"/>
            </g>
            <g transform="matrix(1.13511,0,0,1.13511,116.798,93.2524)">
                <path d="M183.837,324.777L198.086,305.787L203.789,314.78" style="fill:none;stroke:black;stroke-width:5.63px;"/>
            </g>
            <g transform="matrix(1.13511,0,0,1.13511,142.028,-27.027)">
                <path d="M183.837,324.777L198.086,305.787L210.266,324.839" style="fill:none;stroke:black;stroke-width:5.63px;"/>
            </g>
            <g transform="matrix(1.13511,0,0,1.13511,142.766,-110.048)">
                <path d="M183.837,324.777L190.514,316.252" style="fill:none;stroke:black;stroke-width:5.63px;"/>
            </g>
            <g transform="matrix(1.13511,0,0,1.13511,142.766,51.5098)">
                <path d="M183.837,324.777L198.086,305.787L202.094,312.455" style="fill:none;stroke:black;stroke-width:5.63px;"/>
            </g>
        </g>
    </g>
</svg>
