<?xml version="1.0" encoding="utf-8"?>
<!-- Generator: Adobe Adobe Illustrator 24.2.0, SVG Export Plug-In . SVG Version: 6.00 Build 0)  -->
<svg version="1.1" id="Ebene_1" xmlns="http://www.w3.org/2000/svg" xmlns:xlink="http://www.w3.org/1999/xlink" x="0px" y="0px"
	 width="512px" height="512px" viewBox="0 0 512 512" style="enable-background:new 0 0 512 512;" xml:space="preserve">
<style type="text/css">
	.st0{stroke:#000000;stroke-miterlimit:10;}
	.st1{fill:none;stroke:#000000;stroke-width:30;stroke-miterlimit:10;}
</style>
<g>
	<path d="M90.08,209.5c-7.05,0-13.99-1.15-20.76-4.03c-37.98-16.13-61.53-44.08-68.11-80.82l0,0c-2.99-16.7,11.72-49.77,13.41-53.48
		c8.43-18.57,22.7-42.98,42.82-53.85c23.5-12.69,48.74-9.41,75.47-5.93c13.22,1.72,26.9,3.5,41.25,3.5
		c41.86,0,63.51,4.01,92.66,17.14c41.29,18.61,70.12,50.75,70.12,78.17c0,41.21-17.7,65.87-59.2,82.44
		c-20.96,8.37-40.49,5.21-61.17,1.86c-11.71-1.9-23.82-3.86-38.28-4.38c-13.54-0.49-28.89,4.59-43.74,9.51
		C119.81,204.51,104.73,209.5,90.08,209.5z M35.09,119.24c4.7,25.17,20.29,43.06,47.64,54.67c8.93,3.8,24.53-1.37,41.04-6.83
		c16.89-5.59,36.04-11.94,55.75-11.22c16.6,0.6,30.38,2.83,42.53,4.8c18.57,3.01,30.83,4.99,42.97,0.15
		c31.99-12.78,37.62-26.49,37.62-50.59c0-9.97-17.77-32.41-49.91-46.9c-24.58-11.08-41.47-14.11-78.56-14.11
		c-16.57,0-32.04-2.01-45.68-3.79c-22.9-2.98-40.99-5.33-54.74,2.1c-8.46,4.57-18.51,17.9-26.87,35.65
		C38.75,100.4,35.22,115.04,35.09,119.24z"/>
	<path d="M374.57,408.23c-11.39,0-22.14-2.5-32.33-4.87c-1.87-0.44-3.77-0.88-5.69-1.31l0,0c-22.62-5.07-44.73-40.1-48.29-76.48
		c-2.53-25.84,12.73-46.69,27.49-66.86c9.08-12.42,18.48-25.25,24.6-39.82c5.27-12.54,2.7-26.34-0.28-42.32
		c-3.73-20-7.95-42.66,4.34-65.5c10.96-20.38,31.08-30.65,56.64-28.92c17.28,1.17,33.62,7.25,45.92,12.42
		c17.6,7.4,33.54,20.3,44.89,36.35c13.05,18.45,19.73,40.42,19.32,63.53c-0.44,24.69-11.38,45.93-24.06,70.52
		c-4.49,8.72-9.13,17.73-13.74,27.67c-5.02,10.85-8.79,21.69-12.43,32.18c-7.56,21.77-14.7,42.34-31.38,58.56
		C409.63,402.77,391.4,408.23,374.57,408.23z M344.53,368.69c1.85,0.42,3.67,0.84,5.47,1.26c22.99,5.34,35.66,8.29,55.65-11.15
		c10.86-10.55,16.43-26.61,22.89-45.21c3.73-10.76,7.97-22.95,13.71-35.35c4.91-10.6,9.94-20.36,14.37-28.97
		c11.15-21.64,19.95-38.73,20.25-55.43c0.65-36.25-22.87-59.1-43.21-67.64c-42.74-17.96-54.18-7.96-59.07,1.13
		c-6.56,12.19-3.9,26.46-0.82,42.97c3.48,18.69,7.43,39.88-1.82,61.89c-7.68,18.28-18.76,33.42-28.54,46.79
		c-12.45,17.01-22.28,30.45-21.03,43.26C324.96,348.56,339.81,366.26,344.53,368.69z M344.05,368.58c0.01,0,0.01,0,0.02,0
		C344.06,368.59,344.06,368.58,344.05,368.58L344.05,368.58z"/>
	<path d="M226.01,503.75c-7.41,0-15.6-0.61-24.7-1.95c-22.98-3.38-37.13-22.5-50.82-40.99c-10.68-14.42-21.71-29.33-36.14-35.97
		c-7.24-3.33-12.81-5.74-17.29-7.67c-18.66-8.05-22.48-10.37-39.69-27.99c-29.7-30.4-20.78-59.88-14.27-81.4
		c1.5-4.94,2.91-9.61,3.93-14.22v0c1.37-6.19,4.59-20.7,12.54-34.22c10.76-18.32,26.68-29.04,46.03-30.97
		c34.57-3.46,58.24,15.09,85.64,36.58c4.62,3.62,9.39,7.36,14.46,11.21c25.23,19.15,34.83,37.78,43.3,54.22
		c4.65,9.03,9.04,17.55,15.97,26.43c6.56,8.42,13.06,15.45,18.8,21.66c14.96,16.19,30.43,32.92,20.84,55.9
		c-1.48,3.54-2.81,7.55-4.23,11.8C292.55,469.66,281.19,503.75,226.01,503.75z M80.51,300.99L80.51,300.99
		c-1.3,5.86-2.97,11.38-4.58,16.71c-6.63,21.91-8.93,32.24,5.98,47.5c13.61,13.94,13.9,14.06,28.74,20.46c4.65,2,10.43,4.5,18.05,8
		c22.42,10.32,36.74,29.66,49.37,46.72c9.96,13.45,19.37,26.16,28.25,27.47c22.67,3.33,38.54,1.51,47.18-5.41
		c7.24-5.81,10.53-15.68,14.34-27.12c1.55-4.65,3.15-9.47,5.12-14.18c0.23-0.54,0.24-0.77,0.24-0.77
		c-0.11-2.94-8.84-12.39-14.62-18.64c-6.19-6.7-13.22-14.3-20.66-23.86c-8.89-11.41-14.48-22.25-19.4-31.81
		c-7.78-15.11-14.51-28.16-33.54-42.6c-5.28-4.01-10.16-7.84-14.88-11.53c-27.17-21.29-41.11-31.44-61.07-29.44
		C95.09,263.89,86.03,276.13,80.51,300.99z"/>
	<path d="M104.62,116.26c-7.22,0-15.68-4.84-17.2-15.46c-0.14-0.95-0.24-2.07-0.32-3.42c-0.13-2.12-0.2-4.85-0.2-7.71
		c0-2.85,0.07-5.59,0.2-7.71c0.08-1.35,0.19-2.47,0.32-3.42c1.52-10.62,9.98-15.46,17.2-15.46s15.68,4.84,17.2,15.46
		c0.14,0.95,0.24,2.07,0.32,3.42c0.13,2.12,0.2,4.85,0.2,7.71c0,2.86-0.07,5.59-0.2,7.71c-0.08,1.35-0.19,2.47-0.32,3.42
		C120.3,111.43,111.84,116.26,104.62,116.26z"/>
	<path d="M255.55,117.41c-9.77,0-17.72-7.95-17.72-17.72s7.95-17.72,17.72-17.72c9.77,0,17.72,7.95,17.72,17.72
		S265.32,117.41,255.55,117.41z"/>
	<path d="M399.58,174.58c-9.77,0-17.72-7.95-17.72-17.72c0-9.77,7.95-17.72,17.72-17.72c9.77,0,17.72,7.95,17.72,17.72
		C417.3,166.63,409.35,174.58,399.58,174.58z"/>
	<path class="st0" d="M376.71,333.51c-9.77,0-17.72-7.95-17.72-17.72s7.95-17.72,17.72-17.72s17.72,7.95,17.72,17.72
		S386.49,333.51,376.71,333.51z"/>
	<path d="M127.46,319.79c-9.77,0-17.72-7.95-17.72-17.72c0-9.77,7.95-17.72,17.72-17.72s17.72,7.95,17.72,17.72
		C145.18,311.84,137.23,319.79,127.46,319.79z"/>
	<path d="M157.43,383.59c-9.77,0-17.72-7.95-17.72-17.72s7.95-17.72,17.72-17.72c9.77,0,17.72,7.95,17.72,17.72
		S167.2,383.59,157.43,383.59z"/>
	<path d="M215.74,432.54c-5.85,0-16.12-3.61-17.47-17.12c-0.21-2.09-0.25-4.28-0.25-5.75s0.04-3.66,0.25-5.75
		c1.35-13.51,11.62-17.12,17.47-17.12c5.85,0,16.12,3.61,17.47,17.12c0.21,2.09,0.25,4.28,0.25,5.75s-0.04,3.66-0.25,5.75
		C231.86,428.93,221.59,432.54,215.74,432.54z"/>
	<path d="M420.16,262.25c-0.72,0-17.72-0.24-17.72-20.97s17-20.97,17.72-20.97s17.72,0.24,17.72,20.97S420.88,262.25,420.16,262.25z
		 M403.57,240.85C403.57,240.85,403.57,240.85,403.57,240.85z"/>
	<path d="M171.99,139.7c-9.77,0-17.72-7.95-17.72-17.72s7.95-17.72,17.72-17.72c9.77,0,17.72,7.95,17.72,17.72
		S181.77,139.7,171.99,139.7z"/>
</g>
</svg>
