<?xml version="1.0" encoding="UTF-8" standalone="no"?>
<!DOCTYPE svg PUBLIC "-//W3C//DTD SVG 1.1//EN" "http://www.w3.org/Graphics/SVG/1.1/DTD/svg11.dtd">
<svg width="100%" height="100%" viewBox="0 0 512 512" version="1.1" xmlns="http://www.w3.org/2000/svg" xmlns:xlink="http://www.w3.org/1999/xlink" xml:space="preserve" xmlns:serif="http://www.serif.com/" style="fill-rule:evenodd;clip-rule:evenodd;stroke-linecap:round;stroke-linejoin:round;stroke-miterlimit:1.5;">
    <g transform="matrix(0.465011,0.885016,-0.866935,0.455511,239.075,-56.5112)">
        <g transform="matrix(0.510708,-0.387542,0.387542,0.510708,-69.4568,181.994)">
            <path d="M236.377,136.643C236.377,136.643 167.886,131.645 137.313,157.094C106.739,182.542 105.363,186.924 99.51,206.749C93.657,226.573 96.038,240.762 101.07,255.683C106.101,270.604 112.692,289.546 124.149,302.009C135.605,314.473 143.513,323.159 154.358,329.44C168.752,337.778 186.608,341.167 200.468,347.157C210.448,351.47 218.709,352.28 225.996,359.713C234.813,368.706 236.892,382.709 236.025,393.523C235.33,402.201 238.869,420.351 237.181,425.203C233.58,435.56 228.91,448.401 228.91,448.401C228.91,448.401 229.461,454.784 237.251,443.036C241.164,437.137 245.478,429.838 246.668,422.623C249.122,407.74 250.194,402.823 250.735,390.476C251.276,378.129 250.485,373.306 257.581,366.305C264.676,359.304 274.596,353.928 291.832,350.253C306.244,347.18 315.446,341.915 324.999,333.38C334.552,324.845 349.897,302.183 356.32,291.726C362.349,281.911 369.915,230.143 368.64,214.945C367.305,199.022 360.759,175.206 347.177,164.197C333.595,153.188 310.839,143.25 294.672,140.752C273.26,137.443 236.377,136.643 236.377,136.643Z" style="fill:none;stroke:black;stroke-width:29.74px;"/>
        </g>
        <g transform="matrix(0.510708,-0.387542,0.387542,0.510708,-69.4568,181.994)">
            <path d="M222.183,128.867L170.16,28.864M231.984,129.765L221.5,20.921M245.972,135.031L272.914,25.773" style="fill:none;stroke:black;stroke-width:29.74px;"/>
        </g>
    </g>
    <g transform="matrix(1.21208,0.364307,-0.356311,1.18547,-120.157,41.5822)">
        <g transform="matrix(0.561899,0.308677,-0.308677,0.561899,298.002,-28.5891)">
            <path d="M236.377,136.643C236.377,136.643 167.886,131.645 137.313,157.094C106.739,182.542 105.363,186.924 99.51,206.749C93.657,226.573 96.038,240.762 101.07,255.683C106.101,270.604 112.692,289.546 124.149,302.009C135.605,314.473 143.513,323.159 154.358,329.44C168.752,337.778 186.608,341.167 200.468,347.157C210.448,351.47 218.709,352.28 225.996,359.713C234.813,368.706 236.892,382.709 236.025,393.523C235.33,402.201 238.869,420.351 237.181,425.203C233.58,435.56 228.91,448.401 228.91,448.401C228.91,448.401 229.461,454.784 237.251,443.036C241.164,437.137 245.478,429.838 246.668,422.623C249.122,407.74 250.194,402.823 250.735,390.476C251.276,378.129 250.485,373.306 257.581,366.305C264.676,359.304 274.596,353.928 291.832,350.253C306.244,347.18 315.446,341.915 324.999,333.38C334.552,324.845 349.897,302.183 356.32,291.726C362.349,281.911 369.915,230.143 368.64,214.945C367.305,199.022 360.759,175.206 347.177,164.197C333.595,153.188 310.839,143.25 294.672,140.752C273.26,137.443 236.377,136.643 236.377,136.643Z" style="fill:none;stroke:black;stroke-width:23.97px;"/>
        </g>
        <g transform="matrix(0.561899,0.308677,-0.308677,0.561899,298.002,-28.5891)">
            <path d="M222.183,128.867L170.16,28.864M231.984,129.765L221.5,20.921M245.972,135.031L272.914,25.773" style="fill:none;stroke:black;stroke-width:23.97px;"/>
        </g>
    </g>
    <g transform="matrix(-0.000696833,-0.975049,0.950753,-0.000679469,3.71251,450.729)">
        <g transform="matrix(0.338685,0.544339,-0.544339,0.338685,368.777,201.342)">
            <path d="M236.377,136.643C236.377,136.643 167.886,131.645 137.313,157.094C106.739,182.542 105.363,186.924 99.51,206.749C93.657,226.573 96.038,240.762 101.07,255.683C106.101,270.604 112.692,289.546 124.149,302.009C135.605,314.473 143.513,323.159 154.358,329.44C168.752,337.778 186.608,341.167 200.468,347.157C210.448,351.47 218.709,352.28 225.996,359.713C234.813,368.706 236.892,382.709 236.025,393.523C235.33,402.201 238.869,420.351 237.181,425.203C233.58,435.56 228.91,448.401 228.91,448.401C228.91,448.401 229.461,454.784 237.251,443.036C241.164,437.137 245.478,429.838 246.668,422.623C249.122,407.74 250.194,402.823 250.735,390.476C251.276,378.129 250.485,373.306 257.581,366.305C264.676,359.304 274.596,353.928 291.832,350.253C306.244,347.18 315.446,341.915 324.999,333.38C334.552,324.845 349.897,302.183 356.32,291.726C362.349,281.911 369.915,230.143 368.64,214.945C367.305,199.022 360.759,175.206 347.177,164.197C333.595,153.188 310.839,143.25 294.672,140.752C273.26,137.443 236.377,136.643 236.377,136.643Z" style="fill:none;stroke:black;stroke-width:31.22px;"/>
        </g>
        <g transform="matrix(0.338685,0.544339,-0.544339,0.338685,368.777,201.342)">
            <path d="M222.183,128.867L170.16,28.864M231.984,129.765L221.5,20.921M245.972,135.031L272.914,25.773" style="fill:none;stroke:black;stroke-width:31.22px;"/>
        </g>
    </g>
</svg>
