<?xml version="1.0" encoding="UTF-8" standalone="no"?>
<!DOCTYPE svg PUBLIC "-//W3C//DTD SVG 1.1//EN" "http://www.w3.org/Graphics/SVG/1.1/DTD/svg11.dtd">
<svg width="100%" height="100%" viewBox="0 0 512 512" version="1.1" xmlns="http://www.w3.org/2000/svg" xmlns:xlink="http://www.w3.org/1999/xlink" xml:space="preserve" xmlns:serif="http://www.serif.com/" style="fill-rule:evenodd;clip-rule:evenodd;stroke-linecap:round;stroke-linejoin:round;stroke-miterlimit:1.5;">
    <g transform="matrix(1,0,0,1,-7.68137,7.14568)">
        <g transform="matrix(1.22571,0.440731,-0.440731,1.22571,-63.3269,9.50064)">
            <path d="M160.211,196.319C166.463,201.454 164.601,232.866 158.819,235.375C151.575,232.664 152.475,199.152 160.211,196.319Z" style="stroke:black;stroke-width:0.96px;"/>
        </g>
        <g transform="matrix(1.22571,0.440731,-0.440731,1.22571,-72.0061,-189.251)">
            <path d="M160.211,196.319C166.463,201.454 164.601,232.866 158.819,235.375C151.575,232.664 152.475,199.152 160.211,196.319Z" style="stroke:black;stroke-width:0.96px;"/>
        </g>
        <g transform="matrix(-0.738111,1.07322,-1.07322,-0.738111,781.216,18.619)">
            <path d="M160.211,196.319C166.463,201.454 164.601,232.866 158.819,235.375C151.575,232.664 152.475,199.152 160.211,196.319Z" style="stroke:black;stroke-width:0.96px;"/>
        </g>
        <g transform="matrix(1.22571,0.440731,-0.440731,1.22571,-30.8259,40.0527)">
            <path d="M160.211,196.319C166.463,201.454 164.601,232.866 158.819,235.375C151.575,232.664 152.475,199.152 160.211,196.319Z" style="stroke:black;stroke-width:0.96px;"/>
        </g>
        <g transform="matrix(1.22571,0.440731,-0.440731,1.22571,315.645,17.82)">
            <path d="M160.211,196.319C166.463,201.454 164.601,232.866 158.819,235.375C151.575,232.664 152.475,199.152 160.211,196.319Z" style="stroke:black;stroke-width:0.96px;"/>
        </g>
        <g transform="matrix(-0.108887,1.29798,-1.29798,-0.108887,696.244,-120.479)">
            <path d="M160.211,196.319C166.463,201.454 164.601,232.866 158.819,235.375C151.575,232.664 152.475,199.152 160.211,196.319Z" style="stroke:black;stroke-width:0.96px;"/>
        </g>
        <g transform="matrix(1.24825,-0.372115,0.372115,1.24825,-103.191,80.2932)">
            <path d="M160.211,196.319C166.463,201.454 164.601,232.866 158.819,235.375C151.575,232.664 152.475,199.152 160.211,196.319Z" style="stroke:black;stroke-width:0.96px;"/>
        </g>
        <g transform="matrix(1.22571,0.440731,-0.440731,1.22571,2.62771,-251.966)">
            <path d="M160.211,196.319C166.463,201.454 164.601,232.866 158.819,235.375C151.575,232.664 152.475,199.152 160.211,196.319Z" style="stroke:black;stroke-width:0.96px;"/>
        </g>
        <g transform="matrix(-0.401372,1.23915,-1.23915,-0.401372,819.574,58.8195)">
            <path d="M160.211,196.319C166.463,201.454 164.601,232.866 158.819,235.375C151.575,232.664 152.475,199.152 160.211,196.319Z" style="stroke:black;stroke-width:0.96px;"/>
        </g>
        <g transform="matrix(0.772647,1.04863,-1.04863,0.772647,311.587,-12.3765)">
            <path d="M160.211,196.319C166.463,201.454 164.601,232.866 158.819,235.375C151.575,232.664 152.475,199.152 160.211,196.319Z" style="stroke:black;stroke-width:0.96px;"/>
        </g>
        <g transform="matrix(1.22571,0.440731,-0.440731,1.22571,156.292,-158.921)">
            <path d="M160.211,196.319C166.463,201.454 164.601,232.866 158.819,235.375C151.575,232.664 152.475,199.152 160.211,196.319Z" style="stroke:black;stroke-width:0.96px;"/>
        </g>
        <g transform="matrix(-0.313772,1.26418,-1.26418,-0.313772,773.231,59.5897)">
            <path d="M160.211,196.319C166.463,201.454 164.601,232.866 158.819,235.375C151.575,232.664 152.475,199.152 160.211,196.319Z" style="stroke:black;stroke-width:0.96px;"/>
        </g>
        <g transform="matrix(1.22571,0.440731,-0.440731,1.22571,11.0706,84.8509)">
            <path d="M160.211,196.319C166.463,201.454 164.601,232.866 158.819,235.375C151.575,232.664 152.475,199.152 160.211,196.319Z" style="stroke:black;stroke-width:0.96px;"/>
        </g>
        <g transform="matrix(1.22571,0.440731,-0.440731,1.22571,47.4041,-63.1164)">
            <path d="M160.211,196.319C166.463,201.454 164.601,232.866 158.819,235.375C151.575,232.664 152.475,199.152 160.211,196.319Z" style="stroke:black;stroke-width:0.96px;"/>
        </g>
        <g transform="matrix(-0.187064,1.28903,-1.28903,-0.187064,637.108,-129.924)">
            <path d="M160.211,196.319C166.463,201.454 164.601,232.866 158.819,235.375C151.575,232.664 152.475,199.152 160.211,196.319Z" style="stroke:black;stroke-width:0.96px;"/>
        </g>
        <g transform="matrix(0.643613,1.13241,-1.13241,0.643613,285.414,131.077)">
            <path d="M160.211,196.319C166.463,201.454 164.601,232.866 158.819,235.375C151.575,232.664 152.475,199.152 160.211,196.319Z" style="stroke:black;stroke-width:0.96px;"/>
        </g>
        <g transform="matrix(0.853243,0.984163,-0.984163,0.853243,312.573,-74.3353)">
            <path d="M160.211,196.319C166.463,201.454 164.601,232.866 158.819,235.375C151.575,232.664 152.475,199.152 160.211,196.319Z" style="stroke:black;stroke-width:0.96px;"/>
        </g>
        <g transform="matrix(-0.392092,1.24212,-1.24212,-0.392092,672.724,-15.4441)">
            <path d="M160.211,196.319C166.463,201.454 164.601,232.866 158.819,235.375C151.575,232.664 152.475,199.152 160.211,196.319Z" style="stroke:black;stroke-width:0.96px;"/>
        </g>
        <g transform="matrix(1.29145,-0.169548,0.169548,1.29145,8.06087,114.113)">
            <path d="M160.211,196.319C166.463,201.454 164.601,232.866 158.819,235.375C151.575,232.664 152.475,199.152 160.211,196.319Z" style="stroke:black;stroke-width:0.96px;"/>
        </g>
        <g transform="matrix(1.22571,0.440731,-0.440731,1.22571,-8.05029,-153.598)">
            <path d="M160.211,196.319C166.463,201.454 164.601,232.866 158.819,235.375C151.575,232.664 152.475,199.152 160.211,196.319Z" style="stroke:black;stroke-width:0.96px;"/>
        </g>
        <g transform="matrix(-0.738111,1.07322,-1.07322,-0.738111,745.493,210.661)">
            <path d="M160.211,196.319C166.463,201.454 164.601,232.866 158.819,235.375C151.575,232.664 152.475,199.152 160.211,196.319Z" style="stroke:black;stroke-width:0.96px;"/>
        </g>
        <g transform="matrix(1.22571,0.440731,-0.440731,1.22571,182.742,61.8296)">
            <path d="M160.211,196.319C166.463,201.454 164.601,232.866 158.819,235.375C151.575,232.664 152.475,199.152 160.211,196.319Z" style="stroke:black;stroke-width:0.96px;"/>
        </g>
        <g transform="matrix(1.26509,-0.310065,0.310065,1.26509,-143.868,-12.1803)">
            <path d="M160.211,196.319C166.463,201.454 164.601,232.866 158.819,235.375C151.575,232.664 152.475,199.152 160.211,196.319Z" style="stroke:black;stroke-width:0.96px;"/>
        </g>
        <g transform="matrix(-0.738111,1.07322,-1.07322,-0.738111,707.676,234.318)">
            <path d="M160.211,196.319C166.463,201.454 164.601,232.866 158.819,235.375C151.575,232.664 152.475,199.152 160.211,196.319Z" style="stroke:black;stroke-width:0.96px;"/>
        </g>
        <g transform="matrix(-0.738111,1.07322,-1.07322,-0.738111,549.385,49.4427)">
            <path d="M160.211,196.319C166.463,201.454 164.601,232.866 158.819,235.375C151.575,232.664 152.475,199.152 160.211,196.319Z" style="stroke:black;stroke-width:0.96px;"/>
        </g>
        <g transform="matrix(1.22571,0.440731,-0.440731,1.22571,12.1454,1.08515)">
            <path d="M160.211,196.319C166.463,201.454 164.601,232.866 158.819,235.375C151.575,232.664 152.475,199.152 160.211,196.319Z" style="stroke:black;stroke-width:0.96px;"/>
        </g>
        <g transform="matrix(1.2974,-0.115547,0.115547,1.2974,-181.693,-54.833)">
            <path d="M160.211,196.319C166.463,201.454 164.601,232.866 158.819,235.375C151.575,232.664 152.475,199.152 160.211,196.319Z" style="stroke:black;stroke-width:0.96px;"/>
        </g>
        <g transform="matrix(-1.06966,0.743252,-0.743252,-1.06966,791.321,208.818)">
            <path d="M160.211,196.319C166.463,201.454 164.601,232.866 158.819,235.375C151.575,232.664 152.475,199.152 160.211,196.319Z" style="stroke:black;stroke-width:0.96px;"/>
        </g>
        <g transform="matrix(1.30241,0.018055,-0.018055,1.30241,-58.782,82.2808)">
            <path d="M160.211,196.319C166.463,201.454 164.601,232.866 158.819,235.375C151.575,232.664 152.475,199.152 160.211,196.319Z" style="stroke:black;stroke-width:0.96px;"/>
        </g>
        <g transform="matrix(1.22571,0.440731,-0.440731,1.22571,213.226,-71.201)">
            <path d="M160.211,196.319C166.463,201.454 164.601,232.866 158.819,235.375C151.575,232.664 152.475,199.152 160.211,196.319Z" style="stroke:black;stroke-width:0.96px;"/>
        </g>
        <g transform="matrix(-1.23313,0.419518,-0.419518,-1.23313,709.616,319.228)">
            <path d="M160.211,196.319C166.463,201.454 164.601,232.866 158.819,235.375C151.575,232.664 152.475,199.152 160.211,196.319Z" style="stroke:black;stroke-width:0.96px;"/>
        </g>
        <g transform="matrix(0.902423,0.939272,-0.939272,0.902423,309.799,121.367)">
            <path d="M160.211,196.319C166.463,201.454 164.601,232.866 158.819,235.375C151.575,232.664 152.475,199.152 160.211,196.319Z" style="stroke:black;stroke-width:0.96px;"/>
        </g>
        <g transform="matrix(0.467499,1.21575,-1.21575,0.467499,280.332,-13.587)">
            <path d="M160.211,196.319C166.463,201.454 164.601,232.866 158.819,235.375C151.575,232.664 152.475,199.152 160.211,196.319Z" style="stroke:black;stroke-width:0.96px;"/>
        </g>
        <g transform="matrix(-0.24853,1.27861,-1.27861,-0.24853,590.255,78.1531)">
            <path d="M160.211,196.319C166.463,201.454 164.601,232.866 158.819,235.375C151.575,232.664 152.475,199.152 160.211,196.319Z" style="stroke:black;stroke-width:0.96px;"/>
        </g>
        <g transform="matrix(1.2458,-0.380251,0.380251,1.2458,3.41594,104.253)">
            <path d="M160.211,196.319C166.463,201.454 164.601,232.866 158.819,235.375C151.575,232.664 152.475,199.152 160.211,196.319Z" style="stroke:black;stroke-width:0.96px;"/>
        </g>
        <g transform="matrix(1.22571,0.440731,-0.440731,1.22571,25.5255,-206.811)">
            <path d="M160.211,196.319C166.463,201.454 164.601,232.866 158.819,235.375C151.575,232.664 152.475,199.152 160.211,196.319Z" style="stroke:black;stroke-width:0.96px;"/>
        </g>
        <g transform="matrix(-0.738111,1.07322,-1.07322,-0.738111,788.411,256.672)">
            <path d="M160.211,196.319C166.463,201.454 164.601,232.866 158.819,235.375C151.575,232.664 152.475,199.152 160.211,196.319Z" style="stroke:black;stroke-width:0.96px;"/>
        </g>
        <g transform="matrix(1.27486,-0.267068,0.267068,1.27486,20.7876,-149.61)">
            <path d="M160.211,196.319C166.463,201.454 164.601,232.866 158.819,235.375C151.575,232.664 152.475,199.152 160.211,196.319Z" style="stroke:black;stroke-width:0.96px;"/>
        </g>
        <g transform="matrix(1.2602,-0.329405,0.329405,1.2602,-85.1719,191.433)">
            <path d="M160.211,196.319C166.463,201.454 164.601,232.866 158.819,235.375C151.575,232.664 152.475,199.152 160.211,196.319Z" style="stroke:black;stroke-width:0.96px;"/>
        </g>
        <g transform="matrix(1.30213,-0.0325763,0.0325763,1.30213,-192.063,30.8082)">
            <path d="M160.211,196.319C166.463,201.454 164.601,232.866 158.819,235.375C151.575,232.664 152.475,199.152 160.211,196.319Z" style="stroke:black;stroke-width:0.96px;"/>
        </g>
        <g transform="matrix(-1.0312,0.795755,-0.795755,-1.0312,704.738,244.944)">
            <path d="M160.211,196.319C166.463,201.454 164.601,232.866 158.819,235.375C151.575,232.664 152.475,199.152 160.211,196.319Z" style="stroke:black;stroke-width:0.96px;"/>
        </g>
        <g transform="matrix(0.930464,0.911502,-0.911502,0.930464,267.598,95.8681)">
            <path d="M160.211,196.319C166.463,201.454 164.601,232.866 158.819,235.375C151.575,232.664 152.475,199.152 160.211,196.319Z" style="stroke:black;stroke-width:0.96px;"/>
        </g>
        <g transform="matrix(1.01145,0.820716,-0.820716,1.01145,76.8357,-92.0533)">
            <path d="M160.211,196.319C166.463,201.454 164.601,232.866 158.819,235.375C151.575,232.664 152.475,199.152 160.211,196.319Z" style="stroke:black;stroke-width:0.96px;"/>
        </g>
        <g transform="matrix(-0.307652,1.26568,-1.26568,-0.307652,653.319,37.7135)">
            <path d="M160.211,196.319C166.463,201.454 164.601,232.866 158.819,235.375C151.575,232.664 152.475,199.152 160.211,196.319Z" style="stroke:black;stroke-width:0.96px;"/>
        </g>
        <g transform="matrix(1.28762,-0.196564,0.196564,1.28762,78.3115,110.82)">
            <path d="M160.211,196.319C166.463,201.454 164.601,232.866 158.819,235.375C151.575,232.664 152.475,199.152 160.211,196.319Z" style="stroke:black;stroke-width:0.96px;"/>
        </g>
        <g transform="matrix(1.22571,0.440731,-0.440731,1.22571,67.422,-162.013)">
            <path d="M160.211,196.319C166.463,201.454 164.601,232.866 158.819,235.375C151.575,232.664 152.475,199.152 160.211,196.319Z" style="stroke:black;stroke-width:0.96px;"/>
        </g>
        <g transform="matrix(-1.02579,0.802713,-0.802713,-1.02579,721.778,390.892)">
            <path d="M160.211,196.319C166.463,201.454 164.601,232.866 158.819,235.375C151.575,232.664 152.475,199.152 160.211,196.319Z" style="stroke:black;stroke-width:0.96px;"/>
        </g>
        <g transform="matrix(-0.738111,1.07322,-1.07322,-0.738111,576.136,100.915)">
            <path d="M160.211,196.319C166.463,201.454 164.601,232.866 158.819,235.375C151.575,232.664 152.475,199.152 160.211,196.319Z" style="stroke:black;stroke-width:0.96px;"/>
        </g>
        <g transform="matrix(1.22571,0.440731,-0.440731,1.22571,258.214,53.4142)">
            <path d="M160.211,196.319C166.463,201.454 164.601,232.866 158.819,235.375C151.575,232.664 152.475,199.152 160.211,196.319Z" style="stroke:black;stroke-width:0.96px;"/>
        </g>
        <g transform="matrix(0.892159,0.949027,-0.949027,0.892159,262.667,-140.278)">
            <path d="M160.211,196.319C166.463,201.454 164.601,232.866 158.819,235.375C151.575,232.664 152.475,199.152 160.211,196.319Z" style="stroke:black;stroke-width:0.96px;"/>
        </g>
        <g transform="matrix(-0.738111,1.07322,-1.07322,-0.738111,696.611,309.447)">
            <path d="M160.211,196.319C166.463,201.454 164.601,232.866 158.819,235.375C151.575,232.664 152.475,199.152 160.211,196.319Z" style="stroke:black;stroke-width:0.96px;"/>
        </g>
        <g transform="matrix(-0.738111,1.07322,-1.07322,-0.738111,538.319,124.572)">
            <path d="M160.211,196.319C166.463,201.454 164.601,232.866 158.819,235.375C151.575,232.664 152.475,199.152 160.211,196.319Z" style="stroke:black;stroke-width:0.96px;"/>
        </g>
    </g>
</svg>
