<?xml version="1.0" encoding="UTF-8" standalone="no"?>
<!DOCTYPE svg PUBLIC "-//W3C//DTD SVG 1.1//EN" "http://www.w3.org/Graphics/SVG/1.1/DTD/svg11.dtd">
<svg width="100%" height="100%" viewBox="0 0 512 512" version="1.1" xmlns="http://www.w3.org/2000/svg" xmlns:xlink="http://www.w3.org/1999/xlink" xml:space="preserve" xmlns:serif="http://www.serif.com/" style="fill-rule:evenodd;clip-rule:evenodd;stroke-linecap:round;stroke-linejoin:round;stroke-miterlimit:1.5;">
    <g transform="matrix(0.867498,1.12169,1.12169,-0.867498,-268.723,120.016)">
        <path d="M335.163,151.453L168.343,123.092L193.26,350.159L344.956,415.524L335.163,151.453ZM401.912,105.901L409.533,352.644L401.912,105.901ZM335.163,151.453L365.651,130.627L401.912,105.901M344.956,415.524L371.828,369.489L409.533,352.644M168.343,123.092L211.202,109.245L233.38,85.883M401.912,105.901L233.38,85.883L401.912,105.901Z" style="fill:none;stroke:black;stroke-width:9.85px;"/>
    </g>
    <g transform="matrix(0.867498,1.12169,1.12169,-0.867498,-249.013,180.419)">
        <path d="M323.452,145.691L329.629,384.554" style="fill:none;stroke:black;stroke-width:6.27px;"/>
    </g>
    <g transform="matrix(1.06831,0,0,1.06831,-28.7434,-11.3377)">
        <path d="M61.571,256L209.438,400.803" style="fill:none;stroke:black;stroke-width:8.32px;"/>
    </g>
</svg>
