<?xml version="1.0" encoding="UTF-8" standalone="no"?>
<!DOCTYPE svg PUBLIC "-//W3C//DTD SVG 1.1//EN" "http://www.w3.org/Graphics/SVG/1.1/DTD/svg11.dtd">
<svg width="100%" height="100%" viewBox="0 0 512 512" version="1.1" xmlns="http://www.w3.org/2000/svg" xmlns:xlink="http://www.w3.org/1999/xlink" xml:space="preserve" xmlns:serif="http://www.serif.com/" style="fill-rule:evenodd;clip-rule:evenodd;stroke-linejoin:round;stroke-miterlimit:2;">
    <g id="path362" transform="matrix(1.08778,0,0,1.08778,-22.4712,-22.4712)">
        <g id="Layer-1" serif:id="Layer 1">
            <path id="path3621" serif:id="path362" d="M116.462,165.556C112.949,161.488 109.242,156.849 107.736,154.665C107.398,154.174 107.158,153.776 107.018,153.5C106.763,153.354 106.26,153.073 105.815,152.874C104.769,152.408 102.221,151.045 100.154,149.842C98.09,148.642 95.985,147.688 94.753,147.436C91.194,146.71 83.277,144.399 79.914,143.104C78.319,142.489 75.965,141.902 74.536,141.77C70.138,141.361 68.541,139.723 68.541,137.393C68.541,135.773 69.595,134.488 70.896,133.997C69.991,132.59 69.082,130.817 68.595,129.581C68.288,128.802 68.151,128.167 68.151,127.824C68.151,127.596 68.208,127.253 68.385,126.857C68.584,126.413 68.976,125.796 69.435,125.262C69.894,124.729 70.292,124.388 70.741,124.149C71.36,123.819 72.108,123.67 73.459,123.67C73.86,123.67 74.287,123.642 74.485,123.628C74.542,123.523 74.631,123.361 74.697,123.221C75.371,121.807 76.275,121.119 77.496,120.874C77.552,120.863 77.632,120.84 77.677,120.826C77.72,120.733 77.859,120.418 77.944,120.134C78.466,118.394 79.107,117.698 80.565,117.088C80.687,117.038 80.834,116.97 80.933,116.924C80.975,116.625 81.096,115.699 81.171,114.592C81.528,109.364 82.166,105.439 82.67,104.497C82.938,103.998 84.109,102.645 85.309,101.522C87.998,99.007 90.522,98.384 93.362,99.321C94.945,99.844 95.935,100.725 96.56,103.001C96.873,104.141 97.096,105.725 97.293,107.963C97.833,114.124 98.2,115.761 101.208,125.817C103.133,132.253 107.53,140.079 112.734,146.371C115.477,149.688 115.789,150.563 115.674,152.111C116.157,152.785 119.292,157.128 122.273,160.404C130.559,169.511 139.587,178.022 146.356,183.097C148.997,185.077 151.954,187.347 152.927,188.14C158.832,192.953 164.57,196.44 176.856,202.717C179.728,204.184 182.354,205.565 183.966,206.436L181.22,203.6C178.815,201.115 174.999,197.096 172.74,194.669C170.487,192.247 168.16,189.747 167.57,189.114C166.624,188.098 166.096,186.809 166.096,185.809C166.096,185.677 166.061,185.479 166.04,185.375C165.76,185.05 165.5,184.551 165.399,183.889C165.221,182.724 165.424,180.883 165.917,179.921C166.192,179.383 167.099,178.199 167.951,177.306C168.644,176.581 169.844,174.945 170.624,173.677C170.624,173.677 171.5,172.252 171.5,172.252L168.411,169.374C162.097,163.493 158.63,159.71 147.535,146.571C144.551,143.038 138.686,136.336 134.5,131.677C121.717,117.449 120.79,116.373 118.56,113.32C114.22,107.377 113.858,106.845 111.756,105.85C110.828,105.411 109.766,104.965 109.644,104.914C109.514,104.884 109.358,104.832 109.184,104.746C108.851,104.582 108.102,104.122 107.308,103.578C103.924,101.258 100.352,99.913 93.901,98.454C92.209,98.072 89.162,96.947 87.132,95.948C83.798,94.307 83.762,94.33 76.724,93.661C71.567,93.171 68.708,92.719 67.241,92.127C65.492,91.422 65.03,90.431 65.03,89.318C65.03,88.3 65.379,87.493 65.926,86.924C66.407,86.425 67.059,86.085 67.865,85.993C67.891,85.878 67.917,85.748 67.936,85.626C68.218,83.865 68.636,82.731 69.331,81.869C70.035,80.997 71.045,80.368 72.681,79.772C74.008,79.288 74.842,78.802 75.421,78.045C76.94,76.062 77.746,75.28 78.581,74.944C79.22,74.686 79.913,74.641 80.978,74.726C81.471,74.765 81.791,74.8 82.066,74.712C82.308,74.634 82.488,74.448 82.771,74.184C83.327,73.665 84.06,73.237 84.72,72.977C84.332,72.183 84.177,71.453 84.208,70.756C84.246,69.911 84.554,69.089 85.202,68.246C85.23,68.209 85.261,68.167 85.292,68.126C85.174,67.902 84.978,67.538 84.769,67.184C83.214,64.54 82.59,62.535 82.59,60.541C82.59,59.397 82.855,58.554 83.354,57.899C84.016,57.029 85.2,56.417 87.308,56.135L89.363,55.86C89.824,55.798 90.289,55.956 90.618,56.285L93.487,59.154C96.201,61.867 96.819,62.779 100.007,69.162C101.833,72.819 103.972,76.832 104.763,78.078C105.576,79.357 106.774,81.324 107.425,82.448C108.06,83.542 109.618,85.992 110.887,87.892C112.177,89.822 114.023,92.604 114.99,94.074C115.953,95.538 118.099,98.734 119.758,101.176C121.129,103.193 122.296,105.04 122.71,105.816C122.836,106.053 122.916,106.262 122.965,106.433C122.974,106.451 122.989,106.477 123,106.496C123.954,108.12 128.96,114.151 133.429,119.038C143.236,129.762 149.073,136.469 157.385,146.563C164.359,155.032 167.737,158.884 172.48,163.771L174.504,165.855C175.288,164.786 176.144,164.171 177.108,163.899C178.11,163.617 179.281,163.703 180.732,164.257C182.549,164.95 184.068,166.186 187.86,170.475C188.714,171.441 190.757,173.162 192.394,174.309C194.073,175.486 197.742,178.47 200.731,181.089C200.571,180.899 200.415,180.714 200.262,180.536C198.095,178.006 195.691,174.955 194.914,173.76C194.221,172.694 193.115,171.317 192.447,170.705C190.415,168.844 190.033,166.68 191.219,164.465C191.228,164.447 191.239,164.427 191.248,164.407C189.156,161.563 185.23,155.882 182.066,151.116C177.236,143.841 171.306,135.353 170.184,134.131C169.672,133.574 168.512,132.128 167.607,130.916C166.754,129.773 164.601,127.266 162.826,125.343C161.671,124.091 160.92,123.292 160.364,122.797C160.021,122.492 159.902,122.376 159.643,122.414C158.466,122.587 157.353,122.331 154.971,120.784C153.533,119.851 150.07,118.162 147.848,117.229C147.125,116.926 146.31,116.656 146.31,116.656C146.067,116.63 145.664,116.539 145.146,116.333C143.648,115.736 140.38,114.064 137.166,112.212L134.798,110.848C133.98,112.611 132.079,113.225 130.651,112.324C130.436,112.189 130.116,111.892 129.806,111.416C129.408,110.805 128.904,109.771 128.515,108.696C128.15,107.69 127.532,106.408 127.458,106.254C127.059,105.794 126.725,104.983 126.688,104.326C126.627,104.162 126.147,102.891 125.687,102.017C124.456,99.677 124.345,99.021 124.61,96.901C124.892,94.65 124.891,94.789 124.57,92.336C124.362,90.746 124.404,89.987 124.668,89.337C124.855,88.876 125.164,88.446 125.705,87.863C126.049,87.491 126.204,87.327 126.121,86.945C125.801,85.489 126.2,84.324 127.029,83.504C128.039,82.505 129.928,81.981 132.342,82.554C135.499,83.305 136.282,83.736 139.886,87.16C142.294,89.447 144.166,91.837 147.67,97.157C150.644,101.675 152.71,104.416 154.276,105.853C163.649,114.458 173.304,125.327 179.947,134.747C182.681,138.624 190.128,149.774 195.119,157.464C195.801,158.515 196.556,159.57 197.084,160.288C198.25,159.149 200.409,156.987 200.792,156.246C201.068,155.712 201.371,154.623 201.48,153.83C201.538,153.408 201.595,153.128 201.542,152.87C201.455,152.447 201.104,152.129 200.474,151.377C196.049,146.099 187.48,129.092 179.334,109.3C177.546,104.956 174.927,97.402 173.95,93.949C173.652,92.894 173.512,92.145 173.512,91.856L173.512,91.854C173.512,91.664 173.391,91.584 173.132,91.362C172.39,90.721 171.021,89.824 168.538,88.228C166.616,86.991 164.916,85.853 164.257,85.37C163.931,85.131 163.744,84.932 163.669,84.84C163.691,84.867 163.716,84.898 163.716,84.898C163.716,84.898 163.222,84.456 162.708,84.036C161.174,82.782 158.497,80.715 156.613,79.357C153.261,76.941 147.678,71.066 145.429,67.589C144.613,66.329 144.112,65.382 143.879,64.684C143.56,63.728 143.654,63.017 143.91,62.492C144.171,61.958 144.637,61.514 145.402,61.253C145.657,60.986 146.917,59.658 147.81,58.456C149.171,56.623 150.581,54.915 150.916,54.637C151.136,54.454 151.48,54.264 151.94,54.134C152.529,53.969 153.412,53.869 154.299,53.864C155.183,53.858 156.069,53.946 156.664,54.104C157.048,54.206 157.353,54.349 157.564,54.49C157.702,54.52 158.442,54.678 158.914,54.693C159.244,54.703 159.622,54.667 159.709,54.659C159.742,54.619 159.822,54.519 159.871,54.444C160.038,54.189 160.091,54.021 160.061,53.601C160.021,53.042 159.891,52.257 159.679,51.039C159.029,47.287 159.175,46.669 159.799,45.464C160.647,43.824 161.935,43.045 163.351,43.045C163.555,43.045 163.896,43.09 164.295,43.324C164.69,43.557 165.442,44.196 166.147,44.966C166.871,45.756 167.623,46.192 168.714,46.471C170.47,46.921 174.079,49.079 176.257,50.837C177.406,51.764 178.158,52.664 178.356,53.182C178.607,53.844 178.726,55.082 178.595,55.935C178.503,56.535 178.338,58.304 178.226,59.866C178.104,61.57 177.862,63.522 177.699,64.204C177.409,65.418 177.459,69.773 177.663,72.7C177.74,73.805 177.808,74.683 177.938,75.01C178.229,75.744 178.549,76.846 178.654,77.458C179.547,82.702 180.948,89.763 181.532,91.957C184.745,104.03 198.471,134.783 205.744,146.21C206.356,147.171 206.656,147.661 207.227,147.775C208.284,147.987 209.526,148.849 211.55,151.391C212.775,152.931 215.17,155.66 216.872,157.455C219.603,160.337 223.002,164.025 230.378,172.106C234.413,176.527 241.643,183.928 246.488,188.696C246.274,188.27 246.063,187.839 245.862,187.415C244.873,185.327 243.366,182.539 242.511,181.219C241.553,179.742 240.556,177.823 240.278,176.964C239.513,174.602 237.841,171.623 235.693,168.744C233.82,166.233 233.16,164.659 233.256,163.407C233.333,162.409 233.817,161.494 234.831,160.48C235.523,159.788 236.032,159.42 236.586,159.207C229.859,153.497 227.149,150.545 221.936,143.575C213.677,132.533 208.228,121.092 206.542,111.372C206.261,109.75 206.079,108.283 206.063,107.681C206.063,107.67 206.063,107.659 206.063,107.648C204.97,106.617 196.514,98.689 190.319,94.17C185.2,90.437 184.827,89.532 184.827,86.825C184.827,86.322 184.728,85.674 184.686,85.422C184.41,85.127 184.105,84.699 183.833,84.156C183.143,82.78 182.469,80.571 182.418,79.276C182.353,77.612 182.679,76.753 183.812,75.571C184.066,75.306 184.365,74.897 184.475,74.743C184.566,74.283 184.821,73.765 185.292,73.278C186.096,72.446 187.646,71.583 189.122,71.296C189.356,71.251 189.555,71.209 189.726,71.163C189.809,71.141 189.919,71.099 189.968,71.08C190.006,71 190.137,70.714 190.223,70.467C191.173,67.721 192.746,65.992 194.605,65.319C194.724,65.276 194.866,65.215 194.97,65.169C194.972,65.134 194.973,65.098 194.973,65.067C194.973,64.172 195.311,63.12 195.915,62.133C196.75,60.768 198.082,59.538 199.403,59.01C201.036,58.357 201.5,58.282 204.624,59.086C206.463,59.559 208.33,60.382 208.811,60.817C209.433,61.38 210.163,62.488 210.709,63.668C211.265,64.87 211.62,66.141 211.62,66.937C211.62,67.44 212.08,68.833 212.581,70.048C213.809,73.027 213.874,72.644 213.6,89.245C213.47,97.131 213.461,97.203 214.639,101.625C215.356,104.319 215.913,107.085 215.913,107.766C215.913,108.888 215.315,110.145 214.486,110.957C214.153,111.283 213.787,111.534 213.414,111.707C213.426,111.763 213.439,111.82 213.452,111.877C213.688,112.857 214.16,114.365 214.911,116.655C219.238,129.84 229.803,144.895 241.704,154.865C246.583,158.953 249.247,161.618 250.28,163.386C250.813,164.301 250.993,165.082 250.954,165.741C251.321,166.058 252.344,166.917 253.646,167.806C255.631,169.162 258.855,171.55 260.811,173.111C262.688,174.609 265.159,176.401 266.306,177.089C267.543,177.832 269.568,179.312 270.805,180.379C271.965,181.38 275.073,183.702 277.709,185.542C280.457,187.461 283.963,190.255 285.503,191.747C286.973,193.172 290.202,195.822 292.677,197.639C295.251,199.529 298.301,201.934 299.456,202.979C300.56,203.979 303.249,206.011 305.428,207.498C311.264,211.481 323.969,223.858 330.349,231.791C332.957,235.034 335.798,238.477 336.665,239.44C338.52,241.503 344.16,248.271 347.168,252.043C348.304,253.469 350.636,256.362 352.35,258.474C354.08,260.605 356.289,263.409 357.258,264.705C360.442,268.961 369.42,280.196 372.629,283.942C374.389,285.995 377.654,290.063 379.886,292.981C382.1,295.877 384.453,298.948 385.114,299.805C385.768,300.653 387.779,303.048 389.583,305.128C391.411,307.236 393.786,309.991 394.86,311.25C395.927,312.5 397.953,314.803 399.361,316.368C400.799,317.965 403.33,321.073 404.983,323.275C406.585,325.407 408.733,328.082 409.759,329.22C412.104,331.819 416.472,337.462 418.037,339.91C418.645,340.861 420.443,343.368 422.031,345.483C424.972,349.401 425.934,350.841 430.742,358.552C432.112,360.748 434.129,363.981 435.225,365.735C436.292,367.444 437.927,369.797 438.861,370.965C439.848,372.198 441.348,374.291 442.194,375.615C444.371,379.019 447.619,383.907 448.959,385.795C449.646,386.762 450.516,388.164 450.896,388.908C452.295,391.652 459.986,401.58 465.572,407.887L467.575,410.148L471.094,409.962C476.327,409.686 480.421,410.426 482.278,411.748C482.993,412.257 484.421,414.271 485.6,416.656C487.177,419.844 487.563,421.126 487.91,424.224C488.19,426.725 488.173,428.717 487.899,430.137L487.898,430.141C487.687,431.219 487.325,433.233 487.093,434.616C486.142,440.28 483.674,446.079 480.49,450.173C478.5,452.732 473.521,457.403 469.957,460.041C466.947,462.269 459.668,466.031 455.491,467.511C451.041,469.087 443.099,469.421 437.512,468.238C437.51,468.238 437.509,468.238 437.507,468.237C432.793,467.239 429.097,465.99 426.545,464.566C423.605,462.927 418.55,459.225 415.893,456.765C414.69,455.651 412.364,453.796 410.724,452.64C407.936,450.676 405.659,448.753 396.159,440.302C394.638,438.949 391.963,436.783 390.214,435.488C386.613,432.821 374.083,420.498 369.153,414.765C366.34,411.494 356.365,401.889 350.522,396.818C348.139,394.75 339.279,386.725 332.074,380.107C330.041,378.239 326.054,374.233 323.215,371.203C320.433,368.234 316.595,364.413 314.685,362.713C312.739,360.981 309.113,357.545 306.626,355.076C304.199,352.666 299.882,348.963 297.032,346.847C294.108,344.674 289.854,341.282 287.579,339.309C285.333,337.362 281.988,334.519 280.145,332.993C278.275,331.445 274.369,327.845 271.466,324.993C268.636,322.212 265.544,319.301 264.592,318.527C263.623,317.738 259.278,314.008 254.939,310.237C250.617,306.482 244.739,301.391 241.877,298.924C236.059,293.908 211.84,270.031 209.762,267.269C209.404,266.791 208.813,266.273 208.627,266.113C207.435,266.066 206.517,265.658 205.431,264.245C204.882,263.531 204.254,262.48 203.432,260.947C201.209,256.806 199.408,254.144 196.394,250.549C195.341,249.292 194.447,248.104 194.129,247.573C194.017,247.386 193.942,247.214 193.893,247.065C193.746,246.84 192.531,244.999 191.323,243.384C188.947,240.21 186.423,236.567 180.29,227.461C179.855,226.815 179.381,226.282 178.922,226.162C177.815,225.872 176.363,225.022 170.878,221.063C168.863,219.61 156.76,213.015 152.542,211.068C145.694,207.907 134.873,203.683 129.907,202.236C126.293,201.184 118.306,199.977 115.121,200.007C113.675,200.021 112.702,200.247 111.496,200.865C109.051,202.119 106.825,202.897 101.064,204.463C94.119,206.352 89.817,208.806 84.823,213.739C82.827,215.709 81.584,217.049 80.914,218.021C80.685,218.355 80.507,218.565 80.507,218.764C80.507,219.522 79.965,220.889 79.214,221.761C78.708,222.35 78.305,222.696 77.826,222.93C77.206,223.231 76.399,223.343 74.716,223.297C71.237,223.2 69.482,222.243 67.738,219.607C66.061,217.074 65.682,214.489 66.521,212.112C66.759,211.436 66.98,210.579 66.98,210.201C66.98,209.885 67.062,209.478 67.267,209.035C67.556,208.411 68.131,207.63 68.835,206.989C69.111,206.738 69.383,206.416 69.535,206.227C69.334,206.054 68.954,205.741 68.567,205.502C66.609,204.291 64.638,202.516 63.627,201.191C62.962,200.32 62.688,199.518 62.688,199.017C62.688,198.449 63.261,196.786 64.074,195.366L64.481,194.655C62.844,193.802 61.463,192.549 60.606,191.259C59.921,190.23 59.566,189.162 59.566,188.212C59.566,187.596 60.028,186.361 60.694,185.514L60.81,185.367L60.641,185.129C59.504,183.533 58.591,181.399 57.621,177.912C56.814,175.011 56.752,173.791 57.152,172.791C57.346,172.306 57.653,171.85 58.113,171.315C58.197,171.217 58.289,171.102 58.362,171.007C58.346,170.974 58.33,170.941 58.314,170.911C57.698,169.73 57.55,168.78 57.703,167.983C57.724,167.872 57.751,167.764 57.784,167.656C56.451,168.168 54.946,168.732 53.572,169.231C48.234,171.168 46.309,172.061 43.372,174.009C42.223,174.771 40.126,175.866 38.711,176.44C37.456,176.949 35.914,177.673 35.286,178.055C33.114,179.376 31.391,178.775 30.599,177.733C29.862,176.763 29.669,174.952 31.148,173.013C31.482,172.575 31.892,172.157 32.298,171.809C32.04,171.624 31.771,171.42 31.505,171.204C30.785,170.621 29.926,170.015 29.564,169.904C29.301,169.824 28.91,169.618 28.484,169.251C27.901,168.749 27.121,167.866 26.469,166.919C25.389,165.352 25.026,164.595 24.952,163.885C24.897,163.352 24.988,162.811 25.234,161.991C25.596,160.783 27.069,158.512 28.586,156.708C29.591,155.513 30.622,154.529 31.329,154.095C31.176,153.491 31.137,152.747 31.265,152.157C31.241,152.086 31.166,151.882 31.086,151.729C30.776,151.136 30.222,150.337 29.356,149.169C27.983,147.318 26.224,144.524 25.444,142.964C24.129,140.333 23.917,139.461 23.89,136.695C23.866,134.268 24.073,133.4 24.527,132.761C24.754,132.44 25.056,132.157 25.495,131.827C26.216,131.284 26.733,131.052 27.264,130.975C27.779,130.902 28.346,130.973 29.211,131.275C30.092,131.582 31.313,132.312 31.928,132.89C32.365,133.301 33.263,133.954 33.921,134.346C34.666,134.791 37.612,136.588 40.468,138.34C50.292,144.365 59.314,149.154 65.447,151.585C67.705,152.48 70.322,153.658 71.265,154.196C72.553,154.931 73.388,155.003 77.328,155.194C84.313,155.532 88.315,156.076 94.187,157.478C99.37,158.715 107.106,161.131 110.801,162.662C112.15,163.221 114.263,164.314 116.462,165.556ZM62.494,165.794C62.533,165.82 62.573,165.848 62.612,165.877C63.261,166.348 64.065,167.218 65.127,168.593C70.372,175.384 80.456,182.764 87.232,184.729C92.57,186.276 95.232,187.161 100.497,189.135C102.474,189.877 103.673,190.327 104.467,190.556C104.72,190.629 105.017,190.676 105.101,190.689C105.153,190.658 105.276,190.585 105.357,190.531C106.133,190.023 107.166,189.7 108.569,189.648C110.261,189.585 112.605,189.919 115.846,190.698C118.156,191.253 121.57,191.894 123.434,192.121C130.033,192.926 135.233,194.491 147.468,199.417C157.073,203.284 173.082,211.913 177.772,215.733C178.191,216.074 178.595,216.377 178.912,216.605C179.38,215.939 180.132,215.03 180.965,214.21L181.41,213.772L174.222,210.189C159.096,202.649 157.619,201.72 142.685,190.314C139.865,188.161 136.801,185.742 135.874,184.94C135.031,184.212 134.69,183.914 134.046,183.974C133.261,184.047 132.251,183.884 130.683,183.164C128.82,182.309 125.928,180.584 121.036,177.468C110.987,171.065 108.758,169.938 100.828,167.323C92.53,164.586 85.079,163.093 76.642,162.477C75.394,162.386 74.586,162.335 74.018,162.354C73.628,162.367 73.478,162.427 73.275,162.613C72.658,163.18 71.147,163.86 69.893,164.065C69.005,164.21 67.65,164.55 66.881,164.821C65.888,165.171 64.525,165.445 63.86,165.451C63.595,165.454 63.083,165.592 62.494,165.794ZM185.549,207.323C185.549,207.323 185.549,207.323 185.549,207.323L185.549,207.323ZM185.549,207.323L185.549,207.325C185.57,207.339 185.585,207.35 185.596,207.358C185.58,207.346 185.565,207.334 185.549,207.323ZM206.127,107.047C206.184,106.817 206.263,106.667 206.307,106.595C206.226,106.727 206.161,106.877 206.127,107.047ZM254.694,181.614C254.763,181.759 254.831,181.903 254.897,182.047C255.818,184.025 257.273,186.729 258.134,188.056C260.361,191.486 260.719,193.743 259.914,195.686C259.633,196.364 259.834,196.804 260.366,198.452C261.16,200.916 261.459,201.145 267.739,207.528C271.458,211.308 276.142,215.665 278.152,217.205C282.053,220.194 284.498,222.583 289.886,228.711C291.573,230.63 294.544,233.857 296.488,235.882C298.468,237.946 301.664,241.59 303.589,243.979C308.111,249.594 310.77,252.622 316.303,258.456C321.712,264.16 322.94,265.77 331.286,278.229C339.05,289.82 343.194,295.762 348.121,302.364C350.32,305.31 352.546,308.438 353.073,309.311C355.021,312.54 363.07,323.325 364.477,324.574C364.969,325.012 368.171,328.582 371.584,332.517C377.541,339.385 379.564,341.605 387.367,349.832C394.686,357.55 396.425,359.423 399.362,362.749C400.995,364.598 403.023,367.001 403.869,368.088C404.688,369.141 407.202,371.893 409.454,374.207C411.801,376.62 414.702,379.942 415.903,381.587C417.053,383.162 419.535,386.082 421.417,388.077C423.398,390.178 425.751,392.986 426.65,394.313C427.507,395.579 430.273,399.031 432.792,401.985C435.421,405.069 438.247,408.77 439.083,410.201C439.861,411.534 440.979,413.239 441.572,413.987C443.417,416.318 444.56,419.215 444.572,421.361C444.572,421.464 444.575,421.576 444.579,421.681C445.28,421.762 447.056,421.846 448.573,421.872C450.66,421.907 451.074,421.876 452.187,421.109C452.939,420.591 454.085,419.402 454.743,418.475C455.542,417.349 456.785,415.849 457.503,415.139L457.742,414.903L456.505,413.455C451.05,407.07 443.336,396.975 442.145,394.69C441.428,393.314 431.82,378.951 428.879,374.851C426.535,371.585 424.541,368.499 419.94,361.009C418.188,358.157 415.692,354.439 414.392,352.748C413.052,351.007 411.182,348.424 410.236,347.01C407.67,343.171 404.509,339.023 402.041,336.258C400.771,334.835 398.466,331.975 396.92,329.903C395.422,327.896 393.058,324.979 391.666,323.421C390.243,321.828 388.372,319.69 387.508,318.67C386.655,317.661 384.428,315.134 382.559,313.052C380.652,310.928 378.259,308.093 377.241,306.754C369.643,296.76 367.505,294.038 363.719,289.543C359.216,284.198 352.965,276.335 348.664,270.606C347.299,268.788 344.674,265.47 342.831,263.232C340.972,260.974 338.32,257.719 336.938,255.999C335.567,254.292 332.87,251.078 330.946,248.856C328.999,246.608 325.581,242.458 323.351,239.633C318.037,232.904 304.481,219.509 299.67,216.25C297.666,214.892 294.859,212.766 293.432,211.527C292.053,210.33 288.754,207.73 286.103,205.748C283.371,203.707 279.887,200.843 278.357,199.386C276.901,197.999 274.176,195.821 272.303,194.545C270.344,193.211 267.227,190.897 265.377,189.403C263.589,187.96 260.923,185.992 259.451,185.031C258.328,184.299 256.439,182.938 254.694,181.614ZM205.701,95.929C205.6,93.887 205.607,90.454 205.741,87.016C206.159,76.269 206.187,76.088 204.883,72.018C204.209,69.916 203.569,67.739 203.428,67.094C203.394,67.054 203.229,66.865 203.106,66.771C203.027,66.712 202.928,66.655 202.82,66.602C203.232,68.137 202.876,69.846 201.984,70.738C201.406,71.316 200.18,71.789 198.02,71.789L196.823,71.789L196.465,72.924C195.798,75.041 194.482,76.734 193.26,77.447C192.449,77.92 191.633,78.033 190.914,77.845C190.872,77.834 190.822,77.827 190.773,77.823C190.59,78.333 190.265,78.977 189.838,79.52C189.717,79.674 189.613,79.811 189.531,79.941C189.495,79.997 189.435,80.024 189.442,80.08C189.489,80.493 189.839,80.957 190.38,81.799C191.198,83.072 191.813,84.66 191.879,85.381C191.927,85.44 192.055,85.593 192.175,85.706C192.703,86.199 193.585,86.832 194.992,87.788C199.286,90.705 203.376,93.829 205.701,95.929ZM449.96,459.309C449.96,459.444 449.975,459.566 450.001,459.678C450.003,459.678 450.004,459.677 450.006,459.677C449.994,459.63 449.984,459.581 449.977,459.532C449.965,459.457 449.96,459.383 449.96,459.309ZM451.014,457.881C450.379,458.077 449.959,458.662 449.96,459.309C449.96,459.183 450.152,459.339 450.399,459.592C450.686,459.526 450.966,459.454 451.239,459.374L451.014,457.881ZM451.014,457.881C453.929,456.98 461.007,453.544 463.71,451.719C464.641,451.091 467.11,448.867 469.206,446.789C474.266,441.772 476.176,437.925 477.121,430.853C477.722,426.359 477.645,424.122 476.578,421.946C476.251,421.279 476.065,420.826 475.731,420.562C475.564,420.43 475.349,420.392 475.057,420.351C474.491,420.273 473.752,420.263 472.74,420.262L472.736,420.262C471.284,420.257 470.53,420.342 469.86,420.786C468.959,421.383 467.677,421.811 467.04,421.813C465.808,421.818 464.55,422.696 463.763,423.962C462.03,426.747 458.717,429.648 455.568,431.121L453.001,432.323C452.781,432.425 452.539,432.473 452.297,432.462L446.973,432.212C432.127,431.516 427.512,430.522 420.265,426.668C417.798,425.356 414.723,423.5 413.429,422.547C412.211,421.651 409.777,420.148 408.021,419.205C401.997,415.971 394.584,411.435 390.929,408.752C388.993,407.33 386.376,405.481 385.114,404.642C380.3,401.443 371.169,393.774 360.517,383.965C358.071,381.712 354.591,378.67 352.783,377.204C346.994,372.509 325.422,351.157 317.545,342.32C310.367,334.268 289.362,313.563 286.161,311.4C282.278,308.776 277.17,304.845 276.441,303.962C276.154,303.614 273.978,301.797 271.622,299.901C269.13,297.895 263.363,292.469 258.812,287.839C249.111,277.975 245.504,273.633 242.723,268.602C242.043,267.369 240.33,264.636 238.92,262.528C237.471,260.361 234.642,255.663 232.635,252.088C227.359,242.691 226.068,240.696 223.307,237.984C221.756,236.461 220.159,234.521 219.732,233.697C219.464,233.179 218.943,232.809 218.212,232.491C217.212,232.057 215.874,231.767 214.169,231.577C211.214,231.246 204.895,228.291 201.951,225.828C199.656,223.91 196.029,221.102 194.324,219.928C193.621,219.443 192.533,218.648 191.905,218.16L191.839,218.109L190.393,219.554C189.865,220.082 189.44,220.491 189.127,220.848C189.029,220.96 188.945,221.063 188.878,221.163C188.857,221.196 188.816,221.21 188.82,221.244C188.848,221.523 189.053,221.821 189.339,222.27C189.785,222.97 190.44,223.865 191.313,225.086C192.578,226.853 194.318,229.404 195.182,230.756C196.023,232.073 197.947,234.801 199.457,236.818C201.052,238.95 202.634,241.254 202.983,241.929C203.287,242.516 204.241,243.772 205.091,244.731C207.153,247.059 210.323,251.576 211.445,253.775C211.631,254.139 212.082,254.638 212.18,254.744C212.431,254.837 212.738,255.006 213.057,255.27C213.574,255.699 214.224,256.451 214.72,257.258C216.122,259.538 243.255,286.475 249.483,291.785C252.25,294.143 257.436,298.625 261.008,301.743C264.568,304.851 268.97,308.645 270.79,310.175C272.642,311.731 275.763,314.64 277.724,316.639C279.631,318.582 282.836,321.582 284.849,323.306C295.894,332.767 299.061,335.382 303.303,338.532C308.72,342.556 316.797,350.067 330.774,364.103C336.123,369.475 343.502,376.518 347.173,379.753C350.531,382.713 353.384,385.295 353.973,385.897C354.064,385.99 354.136,386.075 354.192,386.151C354.311,386.261 356.308,388.118 358.216,389.771C364.58,395.285 373.548,403.927 376.759,407.635C381.576,413.196 393.695,425.109 397.208,427.729C399.081,429.126 403.409,432.751 406.823,435.787C410.17,438.763 414.842,442.642 417.205,444.405C419.684,446.254 422.18,448.292 422.761,448.92C424.065,450.328 428.912,453.87 431.384,455.237C433.746,456.542 435.194,457.007 439.216,457.816C443.992,458.778 447.956,458.826 451.014,457.881ZM79.702,132.605C80.067,133.337 80.347,134.192 80.458,134.788C80.677,134.881 81.007,135.014 81.372,135.137C82.691,135.583 84.944,136.241 88.795,137.364C89.742,137.64 91.809,138.156 93.388,138.511C95.416,138.968 97.117,139.403 98.428,139.786C96.785,136.68 94.651,132.175 94.069,130.484C93.333,128.346 92.803,126.606 91.26,121.241C90.715,119.344 90.172,116.85 89.743,114.365C89.719,115.106 89.704,115.898 89.7,116.739C89.679,120.376 89.371,121.924 88.529,123.072C88.134,123.609 87.616,124.074 86.903,124.581C86.732,124.703 86.586,124.834 86.475,124.973C86.43,125.03 86.375,125.131 86.359,125.161C86.337,126.19 85.543,127.693 84.506,128.696C83.739,129.436 82.855,129.868 82.18,129.932C82.12,130.016 81.996,130.197 81.928,130.344C81.445,131.383 80.656,132.168 79.702,132.605ZM70.253,184.134C70.759,185.632 70.681,187.043 70.088,188.148C71.434,189.054 72.421,189.87 73.111,190.639C74.212,191.867 74.65,193.038 74.652,194.256L74.652,194.258C74.652,194.55 74.573,194.962 74.364,195.426C74.077,196.067 73.507,196.917 72.844,197.621L72.622,197.857C74.616,199.295 75.984,200.442 76.876,201.436C78.118,202.821 78.555,204.018 78.555,205.22C78.555,206.293 78.06,208.126 77.401,209.65C77.371,209.719 77.34,209.788 77.309,209.856C79.246,207.892 81.638,205.746 83.822,204.097C88.504,200.562 92.71,198.532 98.91,196.877C98.253,196.63 97.541,196.36 96.817,196.082C94.391,195.153 91.372,194.091 90.106,193.724C81.856,191.33 80.571,190.836 77.29,188.949C75.112,187.696 72.594,185.961 70.253,184.134ZM152.156,64.884C152.293,65.112 152.662,65.71 153.046,66.173C154.89,68.395 158.58,71.721 162.626,74.708C165.096,76.532 167.827,78.554 168.695,79.201C168.748,79.241 168.802,79.28 168.854,79.319C168.566,78.101 168.433,76.864 168.462,75.794C168.493,74.636 168.727,73.652 169.082,73.001C169.098,72.888 169.422,70.531 169.443,68.329C169.468,65.823 169.695,61.723 169.948,59.218C170.109,57.618 170.206,56.594 170.22,55.887C170.231,55.304 170.189,55.102 169.981,54.823C169.355,53.985 168.569,53.348 167.672,52.956C167.804,53.672 167.837,54.273 167.779,54.833C167.674,55.847 167.287,56.758 166.5,57.936C165.358,59.644 163.801,61.246 162.623,62.055C161.834,62.597 161.113,62.812 160.632,62.806C160.628,62.806 160.625,62.806 160.621,62.805C160.062,62.794 158.9,62.354 158.085,61.717C157.843,61.527 157.361,61.297 157.272,61.254C156.71,61.2 155.783,60.853 155.155,60.378C155.112,60.345 155.053,60.31 154.99,60.277C154.509,60.881 153.48,62.208 152.923,63.203C152.596,63.787 152.27,64.592 152.156,64.884ZM81.998,81.229C82.046,81.084 82.067,80.933 82.067,80.779C82.067,80.907 82.045,81.059 81.998,81.229ZM75.075,86.534C76.253,86.628 78.32,86.772 81.103,86.889C84.896,87.049 85.463,87.19 89.1,88.929C91.015,89.845 94.098,90.967 95.951,91.421C100.668,92.577 104.178,93.685 106.759,94.823C106.314,94.172 105.873,93.539 105.5,93.013C104.492,91.598 102.52,88.519 101.117,86.172C99.739,83.864 98.103,81.149 97.483,80.138C96.896,79.18 95.197,75.984 93.592,72.818C93.502,72.933 93.408,73.042 93.31,73.144C93.063,73.402 92.795,73.609 92.527,73.765C92.522,73.974 92.522,74.229 92.539,74.464C92.632,75.811 92.537,76.553 92.253,77.185C92.049,77.639 91.742,78.054 91.244,78.552C90.258,79.538 89.182,79.984 87.851,79.984C87.73,79.984 87.579,80.005 87.469,80.024C87.127,80.567 86.545,81.092 85.777,81.479C84.64,82.052 83.103,82.349 81.838,82.147C81.763,82.135 81.68,82.126 81.597,82.119C81.43,82.393 81.215,82.681 80.947,82.967C79.76,84.236 77.55,85.765 76.15,86.157C75.681,86.289 75.327,86.379 75.075,86.534ZM174.501,183.286C175.019,183.882 175.886,184.864 176.885,185.934C184.602,194.203 204.222,214.079 207.56,216.812C210.404,219.14 213.594,220.828 215.903,221.132C219.119,221.555 223.86,223.163 225.374,224.29C226.188,224.897 227.404,226.232 228.066,227.264C228.615,228.119 230.342,230.155 231.895,231.797C233.611,233.611 235.487,235.935 236.078,236.951C237.095,238.7 241.916,247.288 243.76,250.634C244.282,251.582 245.884,254.108 247.317,256.249C248.808,258.475 250.586,261.342 251.271,262.617C252.432,264.781 254.202,267.3 256.921,270.687C259.816,274.293 274.344,288.706 278.681,292.277C281.209,294.358 284.289,296.918 285.525,297.965C286.727,298.983 289.161,300.771 290.933,301.94C292.8,303.171 296.406,306.146 298.944,308.556C306.575,315.803 321.249,330.734 325.581,335.657C331.268,342.119 354.077,364.732 358.767,368.553C360.93,370.316 364.824,373.715 367.42,376.106C374.688,382.801 384.196,391.033 387.391,393.392C397.909,401.155 404.632,405.531 412.496,409.72C414.548,410.812 417.61,412.701 419.301,413.916C422.957,416.542 427.406,418.822 431.03,419.915C432.078,420.231 432.842,420.455 433.422,420.586C433.666,420.642 433.946,420.673 434.095,420.688C433.937,420.502 433.746,420.282 433.548,420.065C432.714,419.151 431.781,418.017 431.38,417.445C431.352,417.455 431.325,417.465 431.299,417.475C429.127,418.305 427.64,418.031 424.513,415.154C423.376,414.109 421.347,412.509 420.004,411.6C405.513,401.785 397.699,395.896 384.694,384.986C378.542,379.825 351.539,352.169 345.879,345.232C344.945,344.087 342.02,340.583 339.38,337.445C336.717,334.281 333.033,329.689 331.193,327.241C329.392,324.844 326.623,321.47 325.04,319.743C322.295,316.749 315.509,308.356 310.274,301.477C301.213,289.567 296.109,283.376 288.431,274.984C273.725,258.909 273.313,258.497 251.2,237.593C241.993,228.888 230.709,218.987 226.663,216.071C225.754,215.415 223.954,214.074 222.665,213.091C221.411,212.134 219.152,210.561 217.646,209.594C216.081,208.59 211.404,204.675 207.262,200.884C193.81,188.574 189.467,184.752 186.586,182.733C184.93,181.572 182.461,179.413 181.1,177.936L179.903,176.636L179.456,177.183C178.609,178.223 176.991,180.183 175.861,181.54C175.359,182.143 174.851,182.813 174.501,183.286ZM412.142,393.434C410.496,391.56 408.793,389.508 407.847,388.241C406.591,386.556 403.726,383.272 401.483,380.94C399.179,378.543 395.524,374.484 393.36,371.919C389.344,367.158 386.496,364.051 375.858,352.818C372.408,349.176 367.47,343.731 364.883,340.718C362.323,337.737 358.995,333.985 357.487,332.381C355.939,330.735 353.354,327.597 351.743,325.407C346.138,317.788 344.451,315.412 343.293,313.531C342.667,312.514 340.577,309.615 338.653,307.087C336.666,304.478 334.406,301.363 333.628,300.168C332.87,299.001 331.374,296.833 330.304,295.349C329.218,293.841 325.425,288.274 321.878,282.976C314.423,271.844 313.541,270.681 308.172,265.045C302.828,259.435 299.81,255.995 294.932,249.954C292.816,247.333 290.368,244.498 289.486,243.659C288.57,242.788 285.844,239.851 283.432,237.129C276.959,229.827 275.209,228.075 271.458,225.226C267.584,222.283 253.666,208.384 252.256,206.065C250.769,203.621 240.631,193.432 238.461,192.207C235.255,190.398 230.809,186.228 221.848,176.469C217.52,171.756 212.371,166.214 210.404,164.154L208.215,161.861C207.488,162.875 205.754,164.777 203.984,166.428L201.408,168.832L201.66,169.24C202.133,170.006 203.616,171.909 204.948,173.474C208.455,177.593 209.897,179.602 213.652,185.616C217.639,192.002 218.254,193.634 218.254,195.893C218.254,196.869 218.566,197.054 219.965,198.332C221.069,199.341 222.584,200.495 223.341,200.882C224.209,201.325 226.442,202.836 228.297,204.25C229.994,205.544 231.654,206.768 231.993,206.961C232.659,207.339 239.129,212.732 245.623,218.356C254.595,226.128 279.71,250.098 285.719,256.623C299.049,271.1 302.013,274.377 304.804,277.714C308.598,282.249 313.415,288.323 317.689,293.962C323.905,302.16 328.998,308.498 332.884,312.865C335.071,315.322 338.3,319.251 340.061,321.596C341.785,323.893 344.719,327.546 346.579,329.715C348.468,331.917 351.066,335.044 352.353,336.664C358.073,343.867 384.075,370.982 388.991,374.868C390.626,376.16 393.04,378.202 394.355,379.406C396.95,381.782 405.455,388.418 412.142,393.434ZM36.773,145.712C37.868,147.068 38.932,148.284 39.554,148.836C40.699,149.854 41.173,150.483 41.407,151.193C41.57,151.686 41.621,152.239 41.589,153.037C41.581,153.233 41.594,153.476 41.608,153.659C41.899,153.976 42.276,154.539 42.552,155.205C42.908,156.065 42.997,156.622 42.932,157.136C42.868,157.646 42.643,158.164 42.085,158.913C41.197,160.108 40.557,160.53 37.934,160.759C37.04,160.837 35.751,161.129 35.571,161.171C35.203,161.448 34.021,162.889 33.456,163.588C33.884,164.374 35.028,166.411 35.858,167.3C36.423,167.906 36.929,168.517 37.282,168.994C37.698,168.735 38.24,168.388 38.787,168.006C42.268,165.58 45.907,163.7 50.836,161.794C53.042,160.941 56.332,159.628 58.149,158.877C58.788,158.613 59.455,158.368 60.096,158.157C55.317,156.126 44.118,150.11 36.773,145.712ZM145.728,108.997C145.483,108.841 145.243,108.698 145.01,108.57C144.102,108.069 143.66,107.639 143.414,107.185C143.148,106.692 143.046,106.096 143.194,105.12C143.186,105.073 143.135,104.788 143.071,104.592C142.93,104.156 142.704,103.64 142.414,103.064C140.926,100.106 137.831,95.748 134.823,92.621C134.271,92.047 133.751,91.527 133.32,91.103C133.078,91.467 132.775,91.802 132.42,92.081C131.983,92.425 132.015,92.723 132.015,93.574C132.015,94.996 131.634,96.561 131.03,97.689C131.03,97.689 130.59,98.51 130.59,98.51L131.708,100.713C132.786,102.836 132.961,103.139 134.404,103.755C135.501,104.223 138.352,105.566 140.741,106.742C142.103,107.412 143.935,108.235 145.728,108.997Z" style="fill-rule:nonzero;"/>
        </g>
    </g>
</svg>
