<?xml version="1.0" encoding="UTF-8" standalone="no"?>
<!DOCTYPE svg PUBLIC "-//W3C//DTD SVG 1.1//EN" "http://www.w3.org/Graphics/SVG/1.1/DTD/svg11.dtd">
<svg width="100%" height="100%" viewBox="0 0 512 512" version="1.1" xmlns="http://www.w3.org/2000/svg" xmlns:xlink="http://www.w3.org/1999/xlink" xml:space="preserve" xmlns:serif="http://www.serif.com/" style="fill-rule:evenodd;clip-rule:evenodd;stroke-linejoin:round;stroke-miterlimit:2;">
    <g transform="matrix(1.25929,-0.386808,0.386808,1.25929,-172.012,34.7464)">
        <g transform="matrix(1.28069,-0.565991,0.374771,0.848008,-107.188,154.956)">
            <ellipse cx="262.66" cy="212.737" rx="6.66" ry="4.239"/>
        </g>
        <g transform="matrix(1.39899,-0.0577236,0.0382217,0.926342,-110.913,-18.6649)">
            <ellipse cx="262.66" cy="212.737" rx="6.66" ry="4.239"/>
        </g>
        <g transform="matrix(1.39808,-0.0765877,0.0507126,0.925742,-156.158,-22.8147)">
            <ellipse cx="262.66" cy="212.737" rx="6.66" ry="4.239"/>
        </g>
        <g transform="matrix(0.911129,-0.358087,0.266771,0.678782,-113.696,103.162)">
            <ellipse cx="262.66" cy="212.737" rx="6.66" ry="4.239"/>
        </g>
        <g transform="matrix(0.871935,-0.333322,0.190593,0.627808,-94.2012,138.464)">
            <ellipse cx="262.66" cy="212.737" rx="6.66" ry="4.239"/>
        </g>
        <g transform="matrix(1.04457,-0.513478,0.243822,0.757264,-155.52,196.842)">
            <ellipse cx="262.66" cy="212.737" rx="6.66" ry="4.239"/>
        </g>
        <g transform="matrix(0.822425,-0.74082,0.333949,0.587295,-147.793,284.723)">
            <ellipse cx="262.66" cy="212.737" rx="6.66" ry="4.239"/>
        </g>
        <g transform="matrix(0.713902,-0.779492,0.320257,0.465945,-145.138,357.719)">
            <ellipse cx="262.66" cy="212.737" rx="6.66" ry="4.239"/>
        </g>
        <g transform="matrix(0.713902,-0.779492,0.305644,0.444684,-156.484,359.519)">
            <ellipse cx="262.66" cy="212.737" rx="6.66" ry="4.239"/>
        </g>
        <g transform="matrix(1.08996,-0.969266,0.432617,0.768415,-242.028,349.539)">
            <ellipse cx="262.66" cy="212.737" rx="6.66" ry="4.239"/>
        </g>
        <g transform="matrix(0.960545,-0.543623,0.190471,0.613728,-189.282,309.414)">
            <ellipse cx="262.66" cy="212.737" rx="6.66" ry="4.239"/>
        </g>
        <g transform="matrix(1.16709,-0.51584,0.157301,0.76775,-205.406,276.439)">
            <ellipse cx="262.66" cy="212.737" rx="6.66" ry="4.239"/>
        </g>
        <g transform="matrix(1.22677,-0.612187,0.186427,0.702775,-229.953,353.32)">
            <ellipse cx="262.66" cy="212.737" rx="6.66" ry="4.239"/>
        </g>
        <g transform="matrix(1.1893,-0.544356,0.183,0.711754,-247.167,323.688)">
            <ellipse cx="262.66" cy="212.737" rx="6.66" ry="4.239"/>
        </g>
        <g transform="matrix(0.698884,-0.403632,0.238905,0.607507,-153.024,301.389)">
            <ellipse cx="262.66" cy="212.737" rx="6.66" ry="4.239"/>
        </g>
        <g transform="matrix(0.482735,-0.374257,0.248017,0.500622,-115.442,306.834)">
            <ellipse cx="262.66" cy="212.737" rx="6.66" ry="4.239"/>
        </g>
        <g transform="matrix(0.488252,-0.245772,0.0921146,0.475264,-81.1284,306.901)">
            <ellipse cx="262.66" cy="212.737" rx="6.66" ry="4.239"/>
        </g>
        <g transform="matrix(0.696652,0.0202131,-0.190882,0.472428,-67.9555,262.703)">
            <ellipse cx="262.66" cy="212.737" rx="6.66" ry="4.239"/>
        </g>
        <g transform="matrix(0.897242,-0.0777956,-0.309081,0.619098,-72.0496,266.049)">
            <ellipse cx="262.66" cy="212.737" rx="6.66" ry="4.239"/>
        </g>
        <g transform="matrix(0.760557,-0.268872,-0.311332,0.7681,-47.6306,260.128)">
            <ellipse cx="262.66" cy="212.737" rx="6.66" ry="4.239"/>
        </g>
        <g transform="matrix(0.800908,-0.226284,-0.66834,0.851421,41.3743,241.569)">
            <ellipse cx="262.66" cy="212.737" rx="6.66" ry="4.239"/>
        </g>
        <g transform="matrix(0.689327,-0.455716,0.207701,0.560963,-142.815,289.769)">
            <ellipse cx="262.66" cy="212.737" rx="6.66" ry="4.239"/>
        </g>
        <g transform="matrix(0.994299,-0.595493,0.238948,0.707909,-137.753,271.883)">
            <ellipse cx="262.66" cy="212.737" rx="6.66" ry="4.239"/>
        </g>
        <g transform="matrix(1.26779,-0.127118,0.092497,0.922505,-138.232,28.9076)">
            <ellipse cx="262.66" cy="212.737" rx="6.66" ry="4.239"/>
        </g>
        <g transform="matrix(1.21118,-0.59333,0.400683,0.835896,-186.463,217.095)">
            <ellipse cx="262.66" cy="212.737" rx="6.66" ry="4.239"/>
        </g>
        <g transform="matrix(1.02962,-0.245955,0.185807,0.777828,-89.7384,27.6614)">
            <ellipse cx="262.66" cy="212.737" rx="6.66" ry="4.239"/>
        </g>
        <g transform="matrix(1.0714,0.0131426,-0.0455592,0.774654,-16.6928,-56.7169)">
            <ellipse cx="262.66" cy="212.737" rx="6.66" ry="4.239"/>
        </g>
        <g transform="matrix(1.18541,0.223976,-0.155404,0.654212,-15.8762,-67.9552)">
            <ellipse cx="262.66" cy="212.737" rx="6.66" ry="4.239"/>
        </g>
        <g transform="matrix(1.34153,0.144289,-0.0946466,0.611246,-39.0407,-63.2211)">
            <ellipse cx="262.66" cy="212.737" rx="6.66" ry="4.239"/>
        </g>
        <g transform="matrix(1.67357,0.282474,-0.148214,0.474977,-66.7209,-71.1925)">
            <ellipse cx="262.66" cy="212.737" rx="6.66" ry="4.239"/>
        </g>
        <g transform="matrix(1.28069,-0.565991,0.374771,0.848008,-151.436,177.049)">
            <ellipse cx="262.66" cy="212.737" rx="6.66" ry="4.239"/>
        </g>
        <g transform="matrix(1.05993,-0.769806,0.499681,0.687999,-117.202,314.534)">
            <ellipse cx="262.66" cy="212.737" rx="6.66" ry="4.239"/>
        </g>
        <g transform="matrix(0.893891,-0.964081,0.679899,0.620121,-66.2171,398.17)">
            <ellipse cx="262.66" cy="212.737" rx="6.66" ry="4.239"/>
        </g>
        <g transform="matrix(0.887815,-1.16485,0.736425,0.551806,-82.6656,510.122)">
            <ellipse cx="262.66" cy="212.737" rx="6.66" ry="4.239"/>
        </g>
        <g transform="matrix(0.773973,-0.988711,0.582762,0.429614,18.9149,506.079)">
            <ellipse cx="262.66" cy="212.737" rx="6.66" ry="4.239"/>
        </g>
        <g transform="matrix(0.706092,-0.996968,0.436387,0.277855,100.402,545.295)">
            <ellipse cx="262.66" cy="212.737" rx="6.66" ry="4.239"/>
        </g>
        <g transform="matrix(0.666834,-0.802918,0.415792,0.276282,71.6239,526.592)">
            <ellipse cx="262.66" cy="212.737" rx="6.66" ry="4.239"/>
        </g>
        <g transform="matrix(0.896642,-0.425486,0.3297,0.463446,-17.3739,405.446)">
            <ellipse cx="262.66" cy="212.737" rx="6.66" ry="4.239"/>
        </g>
        <g transform="matrix(1.12424,-0.146968,0.24662,0.526944,-119.461,327.674)">
            <ellipse cx="262.66" cy="212.737" rx="6.66" ry="4.239"/>
        </g>
        <g transform="matrix(1.19184,-0.649418,0.635506,0.527888,-198.688,439.081)">
            <ellipse cx="262.66" cy="212.737" rx="6.66" ry="4.239"/>
        </g>
        <g transform="matrix(0.959524,-0.842241,0.543578,0.376035,-67.3237,503.502)">
            <ellipse cx="262.66" cy="212.737" rx="6.66" ry="4.239"/>
        </g>
        <g transform="matrix(0.980771,-0.885435,0.662767,0.516981,-136.763,466.378)">
            <ellipse cx="262.66" cy="212.737" rx="6.66" ry="4.239"/>
        </g>
        <g transform="matrix(1.0892,-0.827927,0.589758,0.621137,-185.035,409.681)">
            <ellipse cx="262.66" cy="212.737" rx="6.66" ry="4.239"/>
        </g>
        <g transform="matrix(1.0041,-0.987938,0.644356,0.601309,-131.408,434.282)">
            <ellipse cx="262.66" cy="212.737" rx="6.66" ry="4.239"/>
        </g>
        <g transform="matrix(1.02927,-0.721654,0.413348,0.539085,-138.538,359.812)">
            <ellipse cx="262.66" cy="212.737" rx="6.66" ry="4.239"/>
        </g>
        <g transform="matrix(1.45912,-1.01688,0.515973,0.748723,-316.201,416.879)">
            <ellipse cx="262.66" cy="212.737" rx="6.66" ry="4.239"/>
        </g>
        <g transform="matrix(1.6135,-0.74813,0.378157,0.826928,-327.764,366.884)">
            <ellipse cx="262.66" cy="212.737" rx="6.66" ry="4.239"/>
        </g>
        <g transform="matrix(1.32188,-0.679346,0.352292,0.694442,-271.706,404.985)">
            <ellipse cx="262.66" cy="212.737" rx="6.66" ry="4.239"/>
        </g>
        <g transform="matrix(1.33615,-0.176634,0.0796993,0.638408,-237.134,301.481)">
            <ellipse cx="262.66" cy="212.737" rx="6.66" ry="4.239"/>
        </g>
        <g transform="matrix(1.20834,-0.597268,0.337828,0.792499,-176.883,352.172)">
            <ellipse cx="262.66" cy="212.737" rx="6.66" ry="4.239"/>
        </g>
        <g transform="matrix(0.906912,-0.402611,0.202149,0.492042,-89.019,387.937)">
            <ellipse cx="262.66" cy="212.737" rx="6.66" ry="4.239"/>
        </g>
        <g transform="matrix(1.304,-0.230756,0.105161,0.627346,-192.209,328.241)">
            <ellipse cx="262.66" cy="212.737" rx="6.66" ry="4.239"/>
        </g>
        <g transform="matrix(0.676417,-1.13503,0.847385,0.520633,-5.52722,476.944)">
            <ellipse cx="262.66" cy="212.737" rx="6.66" ry="4.239"/>
        </g>
        <path d="M274.872,79.44C266.865,80.059 258.24,81.568 249.215,84.21C229.584,89.958 207.164,100.603 191.929,109.895C178.775,117.917 167.177,128.724 157.119,140.503C143.749,156.162 123.328,187.468 110.21,205.092C99.862,218.994 87.393,233.127 78.42,246.211C70.131,258.298 61.301,274.115 56.065,284.125C52.079,291.747 47.663,299.559 46.446,308.103C44.944,318.652 45.809,338.979 46.628,348.803C47.214,355.825 48.545,363.124 52.017,369.222C55.693,375.68 62.445,383.109 69.045,388.574C75.843,394.203 84.315,400.006 93.085,403.328C105.262,407.941 126.179,414.69 143.388,416.936C160.268,419.14 178.078,416.028 195.395,416.849C215.269,417.792 240.198,423.778 262.67,422.584C287.207,421.281 319.178,418.104 341.205,408.713C362.245,399.743 383.679,377.129 395.271,366.021C399.942,361.546 404.232,354.88 407.497,349.122C408.903,348.488 410.463,347.639 412.125,346.539C428.391,335.763 462.574,298.918 450.023,242.017C445.341,220.79 434.695,201.12 429.02,189.274C429.02,189.273 475.047,159.139 475.047,159.139C476.961,157.886 478.141,155.774 478.204,153.486C478.495,142.876 474.288,135.307 465.493,130.902C463.451,129.879 461.037,129.919 459.03,131.009C444.387,138.962 429.654,146.875 413.308,153.966L413.308,153.966C400.747,120.657 352.83,62.279 280.082,75.273C277.674,75.703 275.762,77.325 274.872,79.44ZM302.07,94.963C301.518,94.977 300.956,94.924 300.393,94.799C288.219,92.091 271.649,92.202 253.142,97.621C234.656,103.034 213.551,113.075 199.205,121.825C187.3,129.085 176.848,138.916 167.746,149.577C154.532,165.053 134.384,196.018 121.419,213.436C111.178,227.193 98.823,241.166 89.944,254.114C81.969,265.743 73.485,280.969 68.447,290.601C65.189,296.83 61.274,303.09 60.28,310.073C58.894,319.811 59.798,338.573 60.554,347.642C60.972,352.664 61.677,357.947 64.16,362.309C67.12,367.508 72.643,373.411 77.957,377.812C83.65,382.526 90.69,387.478 98.035,390.261C109.456,394.587 129.057,400.974 145.196,403.08C161.705,405.235 179.122,402.088 196.058,402.891C215.52,403.815 239.921,409.8 261.929,408.63C284.972,407.406 315.039,404.678 335.725,395.859C355.238,387.54 374.852,366.234 385.603,355.932C388.746,352.921 391.628,348.697 394.03,344.624C393.881,343.673 393.931,342.685 394.197,341.72C398.067,327.636 401.642,307.15 404.09,291.46C389.54,306.466 374.426,318.81 358.877,329.08C356.726,330.502 353.966,330.622 351.699,329.394C350.138,328.549 348.318,326.93 347.776,323.698C347.456,321.791 347.941,317.125 349.602,310.707C354.136,293.192 366.414,258.864 375.561,236.272C374.982,236.488 374.396,236.702 373.802,236.912C351.577,244.794 319.046,249.771 310.496,249.641C307.116,249.589 305.117,248.463 304.361,247.875C302.378,246.332 301.663,244.421 301.58,242.514C301.568,242.247 301.571,241.979 301.59,241.713C301.774,239.136 303.793,233.865 307.608,227.393C314.934,214.964 328.725,196.468 341.151,184.302C342.737,182.749 344.306,181.297 345.842,179.965C319.297,172.897 282.621,160.646 269.661,152.996C265.677,150.644 263.392,148.177 262.52,146.455C261.626,144.69 261.428,143.007 261.651,141.464C261.093,138.796 261.627,135.974 263.365,133.087C265.398,129.712 269.89,125.875 276.446,122.662C290.45,115.798 314.519,110.989 336.965,115.252C327.661,108.663 316.751,102.038 306.515,97.052C305.013,96.32 303.529,95.621 302.07,94.963ZM323.23,90.061C368.947,101.096 397.224,143.613 402.111,164.948C402.568,166.946 403.879,168.641 405.696,169.587C407.514,170.532 409.655,170.633 411.553,169.861C429.804,162.44 445.97,153.968 461.878,145.36C462.956,146.544 463.634,147.998 463.975,149.686C463.975,149.686 416.364,180.857 416.364,180.857C413.563,182.692 412.456,186.256 413.727,189.354C417.903,199.533 431.127,221.226 436.377,245.027C444.89,283.621 428.67,311.579 414.518,326.242C413.497,327.301 412.491,328.29 411.512,329.205C417.025,302.923 421.235,270.501 421.235,270.501C421.635,267.417 419.948,264.441 417.097,263.199C414.246,261.957 410.917,262.749 408.931,265.141C394.835,282.119 380.107,296.092 364.877,307.691C372.629,280.987 391.62,230.418 396.624,223.282C398.829,220.139 398.083,215.804 394.954,213.578C391.826,211.352 387.487,212.068 385.239,215.181C382.846,218.495 376.604,221.093 369.132,223.742C353.358,229.336 331.982,233.448 319.351,234.994C324.743,225.724 334.209,212.594 343.808,201.798C349.368,195.545 354.942,190.071 359.779,186.762C361.725,185.43 363.285,184.275 364.669,184.318C368.302,184.429 371.414,181.735 371.824,178.123C372.235,174.512 369.808,171.188 366.242,170.481C346.016,166.467 304.188,153.701 283.615,144.412C280.786,143.135 277.798,141.413 276.046,140.359C276.014,140.168 275.973,139.979 275.924,139.791C277.119,138.782 279.948,136.507 282.596,135.209C300.314,126.525 337.439,120.975 359.732,140.671C362.079,142.745 365.519,143.003 368.149,141.304C371.367,139.226 372.804,136.18 372.222,132.143C371.882,129.785 370.342,126.454 367.227,122.79C359.71,113.949 341.565,100.378 323.23,90.061Z"/>
    </g>
</svg>
