<?xml version="1.0" encoding="UTF-8" standalone="no"?>
<!DOCTYPE svg PUBLIC "-//W3C//DTD SVG 1.1//EN" "http://www.w3.org/Graphics/SVG/1.1/DTD/svg11.dtd">
<svg width="100%" height="100%" viewBox="0 0 512 512" version="1.1" xmlns="http://www.w3.org/2000/svg" xmlns:xlink="http://www.w3.org/1999/xlink" xml:space="preserve" xmlns:serif="http://www.serif.com/" style="fill-rule:evenodd;clip-rule:evenodd;stroke-linecap:round;stroke-linejoin:round;stroke-miterlimit:1.5;">
    <g transform="matrix(0.921898,-0.453372,0.453372,0.921898,-96.0809,120.286)">
        <path d="M376.38,118.554L120.803,118.554C110.568,166.468 132.862,308.894 132.862,308.894C132.862,308.894 142.972,361.913 120.803,423.228L376.38,423.228C365.461,356.875 366.33,231.625 366.33,231.625C366.33,231.625 380.387,165.613 376.38,118.554Z" style="fill:none;stroke:black;stroke-width:10.09px;"/>
    </g>
    <g transform="matrix(0.921898,-0.453372,0.0506076,0.102907,-64.4566,183.811)">
        <path d="M379.358,-32.194L358.647,133.105L348.572,-42.3L334.685,137.809L323.876,-35.502L310.019,155.959L299.01,-42.045L285.196,151.601L273.855,-31.59L260.329,160.001L249.199,-26.749L234.949,155.856L222.954,-26.09L209.515,158.652L196.589,-40.373L184.531,154.881L173.239,-26.53L160.362,170.194L148.838,-26.233L136.185,190.982L118.977,-20.2L120.803,423.228L376.38,423.228L379.358,-32.194Z" style="fill:none;stroke:black;stroke-width:14.18px;"/>
    </g>
    <g transform="matrix(-0.922078,0.453008,-0.0505669,-0.102927,576.479,328.327)">
        <path d="M379.358,-32.194L358.647,133.105L348.572,-42.3L334.685,137.809L323.876,-35.502L310.019,155.959L299.01,-42.045L285.196,151.601L273.855,-31.59L260.329,160.001L249.199,-26.749L234.949,155.856L222.954,-26.09L209.515,158.652L196.589,-40.373L184.531,154.881L173.239,-26.53L160.362,170.194L148.838,-26.233L136.185,190.982L118.977,-20.2L121.784,423.221L377.312,423.227L379.358,-32.194Z" style="fill:none;stroke:black;stroke-width:14.18px;"/>
    </g>
    <g transform="matrix(0.921898,-0.453372,0.0506076,0.102907,-64.4566,183.811)">
        <path d="M376.38,423.228L120.803,423.228L376.38,423.228Z" style="fill:none;stroke:black;stroke-width:14.18px;"/>
    </g>
    <g>
        <g transform="matrix(0.324292,-0.167295,0.167295,0.324292,120.536,204.883)">
            <path d="M18.322,181.64L118.148,77.576L264.083,88.116L164.368,193.544L18.322,181.64ZM18.322,181.64L72.898,327.46L209.087,341.729M164.368,193.544L214.137,319.584M264.083,88.116L314.38,209.671M199.962,381.75L234.832,228.818L349.504,316.453L317.842,469.831L199.962,381.75ZM234.832,228.818L375.853,194.875L492.788,281.977L349.504,316.453L234.832,228.818ZM492.788,281.977L462.378,432.754L317.842,469.831" style="fill:none;stroke:black;stroke-width:11.7px;"/>
        </g>
        <g transform="matrix(0.566559,-0.292275,0.292275,0.566559,48.2561,121.521)">
            <circle cx="140.911" cy="416.919" r="3.283" style="stroke:black;stroke-width:6.7px;"/>
        </g>
        <g transform="matrix(0.566559,-0.292275,0.292275,0.566559,147.054,93.3609)">
            <circle cx="140.911" cy="416.919" r="3.283" style="stroke:black;stroke-width:6.7px;"/>
        </g>
        <g transform="matrix(0.566559,-0.292275,0.292275,0.566559,66.1939,125.604)">
            <circle cx="140.911" cy="416.919" r="3.283" style="stroke:black;stroke-width:6.7px;"/>
        </g>
        <g transform="matrix(0.566559,-0.292275,0.292275,0.566559,8.04593,115.951)">
            <circle cx="140.911" cy="416.919" r="3.283" style="stroke:black;stroke-width:6.7px;"/>
        </g>
        <g transform="matrix(0.566559,-0.292275,0.292275,0.566559,136.934,90.3676)">
            <circle cx="140.911" cy="416.919" r="3.283" style="stroke:black;stroke-width:6.7px;"/>
        </g>
        <g transform="matrix(0.566559,-0.292275,0.292275,0.566559,56.384,115.59)">
            <circle cx="140.911" cy="416.919" r="3.283" style="stroke:black;stroke-width:6.7px;"/>
        </g>
        <g transform="matrix(0.566559,-0.292275,0.292275,0.566559,34.2333,117.899)">
            <circle cx="140.911" cy="416.919" r="3.283" style="stroke:black;stroke-width:6.7px;"/>
        </g>
        <g transform="matrix(0.566559,-0.292275,0.292275,0.566559,151.353,81.4613)">
            <circle cx="140.911" cy="416.919" r="3.283" style="stroke:black;stroke-width:6.7px;"/>
        </g>
        <g transform="matrix(0.566559,-0.292275,0.292275,0.566559,81.9924,122.354)">
            <circle cx="140.911" cy="416.919" r="3.283" style="stroke:black;stroke-width:6.7px;"/>
        </g>
        <g transform="matrix(0.566559,-0.292275,0.292275,0.566559,17.98,110.001)">
            <circle cx="140.911" cy="416.919" r="3.283" style="stroke:black;stroke-width:6.7px;"/>
        </g>
        <g transform="matrix(0.566559,-0.292275,0.292275,0.566559,118.22,108.808)">
            <circle cx="140.911" cy="416.919" r="3.283" style="stroke:black;stroke-width:6.7px;"/>
        </g>
        <g transform="matrix(0.566559,-0.292275,0.292275,0.566559,33.5297,107.125)">
            <circle cx="140.911" cy="416.919" r="3.283" style="stroke:black;stroke-width:6.7px;"/>
        </g>
        <g transform="matrix(0.566559,-0.292275,0.292275,0.566559,130.15,102.654)">
            <circle cx="140.911" cy="416.919" r="3.283" style="stroke:black;stroke-width:6.7px;"/>
        </g>
    </g>
</svg>
