<?xml version="1.0" encoding="UTF-8" standalone="no"?>
<!DOCTYPE svg PUBLIC "-//W3C//DTD SVG 1.1//EN" "http://www.w3.org/Graphics/SVG/1.1/DTD/svg11.dtd">
<svg width="100%" height="100%" viewBox="0 0 512 512" version="1.1" xmlns="http://www.w3.org/2000/svg" xmlns:xlink="http://www.w3.org/1999/xlink" xml:space="preserve" xmlns:serif="http://www.serif.com/" style="fill-rule:evenodd;clip-rule:evenodd;stroke-linecap:round;stroke-linejoin:round;stroke-miterlimit:1.5;">
    <g transform="matrix(1.01661,-0.249825,0.249825,1.01661,-109.574,42.7117)">
        <path d="M270.948,355.421L92.05,311.046L92.05,441.819L270.948,441.819L270.948,355.421Z"/>
    </g>
    <g transform="matrix(1.01661,-0.249825,0.249825,1.01661,-109.574,42.7117)">
        <path d="M436.775,279.618L347.15,335.568L410.59,437.192L500.215,381.242L436.775,279.618ZM71.725,461.826L290.891,461.624L291.696,220.607L230.555,159.791L132.38,159.905L71.171,220.262L71.725,461.826ZM159.85,186.92L202.419,186.915M181.277,186.918C181.464,172.887 180.056,130.195 203.955,89.224C217.721,65.626 243.534,55.163 268.896,49.663C307.887,41.206 344.252,65.78 355.606,81.171C383.88,119.498 380.536,174.668 376.216,194.348C370.492,220.42 372.996,242.408 376.762,266.856C378.911,280.8 393.159,310.662 402.293,325.3" style="fill:none;stroke:black;stroke-width:20.63px;"/>
    </g>
    <g transform="matrix(0.719848,-0.738634,0.636211,0.620031,15.7319,535.455)">
        <path d="M429.206,124.648C436.118,110.658 449.942,110.658 456.854,117.653C463.766,124.648 463.766,138.639 456.854,152.629C452.015,163.122 439.574,173.615 429.206,180.61C418.839,173.615 406.397,163.122 401.559,152.629C394.647,138.639 394.647,124.648 401.559,117.653C408.471,110.658 422.294,110.658 429.206,124.648Z"/>
    </g>
</svg>
