<?xml version="1.0" encoding="UTF-8" standalone="no"?>
<!DOCTYPE svg PUBLIC "-//W3C//DTD SVG 1.1//EN" "http://www.w3.org/Graphics/SVG/1.1/DTD/svg11.dtd">
<svg width="100%" height="100%" viewBox="0 0 512 512" version="1.1" xmlns="http://www.w3.org/2000/svg" xmlns:xlink="http://www.w3.org/1999/xlink" xml:space="preserve" xmlns:serif="http://www.serif.com/" style="fill-rule:evenodd;clip-rule:evenodd;stroke-linejoin:round;stroke-miterlimit:2;">
    <g transform="matrix(1.01773,0,0,1.01773,-4.5385,-4.53835)">
        <path d="M256.24,47.509L256.231,47.521L256.21,47.55L256.143,47.644C256.097,47.712 256.052,47.781 256.011,47.852L255.958,47.942L255.874,48.096L255.798,48.254L247.344,66.644C247.119,67.134 246.991,67.663 246.967,68.202C246.463,68.367 245.877,79.511 248.819,83.871C252.102,88.736 258.881,94.528 266.664,97.393C274.408,100.244 284.593,102.861 291.894,100.951C299.736,98.9 303.437,96.674 306.75,92.229C309.715,88.25 310.457,84.725 310.625,83.617C310.624,83.62 314.817,67.586 314.817,67.586L314.818,67.579L314.831,67.532L314.848,67.455L314.855,67.426L314.86,67.401L314.875,67.334L314.883,67.285L314.887,67.265L314.895,67.216L314.909,67.134L314.912,67.11L314.913,67.104L314.929,66.964L314.933,66.934L314.936,66.889L314.945,66.777L314.946,66.751L314.947,66.733L314.948,66.697L314.951,66.613L314.951,66.554L314.952,66.532L314.951,66.512L314.951,66.449L314.947,66.342L314.947,66.332L314.946,66.327L314.945,66.285L314.94,66.241C314.934,66.137 314.923,66.034 314.908,65.931C314.712,64.245 313.617,56.959 309.046,53.151C304.823,49.632 301.483,46.939 292.865,42.79C287.775,40.34 280.255,39.396 274.357,39.367C270.091,39.345 266.627,39.852 265.252,40.381C260.184,42.332 256.837,46.688 256.24,47.509ZM255.318,69.248C253.865,73.102 254.281,76.294 255.695,79.133C259.281,83.64 263.52,87.356 269.543,89.573C275.777,91.868 283.907,94.427 289.785,92.889C295.124,91.493 297.812,90.275 300.068,87.249C302.044,84.598 302.383,82.385 302.383,82.385C302.405,82.177 302.443,81.97 302.496,81.767L304.132,75.509C303.484,75.724 302.861,75.897 302.281,76.021C299.032,76.716 290.133,76.046 283.357,75.363C276.127,74.635 271.928,71.63 266.78,68.465C263.649,66.541 261.228,63.373 259.45,60.26L255.318,69.248ZM306.453,65.161C306.182,63.524 305.486,61.031 303.713,59.554C299.938,56.409 296.952,54.006 289.251,50.299C285.151,48.325 279.066,47.723 274.315,47.7C271.48,47.686 269.159,47.807 268.245,48.159C266.512,48.825 265.133,49.986 264.229,50.917C264.684,52.222 265.406,54.034 266.427,55.872C267.573,57.938 269.082,60.098 271.145,61.366C275.227,63.876 278.458,66.494 284.193,67.072C290.049,67.662 297.73,68.473 300.538,67.872C302.3,67.495 304.892,66.505 306.453,65.161Z"/>
    </g>
    <g transform="matrix(1.01773,0,0,1.01773,-4.5385,-4.53835)">
        <path d="M173.06,51.809L139.86,100.211L139.842,100.24L139.822,100.268L139.725,100.42L139.569,100.661L139.539,100.711L139.516,100.748L139.445,100.874L139.303,101.119L139.26,101.203L139.237,101.244L139.19,101.339L139.063,101.587L139.006,101.712L138.985,101.754L138.956,101.824L138.848,102.061L138.781,102.234L138.762,102.277L138.744,102.328L138.659,102.543L138.584,102.767L138.568,102.811L138.557,102.848L138.496,103.029L138.416,103.312L138.403,103.356L138.396,103.381L138.357,103.521L138.276,103.875L138.267,103.911L138.265,103.924C138.184,104.293 138.126,104.666 138.089,105.039L138.088,105.044L138.084,105.091L138.051,105.518L138.049,105.568L138.045,105.619L138.042,105.8L138.035,106.019L138.036,106.096L138.034,106.2L141.3,457.961C141.339,462.123 143.85,465.861 147.688,467.471L230.993,502.407C231.227,502.505 231.465,502.596 231.707,502.678L231.733,502.688L231.766,502.698C232.214,502.849 232.675,502.968 233.148,503.056L233.175,503.062L233.225,503.069L233.525,503.121L233.842,503.16L233.911,503.17L233.947,503.173C234.171,503.198 234.397,503.215 234.624,503.224L234.652,503.226L234.741,503.226L235.111,503.234L235.298,503.228L235.396,503.229L235.484,503.223L235.647,503.218L236.129,503.179L236.141,503.178L236.144,503.178C236.38,503.153 236.613,503.12 236.844,503.079L236.883,503.074L362.55,480.752C367.492,479.874 371.105,475.597 371.144,470.578L373.966,111.916L373.961,111.673L373.961,111.557L373.958,111.496L373.956,111.371L373.943,111.184L373.936,111.056L373.927,110.959L373.918,110.831L373.9,110.69L373.887,110.557L373.867,110.417L373.852,110.295L373.834,110.194L373.814,110.059L373.777,109.871L373.759,109.766L373.743,109.698L373.717,109.564L373.657,109.324L373.639,109.243L373.627,109.202L373.595,109.072L373.507,108.779L373.492,108.728L373.485,108.707L373.449,108.585L373.328,108.245L373.32,108.222L373.317,108.214L373.278,108.104L373.082,107.629L372.861,107.161L372.666,106.797L372.65,106.766L372.647,106.76L372.616,106.702L372.423,106.382L372.378,106.305L372.37,106.292L372.345,106.252L372.171,105.993L372.082,105.858L372.067,105.839L372.049,105.812L371.896,105.607L371.762,105.426L371.744,105.404L371.728,105.383L324.727,45.794C324.727,45.794 324.15,18.959 324.15,18.959C324.026,13.211 319.271,8.651 313.523,8.768L183.449,11.423C177.804,11.538 173.279,16.128 173.245,21.773L173.06,51.809ZM243.737,131.208L353.044,123.062C352.614,177.678 350.76,413.467 350.38,461.754L245.418,480.398L243.737,131.208ZM222.899,130.241L224.569,477.122L162.069,450.911C162.069,450.911 159.56,180.676 158.984,118.608L222.899,130.241ZM303.75,39.305L303.545,29.809C303.545,29.809 194.015,32.045 194.015,32.045C194.015,32.045 193.942,44.001 193.941,44.001L264.222,41.305L257.07,62.273L203.739,64.451L238.209,110.728L343.237,102.902L309.419,60.027L280.92,39.774L303.75,39.305ZM166.137,98.734L209.125,106.559L183.952,72.761L166.137,98.734Z"/>
    </g>
</svg>
