<?xml version="1.0" encoding="utf-8"?>
<!-- Generator: Adobe Adobe Illustrator 24.2.0, SVG Export Plug-In . SVG Version: 6.00 Build 0)  -->
<svg version="1.1" id="Ebene_1" xmlns="http://www.w3.org/2000/svg" xmlns:xlink="http://www.w3.org/1999/xlink" x="0px" y="0px"
	 width="512px" height="512px" viewBox="0 0 512 512" style="enable-background:new 0 0 512 512;" xml:space="preserve">
<path d="M375.32,139.49c-0.29-0.45-0.64-0.87-1.03-1.26c-1.73-1.73-4.06-2.48-6.32-2.27H199.91c-1.42-0.13-2.87,0.12-4.18,0.75
	c-1.02,0.48-1.93,1.18-2.66,2.03c-8.8,8.77-18.04,17.95-27.2,27.07c-9.51,9.46-18.95,18.86-27.76,27.63
	c-1.66,1.43-2.72,3.56-2.72,5.93v168.85c0,4.34,3.53,7.86,7.9,7.86h169.63c2.88,0,5.4-1.53,6.78-3.83
	c8.13-8.1,16.78-16.7,25.53-25.4c9.27-9.23,18.64-18.55,27.59-27.46c2.28-1.38,3.81-3.88,3.81-6.74V143.82
	C376.62,142.22,376.14,140.73,375.32,139.49z M305.01,360.35H151.17V207.23h153.84V360.35z M309.57,191.51h-147.2
	c4.81-4.78,9.73-9.67,14.66-14.58c8.53-8.49,17.12-17.03,25.36-25.24h147.2c-4.93,4.91-9.92,9.87-14.89,14.81
	C326.12,175.04,317.6,183.52,309.57,191.51z M360.83,309.08c-8.72,8.66-17.8,17.7-26.79,26.66c-4.46,4.43-8.89,8.83-13.24,13.17
	V202.56c8.01-7.98,16.51-16.43,25.07-24.95c4.99-4.96,10-9.94,14.95-14.88V309.08z"/>
</svg>
