<?xml version="1.0" encoding="utf-8"?>
<!-- Generator: Adobe Adobe Illustrator 24.2.0, SVG Export Plug-In . SVG Version: 6.00 Build 0)  -->
<svg version="1.1" id="Ebene_1" xmlns="http://www.w3.org/2000/svg" xmlns:xlink="http://www.w3.org/1999/xlink" x="0px" y="0px"
	 width="512px" height="512px" viewBox="0 0 512 512" style="enable-background:new 0 0 512 512;" xml:space="preserve">
<style type="text/css">
	.st0{fill:none;stroke:#000000;stroke-width:30;stroke-linecap:round;stroke-linejoin:round;stroke-miterlimit:11.9066;}
</style>
<g>
	<path d="M258.24,509.54c-35.35,0-68.8-4.68-99.42-13.9c-31.35-9.44-59-23.43-82.19-41.59C26.5,414.81,0,358.58,0,291.46
		c0-78.49,50.03-150.69,111.53-160.95c28-4.67,56.82,2.95,84.7,10.31c22.27,5.89,45.31,11.97,66.61,11.23
		c30.79-1.08,53.65-6.08,73.82-10.5c19.96-4.37,38.79-8.5,60.97-8.05C456.41,134.69,512,209.9,512,288.26
		c0,67.41-25.62,124.11-74.1,163.96c-22.73,18.69-49.9,33.11-80.74,42.85C326.8,504.67,293.52,509.54,258.24,509.54z M129.62,159.79
		c-4.45,0-8.8,0.32-13.04,1.02c-21.54,3.6-43.18,19.38-59.36,43.29c-17.08,25.26-26.49,56.28-26.49,87.35
		c0,57.33,22.42,105.18,64.84,138.39c40.33,31.57,98.1,48.95,162.67,48.95c63.79,0,120.66-17.87,160.14-50.32
		c41.14-33.82,62.89-82.31,62.89-140.22c0-30.21-10.33-61.85-28.34-86.81c-16.55-22.94-37.46-36.86-55.94-37.23
		c-18.52-0.38-34.86,3.2-53.77,7.35c-21.44,4.7-45.74,10.02-79.31,11.19c-25.83,0.91-51.11-5.77-75.54-12.23
		C167.6,165.04,147.76,159.79,129.62,159.79z"/>
	<path d="M243.64,178.08c-2.93,0-6.13-0.35-9.61-1.19c-21.54-5.18-46.41-28.09-64.9-59.79c-23.95-41.04-33.71-91.87-6.03-109.63
		c5.36-3.44,14.43-6.89,27.19-3.82c21.54,5.18,46.4,28.09,64.9,59.79c0,0,0,0,0,0c8.42,14.44,14.91,29.67,18.76,44.07
		c8.32,31.14,3.68,55.03-12.73,65.56C257.32,175.57,251.46,178.08,243.64,178.08z M180.71,33.2c-0.61,0-0.94,0.1-1.02,0.15
		c-1.12,0.72-3.7,6.58-2.15,19.14c1.8,14.57,8.41,32.47,18.13,49.13c16.06,27.53,34.87,42.83,45.55,45.4
		c2.24,0.54,3.26,0.28,3.42,0.19c1.78-1.14,5.14-11.17-0.37-31.75c-3.15-11.78-8.55-24.41-15.61-36.52l0,0
		c-16.06-27.53-34.87-42.83-45.55-45.4C182.05,33.28,181.26,33.2,180.71,33.2z"/>
	<path d="M263.79,175.35c-0.77,0-1.56-0.06-2.34-0.18c-8.39-1.28-14.15-9.13-12.86-17.51l7.92-51.75c0.18-1.19,0.5-2.35,0.95-3.46
		l13.23-32.55c0.12-0.29,0.24-0.57,0.37-0.85l10.43-21.81c0.89-1.86,2.14-3.52,3.69-4.88l21.86-19.31
		c6.36-5.62,16.07-5.02,21.69,1.34c5.62,6.36,5.02,16.07-1.34,21.69l-19.52,17.25l-8.89,18.57l-12.38,30.45l-7.65,49.97
		C277.79,169.9,271.25,175.35,263.79,175.35z"/>
</g>
</svg>
