<?xml version="1.0" encoding="UTF-8" standalone="no"?>
<!DOCTYPE svg PUBLIC "-//W3C//DTD SVG 1.1//EN" "http://www.w3.org/Graphics/SVG/1.1/DTD/svg11.dtd">
<svg width="100%" height="100%" viewBox="0 0 512 512" version="1.1" xmlns="http://www.w3.org/2000/svg" xmlns:xlink="http://www.w3.org/1999/xlink" xml:space="preserve" xmlns:serif="http://www.serif.com/" style="fill-rule:evenodd;clip-rule:evenodd;stroke-linejoin:round;stroke-miterlimit:2;">
    <g transform="matrix(-0.86353,-1.12447,1.12447,-0.86353,105.654,825.125)">
        <path d="M65.062,342.211C67.974,343.478 70.158,343.822 70.158,343.822C70.507,343.88 70.859,343.908 71.213,343.907L72.064,343.884C71.347,342.496 70.454,341.095 69.42,339.663C68.276,340.078 66.619,340.846 65.062,342.211Z"/>
    </g>
    <g transform="matrix(-0.86353,-1.12447,1.12447,-0.86353,105.654,825.125)">
        <path d="M119.216,337.15C102.487,339.11 90.35,338.949 79.557,339.07C80.377,340.535 81.074,341.978 81.627,343.41C90.465,342.777 103.84,341.245 117.427,337.638L119.216,337.15Z"/>
    </g>
    <g transform="matrix(-0.86353,-1.12447,1.12447,-0.86353,105.654,825.125)">
        <path d="M54.63,334.458C58.362,330.516 62.815,328.5 65.699,327.531C63.829,325.596 62.384,322.637 62.599,318.233C62.999,310.04 68.741,306.983 71.499,305.983C75.153,311.043 77.042,315.719 76.949,320.134C76.901,322.361 76.318,324.473 75.195,326.469L77.272,326.41L84.854,326.347C85.48,324.392 85.795,322.378 85.839,320.322C85.938,315.654 84.586,310.659 81.636,305.391C100.426,305.179 125.625,298.773 170.978,296.023C201.233,294.189 231.698,286.882 253.833,284.092C279.087,280.908 326.852,269.411 326.852,269.411C328.125,269.287 329.308,268.784 330.264,267.995C331.01,267.522 343.189,259.854 355.393,255.351C368.829,250.394 384.002,249.364 392.634,249.847C407.269,250.667 411.163,252.01 424.742,256.203C432.02,258.45 437.83,262.232 441.429,265.017L441.223,265.229C437.823,268.643 432.671,273.274 426.783,277.878L431.448,279.556C432.978,280.257 434.509,280.959 436.039,281.66L439.689,283.671C448.209,276.411 454.552,269.769 455.639,267.687C456.79,265.484 456.568,263.7 456.309,262.678C455.951,261.261 455.242,260.14 454.213,259.294C452.132,257.26 442.479,248.384 428.49,244.065C413.631,239.477 409.359,238.061 393.345,237.164C383.528,236.614 366.276,237.796 350.996,243.433C340.138,247.439 330.609,252.801 325.895,255.702C325.155,256.158 324.512,256.572 323.975,256.931C315.411,257.776 285.495,266.913 262.918,269.76C240.412,272.597 220.143,278.473 186.668,281.915C135.058,287.222 92.008,291.95 71.56,292.952C71.299,292.965 71.04,292.994 70.784,293.038C70.784,293.038 50.95,296.32 49.911,317.614C49.541,325.175 51.635,330.602 54.63,334.458Z"/>
    </g>
    <g transform="matrix(-0.86353,-1.12447,1.12447,-0.86353,105.654,825.125)">
        <path d="M413.521,287.119C404.472,291.693 389.782,295.091 376.319,295.649C366.79,296.045 355.521,292.938 348.961,290.768C338.363,295.263 328.842,301.258 328.185,301.674L328.051,301.756L340.127,301.127C345.12,302.954 362.662,308.93 376.846,308.342C394.974,307.589 414.894,301.979 424.497,295.406L428.815,292.305C426.924,291.379 424.861,290.561 422.663,289.882C419.064,288.771 416.144,287.86 413.521,287.119Z"/>
    </g>
    <g transform="matrix(-0.86353,-1.12447,1.12447,-0.86353,105.654,825.125)">
        <path d="M445.495,268.537L445.301,268.345L445.519,268.555L445.495,268.537Z"/>
    </g>
    <g transform="matrix(-0.86353,-1.12447,1.12447,-0.86353,145.32,798.38)">
        <path d="M82.768,343.321L81.995,343.381L82.636,343.117L82.768,343.321Z"/>
    </g>
    <g transform="matrix(-0.86353,-1.12447,1.12447,-0.86353,173.048,800.154)">
        <path d="M69.613,286.03C66.085,289.706 63.195,295.082 62.815,302.865C62.071,318.093 71.316,324.665 77.584,327.305C83.574,317.285 94.825,315.423 94.825,315.423C95.082,315.378 95.341,315.349 95.601,315.337L96.281,315.317C97.869,312.207 98.672,308.948 98.743,305.573C98.814,302.203 98.13,298.663 96.61,294.982L94.643,295.135C93.136,295.215 91.63,295.294 90.123,295.374L87.047,295.456C88.967,298.92 89.92,302.22 89.853,305.385C89.768,309.392 87.948,313.027 84.623,316.417C82.552,315.856 75.031,313.145 75.503,303.485C75.737,298.689 77.801,295.653 80.044,293.783C76.822,292.503 72.728,290.132 69.613,286.03Z"/>
    </g>
    <g transform="matrix(-0.86353,-1.12447,1.12447,-0.86353,173.048,800.154)">
        <path d="M454.672,235.243L450.576,238.672C448.767,240.084 446.958,241.495 445.15,242.907L443.798,243.877C448.231,245.894 451.82,248.324 454.333,250.269L454.127,250.48C450.814,253.807 445.84,258.287 440.137,262.77C443.631,263.69 447.466,264.885 452.531,266.449L454.592,267.191C462.095,260.628 467.543,254.854 468.543,252.939C469.694,250.735 469.472,248.951 469.213,247.929C468.855,246.513 468.146,245.392 467.117,244.546C465.786,243.245 461.359,239.146 454.672,235.243Z"/>
    </g>
    <g transform="matrix(-0.86353,-1.12447,1.12447,-0.86353,173.048,800.154)">
        <path d="M355.68,239.939C355.68,239.939 337.416,241.823 336.879,242.183C328.315,243.027 285.684,253.539 263.106,256.385C240.601,259.223 216.882,264.668 181.279,270.181C162.246,273.129 143.009,274.939 129.15,276.932C118.771,278.425 106.271,281.449 98.127,282.144C98.857,280.766 99.437,279.36 99.837,277.919L92.255,277.982L90.178,278.041C89.359,279.678 88.179,281.232 86.702,282.738C85.575,282.432 82.834,281.49 80.682,279.103C77.799,280.073 73.349,282.092 69.613,286.03C72.722,290.132 76.828,292.483 80.044,293.783C81.602,292.418 83.259,291.65 84.403,291.235C85.437,292.667 86.33,294.068 87.047,295.456L90.123,295.374C91.63,295.294 93.136,295.215 94.643,295.135L96.61,294.982C96.057,293.55 95.36,292.107 94.54,290.642C105.333,290.521 117.47,290.682 134.199,288.722C154.215,283.398 185.736,280.543 194.107,279.382C212.932,276.77 246.645,270.519 295.721,262.697C312.116,260.084 332.442,253.895 343.034,253.327L343.168,253.246C343.825,252.83 353.346,246.835 363.943,242.34C360.559,241.239 358.426,240.378 358.426,240.378C357.554,240.03 356.616,239.88 355.68,239.939Z"/>
    </g>
    <g transform="matrix(-0.86353,-1.12447,1.12447,-0.86353,173.048,800.154)">
        <path d="M446.43,231.128L441.766,229.45C438.771,231.874 435.561,234.266 432.305,236.495C431.194,237.255 429.92,237.994 428.504,238.691C431.127,239.432 434.046,240.343 437.646,241.454C439.844,242.133 441.907,242.951 443.798,243.877L445.15,242.907C446.958,241.495 448.767,240.084 450.576,238.672L454.673,235.242L451.022,233.232C449.492,232.531 447.961,231.829 446.43,231.128Z"/>
    </g>
    <g transform="matrix(-0.86353,-1.12447,1.12447,-0.86353,173.048,800.154)">
        <path d="M373.465,238.907C373.404,239.907 373.715,240.927 374.403,241.758C375.87,243.529 378.499,243.776 380.27,242.31C383.056,240.002 386.1,237.814 389.37,235.744C391.004,234.675 392.703,233.649 394.452,232.646C396.001,233.365 397.534,234.149 399.069,235.04C399.132,235.038 399.195,235.036 399.258,235.034C399.195,235.036 399.132,235.038 399.069,235.04C402.343,236.85 405.672,239.064 409.357,241.863C411.188,243.254 413.804,242.896 415.195,241.064C416.391,239.49 416.294,237.335 415.072,235.883C414.881,235.64 414.653,235.421 414.397,235.226C410.465,232.241 406.915,229.863 403.441,227.887C406.874,226.203 410.44,224.586 414.116,223.044L416.647,221.954L419.715,223.678C425.161,224.488 429.555,225.7 435.988,227.675C436.19,226.299 435.687,224.857 434.542,223.902C431.984,221.77 429.286,219.829 426.487,218.055C428.291,217.37 430.108,216.695 431.936,216.027C434.096,215.238 435.209,212.843 434.42,210.683C433.63,208.523 431.236,207.41 429.076,208.2C424.991,209.692 420.96,211.226 417.019,212.811C409.833,209.326 402.303,206.651 394.983,204.433C392.782,203.766 390.454,205.012 389.787,207.213C389.12,209.413 390.365,211.742 392.566,212.408C397.179,213.806 401.89,215.385 406.53,217.261C402.819,218.928 399.222,220.656 395.784,222.48L394.036,223.374L392.21,222.707C386.389,223.195 379.92,224.161 373.463,225.8C377.62,226.847 381.262,227.829 384.613,228.887C381.149,231.111 377.915,233.44 374.955,235.892C374.015,236.67 373.504,237.775 373.465,238.907ZM413.851,235.743L414.75,235.845C414.455,235.81 414.155,235.776 413.851,235.743ZM411.828,235.544C412.058,235.565 412.285,235.586 412.51,235.607C412.734,235.629 412.956,235.65 413.175,235.673C412.737,235.628 412.288,235.585 411.828,235.544ZM410.531,235.433L411.724,235.535C411.335,235.5 410.937,235.466 410.531,235.433ZM407.809,235.236L406.726,235.168C407.071,235.189 407.41,235.21 407.743,235.232L407.809,235.236L407.839,235.238C408.008,235.249 408.176,235.26 408.342,235.271L408.36,235.273C408.444,235.278 408.528,235.284 408.611,235.29L408.755,235.3L408.891,235.31L408.911,235.311C408.99,235.317 409.069,235.322 409.148,235.328L409.336,235.342L409.403,235.346L409.527,235.356L409.655,235.365L409.679,235.367C409.755,235.373 409.83,235.378 409.905,235.384L409.679,235.367L409.613,235.362L409.443,235.349L409.377,235.345L409.148,235.328L408.911,235.311L408.855,235.307L408.663,235.294L408.611,235.29L408.37,235.273L408.342,235.271L407.809,235.236ZM404.632,235.055L404.911,235.067C404.819,235.063 404.726,235.059 404.632,235.055ZM403.979,235.031L404.039,235.033L403.884,235.028L403.979,235.031ZM399.851,235.018L399.63,235.023C399.704,235.021 399.778,235.019 399.851,235.018ZM400.072,235.013L399.97,235.015L400.175,235.011L400.072,235.013ZM400.509,235.005L400.484,235.005L400.587,235.004L400.509,235.005ZM373.463,225.8C379.915,224.143 386.387,223.188 392.21,222.707C386.678,220.618 380.565,218.974 372.823,217.026C370.593,216.465 368.327,217.82 367.766,220.05C367.204,222.28 368.559,224.546 370.79,225.108L373.463,225.8ZM403.75,222.318C404.087,222.326 404.418,222.336 404.742,222.347C405.066,222.358 405.384,222.372 405.694,222.387C405.073,222.357 404.424,222.334 403.75,222.318ZM402.312,222.298C402.511,222.299 402.709,222.301 402.904,222.303C403.1,222.306 403.294,222.309 403.485,222.313C403.102,222.305 402.711,222.3 402.312,222.298Z"/>
    </g>
    <g transform="matrix(-0.86353,-1.12447,1.12447,-0.86353,173.048,800.154)">
        <path d="M419.715,223.678C423.042,225.628 426.228,227.821 429.205,230.303C430.971,231.775 433.601,231.537 435.073,229.771C435.591,229.15 435.897,228.423 435.988,227.675C429.558,225.693 425.162,224.487 419.715,223.678Z"/>
    </g>
    <g transform="matrix(-0.86353,-1.12447,1.12447,-0.86353,145.32,798.38)">
        <path d="M445.495,268.537L445.301,268.345L445.519,268.555L445.495,268.537Z"/>
    </g>
    <g transform="matrix(-0.86353,-1.12447,1.12447,-0.86353,177.458,753.79)">
        <path d="M78.777,292.747L72.239,292.933L72.007,293.439C74.073,293.262 76.346,293.037 78.777,292.747Z"/>
    </g>
    <g transform="matrix(-0.86353,-1.12447,1.12447,-0.86353,177.458,753.79)">
        <path d="M415.951,256.412L413.36,258.273C407.147,262.525 396.615,266.375 385.038,268.741L379.053,271.803L375.126,270.367C371.979,270.808 368.817,271.08 365.709,271.209C361.538,271.382 357.078,270.987 352.738,270.261C353.019,271.81 354.18,273.126 355.807,273.536C361.101,274.868 365.578,276.036 369.63,277.315C366.166,279.539 362.932,281.868 359.972,284.32C358.201,285.786 357.954,288.415 359.42,290.186C360.887,291.957 363.516,292.205 365.287,290.738C369.479,287.266 374.253,284.064 379.47,281.074C384.28,283.308 388.939,286.164 394.374,290.291C396.205,291.682 398.821,291.324 400.212,289.492C401.603,287.661 401.245,285.045 399.414,283.654C395.482,280.669 391.932,278.291 388.458,276.315C392.679,274.245 397.101,272.275 401.664,270.382C406.099,272.748 410.339,275.493 414.222,278.731C415.988,280.203 418.618,279.965 420.09,278.199C421.563,276.433 421.325,273.803 419.559,272.33C417.001,270.198 414.303,268.257 411.504,266.484C413.308,265.798 415.125,265.123 416.953,264.455C419.113,263.666 420.226,261.271 419.437,259.111C418.872,257.566 417.486,256.557 415.951,256.412Z"/>
    </g>
    <g transform="matrix(-0.86353,-1.12447,1.12447,-0.86353,177.458,753.79)">
        <path d="M445.495,268.537L445.301,268.345L445.519,268.555L445.495,268.537Z"/>
    </g>
    <g transform="matrix(-0.86353,-1.12447,1.12447,-0.86353,177.458,753.79)">
        <path d="M374.721,257.645L376.994,257.361C378.936,257.016 380.878,256.671 382.82,256.326L387.375,255.271C384.911,254.393 382.444,253.602 380,252.861C377.799,252.194 375.471,253.44 374.804,255.641C374.599,256.315 374.575,257.002 374.721,257.645Z"/>
    </g>
    <g transform="matrix(-0.86353,-1.12447,1.12447,-0.86353,177.458,753.79)">
        <path d="M356.265,241.699L350.996,243.433C344.046,245.997 337.64,249.117 332.708,251.822C334.51,252.529 342.186,255.396 350.975,257.114L355.393,255.351C363.28,252.442 371.766,250.885 379.176,250.215C375.393,247.602 371.905,245.6 368.332,243.941C363.116,246.931 358.341,250.133 354.15,253.605C352.378,255.072 349.75,254.824 348.283,253.053C346.816,251.282 347.063,248.653 348.834,247.187C351.143,245.274 353.619,243.436 356.265,241.699Z"/>
    </g>
    <g transform="matrix(-0.86353,-1.12447,1.12447,-0.86353,177.458,753.79)">
        <path d="M352.738,270.261C357.078,270.987 361.538,271.382 365.709,271.209C368.817,271.08 371.979,270.808 375.126,270.367C370.141,268.631 364.614,267.159 357.84,265.454C355.61,264.893 353.344,266.248 352.783,268.478C352.631,269.082 352.619,269.688 352.738,270.261Z"/>
    </g>
    <g transform="matrix(-0.86353,-1.12447,1.12447,-0.86353,177.458,753.79)">
        <path d="M387.375,255.271L382.82,256.326C380.878,256.671 378.936,257.016 376.994,257.361L374.721,257.645C374.99,259.113 376.057,260.374 377.583,260.837C382.196,262.234 386.907,263.813 391.547,265.689C389.334,266.683 387.162,267.699 385.038,268.741C396.615,266.375 407.147,262.525 413.36,258.273L415.951,256.412C415.342,256.333 414.708,256.403 414.093,256.628C410.008,258.121 405.977,259.654 402.036,261.239C397.249,258.917 392.31,256.956 387.375,255.271Z"/>
    </g>
    <g transform="matrix(-0.86353,-1.12447,1.12447,-0.86353,173.048,800.154)">
        <path d="M357.919,288.219L358.122,288.102C361.958,285.841 368.265,282.368 375.016,279.498C366.226,277.785 358.551,274.911 356.75,274.207C353.953,275.68 351.633,277.043 349.937,278.087C349.196,278.542 348.554,278.956 348.016,279.316C339.452,280.16 299.384,284.152 276.806,286.999C254.301,289.836 217.486,295.888 188.042,303.174C166.116,308.6 149.92,312.869 136.545,314.02C122.746,315.209 112.317,314.985 102.818,315.131C100.387,315.421 98.114,315.647 96.048,315.823L96.281,315.317L95.601,315.337C95.341,315.349 95.082,315.378 94.825,315.423C94.825,315.423 83.574,317.285 77.584,327.305C80.04,328.408 82.04,328.873 82.767,329.018C82.04,328.873 80.04,328.408 77.584,327.305C75.61,330.585 74.209,334.743 73.952,339.998C72.837,362.842 94.199,366.206 94.199,366.206C94.548,366.264 94.901,366.293 95.254,366.292C95.254,366.292 118.048,366.241 141.468,360.023C161.874,354.605 186.153,347.748 194.503,345.29C211.352,340.33 286.113,326.077 311.477,325.635C333.983,325.244 358.246,323.864 364.169,323.512C369.162,325.338 386.704,331.315 400.887,330.726C419.015,329.974 438.936,324.363 448.539,317.79C463.864,307.301 478.006,293.279 479.681,290.072C480.831,287.868 480.609,286.084 480.351,285.063C479.992,283.646 479.283,282.525 478.254,281.679C476.279,279.747 467.475,271.646 454.592,267.191C453.16,268.456 451.65,269.748 450.081,271.047C451.65,269.748 453.159,268.455 454.592,267.191L452.531,266.449C447.545,264.91 443.751,263.727 440.301,262.813L440.137,262.77C438.001,262.196 435.994,261.729 433.912,261.341C433.822,262.093 433.515,262.826 432.994,263.45C431.522,265.217 428.892,265.455 427.126,263.982C425.368,262.516 423.536,261.151 421.637,259.888L417.386,259.548C414.139,259.366 410.079,259.374 405.547,259.692L405.331,259.707C397.761,260.194 388.896,261.507 380.307,264.083C377.661,265.821 375.185,267.659 372.876,269.571C371.105,271.038 370.858,273.667 372.324,275.438C373.791,277.209 376.42,277.456 378.191,275.989C382.383,272.518 387.157,269.315 392.374,266.326C395.946,267.984 399.435,269.986 403.217,272.599C407.186,272.213 410.849,272.094 413.945,272.15C413.945,272.092 413.943,272.034 413.941,271.977L413.942,272.006C413.944,272.054 413.945,272.102 413.945,272.15L416.675,272.232L425.212,272.921C426.668,272.281 427.99,271.587 429.164,270.864C427.99,271.587 426.668,272.281 425.212,272.921C431.708,273.606 435.998,274.694 442.504,276.674L442.816,276.769L448.784,278.587C456.062,280.834 461.871,284.616 465.47,287.402L465.264,287.613C460.112,292.788 450.938,300.754 441.364,307.307C433.121,312.949 415.921,317.388 400.361,318.034C385.921,318.633 367.485,311.19 367.485,311.19C366.613,310.843 365.675,310.693 364.738,310.751C364.738,310.751 336.849,312.489 311.256,312.934C285.164,313.388 208.248,328.001 190.916,333.104C182.617,335.547 158.488,342.361 138.209,347.745C126.687,350.804 115.33,352.261 107.186,352.956C108.919,349.685 109.805,346.26 109.88,342.706C109.979,338.039 108.628,333.044 105.677,327.775C124.468,327.564 149.659,324.312 193.764,313.397C207.791,309.926 226.41,306.626 241.332,303.514C249.862,301.736 277.296,298.343 279.344,298.085C304.598,294.901 350.893,291.796 350.893,291.796C352.166,291.671 353.349,291.169 354.306,290.379C354.535,290.234 355.847,289.407 357.919,288.219ZM95.54,328.368L94.899,328.632L94.83,328.661C91.897,329.89 87.008,333.08 86.64,340.618C86.169,350.278 93.69,352.989 95.761,353.55C99.085,350.16 100.905,346.525 100.99,342.518C101.082,338.161 99.243,333.549 95.672,328.572L95.54,328.368ZM83.654,329.143L83.588,329.138C83.676,329.145 83.764,329.15 83.852,329.154L83.918,329.156C83.83,329.154 83.742,329.149 83.654,329.143ZM86.368,329.112L86.229,329.116L86.368,329.112L86.644,329.103L86.368,329.112ZM83.259,329.103C83.237,329.1 83.215,329.097 83.193,329.093L83.259,329.103ZM83.032,329.068L83.062,329.073C83.062,329.073 83.052,329.072 83.032,329.068ZM93.106,328.765L92.844,328.783L93.106,328.765L93.229,328.756L93.106,328.765ZM102.242,327.965C100.256,328.18 98.382,328.354 96.648,328.495C98.381,328.354 100.255,328.18 102.242,327.965ZM103.339,327.844C103.078,327.874 102.82,327.903 102.563,327.931C102.82,327.903 103.078,327.874 103.339,327.844ZM104.745,327.681C104.327,327.731 103.914,327.779 103.505,327.826C103.914,327.779 104.328,327.731 104.745,327.681ZM105.675,327.567C105.388,327.603 105.102,327.638 104.817,327.672C105.101,327.638 105.387,327.603 105.675,327.567ZM107.905,327.279L107.829,327.289L107.905,327.279ZM110.051,326.978L109.951,326.993L110.051,326.978L110.124,326.968L110.051,326.978ZM112.971,326.532C112.709,326.574 112.448,326.615 112.187,326.656C112.448,326.615 112.709,326.574 112.971,326.532ZM114.25,326.323L114.175,326.335L114.25,326.323L114.37,326.303L114.25,326.323ZM115.685,326.078L115.582,326.096L115.685,326.078L115.718,326.072L115.685,326.078ZM118.905,325.488L118.881,325.492L118.905,325.488ZM120.074,325.259L119.995,325.275L120.074,325.259L120.153,325.243L120.074,325.259ZM122.136,324.836C121.794,324.908 121.454,324.979 121.115,325.049C121.454,324.979 121.794,324.908 122.136,324.836ZM123.399,324.564C123.121,324.625 122.843,324.685 122.566,324.745C122.844,324.685 123.121,324.625 123.399,324.564ZM129.318,323.155C128.538,323.356 127.759,323.551 126.983,323.739L127.286,323.665C127.963,323.5 128.64,323.33 129.318,323.155ZM135.733,321.447C134.257,321.843 132.792,322.235 131.345,322.62C132.793,322.235 134.258,321.843 135.733,321.447ZM147.04,318.377C144.58,319.051 142.101,319.727 139.636,320.394C141.772,319.816 143.917,319.232 146.052,318.648L147.04,318.377ZM160.459,314.668C158.971,315.083 157.449,315.506 155.903,315.935C157.133,315.594 158.347,315.256 159.54,314.924L160.459,314.668ZM174.357,310.754C171.794,311.483 168.917,312.297 165.82,313.167C168.917,312.297 171.794,311.483 174.357,310.754ZM175.125,310.535L174.437,310.731L175.125,310.535L175.54,310.417L175.125,310.535ZM177.12,309.965L176.534,310.133L177.12,309.965L177.472,309.864L177.12,309.965ZM178.33,309.618L178.361,309.609L178.953,309.439C178.749,309.498 178.541,309.557 178.33,309.618ZM183.575,308.096C183.505,308.116 183.435,308.137 183.366,308.157C183.106,308.233 182.831,308.314 182.542,308.399L182.963,308.275C183.097,308.236 183.232,308.196 183.366,308.157L183.575,308.096ZM183.771,308.039L183.646,308.075L183.79,308.034L183.771,308.039ZM183.982,307.979L183.877,308.009L184.011,307.971L183.982,307.979ZM184.198,307.918L184.106,307.944L184.237,307.907L184.198,307.918ZM184.419,307.856L184.337,307.879L184.47,307.842L184.419,307.856ZM184.645,307.793L184.574,307.813L184.708,307.776L184.645,307.793ZM184.876,307.73L184.815,307.746L184.952,307.709L184.876,307.73ZM185.112,307.665L185.061,307.679L185.203,307.641L185.112,307.665ZM185.353,307.6L185.312,307.611L185.461,307.571L185.353,307.6ZM185.599,307.534L185.568,307.543L185.728,307.5L185.599,307.534ZM185.85,307.468L185.83,307.473L186.015,307.425L185.85,307.468ZM186.369,307.332C186.277,307.356 186.187,307.379 186.097,307.403L186.369,307.332ZM186.632,307.264L186.407,307.322L186.646,307.26L186.632,307.264ZM186.902,307.194L186.745,307.234L186.929,307.187L186.902,307.194ZM187.177,307.124L187.045,307.158L187.217,307.113L187.177,307.124ZM187.457,307.053L187.341,307.082L187.511,307.039L187.457,307.053ZM187.742,306.981L187.64,307.006L187.809,306.964L187.742,306.981ZM188.03,306.908L187.942,306.93L188.114,306.888L188.03,306.908ZM188.324,306.835L188.249,306.854L188.424,306.811L188.324,306.835ZM188.622,306.761L188.56,306.777L188.74,306.732L188.622,306.761ZM188.925,306.687L188.876,306.699L189.063,306.653L188.925,306.687ZM189.232,306.612L189.196,306.62L189.398,306.571L189.232,306.612ZM189.543,306.536L189.521,306.541L189.759,306.484L189.543,306.536ZM190.185,306.381C190.072,306.408 189.961,306.435 189.85,306.461L190.185,306.381ZM190.504,306.304L190.257,306.364L190.524,306.3L190.504,306.304ZM190.832,306.226L190.648,306.27L190.868,306.218L190.832,306.226ZM191.165,306.147L191.009,306.184L191.216,306.135L191.165,306.147ZM191.502,306.067L191.367,306.1L191.57,306.052L191.502,306.067ZM191.844,305.987L191.725,306.015L191.928,305.967L191.844,305.987ZM192.189,305.906L192.087,305.93L192.291,305.883L192.189,305.906ZM192.539,305.825L192.452,305.845L192.66,305.797L192.539,305.825ZM192.892,305.743L192.822,305.759L193.035,305.71L192.892,305.743ZM193.25,305.66L193.195,305.673L193.418,305.622L193.25,305.66ZM193.611,305.577L193.572,305.586L193.813,305.531L193.611,305.577ZM193.977,305.494L193.953,305.499L194.249,305.431L193.977,305.494ZM194.728,305.322C194.598,305.352 194.468,305.381 194.339,305.411L194.728,305.322ZM195.096,305.239L194.832,305.299L195.122,305.233L195.096,305.239ZM195.477,305.154L195.271,305.2L195.521,305.144L195.477,305.154ZM195.861,305.067L195.686,305.107L195.923,305.053L195.861,305.067ZM196.249,304.98L196.097,305.014L196.33,304.962L196.249,304.98ZM196.641,304.893L196.509,304.922L196.741,304.871L196.641,304.893ZM197.036,304.805L196.923,304.83L197.157,304.779L197.036,304.805ZM197.435,304.717L197.34,304.738L197.578,304.686L197.435,304.717ZM197.838,304.628L197.761,304.645L198.005,304.592L197.838,304.628ZM198.244,304.539L198.185,304.552L198.44,304.496L198.244,304.539ZM198.653,304.449L198.612,304.458L198.891,304.398L198.653,304.449ZM199.066,304.359L199.043,304.364L199.406,304.285L199.066,304.359ZM199.916,304.175C199.769,304.206 199.623,304.238 199.478,304.27L199.916,304.175ZM200.325,304.086L200.048,304.146L200.358,304.079L200.325,304.086ZM200.751,303.994L200.529,304.042L200.804,303.983L200.751,303.994ZM201.181,303.902L200.99,303.943L201.253,303.887L201.181,303.902ZM201.613,303.81L201.448,303.845L201.707,303.79L201.613,303.81ZM202.049,303.717L201.906,303.747L202.164,303.692L202.049,303.717ZM202.488,303.623L202.366,303.649L202.625,303.594L202.488,303.623ZM202.93,303.529L202.828,303.551L203.092,303.495L202.93,303.529ZM203.375,303.435L203.294,303.452L203.564,303.395L203.375,303.435ZM203.823,303.341L203.761,303.354L204.045,303.294L203.823,303.341ZM204.274,303.246L204.232,303.255L204.546,303.189L204.274,303.246ZM204.727,303.151L204.706,303.155L205.156,303.061L204.727,303.151ZM205.663,302.956C205.502,302.989 205.342,303.023 205.183,303.056L205.663,302.956ZM206.106,302.863L205.819,302.923L206.146,302.855L206.106,302.863ZM206.571,302.767L206.337,302.816L206.633,302.754L206.571,302.767ZM207.039,302.67L206.838,302.712L207.122,302.653L207.039,302.67ZM207.51,302.573L207.335,302.609L207.615,302.552L207.51,302.573ZM207.983,302.476L207.833,302.507L208.112,302.45L207.983,302.476ZM208.459,302.378L208.331,302.405L208.613,302.347L208.459,302.378ZM208.937,302.281L208.832,302.302L209.117,302.244L208.937,302.281ZM209.418,302.182L209.335,302.199L209.628,302.14L209.418,302.182ZM209.902,302.084L209.84,302.097L210.149,302.034L209.902,302.084ZM210.388,301.986L210.347,301.994L210.696,301.923L210.388,301.986ZM211.37,301.787C211.198,301.822 211.027,301.856 210.857,301.891L211.37,301.787ZM211.86,301.688L211.421,301.777L211.885,301.683L211.86,301.688ZM212.355,301.589L212.062,301.648L212.402,301.58L212.355,301.589ZM212.853,301.489L212.61,301.538L212.923,301.475L212.853,301.489ZM213.353,301.389L213.144,301.431L213.446,301.371L213.353,301.389ZM213.855,301.289L213.674,301.326L213.972,301.266L213.855,301.289ZM214.359,301.189L214.204,301.22L214.501,301.161L214.359,301.189ZM214.866,301.089L214.735,301.115L215.034,301.056L214.866,301.089ZM215.374,300.988L215.267,301.01L215.571,300.95L215.374,300.988ZM215.885,300.888L215.8,300.904L216.114,300.843L215.885,300.888ZM216.397,300.787L216.336,300.799L216.668,300.734L216.397,300.787ZM216.912,300.686L216.873,300.694L217.257,300.618L216.912,300.686ZM217.954,300.482C217.773,300.518 217.592,300.553 217.412,300.588L217.954,300.482ZM218.467,300.382L218.057,300.462L218.497,300.377L218.467,300.382ZM218.988,300.281L218.692,300.339L219.042,300.271L218.988,300.281ZM219.512,300.18L219.264,300.228L219.59,300.165L219.512,300.18ZM220.038,300.078L219.824,300.119L220.14,300.058L220.038,300.078ZM220.565,299.976L220.38,300.012L220.692,299.952L220.565,299.976ZM221.093,299.875L220.935,299.905L221.247,299.845L221.093,299.875ZM221.624,299.773L221.491,299.798L221.805,299.738L221.624,299.773ZM222.156,299.671L222.048,299.692L222.367,299.631L222.156,299.671ZM222.689,299.569L222.606,299.585L222.935,299.523L222.689,299.569ZM223.224,299.467L223.165,299.479L223.517,299.412L223.224,299.467ZM223.761,299.366L223.725,299.372L224.147,299.292L223.761,299.366ZM224.85,299.159C224.663,299.195 224.476,299.23 224.287,299.266L224.85,299.159ZM225.379,299.06L224.99,299.133L225.415,299.053L225.379,299.06ZM225.921,298.958L225.625,299.014L225.981,298.947L225.921,298.958ZM226.464,298.856L226.214,298.903L226.549,298.84L226.464,298.856ZM227.008,298.754L226.793,298.794L227.119,298.733L227.008,298.754ZM227.554,298.652L227.368,298.687L227.691,298.627L227.554,298.652ZM228.101,298.55L227.942,298.58L228.265,298.52L228.101,298.55ZM228.649,298.449L228.517,298.473L228.841,298.413L228.649,298.449ZM229.198,298.347L229.091,298.367L229.422,298.306L229.198,298.347ZM229.748,298.245L229.666,298.26L230.009,298.197L229.748,298.245ZM230.299,298.144L230.242,298.154L230.612,298.086L230.299,298.144ZM230.851,298.042L230.819,298.048L231.286,297.963L230.851,298.042ZM231.975,297.837C231.782,297.872 231.589,297.907 231.396,297.942L231.975,297.837ZM232.513,297.739L232.141,297.806L232.554,297.731L232.513,297.739ZM233.068,297.637L232.775,297.691L233.135,297.625L233.068,297.637ZM233.624,297.537L233.376,297.582L233.716,297.52L233.624,297.537ZM234.181,297.436L233.967,297.475L234.299,297.415L234.181,297.436ZM234.739,297.335L234.555,297.368L234.884,297.309L234.739,297.335ZM235.298,297.235L235.141,297.263L235.47,297.204L235.298,297.235ZM235.857,297.134L235.727,297.158L236.058,297.098L235.857,297.134ZM236.416,297.034L236.312,297.053L236.65,296.992L236.416,297.034ZM236.976,296.934L236.898,296.948L237.25,296.885L236.976,296.934ZM237.537,296.834L237.484,296.844L237.869,296.775L237.537,296.834ZM238.098,296.735L238.07,296.74L238.598,296.646L238.098,296.735ZM239.243,296.532C239.047,296.567 238.852,296.601 238.656,296.636L239.243,296.532ZM239.784,296.437L239.428,296.499L239.83,296.429L239.784,296.437ZM240.346,296.338L240.059,296.388L240.418,296.325L240.346,296.338ZM240.909,296.24L240.664,296.282L241.007,296.222L240.909,296.24ZM241.472,296.141L241.261,296.178L241.596,296.12L241.472,296.141ZM242.035,296.043L241.854,296.075L242.186,296.017L242.035,296.043ZM242.599,295.945L242.446,295.972L242.778,295.914L242.599,295.945ZM243.162,295.848L243.036,295.87L243.371,295.812L243.162,295.848ZM243.726,295.75L243.626,295.768L243.968,295.709L243.726,295.75ZM244.29,295.653L244.216,295.666L244.573,295.605L244.29,295.653ZM244.854,295.557L244.81,295.564L245.022,295.528L244.854,295.557ZM245.417,295.46L245.351,295.472L245.577,295.433L245.417,295.46ZM245.981,295.364L245.893,295.379L246.126,295.34L245.981,295.364ZM246.544,295.268L246.436,295.287L246.671,295.247L246.544,295.268ZM247.108,295.173L246.979,295.195L247.215,295.155L247.108,295.173ZM247.671,295.078L247.524,295.103L247.757,295.063L247.671,295.078ZM248.234,294.983L248.072,295.01L248.298,294.972L248.234,294.983ZM248.796,294.889L248.628,294.917L248.839,294.882L248.796,294.889ZM249.378,294.791L249.208,294.82L249.378,294.791ZM249.972,294.692L249.918,294.701L249.972,294.692ZM250.482,294.607L250.457,294.612L250.641,294.581L250.482,294.607ZM251.044,294.514L250.996,294.522L251.21,294.487L251.044,294.514ZM251.604,294.422L251.535,294.433L251.761,294.396L251.604,294.422ZM252.165,294.33L252.074,294.345L252.306,294.307L252.165,294.33ZM252.724,294.238L252.613,294.256L252.847,294.218L252.724,294.238ZM253.284,294.146L253.152,294.168L253.386,294.13L253.284,294.146ZM253.842,294.056L253.694,294.08L253.923,294.042L253.842,294.056ZM254.4,293.965L254.238,293.991L254.46,293.955L254.4,293.965ZM254.957,293.875L254.791,293.902L254.995,293.869L254.957,293.875ZM255.529,293.783L255.376,293.808L255.529,293.783ZM256.164,293.681L256.063,293.697L256.164,293.681ZM256.625,293.607L256.595,293.612L256.786,293.582L256.625,293.607ZM257.179,293.519L257.127,293.527L257.342,293.493L257.179,293.519ZM257.732,293.431L257.659,293.443L257.884,293.407L257.732,293.431ZM258.284,293.344L258.191,293.359L258.42,293.323L258.284,293.344ZM258.836,293.257L258.722,293.275L258.953,293.239L258.836,293.257ZM259.386,293.171L259.254,293.192L259.483,293.156L259.386,293.171ZM259.935,293.085L259.786,293.109L260.011,293.073L259.935,293.085ZM260.484,293L260.323,293.025L260.538,292.992L260.484,293ZM261.031,292.915L260.869,292.94L261.064,292.91L261.031,292.915ZM261.588,292.829L261.458,292.849L261.588,292.829ZM262.24,292.729L262.111,292.749L262.24,292.729ZM262.665,292.664L262.633,292.669L262.826,292.64L262.665,292.664ZM263.208,292.582L263.154,292.59L263.366,292.558L263.208,292.582ZM263.749,292.5L263.674,292.511L263.895,292.478L263.749,292.5ZM264.289,292.419L264.193,292.433L264.418,292.399L264.289,292.419ZM264.827,292.338L264.712,292.355L264.937,292.321L264.827,292.338ZM265.364,292.258L265.231,292.277L265.455,292.244L265.364,292.258ZM265.899,292.178L265.751,292.2L265.969,292.168L265.899,292.178ZM266.433,292.099L266.275,292.122L266.483,292.092L266.433,292.099ZM266.966,292.021L266.811,292.043L266.994,292.017L266.966,292.021ZM267.503,291.942L267.406,291.956L267.503,291.942ZM268.157,291.847L268.011,291.868L268.157,291.847ZM268.554,291.789L268.518,291.795L268.71,291.767L268.554,291.789ZM269.08,291.714L269.023,291.722L269.232,291.692L269.08,291.714ZM269.604,291.638L269.527,291.649L269.743,291.619L269.604,291.638ZM270.126,291.564L270.03,291.578L270.248,291.547L270.126,291.564ZM270.647,291.49L270.533,291.506L270.75,291.476L270.647,291.49ZM271.166,291.417L271.035,291.436L271.25,291.405L271.166,291.417ZM271.683,291.345L271.538,291.365L271.747,291.336L271.683,291.345ZM272.198,291.273L272.045,291.294L272.242,291.267L272.198,291.273ZM272.711,291.202L272.565,291.222L272.734,291.199L272.711,291.202ZM273.225,291.131L273.176,291.138L273.225,291.131ZM273.731,291.062L273.713,291.065L273.867,291.044L273.731,291.062ZM274.239,290.993L274.2,290.999L274.389,290.973L274.239,290.993ZM274.743,290.925L274.686,290.933L274.887,290.906L274.743,290.925ZM275.246,290.858L275.169,290.868L275.376,290.841L275.246,290.858ZM275.747,290.791L275.651,290.804L275.86,290.776L275.747,290.791ZM276.245,290.726L276.132,290.741L276.341,290.713L276.245,290.726ZM276.741,290.661L276.613,290.677L276.818,290.651L276.741,290.661ZM277.235,290.596L277.094,290.615L277.293,290.589L277.235,290.596ZM277.727,290.533L277.58,290.552L277.765,290.528L277.727,290.533ZM278.216,290.47L278.082,290.487L278.234,290.468L278.216,290.47ZM278.727,290.405L278.701,290.409L278.727,290.405ZM279.187,290.348L279.166,290.35L279.322,290.331L279.187,290.348ZM279.669,290.287L279.629,290.292L279.811,290.27L279.669,290.287ZM280.148,290.228L280.089,290.235L280.282,290.212L280.148,290.228ZM280.625,290.17L280.548,290.179L280.745,290.155L280.625,290.17ZM281.099,290.112L281.005,290.123L281.203,290.099L281.099,290.112ZM281.57,290.055L281.46,290.068L281.657,290.045L281.57,290.055ZM282.039,289.999L281.915,290.014L282.108,289.991L282.039,289.999ZM282.505,289.944L282.37,289.96L282.555,289.938L282.505,289.944ZM282.968,289.89L282.83,289.906L283,289.886L282.968,289.89ZM283.429,289.837L283.311,289.85L283.442,289.835L283.429,289.837ZM283.954,289.777L283.882,289.785L283.954,289.777ZM284.341,289.733L284.318,289.736L284.471,289.718L284.341,289.733ZM284.793,289.682L284.752,289.687L284.926,289.668L284.793,289.682ZM285.242,289.633L285.184,289.639L285.365,289.619L285.242,289.633ZM285.688,289.584L285.613,289.592L285.798,289.572L285.688,289.584ZM286.131,289.536L286.04,289.546L286.225,289.526L286.131,289.536ZM286.571,289.49L286.465,289.501L286.648,289.481L286.571,289.49ZM287.007,289.444L286.89,289.456L287.068,289.438L287.007,289.444ZM287.441,289.399L287.314,289.412L287.485,289.394L287.441,289.399ZM287.871,289.355L287.743,289.368L287.898,289.352L287.871,289.355ZM288.308,289.311L288.2,289.322L288.308,289.311ZM288.809,289.262L288.715,289.271L288.809,289.262ZM289.143,289.229L289.119,289.232L289.266,289.218L289.143,289.229ZM289.56,289.189L289.52,289.193L289.682,289.178L289.56,289.189ZM289.974,289.151L289.918,289.156L290.086,289.14L289.974,289.151ZM290.385,289.113L290.313,289.119L290.483,289.104L290.385,289.113ZM290.792,289.076L290.706,289.084L290.876,289.068L290.792,289.076ZM291.196,289.04L291.097,289.049L291.264,289.034L291.196,289.04ZM291.596,289.005L291.486,289.015L291.649,289.001L291.596,289.005ZM291.992,288.972L291.875,288.982L292.029,288.969L291.992,288.972ZM292.385,288.939L292.27,288.949L292.407,288.937L292.385,288.939ZM292.78,288.907L292.701,288.914L292.78,288.907ZM293.251,288.87L293.15,288.878L293.251,288.87ZM293.809,288.828C293.711,288.835 293.612,288.842 293.517,288.85L293.809,288.828ZM294.158,288.802C294.061,288.809 293.962,288.816 293.86,288.824L294.158,288.802ZM294.507,288.777C294.407,288.784 294.306,288.792 294.207,288.799L294.507,288.777ZM294.854,288.753C294.752,288.76 294.649,288.767 294.545,288.775L294.854,288.753ZM295.031,288.741L294.866,288.753L295.173,288.732L295.031,288.741ZM295.495,288.711C295.397,288.717 295.298,288.724 295.199,288.73L295.495,288.711ZM295.824,288.691C295.729,288.697 295.634,288.702 295.538,288.708L295.824,288.691ZM296.153,288.671C296.059,288.676 295.964,288.682 295.872,288.688L296.153,288.671ZM296.482,288.652C296.388,288.657 296.294,288.663 296.199,288.668L296.482,288.652ZM296.809,288.634C296.713,288.639 296.617,288.644 296.516,288.65L296.809,288.634ZM296.977,288.625L296.817,288.633L297.106,288.618L296.977,288.625ZM297.198,288.613L297.137,288.617L297.198,288.613ZM297.367,288.605L297.3,288.608L297.367,288.605ZM297.531,288.597L297.462,288.6L297.531,288.597ZM297.693,288.589L297.624,288.593L297.693,288.589ZM297.854,288.582L297.784,288.585L297.854,288.582ZM298.013,288.575L297.945,288.578L298.013,288.575ZM298.171,288.568L298.105,288.571L298.171,288.568ZM298.328,288.562L298.266,288.564L298.328,288.562ZM298.484,288.556L298.43,288.558L298.484,288.556ZM298.639,288.55L298.618,288.551L298.639,288.55ZM298.84,288.542L298.793,288.544L298.84,288.542ZM299.004,288.537L298.946,288.539L299.004,288.537ZM299.16,288.532L299.098,288.534L299.16,288.532ZM299.313,288.527L299.249,288.529L299.313,288.527ZM299.464,288.523L299.399,288.524L299.464,288.523ZM299.613,288.519L299.548,288.52L299.613,288.519ZM299.761,288.515L299.697,288.516L299.761,288.515ZM299.907,288.511L299.846,288.513L299.907,288.511ZM300.053,288.508L299.995,288.509L300.053,288.508ZM300.197,288.505L300.149,288.506L300.197,288.505ZM302.454,288.463C301.746,288.477 301.042,288.49 300.34,288.502L300.868,288.493C301.395,288.484 301.924,288.473 302.454,288.463ZM305.106,288.406L305.637,288.393C305.285,288.402 304.93,288.41 304.575,288.418C304.752,288.414 304.929,288.41 305.106,288.406ZM310.942,288.254L310.433,288.269L310.942,288.254L311.47,288.239L310.942,288.254ZM312.525,288.207C312.174,288.218 311.822,288.228 311.47,288.239L311.998,288.223C312.351,288.213 312.703,288.202 313.052,288.191L312.525,288.207ZM319.812,287.964C317.935,288.032 316.028,288.097 314.103,288.158C315.852,288.103 317.586,288.044 319.299,287.982L319.812,287.964ZM331.46,287.491C329.87,287.562 328.228,287.632 326.546,287.702C328.228,287.632 329.869,287.562 331.46,287.491ZM347.898,286.672L348.454,286.641C344.859,286.841 339.843,287.105 333.999,287.375C339.547,287.119 344.349,286.867 347.898,286.672ZM429.957,270.356C429.751,270.493 429.539,270.63 429.322,270.766C429.539,270.63 429.751,270.493 429.957,270.356ZM430.707,269.844C430.653,269.881 430.6,269.918 430.547,269.954C430.6,269.918 430.653,269.881 430.707,269.844ZM412.579,269.121C412.598,269.138 412.618,269.156 412.636,269.173C412.625,269.163 412.613,269.152 412.602,269.142L412.579,269.121ZM432.241,268.771C432.097,268.873 431.953,268.974 431.809,269.076C431.953,268.974 432.097,268.872 432.241,268.771ZM432.823,268.355C432.672,268.464 432.52,268.572 432.368,268.68C432.52,268.572 432.672,268.464 432.823,268.355ZM411.767,268.49L411.933,268.614L411.767,268.49L411.618,268.378L411.767,268.49ZM411.124,268.009C411.242,268.097 411.361,268.185 411.48,268.274C411.361,268.185 411.242,268.097 411.124,268.009ZM434.284,267.296C434.151,267.394 434.017,267.491 433.884,267.589L434.041,267.474C434.122,267.414 434.203,267.355 434.284,267.296ZM409.967,267.16L409.789,267.032C409.934,267.136 410.08,267.242 410.226,267.349C410.139,267.285 410.053,267.223 409.967,267.16ZM434.825,266.897L434.733,266.964L434.825,266.897L434.981,266.781L434.825,266.897ZM435.137,266.665L435.061,266.721L435.137,266.665L435.237,266.59L435.137,266.665ZM435.758,266.199C435.707,266.238 435.655,266.277 435.603,266.316C435.655,266.277 435.707,266.238 435.758,266.199ZM408.56,266.156L408.386,266.034C408.528,266.133 408.67,266.233 408.813,266.334C408.728,266.274 408.644,266.215 408.56,266.156ZM436.473,265.657C436.308,265.783 436.143,265.908 435.976,266.034C436.142,265.909 436.308,265.783 436.473,265.657ZM437.143,265.143L437.214,265.088C437.139,265.146 437.065,265.203 436.99,265.261L437.143,265.143ZM438.779,263.862C438.686,263.936 438.593,264.01 438.499,264.083C438.593,264.01 438.686,263.936 438.779,263.862ZM403.987,263.127C404.423,263.398 404.861,263.675 405.303,263.96C404.917,263.711 404.534,263.468 404.152,263.23L403.987,263.127ZM403.162,262.622L403.23,262.663L403.162,262.622L403.058,262.559L403.162,262.622ZM402.833,262.425L402.889,262.458L402.833,262.425L402.72,262.357L402.833,262.425ZM149.992,317.567C151.836,317.06 153.662,316.556 155.455,316.059C153.343,316.644 151.187,317.239 149.011,317.837L149.992,317.567ZM322.351,287.869C322.834,287.85 323.314,287.832 323.789,287.813C322.98,287.845 322.164,287.876 321.34,287.907L322.351,287.869ZM412.691,269.225L412.669,269.204C413.44,269.936 413.876,270.912 413.938,271.919L413.939,271.948C413.885,270.94 413.456,269.962 412.691,269.225ZM430.149,270.227C430.108,270.255 430.067,270.283 430.025,270.311L430.093,270.265L430.149,270.227ZM412.51,269.061C412.471,269.027 412.432,268.995 412.391,268.963L412.367,268.944C412.424,268.988 412.479,269.034 412.533,269.081L412.51,269.061Z"/>
    </g>
    <g transform="matrix(-0.86353,-1.12447,1.12447,-0.86353,177.458,753.79)">
        <path d="M403.503,237.976L397.595,237.504C399.494,238.766 401.326,240.131 403.084,241.598C404.851,243.07 407.48,242.832 408.953,241.066C409.474,240.441 409.781,239.709 409.871,238.956L407.585,238.532C406.224,238.347 404.863,238.161 403.503,237.976Z"/>
    </g>
    <g transform="matrix(-0.460817,-0.346262,0.668905,-0.8902,240.97,455.854)">
        <path d="M180.288,77.573L152.696,76.606L153.543,214.625L183.318,216.477L180.288,77.573Z"/>
    </g>
    <g transform="matrix(-0.483671,-0.363435,0.675836,-0.899424,263.255,478.899)">
        <path d="M182.232,78.718L151.384,77.162L153.291,214.344L181.085,215.733L182.232,78.718Z"/>
    </g>
    <g transform="matrix(-0.598254,-0.449534,0.679128,-0.903805,302.081,514.252)">
        <path d="M177.539,79L153.444,77.247L153.632,215.231L183.559,216.449L177.539,79Z"/>
    </g>
</svg>
