<?xml version="1.0" encoding="UTF-8" standalone="no"?>
<!DOCTYPE svg PUBLIC "-//W3C//DTD SVG 1.1//EN" "http://www.w3.org/Graphics/SVG/1.1/DTD/svg11.dtd">
<svg width="100%" height="100%" viewBox="0 0 512 512" version="1.1" xmlns="http://www.w3.org/2000/svg" xmlns:xlink="http://www.w3.org/1999/xlink" xml:space="preserve" xmlns:serif="http://www.serif.com/" style="fill-rule:evenodd;clip-rule:evenodd;stroke-linejoin:round;stroke-miterlimit:2;">
    <g transform="matrix(1.11183,0.108884,-0.109818,1.12137,-0.343577,-80.3213)">
        <g transform="matrix(1.09083,-0.952392,0.952392,1.09083,-253.091,218.954)">
            <path d="M160.515,175.518C158.539,203.658 147.984,216.296 137.538,229.486C125.306,244.931 113.103,260.979 110.635,296.236C106.161,360.151 171.396,414.119 235.677,414.119C299.869,414.119 358.35,361.54 358.463,297.558C358.511,270.254 344.255,249.365 329.964,227.714C317.596,208.977 305.234,189.543 306.811,162.595C308.984,125.489 290.838,114.699 268.57,97.818C264.289,94.573 260.564,90.325 256.16,86.893C250.308,82.333 243.519,78.965 234.25,78.965C207.649,78.965 189.607,92.966 177.929,112.788C167.123,131.13 161.981,154.653 160.515,175.518L160.515,175.518ZM177.851,176.735C179.137,158.421 183.417,137.709 192.902,121.609C201.515,106.989 214.63,96.343 234.25,96.343C240.202,96.343 244.097,99.282 247.666,102.425C251.198,105.535 254.458,108.927 258.072,111.667C275.527,124.899 291.166,132.494 289.463,161.579C287.636,192.791 301.136,215.585 315.461,237.287C327.863,256.076 341.127,273.833 341.085,297.527C340.988,352.233 290.562,396.741 235.677,396.741C180.881,396.741 124.157,351.933 127.971,297.449C130.087,267.224 140.674,253.516 151.161,240.275C163.435,224.778 175.528,209.799 177.851,176.735L177.851,176.735Z"/>
        </g>
        <g transform="matrix(0.0541549,-3.31881,3.28741,0.0536425,-195.275,1093.73)">
            <ellipse cx="302.478" cy="96.06" rx="6.771" ry="8.407"/>
        </g>
        <g transform="matrix(1.09083,-0.952392,0.952392,1.09083,-253.091,218.954)">
            <path d="M207.866,263.465C202.833,263.465 199.457,267.352 199.457,271.073C199.457,274.794 202.833,278.682 207.866,278.682C212.898,278.682 216.275,274.794 216.275,271.073C216.275,267.352 212.898,263.465 207.866,263.465Z"/>
        </g>
        <g transform="matrix(1.09083,-0.952392,0.952392,1.09083,-253.091,218.954)">
            <path d="M241.026,287.73C237.17,287.73 233.416,291.094 233.416,295.901C233.416,300.708 237.17,304.072 241.026,304.072C244.882,304.072 248.636,300.708 248.636,295.901C248.636,291.094 244.882,287.73 241.026,287.73Z"/>
        </g>
        <g transform="matrix(1.09083,-0.952392,0.952392,1.09083,-253.091,218.954)">
            <path d="M304.777,275.933C303.608,275.933 302.409,276.268 301.291,277.176C300.726,277.635 300.03,278.382 299.53,279.574C299.12,280.552 298.687,282.614 298.687,285.024C298.687,287.434 299.12,289.496 299.53,290.474C300.03,291.666 300.726,292.413 301.291,292.872C302.409,293.78 303.608,294.115 304.777,294.115C305.946,294.115 307.145,293.78 308.263,292.872C308.828,292.413 309.524,291.666 310.024,290.474C310.433,289.496 310.867,287.434 310.867,285.024C310.867,282.614 310.433,280.552 310.024,279.574C309.524,278.382 308.828,277.635 308.263,277.176C307.145,276.268 305.946,275.933 304.777,275.933Z"/>
        </g>
        <g transform="matrix(1.09083,-0.952392,0.952392,1.09083,-253.091,218.954)">
            <path d="M241.21,218.583C236.664,218.583 232.291,222.696 232.291,228.469C232.291,234.243 236.664,238.355 241.21,238.355C245.757,238.355 250.129,234.243 250.129,228.469C250.129,222.696 245.757,218.583 241.21,218.583Z"/>
        </g>
        <g transform="matrix(1.09083,-0.952392,0.952392,1.09083,-253.091,218.954)">
            <path d="M291.541,248.044C289.873,248.044 288.26,248.624 286.874,249.829C285.163,251.316 283.666,254.186 283.666,257.637C283.666,261.089 285.163,263.959 286.874,265.446C288.26,266.651 289.873,267.231 291.541,267.231C293.209,267.231 294.823,266.651 296.209,265.446C297.92,263.959 299.417,261.089 299.417,257.637C299.417,254.186 297.92,251.316 296.209,249.829C294.823,248.624 293.209,248.044 291.541,248.044Z"/>
        </g>
        <g transform="matrix(1.09083,-0.952392,0.952392,1.09083,-253.091,218.954)">
            <path d="M272.629,310.792C272.446,310.792 267.464,311.126 267.29,316.039C267.268,316.654 267.249,319.924 267.249,323.861C267.249,327.798 267.268,331.068 267.29,331.683C267.464,336.596 272.446,336.93 272.629,336.93C272.811,336.93 277.794,336.596 277.968,331.683C277.99,331.068 278.009,327.798 278.009,323.861C278.009,319.924 277.99,316.654 277.968,316.039C277.794,311.126 272.811,310.792 272.629,310.792Z"/>
        </g>
        <g transform="matrix(1.09083,-0.952392,0.952392,1.09083,-253.091,218.954)">
            <path d="M198.129,346.981C193.92,346.981 189.443,351.081 189.443,357.14C189.443,363.199 193.92,367.299 198.129,367.299C202.338,367.299 206.816,363.199 206.816,357.14C206.816,351.081 202.338,346.981 198.129,346.981Z"/>
        </g>
        <g transform="matrix(1.09083,-0.952392,0.952392,1.09083,-253.091,218.954)">
            <path d="M163.733,285.934C160.294,285.934 157.516,287.16 156.485,288.081C155.007,289.4 154.504,290.96 154.504,292.427C154.504,293.894 155.007,295.453 156.485,296.773C157.516,297.693 160.294,298.92 163.733,298.92C167.172,298.92 169.95,297.693 170.981,296.773C172.459,295.453 172.962,293.894 172.962,292.427C172.962,290.96 172.459,289.4 170.981,288.081C169.95,287.16 167.172,285.934 163.733,285.934Z"/>
        </g>
        <g transform="matrix(1.09083,-0.952392,0.952392,1.09083,-253.091,218.954)">
            <path d="M270.864,192.937C267.024,192.937 263.221,196.321 263.221,201.208C263.221,206.096 267.024,209.48 270.864,209.48C274.705,209.48 278.507,206.096 278.507,201.208C278.507,196.321 274.705,192.937 270.864,192.937Z"/>
        </g>
        <g transform="matrix(1.09083,-0.952392,0.952392,1.09083,-253.091,218.954)">
            <path d="M199.055,184.903C197.244,184.903 195.394,185.621 193.889,187.377C192.537,188.954 191.293,192.039 191.293,195.698C191.293,199.358 192.537,202.442 193.889,204.019C195.394,205.776 197.244,206.493 199.055,206.493C200.866,206.493 202.716,205.776 204.221,204.019C205.572,202.442 206.816,199.358 206.816,195.698C206.816,192.039 205.572,188.954 204.221,187.377C202.716,185.621 200.866,184.903 199.055,184.903Z"/>
        </g>
        <g transform="matrix(1.09083,-0.952392,0.952392,1.09083,-253.091,218.954)">
            <path d="M181.343,231.305C176.235,231.305 172.3,235.351 172.3,240.058C172.3,244.765 176.235,248.81 181.343,248.81C186.451,248.81 190.387,244.765 190.387,240.058C190.387,235.351 186.451,231.305 181.343,231.305Z"/>
        </g>
        <g transform="matrix(1.09083,-0.952392,0.952392,1.09083,-253.091,218.954)">
            <path d="M228.85,193.596C225.987,193.596 223.609,193.684 223.162,193.749C218.713,194.39 218.523,198.378 218.523,199.049C218.523,199.719 218.713,203.707 223.162,204.349C223.609,204.413 225.987,204.501 228.85,204.501C231.712,204.501 234.09,204.413 234.537,204.349C238.986,203.707 239.177,199.719 239.177,199.049C239.177,198.378 238.986,194.39 234.537,193.749C234.09,193.684 231.712,193.596 228.85,193.596Z"/>
        </g>
        <g transform="matrix(1.09083,-0.952392,0.952392,1.09083,-253.091,218.954)">
            <path d="M254.753,156.292C252.065,156.292 249.852,157.453 248.694,158.661C247.473,159.933 246.931,161.441 246.931,162.972C246.931,164.503 247.473,166.011 248.694,167.283C249.852,168.491 252.065,169.652 254.753,169.652C257.441,169.652 259.654,168.491 260.813,167.283C262.033,166.011 262.576,164.503 262.576,162.972C262.576,161.441 262.033,159.933 260.813,158.661C259.654,157.453 257.441,156.292 254.753,156.292Z"/>
        </g>
        <g transform="matrix(1.09083,-0.952392,0.952392,1.09083,-253.091,218.954)">
            <path d="M214.837,124.715C214.211,124.715 210.133,124.904 209.534,129.397C209.486,129.758 209.416,131.678 209.416,133.99C209.416,136.303 209.486,138.223 209.534,138.584C210.133,143.077 214.211,143.266 214.837,143.266C215.463,143.266 219.541,143.077 220.139,138.584C220.188,138.223 220.258,136.303 220.258,133.99C220.258,131.678 220.188,129.758 220.139,129.397C219.541,124.904 215.463,124.715 214.837,124.715Z"/>
        </g>
        <g transform="matrix(1.09083,-0.952392,0.952392,1.09083,-253.091,218.954)">
            <path d="M216.225,163.96C211.823,163.96 208.17,164.174 207.483,164.331C203.444,165.248 203.23,168.619 203.23,169.579C203.23,170.539 203.444,173.91 207.483,174.828C208.17,174.984 211.823,175.199 216.225,175.199C220.626,175.199 224.279,174.984 224.966,174.828C229.005,173.91 229.219,170.539 229.219,169.579C229.219,168.619 229.005,165.248 224.966,164.331C224.279,164.174 220.626,163.96 216.225,163.96Z"/>
        </g>
        <g transform="matrix(1.09083,-0.952392,0.952392,1.09083,-253.091,218.954)">
            <path d="M203.323,310.792C201.693,310.792 200.105,311.367 198.751,312.597C197.224,313.985 195.847,316.658 195.847,319.878C195.847,323.099 197.224,325.771 198.751,327.159C200.105,328.39 201.693,328.965 203.323,328.965C204.953,328.965 206.54,328.39 207.895,327.159C209.422,325.771 210.799,323.099 210.799,319.878C210.799,316.658 209.422,313.985 207.895,312.597C206.54,311.367 204.953,310.792 203.323,310.792Z"/>
        </g>
        <g transform="matrix(1.09083,-0.952392,0.952392,1.09083,-253.091,218.954)">
            <path d="M243.017,354.241C237.941,354.241 233.416,358.64 233.416,364.504C233.416,370.369 237.941,374.767 243.017,374.767C248.094,374.767 252.619,370.369 252.619,364.504C252.619,358.64 248.094,354.241 243.017,354.241Z"/>
        </g>
        <g transform="matrix(1.09083,-0.952392,0.952392,1.09083,-253.091,218.954)">
            <path d="M287.728,354.697C283.303,354.697 279.715,356.278 278.388,357.612C277.048,358.959 276.537,360.497 276.537,361.994C276.537,363.491 277.048,365.029 278.388,366.376C279.715,367.71 283.303,369.291 287.728,369.291C292.153,369.291 295.741,367.71 297.067,366.376C298.408,365.029 298.919,363.491 298.919,361.994C298.919,360.497 298.408,358.959 297.067,357.612C295.741,356.278 292.153,354.697 287.728,354.697Z"/>
        </g>
        <g transform="matrix(1.09083,-0.952392,0.952392,1.09083,-253.091,218.954)">
            <path d="M268.965,271.65C264.496,271.65 260.917,275.262 260.917,279.647C260.917,284.031 264.496,287.643 268.965,287.643C273.435,287.643 277.013,284.031 277.013,279.647C277.013,275.262 273.435,271.65 268.965,271.65Z"/>
        </g>
        <g transform="matrix(1.09083,-0.952392,0.952392,1.09083,-253.091,218.954)">
            <path d="M247.136,243.888C244.056,243.888 241.494,245.117 240.166,246.425C238.776,247.795 238.169,249.431 238.169,251.079C238.169,252.727 238.776,254.363 240.166,255.732C241.494,257.04 244.056,258.27 247.136,258.27C250.217,258.27 252.779,257.04 254.107,255.732C255.497,254.363 256.104,252.727 256.104,251.079C256.104,249.431 255.497,247.795 254.107,246.425C252.779,245.117 250.217,243.888 247.136,243.888Z"/>
        </g>
        <g transform="matrix(1.09083,-0.952392,0.952392,1.09083,-253.091,218.954)">
            <path d="M210.961,228.074C206.699,228.074 203.157,231.561 203.157,235.953C203.157,240.345 206.699,243.832 210.961,243.832C215.223,243.832 218.765,240.345 218.765,235.953C218.765,231.561 215.223,228.074 210.961,228.074Z"/>
        </g>
        <g transform="matrix(1.09083,-0.952392,0.952392,1.09083,-253.091,218.954)">
            <path d="M163.327,314.682C161.633,314.682 159.969,315.299 158.561,316.658C157.052,318.115 155.683,320.932 155.683,324.312C155.683,327.693 157.052,330.51 158.561,331.967C159.969,333.326 161.633,333.943 163.327,333.943C165.021,333.943 166.685,333.326 168.092,331.967C169.602,330.51 170.971,327.693 170.971,324.312C170.971,320.932 169.602,318.115 168.092,316.658C166.685,315.299 165.021,314.682 163.327,314.682Z"/>
        </g>
    </g>
</svg>
