<?xml version="1.0" encoding="UTF-8" standalone="no"?>
<!DOCTYPE svg PUBLIC "-//W3C//DTD SVG 1.1//EN" "http://www.w3.org/Graphics/SVG/1.1/DTD/svg11.dtd">
<svg width="100%" height="100%" viewBox="0 0 512 512" version="1.1" xmlns="http://www.w3.org/2000/svg" xmlns:xlink="http://www.w3.org/1999/xlink" xml:space="preserve" xmlns:serif="http://www.serif.com/" style="fill-rule:evenodd;clip-rule:evenodd;stroke-linejoin:round;stroke-miterlimit:2;">
    <g transform="matrix(0.219367,0.37468,0.37468,-0.219367,179.464,173.056)">
        <path d="M73.551,-458.423C73.535,-441.486 70.863,524.444 70.99,531.611C71.541,562.97 93.204,583.021 114.486,593.493C147.44,609.709 168.444,610.331 186.833,610.473C260.424,611.044 305.523,586.957 361.505,585.714C397.565,584.914 424.523,596.949 424.523,596.949C427.862,598.453 431.736,598.163 434.813,596.178C437.891,594.192 439.752,590.782 439.757,587.12L442.69,-423.78C442.696,-428.247 439.952,-432.257 435.785,-433.867C435.785,-433.867 402.277,-446.756 371.52,-446.528C359.138,-446.436 338.872,-443.97 325.112,-442.084C325.187,-447.838 325.154,-454.576 324.82,-460.382C324.386,-467.936 323.068,-474.21 321.61,-476.97C313.671,-492.005 299.205,-504.086 277.268,-512.216C257.413,-519.574 231.057,-523.791 197.788,-524.32C146.542,-525.135 107.319,-509.387 88.329,-491.722C78.079,-482.187 73.229,-471.705 73.279,-462.311C73.286,-461.015 73.376,-459.718 73.551,-458.423ZM95.121,-426.881C95.046,-342.029 92.477,525.278 92.582,531.231C92.97,553.277 109.059,566.754 124.021,574.116C152.706,588.231 170.994,588.754 187.001,588.878C260.325,589.447 305.248,565.362 361.026,564.124C384.84,563.596 405.186,568.014 418.184,571.867C418.184,571.867 421.083,-416.134 421.083,-416.134C410.799,-419.47 390.648,-425.073 371.68,-424.933C356.378,-424.82 328.375,-420.827 317.9,-419.249C317.275,-419.004 316.619,-418.816 315.939,-418.691C270.672,-410.358 262.44,-403.088 199.569,-400.388C162.643,-398.803 125.972,-407.963 102.475,-421.993C99.859,-423.555 97.404,-425.187 95.121,-426.881ZM302.308,-467.262C296.478,-478.023 285.555,-486.114 269.763,-491.966C251.707,-498.658 227.701,-502.246 197.445,-502.727C159.367,-503.333 128.751,-494.106 110.435,-481.726C105.1,-478.12 100.892,-474.304 98.082,-470.382C96.14,-467.67 94.86,-465.031 94.874,-462.427L94.874,-462.427C94.877,-462.012 94.898,-461.601 94.943,-461.193L95.024,-460.74C95.046,-460.56 95.069,-460.38 95.092,-460.2L95.105,-460.022C96.47,-452.666 103.82,-446.343 113.547,-440.535C134.121,-428.25 166.308,-420.575 198.642,-421.964C255.727,-424.415 266.573,-430.844 303.465,-438.279C303.594,-444.262 303.648,-452.382 303.26,-459.143C303.074,-462.375 302.42,-466.564 302.308,-467.262ZM199.106,-491.783C180.272,-491.783 164.11,-486.199 155.993,-478.999C150.463,-474.095 147.84,-468.271 147.84,-462.369C147.84,-456.467 150.463,-450.643 155.993,-445.739C164.11,-438.54 180.272,-432.955 199.106,-432.955C217.939,-432.955 234.102,-438.54 242.219,-445.739C247.748,-450.643 250.371,-456.467 250.371,-462.369C250.371,-468.271 247.748,-474.095 242.219,-478.999C234.102,-486.199 217.939,-491.783 199.106,-491.783ZM228.348,-462.369C228.197,-462.196 228.033,-462.023 227.889,-461.895C226.667,-460.812 225.062,-459.873 223.203,-459.018C217.039,-456.182 208.503,-454.551 199.106,-454.551C189.709,-454.551 181.173,-456.182 175.009,-459.018C173.149,-459.873 171.544,-460.812 170.323,-461.895C170.178,-462.023 170.014,-462.196 169.863,-462.369C170.014,-462.542 170.178,-462.715 170.323,-462.843C171.544,-463.927 173.149,-464.865 175.009,-465.72C181.173,-468.556 189.709,-470.187 199.106,-470.187C208.503,-470.187 217.039,-468.556 223.203,-465.72C225.062,-464.865 226.667,-463.927 227.889,-462.843C228.033,-462.715 228.197,-462.542 228.348,-462.369Z"/>
    </g>
</svg>
