<?xml version="1.0" encoding="utf-8"?>
<!-- Generator: Adobe Adobe Illustrator 24.2.0, SVG Export Plug-In . SVG Version: 6.00 Build 0)  -->
<svg version="1.1" id="Ebene_1" xmlns="http://www.w3.org/2000/svg" xmlns:xlink="http://www.w3.org/1999/xlink" x="0px" y="0px"
	 width="512px" height="512px" viewBox="0 0 512 512" style="enable-background:new 0 0 512 512;" xml:space="preserve">
<style type="text/css">
	.st0{fill:none;stroke:#000000;stroke-width:30;stroke-linecap:square;stroke-linejoin:round;stroke-miterlimit:11.9531;}
</style>
<path d="M321.81,512H190.19c-17.02,0-30.88-13.31-30.93-29.7c-0.15-11.45-3.29-253.42-3.29-264.12c0-3.17,1.12-6.24,3.16-8.67
	l50.09-59.68V13.49C209.22,6.04,215.25,0,222.7,0h66.6c7.45,0,13.49,6.04,13.49,13.49v136.35l50.09,59.68
	c2.04,2.43,3.16,5.5,3.16,8.67c0,10.7-3.15,252.82-3.29,264.13C352.68,498.69,338.83,512,321.81,512z M182.98,223.05
	c0.37,36.83,3.22,256.62,3.25,258.99c0,0.06,0,0.12,0,0.18c0,1.33,1.63,2.82,3.96,2.82h131.62c2.33,0,3.96-1.49,3.96-2.82
	c0-0.06,0-0.12,0-0.18c0.03-2.37,2.89-222.15,3.25-258.99l-50.05-59.63c-2.04-2.43-3.16-5.5-3.16-8.67V26.97h-39.62v127.77
	c0,3.17-1.12,6.24-3.16,8.67L182.98,223.05z M222.7,154.74L222.7,154.74L222.7,154.74z"/>
</svg>
