<?xml version="1.0" encoding="utf-8"?>
<!-- Generator: Adobe Adobe Illustrator 24.2.0, SVG Export Plug-In . SVG Version: 6.00 Build 0)  -->
<svg version="1.1" id="Ebene_1" xmlns="http://www.w3.org/2000/svg" xmlns:xlink="http://www.w3.org/1999/xlink" x="0px" y="0px"
	 width="512px" height="512px" viewBox="0 0 512 512" style="enable-background:new 0 0 512 512;" xml:space="preserve">
<style type="text/css">
	.st0{fill:none;stroke:#000000;stroke-width:30;stroke-linecap:round;stroke-linejoin:round;stroke-miterlimit:10;}
</style>
<g>
	<path d="M365.17,512H80.49c-9.28,0-16.8-7.52-16.8-16.8V84.38c-0.1-4.47,1.57-8.97,5.01-12.36l67.21-66.2
		c3.79-3.73,8.9-5.3,13.8-4.71L431.44,0c0.02,0,0.04,0,0.07,0c4.45,0,8.71,1.76,11.86,4.9c3.17,3.16,4.94,7.44,4.94,11.91
		l-0.28,411.25c0.02,0.34,0.03,0.68,0.03,1.02c0,4.3-1.64,8.6-4.92,11.88l-65.7,65.7C374.38,509.95,370.01,512,365.17,512z
		 M97.3,478.39h251.08l0.29-378.19L97.3,100.76V478.39z M382.29,83.41L382,454.58l32.43-32.43l0.26-388.48L154.48,34.7l-32.89,32.4
		l241.89-0.54c0.66-0.08,1.33-0.14,2.02-0.12c9.28,0.01,16.8,7.54,16.79,16.82v0.09C382.29,83.37,382.29,83.39,382.29,83.41z"/>
	<path d="M365.49,99.85c-4.3,0-8.6-1.64-11.88-4.92c-6.56-6.56-6.56-17.2,0-23.76L419.55,5.2c6.56-6.56,17.2-6.56,23.76,0
		c6.56,6.56,6.56,17.2,0,23.76l-65.95,65.96C374.09,98.2,369.79,99.85,365.49,99.85z"/>
</g>
</svg>
