<?xml version="1.0" encoding="UTF-8" standalone="no"?>
<!DOCTYPE svg PUBLIC "-//W3C//DTD SVG 1.1//EN" "http://www.w3.org/Graphics/SVG/1.1/DTD/svg11.dtd">
<svg width="100%" height="100%" viewBox="0 0 512 512" version="1.1" xmlns="http://www.w3.org/2000/svg" xmlns:xlink="http://www.w3.org/1999/xlink" xml:space="preserve" xmlns:serif="http://www.serif.com/" style="fill-rule:evenodd;clip-rule:evenodd;stroke-linecap:round;stroke-linejoin:round;stroke-miterlimit:1.5;">
    <g transform="matrix(1.14054,0,0,1.14054,-26.6323,-36.1463)">
        <path d="M155.972,91.759C153.469,75.17 162.174,57.507 179.11,48.807C197.852,39.178 221.166,43.355 234.558,57.254C245.661,42.564 268.187,36.905 288.371,45.276C308.167,53.486 320.004,72.825 318.042,90.77C326.209,74.14 345.539,63.946 365.846,67.491C386.835,71.156 403.015,88.477 405.745,107.919C424.538,106.458 444.278,119.146 452.285,139.706C460.291,160.265 454.331,182.962 439.5,194.595C450.638,210.763 450.433,234.465 437.45,251.359C424.467,268.254 402.327,273.63 384.766,265.821C379.273,278.47 367.454,287.713 353.462,290.572C323.685,349.432 303.947,409.474 299.233,470.907L191.304,470.517C191.441,413.752 185.555,368.655 151.734,300.065C145.139,305.051 136.89,308.033 127.982,308.033C108.202,308.033 91.676,293.335 89.297,274.65C74.655,281.515 55.809,271.649 45.92,251.045C36.03,230.442 38.349,205.878 50.613,194.058C38.349,182.238 36.03,157.673 45.92,137.07C55.809,116.466 74.655,106.6 89.297,113.465C91.676,94.78 108.202,80.082 127.982,80.082C138.921,80.082 148.866,84.579 155.972,91.759ZM208.532,253.986C213.16,261.689 220.433,268.078 229.137,272.134C227.308,290.426 222.281,329.323 212.218,334.808C200.954,340.949 179.05,291.376 172.798,276.531C185.477,278.534 199.774,269.933 208.532,253.986ZM321.304,285.578C313.896,303.343 299.193,333.502 285.081,332.589C268.66,331.527 271.82,286.935 273.46,271.136C282.146,266.39 288.823,259.058 292.219,250.469C293.573,250.508 294.928,250.476 296.277,250.371C298.316,264.892 307.858,278.23 321.304,285.578Z" style="fill:none;stroke:black;stroke-width:16.84px;"/>
    </g>
</svg>
