<?xml version="1.0" encoding="utf-8"?>
<!-- Generator: Adobe Adobe Illustrator 24.2.0, SVG Export Plug-In . SVG Version: 6.00 Build 0)  -->
<svg version="1.1" id="Ebene_1" xmlns="http://www.w3.org/2000/svg" xmlns:xlink="http://www.w3.org/1999/xlink" x="0px" y="0px"
	 width="512px" height="512px" viewBox="0 0 512 512" style="enable-background:new 0 0 512 512;" xml:space="preserve">
<style type="text/css">
	.st0{fill:none;stroke:#000000;stroke-width:30;stroke-miterlimit:10;}
	.st1{fill:none;stroke:#000000;stroke-width:30;stroke-linejoin:round;stroke-miterlimit:10;}
	.st2{fill:none;stroke:#000000;stroke-width:20;stroke-linecap:round;stroke-linejoin:round;stroke-miterlimit:10;}
	.st3{fill:none;stroke:#000000;stroke-width:10;stroke-miterlimit:10;}
</style>
<path d="M229.61,471.83c-85.65,0-134.03-0.57-165.58-13.08c-39.32-15.59-48.2-49.03-49.79-97.94l-0.5-15.49h484.03v15
	c0,44.67,0,79.96-39.09,96.87c-30.76,13.31-82.69,14.63-202.68,14.63l-13.6,0C238.04,471.83,233.78,471.83,229.61,471.83z
	 M45.07,375.33c3.06,37.9,12.59,48.63,30.02,55.54c27.76,11,80.28,10.98,167.3,10.96l13.61,0c103.88,0,163.95-0.56,190.77-12.16
	c16.8-7.27,20.32-18.38,20.9-54.34H45.07z"/>
<path d="M491.3,330.36H20.7c-8.28,0-15-6.72-15-15v-13.78c0-8.28,6.72-15,15-15H491.3c8.28,0,15,6.72,15,15v13.78
	C506.3,323.64,499.59,330.36,491.3,330.36z"/>
<path d="M302.85,276.81c-24.86,0-37.7-9.42-48.02-17c-8.77-6.44-15.71-11.52-29.68-11.52c-16.59,0-25.47,6.06-35.75,13.08
	c-10.07,6.88-21.48,14.67-39.53,14.67c-21.04,0-32.27-9.18-41.29-16.56c-8.36-6.83-14.39-11.77-27.74-11.37
	c-27.41,0.83-40.52,9.85-58.67,22.34c-1.97,1.36-3.98,2.74-6.06,4.14c-4.57,3.1-10.79,1.9-13.89-2.67
	c-3.1-4.57-1.9-10.79,2.67-13.89c2.03-1.37,4-2.73,5.93-4.06c19.37-13.33,36.1-24.85,69.4-25.86c20.82-0.62,32.01,8.52,41.01,15.88
	c8.22,6.73,14.72,12.04,28.62,12.04c11.88,0,19.1-4.94,28.25-11.18c10.81-7.38,24.26-16.57,47.03-16.57
	c20.52,0,31.67,8.18,41.51,15.4c9.6,7.04,17.88,13.12,36.19,13.12c17.17,0,27.61-6.98,38.67-14.38
	c10.53-7.04,21.42-14.32,36.95-14.32c14.88,0,27.08,7.52,38.87,14.8c11.41,7.04,22.18,13.69,35.01,13.69
	c21.43,0,41.27-22.88,41.47-23.11c3.56-4.23,9.86-4.77,14.09-1.22c4.23,3.55,4.77,9.86,1.22,14.09
	c-1.04,1.23-25.79,30.24-56.77,30.24c-18.5,0-32.85-8.85-45.51-16.66c-10.28-6.34-19.16-11.82-28.37-11.82
	c-9.46,0-16.69,4.83-25.84,10.95C340.81,266.97,326.09,276.81,302.85,276.81z"/>
<path d="M497.77,218.11H14.23v-15c0-33.6,9.49-62.85,28.2-86.94c15.78-20.31,38.14-36.91,66.46-49.32
	C161.85,43.63,223.79,40.17,256,40.17c18.54,0,83.54,1.92,141.87,26.6c65.36,27.66,99.9,74.81,99.9,136.34V218.11z M45.04,188.11
	h421.83c-2.47-20.19-10.04-38.02-22.6-53.16c-13.54-16.32-33.09-29.96-58.11-40.55C333.05,71.91,273.11,70.17,256,70.17
	c-29.86,0-87.12,3.14-135.07,24.15c-23.69,10.38-42.13,23.93-54.81,40.25C54.38,149.68,47.32,167.64,45.04,188.11z"/>
<path d="M179.97,120.36c-4.66,0-8.46-3.86-8.46-8.59s3.79-8.59,8.46-8.59c4.67,0,8.46,3.86,8.46,8.59S184.63,120.36,179.97,120.36z
	 M179.97,110.36c-0.85,0-1.54,0.63-1.54,1.41s0.69,1.41,1.54,1.41c0.85,0,1.54-0.63,1.54-1.41S180.82,110.36,179.97,110.36z"/>
<path d="M280.03,159.8c-4.66,0-8.46-3.86-8.46-8.59s3.79-8.59,8.46-8.59c4.67,0,8.46,3.86,8.46,8.59S284.7,159.8,280.03,159.8z
	 M280.03,149.8c-0.85,0-1.54,0.63-1.54,1.41s0.69,1.41,1.54,1.41s1.54-0.63,1.54-1.41S280.88,149.8,280.03,149.8z"/>
<path d="M356.67,127.55c-4.67,0-8.46-3.86-8.46-8.59c0-4.74,3.79-8.59,8.46-8.59c4.66,0,8.46,3.86,8.46,8.59
	C365.13,123.7,361.34,127.55,356.67,127.55z M356.67,117.55c-0.85,0-1.54,0.63-1.54,1.41s0.69,1.41,1.54,1.41s1.54-0.63,1.54-1.41
	S357.52,117.55,356.67,117.55z"/>
<path d="M117.16,163.4c-4.66,0-8.46-3.86-8.46-8.59c0-4.74,3.79-8.59,8.46-8.59s8.46,3.86,8.46,8.59
	C125.62,159.54,121.83,163.4,117.16,163.4z M117.16,153.4c-0.85,0-1.54,0.63-1.54,1.41s0.69,1.41,1.54,1.41s1.54-0.63,1.54-1.41
	S118.01,153.4,117.16,153.4z"/>
<path d="M280.03,113.17c-4.66,0-8.46-3.86-8.46-8.59c0-4.74,3.79-8.59,8.46-8.59c4.67,0,8.46,3.86,8.46,8.59
	C288.49,109.32,284.7,113.17,280.03,113.17z M280.03,103.17c-0.85,0-1.54,0.63-1.54,1.41s0.69,1.41,1.54,1.41s1.54-0.63,1.54-1.41
	S280.88,103.17,280.03,103.17z"/>
<path d="M207.65,163.4c-4.67,0-8.46-3.86-8.46-8.59c0-4.74,3.79-8.59,8.46-8.59c4.66,0,8.46,3.86,8.46,8.59
	C216.1,159.54,212.31,163.4,207.65,163.4z M207.65,153.4c-0.85,0-1.54,0.63-1.54,1.41s0.69,1.41,1.54,1.41
	c0.85,0,1.54-0.63,1.54-1.41S208.49,153.4,207.65,153.4z"/>
<path d="M409.9,166.99c-4.67,0-8.46-3.86-8.46-8.59c0-4.74,3.79-8.59,8.46-8.59s8.46,3.86,8.46,8.59
	C418.36,163.14,414.56,166.99,409.9,166.99z M409.9,156.99c-0.85,0-1.54,0.63-1.54,1.41s0.69,1.41,1.54,1.41s1.54-0.63,1.54-1.41
	S410.75,156.99,409.9,156.99z"/>
</svg>
