<?xml version="1.0" encoding="utf-8"?>
<!-- Generator: Adobe Adobe Illustrator 24.2.0, SVG Export Plug-In . SVG Version: 6.00 Build 0)  -->
<svg version="1.1" id="Ebene_1" xmlns="http://www.w3.org/2000/svg" xmlns:xlink="http://www.w3.org/1999/xlink" x="0px" y="0px"
	 width="512px" height="512px" viewBox="0 0 512 512" style="enable-background:new 0 0 512 512;" xml:space="preserve">
<style type="text/css">
	.st0{fill:none;stroke:#000000;stroke-width:30;stroke-linecap:round;stroke-linejoin:round;stroke-miterlimit:10;}
	.st1{fill:none;stroke:#000000;stroke-width:30;stroke-linejoin:round;stroke-miterlimit:10;}
</style>
<g>
	<path d="M174.96,418.19c-3.5,0-7.03-1.09-10.04-3.36l-31.26-23.46c-7.4-5.55-8.89-16.05-3.34-23.45c5.55-7.4,16.05-8.89,23.45-3.34
		l31.26,23.46c7.4,5.55,8.89,16.05,3.34,23.45C185.07,415.87,180.05,418.19,174.96,418.19z"/>
	<path d="M17.51,507c-4.69,0-9.28-1.97-12.52-5.62c-4.66-5.24-5.56-12.83-2.26-19.01c0.28-0.53,28.35-53.15,36.88-70.04
		c109.91-217.57,222.66-282.59,227.41-285.25c3.56-1.99,7.72-2.62,11.7-1.77c2.85,0.61,28.81,6.94,62.76,40.88
		c25.49,25.49,39.47,58.51,40.06,59.9c2.24,5.35,1.55,11.48-1.82,16.2c-2.55,3.57-64.78,89.08-265,222.01
		c-21.25,14.11-84.03,38.79-91.12,41.56C21.62,506.63,19.55,507,17.51,507z M277.29,160.2c-10.17,6.87-32.3,23.27-60.99,52.9
		c-36.73,37.93-92.02,105.91-146.79,214.33c-3.28,6.5-9.23,17.85-15.41,29.59c17.24-7.49,34.24-15.42,42.09-20.64
		c160.84-106.79,230.71-182.72,250.25-206.06c-5.19-10.02-15.05-26.85-28.65-40.45C299.71,171.79,285,163.62,277.29,160.2z"/>
	<path d="M191.78,323.36c-3.85,0-7.72-1.32-10.87-4.02l-41.43-35.41c-7.03-6.01-7.86-16.58-1.85-23.62
		c6.01-7.03,16.58-7.86,23.62-1.85l41.43,35.41c7.03,6.01,7.86,16.58,1.85,23.62C201.21,321.37,196.51,323.36,191.78,323.36z"/>
	<path d="M301.89,293.44c-3.85,0-7.72-1.32-10.87-4.02l-41.43-35.41c-7.03-6.01-7.86-16.58-1.85-23.62
		c6.01-7.03,16.58-7.86,23.62-1.85l41.43,35.41c7.03,6.01,7.86,16.58,1.85,23.62C311.32,291.45,306.62,293.44,301.89,293.44z"/>
	<path d="M316.57,164.73c-2.36,0-4.78-0.38-7.28-1.21c-16.02-5.35-18.69-24.14-18.1-38.95c0.57-14.37,4.2-32.21,10.21-50.22v0
		c6.02-18.01,13.84-34.44,22.02-46.27c8.44-12.19,21.85-25.6,37.88-20.25c16.02,5.35,18.69,24.14,18.1,38.95
		c-0.57,14.38-4.2,32.21-10.21,50.22c-6.02,18.01-13.84,34.44-22.02,46.27C340.05,153.56,329.37,164.73,316.57,164.73z
		 M325.42,136.12h0.01H325.42z M333.18,84.96c-3.65,10.93-5.91,20.61-7.19,28.57c3.76-7.13,7.78-16.23,11.43-27.16
		c3.65-10.93,5.91-20.61,7.19-28.57C340.84,64.93,336.83,74.03,333.18,84.96L333.18,84.96z"/>
	<path d="M339.1,194.6c-4.77,0-9.43-1.37-13.64-4.81c-17.07-13.92-2.38-41.82,3.15-52.32c9.43-17.9,24.24-39.55,41.7-60.96l0,0
		c17.46-21.41,35.69-40.27,51.34-53.1c9.18-7.53,33.55-27.53,50.62-13.6c17.07,13.92,2.38,41.82-3.15,52.33
		c-9.43,17.9-24.24,39.55-41.7,60.96c-17.46,21.41-35.7,40.27-51.34,53.1C369.17,181.86,353.64,194.6,339.1,194.6z M432.81,58.18
		c-10.3,9.57-22.82,22.68-36.54,39.5l0,0c-13.72,16.82-24.04,31.72-31.35,43.73c10.3-9.57,22.82-22.68,36.54-39.5
		C415.18,85.1,425.5,70.2,432.81,58.18z M383.29,87.1h0.01H383.29z"/>
	<path d="M360.62,212.64c-8.73,0-17.42-2.54-22.48-11.04c-10.75-18.09,10.08-37.77,16.93-44.24c12.43-11.74,30.24-24.73,50.13-36.56
		l0,0c19.9-11.83,39.81-21.27,56.06-26.58c8.95-2.93,36.2-11.83,46.95,6.26c10.75,18.09-10.08,37.77-16.93,44.24
		c-12.43,11.75-30.24,24.73-50.13,36.56c-19.9,11.83-39.81,21.27-56.07,26.58C380.35,209.41,370.47,212.64,360.62,212.64z
		 M451.81,134.02c-8.66,3.97-18.59,9.11-29.48,15.58l0,0c-10.89,6.48-20.15,12.75-27.77,18.46c8.66-3.97,18.59-9.11,29.48-15.58
		C434.93,146.01,444.19,139.73,451.81,134.02z M413.77,135.21h0.01H413.77z"/>
</g>
</svg>
