<?xml version="1.0" encoding="UTF-8" standalone="no"?>
<!DOCTYPE svg PUBLIC "-//W3C//DTD SVG 1.1//EN" "http://www.w3.org/Graphics/SVG/1.1/DTD/svg11.dtd">
<svg width="100%" height="100%" viewBox="0 0 512 512" version="1.1" xmlns="http://www.w3.org/2000/svg" xmlns:xlink="http://www.w3.org/1999/xlink" xml:space="preserve" xmlns:serif="http://www.serif.com/" style="fill-rule:evenodd;clip-rule:evenodd;stroke-linejoin:round;stroke-miterlimit:2;">
    <g transform="matrix(1.87059,-0.414283,0.422272,1.90666,815.282,223.408)">
        <g id="Layer-1" serif:id="Layer 1">
            <g id="g1139">
                <path id="path690" d="M-237.587,47.597C-237.77,47.121 -236.971,45.338 -235.695,43.376C-231.722,37.265 -230.427,30.324 -232.152,24.39C-232.579,22.923 -233.932,18.853 -235.16,15.346C-236.664,11.052 -237.201,8.85 -236.807,8.606C-236.04,8.132 -240.267,3.988 -242.293,3.227C-244.122,2.539 -243.927,1.385 -241.944,1.15C-241.038,1.043 -239.376,1.659 -237.421,2.826C-235.721,3.841 -233.172,5.323 -231.757,6.119C-227.408,8.565 -224.933,13.27 -224.933,19.091C-224.933,20.125 -224.558,21.697 -224.099,22.584C-222.927,24.852 -222.537,29.009 -223.286,31.275C-224.321,34.412 -227.752,39.258 -231.749,43.23C-237.028,48.475 -237.201,48.604 -237.587,47.597ZM-228.712,32.458C-228.193,30.685 -227.595,27.378 -227.382,25.109L-226.996,20.985L-229.452,16.253C-231.208,12.869 -232.447,11.173 -233.803,10.3C-235.376,9.286 -235.609,9.24 -235.175,10.031C-234.887,10.556 -234.013,13.038 -233.233,15.548C-232.453,18.058 -231.601,20.372 -231.34,20.689C-231.078,21.007 -230.486,23.06 -230.023,25.253C-229.166,29.317 -229.252,32.92 -230.271,35.6C-230.584,36.422 -230.824,37.382 -230.806,37.732C-230.759,38.618 -229.832,36.284 -228.712,32.458ZM-225.085,26.965C-225.209,26.149 -225.313,26.69 -225.317,28.166C-225.327,29.643 -225.22,30.311 -225.092,29.65C-224.965,28.99 -224.962,27.782 -225.082,26.965L-225.085,26.965Z" style="fill-rule:nonzero;"/>
                <path id="path688" d="M-232.636,-108.848C-233.465,-109.676 -232.815,-110.654 -230.173,-112.552C-226.022,-115.534 -221.847,-119.635 -219.558,-122.98C-216.748,-127.084 -215.088,-128.535 -213.704,-128.095C-213.048,-127.887 -212.584,-127.283 -212.584,-126.638C-212.584,-123.506 -221.093,-113.061 -225.796,-110.42C-228.077,-109.139 -232.021,-108.232 -232.636,-108.848Z" style="fill-rule:nonzero;"/>
                <path id="path686" d="M-362.55,37.758C-363.356,36.952 -362.817,36.381 -360.106,35.169C-357.249,33.892 -354.28,30.89 -352.534,27.515C-351.621,25.748 -351.367,18.818 -352.119,16.132C-352.439,14.988 -352.71,15.301 -354.449,18.817C-355.531,21.006 -356.715,24.367 -357.08,26.287C-357.678,29.437 -358.009,30.025 -360.468,32.318C-363.594,35.233 -364.835,35.608 -364.3,33.476L-363.948,32.075L-365.782,33.208C-367.897,34.515 -370.979,34.741 -370.979,33.589C-370.979,33.176 -370.106,31.545 -369.04,29.965C-367.973,28.385 -366.921,26.609 -366.7,26.018C-366.48,25.428 -366.453,22.014 -366.641,18.433C-366.958,12.399 -367.097,11.756 -368.542,9.672C-370.346,7.068 -375.499,2.981 -378.386,1.864C-379.48,1.441 -381.945,0.981 -383.865,0.843C-385.784,0.704 -387.536,0.573 -387.758,0.552C-388.631,0.47 -388.093,-0.621 -386.952,-1.08C-386.207,-1.379 -386.064,-1.578 -386.579,-1.599C-387.943,-1.655 -392.456,-4.764 -392.456,-5.649C-392.456,-6.258 -391.849,-6.466 -390.075,-6.466C-388.765,-6.466 -387.013,-6.725 -386.182,-7.041C-384.877,-7.538 -379.428,-8.384 -374.614,-8.838C-372.353,-9.052 -369.905,-7.643 -369.905,-6.129C-369.905,-5.168 -369.406,-4.634 -367.891,-3.971C-366.784,-3.486 -365.07,-2.097 -364.083,-0.885C-363.095,0.328 -360.558,2.657 -358.445,4.291C-355.593,6.496 -353.989,8.268 -352.225,11.162C-349.872,15.024 -349.846,15.121 -349.609,20.851C-349.379,26.451 -349.42,26.716 -350.865,29.013C-353.747,33.593 -356.405,36.296 -358.702,36.984C-359.904,37.344 -361.178,37.75 -361.532,37.886C-361.886,38.022 -362.344,37.964 -362.55,37.758L-362.55,37.758ZM-359.634,28.837C-359.05,27.742 -359.074,27.698 -359.884,28.366C-360.375,28.771 -360.777,29.315 -360.777,29.574C-360.777,30.394 -360.3,30.087 -359.634,28.837ZM-362.147,21.744C-361.303,18.503 -361.086,16.752 -361.591,17.257C-361.832,17.498 -362.393,19.391 -363.79,24.676C-364.041,25.626 -363.975,25.862 -363.562,25.482C-363.242,25.186 -362.605,23.505 -362.147,21.744ZM-363.525,12.312C-363.447,9.34 -364.405,7.857 -367.382,6.338L-369.621,5.196L-367.545,7.73C-365.824,9.83 -365.365,10.917 -364.868,14.081C-364.372,17.233 -364.208,17.623 -363.928,16.321C-363.741,15.453 -363.56,13.649 -363.525,12.312ZM-358.683,13.601C-358.653,12.677 -358.998,11.616 -359.448,11.242C-360.582,10.3 -360.91,10.834 -360.255,12.556C-359.952,13.354 -359.679,14.898 -359.65,15.986C-359.602,17.764 -359.553,17.829 -359.166,16.622C-358.93,15.884 -358.712,14.524 -358.683,13.601ZM-355.252,15.548C-355.098,14.958 -355.19,14.474 -355.458,14.474C-355.726,14.474 -355.945,14.958 -355.945,15.548C-355.945,16.139 -355.852,16.622 -355.739,16.622C-355.626,16.622 -355.407,16.139 -355.252,15.548ZM-382.523,-2.17C-382.705,-2.466 -383.142,-2.704 -383.494,-2.699C-383.878,-2.694 -383.812,-2.483 -383.328,-2.17C-382.297,-1.504 -382.111,-1.504 -382.523,-2.17ZM-375.112,-2.439C-375.054,-2.734 -376.093,-3.026 -377.422,-3.087L-379.838,-3.197L-378.227,-2.433C-376.468,-1.598 -375.277,-1.6 -375.112,-2.439L-375.112,-2.439ZM-380.47,-4.104C-380.652,-4.577 -380.46,-5.177 -380.051,-5.438C-379.547,-5.757 -380.039,-5.915 -381.551,-5.921C-384.521,-5.931 -384.878,-5.167 -382.385,-4.134C-381.28,-3.675 -380.322,-3.287 -380.258,-3.272C-380.193,-3.257 -380.289,-3.631 -380.47,-4.104ZM-371.516,-5.603C-371.516,-6.579 -372.699,-7.003 -375.425,-7.003C-378.013,-7.003 -377.571,-6.079 -374.653,-5.389C-371.964,-4.754 -371.516,-4.784 -371.516,-5.603Z" style="fill-rule:nonzero;"/>
                <path id="path684" d="M-252.673,70.292C-256.977,69.441 -265.058,66.656 -268.958,64.679C-272.624,62.822 -282.606,52.626 -285.485,47.797C-286.835,45.533 -288.767,40.925 -290.179,36.595C-292.429,29.702 -292.58,28.869 -292.583,23.329C-292.593,18.196 -292.386,16.85 -291.057,13.094C-289.058,7.438 -287.469,4.814 -283.254,0.203C-276.688,-6.982 -266.389,-12.583 -257.537,-13.785C-256.127,-13.976 -254.886,-14.28 -254.781,-14.461C-254.676,-14.641 -254.802,-16.313 -255.061,-18.176C-255.492,-21.273 -257.435,-25.066 -258.924,-25.716C-259.956,-26.167 -261.467,-28.265 -262.039,-30.044C-262.38,-31.103 -263.352,-33.47 -264.199,-35.304C-265.047,-37.137 -265.74,-38.77 -265.74,-38.934C-265.74,-39.097 -267.13,-41.462 -268.828,-44.19C-272.312,-49.788 -272.648,-50.483 -275.131,-57.206C-276.112,-59.864 -277.629,-63.609 -278.502,-65.528C-280.26,-69.396 -282.792,-78.283 -286.075,-92.106C-288.13,-100.759 -288.777,-103.934 -291.695,-119.695L-292.926,-126.343L-295.754,-117.547C-297.31,-112.709 -298.833,-107.906 -299.14,-106.872C-299.708,-104.956 -302.773,-97.168 -304.106,-94.254C-304.511,-93.368 -305.611,-90.952 -306.549,-88.885C-312.114,-76.628 -312.497,-75.844 -314.936,-71.704C-316.154,-69.636 -317.827,-66.616 -318.654,-64.991C-320.567,-61.233 -323.169,-57.613 -327.14,-53.19C-328.869,-51.264 -331.735,-47.514 -333.509,-44.856C-335.284,-42.199 -336.894,-39.903 -337.087,-39.756C-337.28,-39.608 -339.367,-37.225 -341.725,-34.46C-344.082,-31.695 -349.273,-26.181 -353.26,-22.206L-360.509,-14.98L-357.556,-14.04C-352.287,-12.365 -347.66,-8.55 -342.523,-1.645C-339.848,1.952 -337.177,9.845 -336.766,15.372C-336.44,19.755 -337.359,27.046 -338.646,30.278C-339.124,31.479 -342.399,36.748 -345.924,41.987C-354.347,54.505 -357.047,56.714 -371.784,63.143L-377.69,65.719L-384.402,65.735C-396.19,65.763 -405.609,62.417 -414.202,55.146C-428.427,43.11 -437.565,26.852 -437.555,13.597C-437.545,5.6 -432.015,-8.086 -426.328,-14.166C-423.001,-17.723 -419.304,-19.444 -410.443,-21.561C-403.057,-23.326 -402.712,-23.358 -390.548,-23.368L-378.171,-23.379L-374.45,-21.5C-372.404,-20.466 -369.696,-18.835 -368.433,-17.876C-367.17,-16.916 -366.037,-16.131 -365.915,-16.131C-365.793,-16.131 -365.401,-17.037 -365.043,-18.144C-364.593,-19.54 -362.3,-22.299 -357.569,-27.138C-350.687,-34.177 -342.767,-43.577 -340.38,-47.541C-338.708,-50.317 -336.448,-53.268 -333.223,-56.886C-330.661,-59.761 -326.413,-65.673 -326.413,-66.366C-326.413,-66.563 -324.889,-69.295 -323.026,-72.435C-321.163,-75.576 -319.136,-79.233 -318.522,-80.562C-316.225,-85.532 -313.425,-91.631 -312.605,-93.449C-312.139,-94.482 -311.573,-95.714 -311.347,-96.186C-310.247,-98.478 -307.137,-106.368 -306.393,-108.751C-305.227,-112.487 -299.546,-129.926 -299.211,-130.8C-299.04,-131.246 -299.645,-131.813 -300.81,-132.3C-303.242,-133.316 -303.552,-134.477 -302.357,-138.098C-301.518,-140.641 -301.483,-141.22 -302.11,-142.164C-303.395,-144.099 -302.448,-148.449 -300.268,-150.629L-298.428,-152.469L-300.357,-153.275C-303.51,-154.593 -304.616,-158.763 -302.162,-160.076C-301.596,-160.379 -298.841,-160.581 -296.041,-160.524C-292.148,-160.446 -290.733,-160.613 -290.024,-161.235C-288.297,-162.751 -286.738,-162.835 -282.762,-161.627C-276.766,-159.807 -275.942,-159.254 -275.942,-157.05C-275.942,-155.569 -276.225,-155.044 -277.284,-154.561C-278.769,-153.884 -278.907,-153.543 -278.044,-152.68C-277.04,-151.677 -277.752,-149.62 -279.493,-148.493C-280.413,-147.897 -281.482,-146.685 -281.868,-145.799C-282.254,-144.914 -282.652,-144.061 -282.751,-143.905C-282.85,-143.749 -282.205,-143.191 -281.316,-142.666C-279.486,-141.585 -279.101,-139.227 -280.523,-137.805C-281.179,-137.15 -281.218,-136.776 -280.716,-135.972C-279.947,-134.741 -280.477,-131.412 -281.589,-130.489C-282.021,-130.13 -283.102,-129.943 -283.991,-130.074C-285.484,-130.293 -285.607,-130.187 -285.607,-128.686C-285.607,-127.422 -285.464,-127.204 -284.962,-127.705C-283.659,-129.008 -282.175,-128.242 -276.596,-123.383C-271.543,-118.982 -264.872,-114.389 -263.533,-114.389C-263.27,-114.389 -263.056,-114.891 -263.056,-115.505C-263.056,-117.525 -258.066,-121.662 -251.243,-125.301C-249.619,-126.167 -247.686,-127.29 -246.948,-127.796C-245.298,-128.926 -238.351,-131.797 -235.313,-132.605C-234.082,-132.932 -230.335,-133.559 -226.987,-133.998C-223.639,-134.437 -218.243,-135.542 -214.997,-136.453C-203.832,-139.587 -200.203,-140.057 -178.04,-141.243C-172.773,-141.525 -167.457,-142.023 -166.227,-142.349C-163.907,-142.965 -159.267,-145.369 -156.475,-147.402C-155.589,-148.048 -154.331,-148.711 -153.681,-148.876C-150.636,-149.648 -149.453,-145.323 -152.09,-143.056C-152.877,-142.378 -153.522,-141.265 -153.522,-140.582C-153.522,-139.448 -157.686,-131.754 -161.16,-126.47C-163.69,-122.621 -171.385,-115.226 -177.147,-111.107C-187.454,-103.737 -197.899,-98.823 -209.034,-96.104C-214.587,-94.748 -216.552,-94.523 -222.818,-94.523C-228.792,-94.523 -230.752,-94.728 -233.558,-95.649C-237.881,-97.069 -241.561,-98.923 -242.82,-100.316C-243.446,-101.009 -245.078,-101.621 -247.384,-102.028C-252.544,-102.939 -263.032,-107.082 -268.962,-110.552C-272.165,-112.426 -276.054,-115.382 -279.415,-118.499C-282.359,-121.228 -284.807,-123.413 -284.856,-123.355C-285.171,-122.975 -280.93,-102.582 -278.636,-93.449C-274.734,-77.911 -272.869,-71.699 -270.99,-67.976C-270.091,-66.194 -268.764,-63.163 -268.042,-61.24C-266.074,-55.997 -265.249,-54.328 -262.678,-50.393C-259.556,-45.613 -256.59,-39.847 -254.721,-34.923C-253.881,-32.708 -252.881,-30.521 -252.499,-30.062C-251.894,-29.335 -246.56,-17.884 -245.735,-15.541C-245.514,-14.912 -244.44,-14.6 -241.705,-14.371C-233.579,-13.69 -225.321,-9.987 -219.755,-4.53C-216.067,-0.914 -215.579,0.526 -217.596,1.847C-219.278,2.95 -221.716,2.11 -224.896,-0.667C-233.447,-8.135 -247.256,-10.023 -262.275,-5.776C-265.619,-4.83 -266.499,-4.374 -272.05,-0.704C-280.695,5.012 -285.591,13.056 -286.025,22.26C-286.239,26.796 -286.115,27.511 -284.007,33.922C-281.242,42.332 -279.169,45.632 -272.324,52.516C-267.361,57.507 -266.84,57.874 -262.519,59.424C-253.869,62.526 -251.345,62.906 -240.752,62.708C-228.968,62.487 -228.678,62.379 -220.244,55.089C-212.978,48.807 -211.89,47.437 -210.122,42.336C-208.902,38.818 -208.771,37.729 -208.964,32.73C-209.153,27.868 -209.39,26.686 -210.689,24.139C-212.918,19.767 -215.543,15.81 -217.94,13.209C-219.11,11.94 -220.271,10.351 -220.52,9.678C-221.695,6.5 -219.527,3.321 -216.672,4.037C-214.966,4.465 -209.74,9.775 -207.294,13.565C-206.304,15.099 -204.5,18.395 -203.284,20.889C-201.106,25.358 -201.07,25.527 -200.859,32.299C-200.663,38.584 -200.769,39.574 -202.09,43.871C-204.035,50.196 -206.039,53.05 -213.058,59.495C-224.197,69.722 -227.159,70.891 -241.684,70.794C-246.499,70.761 -251.444,70.536 -252.673,70.293L-252.673,70.292ZM-375.952,56.037C-369.521,53.4 -362.671,49.628 -360.11,47.314C-358.939,46.256 -356.65,43.327 -355.023,40.805C-353.396,38.284 -350.974,34.582 -349.641,32.579C-346.55,27.937 -345.803,25.712 -345.402,19.947C-345.117,15.859 -345.253,14.705 -346.497,10.643C-348.778,3.201 -353.694,-2.729 -359.989,-5.631C-362.124,-6.615 -364.158,-7.972 -364.669,-8.752C-365.184,-9.537 -366.329,-10.297 -367.327,-10.516C-368.291,-10.728 -371.38,-12.018 -374.191,-13.382L-379.301,-15.862L-389.075,-16.047C-398.283,-16.222 -399.309,-16.137 -406.794,-14.587C-419.094,-12.041 -420.572,-11.072 -425.231,-2.502C-428.12,2.813 -429.549,7.629 -429.87,13.132C-430.088,16.878 -429.911,18.063 -428.487,22.389C-426.406,28.713 -422.817,34.927 -417.767,40.946C-408.133,52.428 -397.847,57.863 -385.616,57.936C-381.118,57.963 -380.218,57.786 -375.952,56.037ZM-208.43,-102.519C-205.111,-103.414 -201.728,-104.508 -200.913,-104.951C-199.483,-105.726 -199.579,-105.756 -203.525,-105.777C-207.829,-105.799 -209.163,-106.441 -208.5,-108.169C-208.185,-108.991 -208.322,-108.986 -210.145,-108.117C-211.238,-107.596 -211.872,-107.082 -211.553,-106.976C-211.234,-106.869 -210.973,-106.313 -210.973,-105.74C-210.973,-104.347 -213.124,-103.586 -216.845,-103.663C-220.576,-103.741 -232.28,-101.259 -230.303,-100.809C-229.564,-100.641 -225.699,-100.591 -221.712,-100.698C-215.736,-100.858 -213.404,-101.177 -208.43,-102.519L-208.43,-102.519ZM-187.224,-112.855C-188.03,-113.044 -190.382,-113.589 -192.449,-114.066L-196.208,-114.932L-202.041,-112.052L-207.875,-109.173L-203.873,-109.43C-199.441,-109.714 -197.55,-109.095 -197.55,-107.358C-197.55,-106.39 -196.904,-106.612 -191.653,-109.39C-186.313,-112.216 -185.895,-112.542 -187.224,-112.855ZM-227.35,-108.261C-220.193,-109.307 -218.502,-109.977 -216.525,-112.553C-215.686,-113.646 -213.136,-116.646 -210.858,-119.22C-208.579,-121.794 -205.68,-125.445 -204.415,-127.333C-202.696,-129.896 -201.757,-130.807 -200.706,-130.929C-199.815,-131.032 -199.181,-130.786 -198.979,-130.26C-198.58,-129.221 -202.211,-123.26 -205.829,-119.014C-208.886,-115.426 -208.417,-115.319 -202.732,-118.311C-200.114,-119.69 -199.767,-120.029 -200.644,-120.353C-203.264,-121.323 -202.644,-122.472 -196.123,-128.732L-189.811,-134.793L-192.472,-134.788C-197.855,-134.779 -204.956,-133.66 -210.973,-131.872C-217.434,-129.953 -221.071,-129.166 -226.007,-128.617C-233.86,-127.745 -240.304,-125.544 -247.072,-121.422C-249.06,-120.211 -250.8,-119.221 -250.938,-119.221C-251.453,-119.221 -255.861,-116.053 -256.819,-114.994C-258.53,-113.103 -257.635,-111.507 -254.212,-110.343C-251.9,-109.557 -251.106,-109.478 -250.602,-109.983C-250.246,-110.339 -249.383,-110.63 -248.684,-110.63C-247.985,-110.63 -246.644,-111.2 -245.704,-111.897C-244.764,-112.593 -242.812,-113.741 -241.368,-114.446C-238.953,-115.626 -230.303,-124.026 -230.303,-125.192C-230.303,-125.897 -227.063,-127.383 -226.227,-127.062C-225.412,-126.749 -225.159,-124.053 -225.944,-124.053C-226.205,-124.053 -227.442,-122.482 -228.693,-120.562C-231.592,-116.111 -236.281,-111.767 -240.174,-109.924C-241.849,-109.131 -243.514,-108.479 -243.875,-108.474C-244.293,-108.469 -244.239,-108.277 -243.726,-107.945C-242.479,-107.14 -233.891,-107.305 -227.35,-108.261L-227.35,-108.261ZM-176.905,-119.24C-175.013,-120.727 -173.387,-122.169 -173.292,-122.444C-173.197,-122.719 -171.67,-124.56 -169.898,-126.535C-168.126,-128.51 -166.127,-131.042 -165.456,-132.161L-164.235,-134.196L-167.603,-132.449C-169.456,-131.489 -172.301,-129.846 -173.925,-128.798C-175.549,-127.751 -177.965,-126.413 -179.294,-125.827C-182.923,-124.224 -191.86,-118.192 -191.026,-117.908C-190.446,-117.711 -185.906,-117.121 -181.028,-116.609C-180.652,-116.569 -178.797,-117.753 -176.905,-119.24ZM-186.811,-128.622C-186.368,-128.999 -183.952,-130.307 -181.442,-131.528C-178.932,-132.749 -176.274,-134.219 -175.536,-134.795L-174.193,-135.842L-178.757,-135.796C-185.263,-135.73 -190.096,-135.15 -188.584,-134.617C-187.018,-134.065 -186.53,-132.348 -187.513,-130.848C-187.948,-130.184 -189.599,-128.361 -191.182,-126.797L-194.06,-123.952L-190.838,-125.944C-189.066,-127.039 -187.254,-128.244 -186.811,-128.622L-186.811,-128.622Z" style="fill-rule:nonzero;"/>
            </g>
        </g>
    </g>
</svg>
