<?xml version="1.0" encoding="UTF-8" standalone="no"?>
<!DOCTYPE svg PUBLIC "-//W3C//DTD SVG 1.1//EN" "http://www.w3.org/Graphics/SVG/1.1/DTD/svg11.dtd">
<svg width="100%" height="100%" viewBox="0 0 512 512" version="1.1" xmlns="http://www.w3.org/2000/svg" xmlns:xlink="http://www.w3.org/1999/xlink" xml:space="preserve" xmlns:serif="http://www.serif.com/" style="fill-rule:evenodd;clip-rule:evenodd;stroke-linejoin:round;stroke-miterlimit:2;">
    <g id="path706" transform="matrix(1.27525,0,0,1.34011,-70.4629,-87.0681)">
        <g id="Layer-1" serif:id="Layer 1">
            <path id="path7061" serif:id="path706" d="M243.246,370.739C239.774,370.432 232.344,369.387 226.735,368.415C221.125,367.444 212.967,366.138 208.606,365.512C204.245,364.887 199.029,363.926 197.013,363.377C194.998,362.828 190.504,361.736 187.026,360.951C178.13,358.943 171.184,356.254 159.976,350.477C158.623,349.78 155.936,348.423 154.003,347.46C146.584,343.765 140.076,339.817 135.81,336.422C133.371,334.481 128.088,331.192 124.07,329.112C115.404,324.627 109.126,320.748 106.226,318.086C105.067,317.022 103.285,315.719 102.266,315.191C99.253,313.629 94.104,309.108 85.866,300.794C81.607,296.495 76.885,292.071 75.373,290.963C72.493,288.851 68.117,282.559 64.376,275.148C62.483,271.398 62.205,270.186 62.451,266.778C62.726,262.982 62.649,262.759 60.844,262.078C56.205,260.326 54.823,254.024 56.303,241.368C57.072,234.796 57.87,231.275 59.402,227.703C60.537,225.057 61.869,221.825 62.363,220.52C63.423,217.716 68.022,211.345 71.736,207.536L74.377,204.826L72.714,202.969C68.153,197.875 62.817,188.226 61.629,182.926C61.238,181.181 60.607,173.967 60.226,166.895C59.163,147.156 61.077,140.719 68.009,140.719C70.257,140.719 71.246,141.129 72.493,142.578C74.058,144.397 74.085,144.707 73.738,156.615C73.115,177.988 74.817,184.519 83.839,195.389C87.657,199.989 87.807,200.088 89.405,199.041C90.308,198.449 93.198,197.112 95.826,196.069C100.156,194.352 101.497,194.17 110.09,194.13C115.307,194.105 120.762,194.337 122.213,194.644C124.797,195.192 129.19,198.463 136.273,205.112C139.61,208.245 139.62,208.269 139.435,212.44C139.268,216.187 139.475,216.917 141.409,219.407C142.597,220.937 145.078,224.719 146.921,227.81C148.765,230.902 151.153,234.379 152.228,235.539C153.303,236.698 155.341,239.227 156.757,241.16C162.161,248.537 169.043,254.617 175.764,257.953C188.735,264.392 197.266,268.154 199.837,268.57C206.474,269.642 210.008,270.692 216.745,273.591C223.951,276.693 224.027,276.708 235.646,277.373C242.062,277.74 250.03,278.504 253.353,279.071C267.766,281.529 279.211,282.224 294.525,281.57C319.699,280.497 330.05,278.428 350.031,270.477C354.039,268.882 374.351,264.697 378.084,264.697C379.447,264.697 382.651,263.911 385.203,262.95C387.756,261.989 392.427,260.68 395.583,260.041C398.739,259.402 403.376,258.11 405.888,257.169C413.699,254.244 430.473,245.601 434.612,242.369C439.574,238.494 441.328,237.585 445.044,236.968C449.605,236.21 452.629,237.529 454.792,241.219C456.514,244.158 456.567,244.533 455.763,248.014C454.341,254.171 446.789,272.571 444.177,276.246C442.826,278.145 441.721,280.093 441.721,280.575C441.721,281.057 440.97,282.346 440.052,283.438C439.134,284.53 435.45,289.85 431.866,295.26C428.281,300.67 424.231,306.52 422.865,308.259C418.144,314.268 409.741,322.424 406.591,324.056C404.852,324.957 401.374,327.354 398.862,329.383C396.35,331.412 392.63,333.811 390.595,334.714C388.56,335.617 385.314,337.443 383.382,338.772C380.168,340.983 373.152,344.092 371.377,344.092C370.973,344.092 368.831,345.154 366.616,346.452C362.151,349.069 356.746,351.209 349.328,353.295C346.623,354.057 340.774,355.919 336.33,357.434C331.886,358.949 326.037,360.407 323.332,360.674C320.627,360.941 316.042,361.862 313.144,362.721C310.246,363.58 305.503,364.673 302.605,365.151C299.707,365.629 293.541,366.759 288.904,367.663C271.381,371.078 257.586,372.007 243.246,370.739ZM268.755,357.08C274.289,356.497 281.719,355.406 285.266,354.656C288.813,353.907 294.627,352.806 298.187,352.21C301.747,351.615 307.394,350.335 310.737,349.366C314.079,348.397 317.807,347.598 319.019,347.59C322.094,347.57 328.479,346.026 336.33,343.406C340.001,342.181 345.971,340.218 349.597,339.045C353.222,337.872 357.965,335.883 360.136,334.625C362.307,333.366 366.296,331.622 369.001,330.748C371.706,329.874 375.5,327.987 377.433,326.553C379.365,325.12 382.394,323.415 384.164,322.765C385.935,322.115 389.084,320.131 391.163,318.356C393.242,316.581 396.609,314.189 398.645,313.04C404.931,309.492 413.137,299.792 423.102,284.13C424.648,281.7 426.782,278.681 427.845,277.42C428.907,276.16 429.777,274.726 429.777,274.234C429.777,273.742 430.787,271.948 432.022,270.248C434.261,267.166 438.58,257.808 438.021,257.25C437.741,256.969 430.682,260.226 426.966,262.35C419.873,266.405 402.461,273.128 399.053,273.128C398.074,273.128 394.47,274.09 391.045,275.266C387.62,276.442 382.309,277.691 379.242,278.04C371.405,278.934 357.545,281.948 353.086,283.728C333.512,291.542 321.543,293.853 294.765,294.993C279.684,295.634 276.964,295.565 265.419,294.251C258.421,293.454 251.244,292.477 249.471,292.079C247.698,291.682 240.827,291.06 234.202,290.696C221.462,289.997 219.173,289.502 210.212,285.507C207.121,284.128 203.168,282.805 201.43,282.567C194.445,281.61 186.055,278.278 169.213,269.772C161.924,266.091 150.892,256.713 147.385,251.217C146.322,249.55 143.958,246.447 142.133,244.321C140.307,242.196 137.369,238.014 135.603,235.027L132.392,229.597L129.848,232.919C125.275,238.892 111.98,251.649 108.334,253.563C106.402,254.578 102.133,256.83 98.849,258.567C95.564,260.305 90.505,262.278 87.607,262.951C84.709,263.625 80.855,264.609 79.044,265.139C74.8,266.38 73.522,266.352 71.558,264.977C70.674,264.358 69.809,263.993 69.636,264.166C68.227,265.575 78.723,279.775 83.779,283.299C89.66,287.399 94.489,291.342 96.134,293.388C98.224,295.986 105.551,302.048 109.661,304.578C111.379,305.636 115.104,308.083 117.937,310.015C120.77,311.947 126.406,315.207 130.46,317.26C134.515,319.313 140.206,322.815 143.107,325.043C148.327,329.049 153.517,332.192 160.327,335.468C162.259,336.397 164.947,337.776 166.299,338.531C173.87,342.759 181.803,345.864 190.188,347.881C194.245,348.857 199.446,350.129 201.744,350.707C204.043,351.285 208.944,352.113 212.635,352.546C216.326,352.979 222.824,353.978 227.075,354.764C235.653,356.352 248.892,357.921 254.828,358.054C256.953,358.102 263.22,357.664 268.755,357.08Z" style="fill-rule:nonzero;"/>
        </g>
    </g>
</svg>
