<?xml version="1.0" encoding="UTF-8" standalone="no"?>
<!DOCTYPE svg PUBLIC "-//W3C//DTD SVG 1.1//EN" "http://www.w3.org/Graphics/SVG/1.1/DTD/svg11.dtd">
<svg width="100%" height="100%" viewBox="0 0 512 512" version="1.1" xmlns="http://www.w3.org/2000/svg" xmlns:xlink="http://www.w3.org/1999/xlink" xml:space="preserve" xmlns:serif="http://www.serif.com/" style="fill-rule:evenodd;clip-rule:evenodd;stroke-linejoin:round;stroke-miterlimit:2;">
    <g transform="matrix(1.64975,0.254344,-0.254344,1.64975,-91.2028,-228.842)">
        <path d="M345.947,195.624C345.947,195.624 317.531,212.801 312.931,227.294C310.1,236.215 308.754,242.362 309.19,246.726C309.594,250.775 310.037,258.102 315.619,270.578C327.473,297.073 331.724,313.123 332.404,316.843C333.49,322.782 333.761,328.744 333.279,333.516C332.903,337.237 329.928,345.172 325.008,350.922C318.738,358.248 315.938,362.351 315.424,365.37C315.424,365.37 319.135,365.942 319.583,366.02C321.827,366.412 338.648,357.017 350.157,344.049C353.096,340.738 357.218,335.064 358.464,328.983C359.118,325.788 359.111,325.154 359.114,318.598C359.118,309.381 336.756,258.31 334.848,254.142C333.834,251.926 332.537,238.623 333.14,235.252C333.41,233.738 334.727,224.976 339.186,216.806C344.623,206.844 351.229,196.092 351.229,196.092L345.947,195.624ZM356.667,197.193C391.06,206.229 409.122,251.1 396.975,297.333C384.829,343.565 347.044,373.763 312.651,364.727C278.258,355.691 260.196,310.82 272.343,264.588C284.489,218.356 322.274,188.157 356.667,197.193Z"/>
    </g>
    <g transform="matrix(1.36231,-0.964616,0.964616,1.36231,-605.806,300.433)">
        <path d="M345.947,195.624C345.947,195.624 317.531,212.801 312.931,227.294C310.1,236.215 308.754,242.362 309.19,246.726C309.594,250.775 310.037,258.102 315.619,270.578C327.473,297.073 331.724,313.123 332.404,316.843C333.49,322.782 333.761,328.744 333.279,333.516C332.903,337.237 329.928,345.172 325.008,350.922C318.738,358.248 315.938,362.351 315.424,365.37C315.424,365.37 319.135,365.942 319.583,366.02C321.827,366.412 338.648,357.017 350.157,344.049C353.096,340.738 357.218,335.064 358.464,328.983C359.118,325.788 359.111,325.154 359.114,318.598C359.118,309.381 336.756,258.31 334.848,254.142C333.834,251.926 332.537,238.623 333.14,235.252C333.41,233.738 334.727,224.976 339.186,216.806C344.623,206.844 351.229,196.092 351.229,196.092L345.947,195.624ZM356.667,197.193C391.06,206.229 409.122,251.1 396.975,297.333C384.829,343.565 347.044,373.763 312.651,364.727C278.258,355.691 260.196,310.82 272.343,264.588C284.489,218.356 322.274,188.157 356.667,197.193Z"/>
    </g>
    <g transform="matrix(-1.15949,-0.656311,0.656311,-1.15949,442.179,658.566)">
        <path d="M345.947,195.624C345.947,195.624 317.531,212.801 312.931,227.294C310.1,236.215 308.754,242.362 309.19,246.726C309.594,250.775 310.037,258.102 315.619,270.578C327.473,297.073 331.724,313.123 332.404,316.843C333.49,322.782 333.761,328.744 333.279,333.516C332.903,337.237 329.928,345.172 325.008,350.922C318.738,358.248 315.938,362.351 315.424,365.37C315.424,365.37 319.135,365.942 319.583,366.02C321.827,366.412 338.648,357.017 350.157,344.049C353.096,340.738 357.218,335.064 358.464,328.983C359.118,325.788 359.111,325.154 359.114,318.598C359.118,309.381 336.756,258.31 334.848,254.142C333.834,251.926 332.537,238.623 333.14,235.252C333.41,233.738 334.727,224.976 339.186,216.806C344.623,206.844 351.229,196.092 351.229,196.092L345.947,195.624ZM356.667,197.193C391.06,206.229 409.122,251.1 396.975,297.333C384.829,343.565 347.044,373.763 312.651,364.727C278.258,355.691 260.196,310.82 272.343,264.588C284.489,218.356 322.274,188.157 356.667,197.193Z"/>
    </g>
</svg>
