<?xml version="1.0" encoding="UTF-8" standalone="no"?>
<!DOCTYPE svg PUBLIC "-//W3C//DTD SVG 1.1//EN" "http://www.w3.org/Graphics/SVG/1.1/DTD/svg11.dtd">
<svg width="100%" height="100%" viewBox="0 0 512 512" version="1.1" xmlns="http://www.w3.org/2000/svg" xmlns:xlink="http://www.w3.org/1999/xlink" xml:space="preserve" xmlns:serif="http://www.serif.com/" style="fill-rule:evenodd;clip-rule:evenodd;stroke-linejoin:round;stroke-miterlimit:2;">
    <g transform="matrix(0.982726,0,0,0.982726,4.4222,4.42189)">
        <g>
            <path d="M488.391,195.397L488.391,161.599C488.391,152.154 480.707,144.47 471.262,144.47L457.067,144.47C448.899,103.96 416.485,67.479 364.896,41.067C353.8,35.387 338.18,37.034 330.078,44.738C311.31,62.579 253.924,104.076 126.719,104.076L124.3,104.076C85.998,104.076 55.102,121.222 48.75,144.47L40.736,144.47C31.291,144.47 23.607,152.154 23.607,161.599L23.607,195.397C10.317,197.07 0,208.436 0,222.173L0,335.137C0,411.88 62.434,474.314 139.177,474.314L372.823,474.314C449.566,474.314 512,411.88 512,335.137L512,222.173C512,208.436 501.682,197.07 488.391,195.397ZM124.3,121.872L126.718,121.872C184.022,121.872 234.096,113.739 275.548,97.699C309.9,84.407 330.829,68.577 342.337,57.636C344.482,55.599 351.962,54.44 356.785,56.908C401.842,79.974 430.575,110.768 438.841,144.471L68.064,144.471C75.321,132.554 96.421,121.872 124.3,121.872ZM494.204,335.137C494.204,402.066 439.753,456.518 372.823,456.518L139.177,456.518C72.246,456.517 17.796,402.066 17.796,335.137L17.796,222.173C17.796,217.1 21.923,212.974 26.997,212.974L75.712,212.974C80.627,212.974 84.61,208.99 84.61,204.076C84.61,199.162 80.627,195.178 75.712,195.178L41.404,195.178L41.404,162.267L470.594,162.267L470.594,195.178L75.712,195.178C70.797,195.178 66.814,199.162 66.814,204.076C66.814,208.99 70.797,212.974 75.712,212.974L485.003,212.974C490.076,212.974 494.204,217.102 494.204,222.173L494.204,335.137Z" style="fill-rule:nonzero;"/>
        </g>
    </g>
    <g transform="matrix(0.982726,0,0,0.982726,4.4222,4.42189)">
        <g>
            <path d="M401.411,260.264L110.589,260.264C105.674,260.264 101.691,264.247 101.691,269.162L101.691,364.534C101.691,369.449 105.674,373.432 110.589,373.432L401.412,373.432C406.327,373.432 410.31,369.449 410.31,364.534L410.31,269.162C410.309,264.247 406.325,260.264 401.411,260.264ZM392.514,355.636L119.487,355.636L119.487,278.06L392.514,278.06L392.514,355.636Z" style="fill-rule:nonzero;"/>
        </g>
    </g>
</svg>
