<?xml version="1.0" encoding="UTF-8" standalone="no"?>
<!DOCTYPE svg PUBLIC "-//W3C//DTD SVG 1.1//EN" "http://www.w3.org/Graphics/SVG/1.1/DTD/svg11.dtd">
<svg width="100%" height="100%" viewBox="0 0 512 512" version="1.1" xmlns="http://www.w3.org/2000/svg" xmlns:xlink="http://www.w3.org/1999/xlink" xml:space="preserve" xmlns:serif="http://www.serif.com/" style="fill-rule:evenodd;clip-rule:evenodd;stroke-linecap:round;stroke-linejoin:round;stroke-miterlimit:1.5;">
    <g transform="matrix(1.06974,0,0,1.06974,-2.92404,-21.1347)">
        <path d="M27.796,101.762C38.002,120.987 38.475,127.619 45.712,139.679C53.538,152.722 97.845,198.765 103.916,205.331C109.986,211.897 245.178,351.867 258.029,364.624C271.428,377.925 332.822,439.248 343.257,449.598C353.692,459.949 373.373,474.6 384.148,479.787C394.274,484.661 411.797,490.619 428.124,486.927C438.178,484.653 447.18,479.595 454.046,474.595C457.935,471.763 466.38,462.066 469.513,456.719C473.392,450.098 475.634,440.099 474.919,430.949C474.431,424.701 469.981,412.637 466.541,403.886C463.179,395.336 453.916,381.067 450.34,375.883C446.764,370.699 375.522,289.097 369.073,282.331C362.624,275.565 255.164,160.153 246.657,151.131C238.149,142.109 201.251,110.211 196.438,106.545C191.375,102.689 166.832,83.791 159.559,79.376C152.287,74.96 142.77,67.515 131.454,61.338C113.323,51.441 113.158,54.136 78.782,46.334C57.463,41.496 42.587,17.125 18.793,39.108C-6.93,62.874 26.17,98.699 27.796,101.762Z" style="fill:none;stroke:black;stroke-width:6.27px;"/>
    </g>
    <g transform="matrix(1.06974,0,0,1.06974,-2.92404,-21.1347)">
        <path d="M15.853,42.18C15.853,42.18 20.571,61.157 29.066,76.389C34.747,86.575 40.953,93.211 43.858,97.86C51.601,110.251 53.173,122.029 63.307,134.043C70.43,142.487 146.707,234.493 149.977,236.424C153.246,238.355 279.872,372.158 286.601,379.286C293.029,386.094 364.557,458.179 377.458,465.651C379.963,467.101 401.008,478.799 406.699,480.542C412.224,482.234 426.16,484.328 435.928,484.566" style="fill:none;stroke:black;stroke-width:2.8px;"/>
    </g>
    <g transform="matrix(1.06974,0,0,1.06974,-2.92404,-21.1347)">
        <path d="M18.793,39.108C18.793,39.108 23.062,48.285 28.807,56.388C36.35,67.026 46.732,79.868 50.726,83.774C67.963,100.634 69.156,114.542 80.305,127.278C86.998,134.923 151.437,204.41 157.479,209.854C163.52,215.299 253.04,308.536 258.492,313.941C263.944,319.346 349.908,406.752 354.719,411.82C359.269,416.614 385.617,442.078 391.598,446.101C393.881,447.637 413.542,462.716 426.339,467.796C434.537,471.05 458.126,474.047 456.23,472.747" style="fill:none;stroke:black;stroke-width:2.8px;"/>
    </g>
    <g transform="matrix(1.06974,0,0,1.06974,-2.92404,-21.1347)">
        <path d="M20.385,37.691C20.542,37.436 54.014,62.204 74.137,82.318C86.616,94.792 100.791,108.42 113.544,120.537C133.225,139.236 149.519,154.334 150.961,156.025C155.345,161.164 256.243,259.959 262.573,265.907C268.904,271.855 348.967,355.194 355.83,361.401C362.692,367.608 432.725,440.859 438.571,445.665C444.416,450.47 459.078,469.9 459.078,469.9" style="fill:none;stroke:black;stroke-width:2.8px;"/>
    </g>
    <g transform="matrix(1.06974,0,0,1.06974,-2.92404,-21.1347)">
        <path d="M25.241,34.077C25.668,33.824 34.178,40.974 43.156,46.846C50.189,51.446 60.053,56.173 66.35,58.958C71.619,61.289 85.881,65.892 94.022,69.14C112.353,76.452 120.381,85.954 125.012,89.211C129.923,92.665 149.991,109.01 153.354,111.485C156.698,113.947 168.063,123.058 172.823,126.798C181.129,133.325 245.724,193.212 254.143,202.14C262.584,211.091 347.343,301.036 353.917,307.07C360.492,313.103 430.944,392.76 435.751,398.355C440.557,403.951 447.91,413.567 449.896,418.176C451.882,422.784 456.619,429.908 457.882,434.901C459.145,439.894 462.125,450.688 462.528,454.39C462.892,457.734 462.498,462.699 461.535,467.205" style="fill:none;stroke:black;stroke-width:2.8px;"/>
    </g>
    <g transform="matrix(1.42396,-1.48593,1.27324,1.22014,-15.3914,31.0612)">
        <ellipse cx="15.513" cy="11.841" rx="5.602" ry="2.526"/>
    </g>
</svg>
