<?xml version="1.0" encoding="utf-8"?>
<!-- Generator: Adobe Adobe Illustrator 24.2.0, SVG Export Plug-In . SVG Version: 6.00 Build 0)  -->
<svg version="1.1" id="Ebene_1" xmlns="http://www.w3.org/2000/svg" xmlns:xlink="http://www.w3.org/1999/xlink" x="0px" y="0px"
	 width="512px" height="512px" viewBox="0 0 512 512" style="enable-background:new 0 0 512 512;" xml:space="preserve">
<style type="text/css">
	.st0{fill:none;stroke:#000000;stroke-width:30;stroke-miterlimit:10;}
</style>
<g>
	<path d="M205.83,512c-34.35,0-64.18-4.01-86.27-11.58c-36.24-12.43-44.48-32.05-44.83-46.68L35.24,73.79
		c-0.48-2.18-0.74-4.45-0.74-6.83c0-22.2,21.47-39.57,63.82-51.63C133.06,5.45,178.94,0,227.51,0l0.13,0
		c80.68,0.63,116.39,18.11,128,25.59c4.7,3.03,9.15,6.24,13.46,9.34c18.12,13.04,38.66,27.82,91.98,38.31
		c8.26,1.62,14.19,8.93,14.1,17.37c-0.09,8.62-6.28,15.95-14.72,17.44c-2.95,0.52-8.4,1.65-14.71,2.96
		c-19.58,4.06-50.8,10.54-75.31,13.07l-33.51,329.62c-0.34,14.64-8.57,34.27-44.82,46.7C270.02,507.99,240.18,512,205.83,512z
		 M72.77,109.57l35.58,342.31v0.87c0,8.93,28.59,25.61,97.48,25.61c68.89,0,97.48-16.68,97.48-25.61v-0.85l0.09-0.85l33.02-324.82
		c-2.25,0.2-4.6,0.42-7.02,0.64c-30.64,2.81-76.94,7.05-101.89,7.05C164.86,133.92,107.44,124.74,72.77,109.57z M77.67,74.47
		l0.09,0.05c27.08,15.65,85.85,25.76,149.74,25.76c23.41,0,68.79-4.16,98.82-6.91c13.73-1.26,23.65-2.17,28.08-2.37l16.16-0.75
		c6.54-0.76,13.61-1.81,20.78-3c-18.76-8.36-31.05-17.21-41.89-25.01c-4.15-2.99-8.07-5.81-12.05-8.37
		c-5.08-3.27-34.23-19.63-109.97-20.23c-42.55,0-83.12,4.45-114.26,12.51c-31.78,8.23-42.84,17.43-44.85,20.78
		C69.03,68,71.26,70.75,77.67,74.47z"/>
</g>
</svg>
