<?xml version="1.0" encoding="UTF-8" standalone="no"?>
<!DOCTYPE svg PUBLIC "-//W3C//DTD SVG 1.1//EN" "http://www.w3.org/Graphics/SVG/1.1/DTD/svg11.dtd">
<svg width="100%" height="100%" viewBox="0 0 512 512" version="1.1" xmlns="http://www.w3.org/2000/svg" xmlns:xlink="http://www.w3.org/1999/xlink" xml:space="preserve" xmlns:serif="http://www.serif.com/" style="fill-rule:evenodd;clip-rule:evenodd;stroke-linecap:round;stroke-linejoin:round;stroke-miterlimit:1.5;">
    <g transform="matrix(1.07523,-0.177162,0.177162,1.07523,-153.012,-15.2388)">
        <path d="M127.132,185.51C133.061,176.872 143.17,169.839 154.101,165.705C165.033,161.571 176.378,162.224 184.068,160.402C191.757,158.579 209.327,154.47 217.781,152.882C226.234,151.295 233.375,152.823 239.268,151.797C245.161,150.77 258.406,147.61 267.16,148.984C298.147,153.85 315.271,158.636 332.63,168.657C342.113,174.131 349.092,176.585 352.747,183.579C356.403,190.573 359.026,195.308 357.21,199.997C355.393,204.685 356.937,217.221 354.202,221.559C349.992,228.236 341.736,236.059 335.938,239.464C330.141,242.869 311.286,253.115 302.558,256.556C293.831,259.997 278.173,264.295 267.498,266.984C256.823,269.673 241.709,271.533 227.121,272.616C212.533,273.698 208.96,274.989 195.311,274.748C181.663,274.507 167.277,276.261 158.641,273.306C148.657,269.891 129.754,268.918 125.47,260.575C121.187,252.232 122.531,247.061 122.087,241.311C121.643,235.561 116.972,235.117 116.339,228.488C115.706,221.86 114.337,211.695 116.734,205.93C119.131,200.165 121.203,194.148 127.132,185.51Z" style="fill:none;stroke:black;stroke-width:9.33px;"/>
        <path d="M144.916,192.55C145.44,192.235 148.238,190.563 149.154,190.102C150.428,189.46 152.861,188.932 155.327,188.628C157.745,188.33 160.203,188.239 161.645,188.595L168.123,189.05C171.642,189.742 175.888,192.767 179.971,194.145C182.206,194.899 184.401,195.201 186.442,194.684C189.946,193.797 194.619,191.517 199.337,190.33C202.121,189.631 204.921,189.308 207.457,190.071C208.29,190.325 209.172,189.855 209.426,189.022C209.679,188.189 209.209,187.307 208.376,187.053C206.029,186.33 203.491,186.322 200.915,186.733C195.423,187.61 189.736,190.477 185.642,191.487C184.187,191.845 182.634,191.539 181.046,190.992C176.83,189.54 172.429,186.442 168.793,185.703L162.483,185.244C160.757,184.807 157.811,184.817 154.91,185.156C151.973,185.499 149.091,186.18 147.57,186.935C146.458,187.487 143.833,188.962 142.82,189.647C141.266,190.698 141.872,192.356 142.023,192.553C142.238,192.833 142.712,193.363 143.714,193.242C144.211,193.181 144.635,192.92 144.916,192.55Z"/>
        <path d="M194.78,208.789C196.795,208.38 199.408,207.729 201.935,207.359C203.52,207.128 205.067,207.001 206.377,207.161C209.118,207.497 212.364,208.26 215.503,209.321C218.614,210.372 221.623,211.712 223.917,213.233C225.801,214.483 227.644,216.276 229.648,217.511C230.694,218.156 231.782,218.661 232.926,218.93C237.083,219.904 242.662,219.103 249.419,219.92C251.5,220.171 253.698,220.585 256.006,221.276C256.864,221.535 257.771,221.048 258.03,220.19C258.289,219.332 257.802,218.425 256.944,218.166C254.45,217.406 252.072,216.945 249.821,216.661C243.221,215.83 237.761,216.628 233.702,215.655C232.905,215.464 232.156,215.091 231.43,214.638C229.462,213.411 227.662,211.63 225.812,210.39C223.307,208.711 220.024,207.21 216.621,206.041C213.249,204.882 209.76,204.049 206.813,203.673C205.228,203.471 203.352,203.585 201.431,203.856C198.835,204.222 196.149,204.873 194.079,205.282C193.111,205.475 192.482,206.418 192.676,207.386C192.869,208.354 193.812,208.982 194.78,208.789Z"/>
        <path d="M137.496,221.552L137.484,221.555C137.247,221.627 137.05,221.723 136.845,221.863L136.506,222.134C127.993,227.184 124.278,231.099 125.071,231.959C124.11,233.132 125.003,232.996 127.566,231.649C129.776,230.794 133.381,228.756 138.331,225.197L138.928,224.82C139.835,224.242 142.564,222.365 144.029,222.128C146.2,221.783 148.241,221.616 150.279,221.632C152.337,221.649 154.39,221.848 156.566,222.19C162.03,223.113 168.095,225.743 174.057,226.598C176.85,226.999 179.622,227.028 182.319,226.378C185.457,225.63 190.136,223.507 194.648,222.39C197.348,221.721 199.976,221.388 202.051,222.214C203.003,222.579 204.072,222.103 204.437,221.151C204.802,220.199 204.326,219.13 203.375,218.765C201.237,217.975 198.688,217.979 196.004,218.496C190.872,219.484 185.186,222.325 181.544,223.279C179.246,223.874 176.87,223.882 174.475,223.565C168.535,222.778 162.497,220.14 157.057,219.246C154.736,218.837 152.544,218.6 150.344,218.527C148.137,218.453 145.922,218.551 143.561,218.85C141.927,219.053 138.919,220.726 137.496,221.552Z"/>
        <path d="M193.782,243.638C194.149,243.02 195.036,242.552 196,242.072C197.783,241.183 199.885,240.44 201.166,239.776C203.621,238.525 207.396,237.451 211.216,237.045C214.908,236.652 218.646,236.855 221.181,238.132C222.911,239.032 225.457,239.727 228.089,240.088C230.623,240.436 233.234,240.456 235.269,240.085C238.85,239.392 243.827,237.071 248.267,236.042C250.023,235.634 251.673,235.34 253.118,235.752C253.98,236.039 254.912,235.573 255.199,234.712C255.487,233.85 255.02,232.917 254.159,232.63C252.227,231.89 249.914,231.85 247.477,232.319C243.01,233.178 238.121,235.783 234.556,236.519C232.849,236.891 230.644,236.927 228.496,236.705C226.266,236.474 224.093,235.987 222.61,235.275C219.619,233.79 215.238,233.492 210.892,233.934C206.647,234.365 202.44,235.48 199.692,236.828C198.173,237.56 195.537,238.369 193.576,239.407C192.292,240.086 191.282,240.906 190.736,241.764C190.219,242.605 190.481,243.707 191.322,244.224C192.163,244.741 193.265,244.479 193.782,243.638Z"/>
        <path d="M251.947,251.78L255.536,247.578C257.144,246.747 260.264,244.694 263.283,243.493C264.997,242.812 266.645,242.292 267.803,242.858C269.606,243.945 271.731,244.503 274.024,244.754C276.871,245.067 279.961,244.821 282.869,244.921C284.617,244.969 286.676,245.193 288.538,244.988C289.605,244.871 290.61,244.6 291.514,244.174C295.025,242.335 299.433,239.94 304.769,237.824C307.569,236.713 310.58,235.59 313.963,234.849C314.806,234.722 315.387,233.934 315.259,233.091C315.132,232.248 314.343,231.667 313.501,231.794C308.793,232.203 304.569,233.132 300.844,234.44C296.233,236.06 292.454,238.201 289.296,239.737C288.705,240.05 288.007,240.188 287.277,240.26C285.8,240.405 284.228,240.323 282.869,240.361C279.088,240.579 275.051,241.418 271.564,240.852C270.718,240.715 269.911,240.487 269.162,240.14C267.731,239.409 265.786,239.46 263.686,240.051C260.114,241.055 255.988,243.604 254.024,244.555C253.601,244.758 252.894,245.347 252.129,246.142C251.114,247.197 249.906,248.644 249.165,249.532C248.545,250.299 248.664,251.426 249.432,252.047C250.199,252.667 251.326,252.548 251.947,251.78Z"/>
        <path d="M283.514,227.809C284.423,228.499 287.419,225.882 288.055,225.704L294.303,223.506C295.507,223.116 296.899,223.015 298.36,223.086C302.023,223.266 306.048,224.381 309.131,224.502C312.13,224.606 314.781,224.265 317.268,223.576C320.956,222.554 324.239,220.803 328.05,219.47L338.012,217.475C338.836,217.405 339.449,216.678 339.378,215.853C339.307,215.028 338.58,214.416 337.756,214.486C336.166,214.533 333.645,214.602 331.288,214.818C329.553,214.976 327.917,215.242 326.751,215.572C322.966,216.771 319.643,218.224 316.037,219.302C313.916,219.936 311.703,220.498 309.131,220.588C306.092,220.707 302.052,220.024 298.437,220.02C296.601,220.017 294.861,220.155 293.358,220.67L287.274,222.582C286.418,222.771 282.506,224.007 281.236,224.953C280.247,225.69 280.136,226.625 280.254,227.244C280.468,228.208 281.423,228.817 282.387,228.604C282.873,228.496 283.268,228.2 283.514,227.809Z"/>
        <path d="M249.441,210.456L256.238,205.857C257.692,205.546 259.961,204.365 262.143,203.723C263.223,203.405 264.269,203.158 265.076,203.551C267.921,205.017 271.278,206.161 274.745,207.008C278.138,207.837 281.639,208.369 284.924,208.468C286.37,208.447 287.757,208.289 289.104,208.023C294.163,207.024 298.606,204.537 303.879,204.423L312.902,202.519C313.596,202.371 314.04,201.687 313.892,200.993C313.744,200.298 313.06,199.855 312.366,200.003L303.879,201.387C302.456,201.351 301.081,201.472 299.732,201.692C294.798,202.494 290.28,204.751 284.924,204.65C281.28,204.766 277.295,204.407 273.561,203.488C270.991,202.855 268.552,201.947 266.407,200.889C265.295,200.319 263.915,200.253 262.439,200.518C260.013,200.955 257.261,202.385 255.606,202.693C255.008,202.801 253.913,203.316 252.663,204.058C250.887,205.112 248.697,206.624 247.352,207.553C246.551,208.129 246.368,209.247 246.945,210.049C247.521,210.85 248.64,211.032 249.441,210.456Z"/>
        <path d="M226.548,192.026C228.195,190.724 230.434,189.541 232.736,188.714C235.178,187.836 237.675,187.328 239.55,187.447C240.225,187.495 240.953,187.763 241.695,188.116C243.804,189.12 245.998,190.685 247.784,191.155C251.644,192.184 255.955,193.757 260.19,194.658C262.147,195.074 264.089,195.345 265.97,195.376C268.233,195.415 270.489,195.207 272.734,194.879C275.976,194.404 279.19,193.665 282.365,193.079C283.165,192.929 284.051,192.957 284.957,192.976C287.52,193.029 290.23,193.397 291.821,193.682C292.691,193.901 293.574,193.372 293.793,192.502C294.011,191.632 293.482,190.749 292.613,190.53C291.364,190.079 289.498,189.303 287.425,188.921C285.438,188.555 283.319,188.604 281.546,188.981C278.434,189.652 275.288,190.472 272.11,191.041C270.076,191.406 268.03,191.673 265.97,191.708C263.762,191.745 261.448,191.403 259.128,190.898C255.489,190.107 251.84,188.938 248.531,188.165C246.623,187.712 244.195,185.931 241.992,185.071C241.229,184.773 240.487,184.561 239.782,184.496C237.582,184.29 234.631,184.779 231.719,185.695C229.027,186.541 226.377,187.762 224.402,189.165C223.613,189.757 223.452,190.879 224.045,191.668C224.637,192.458 225.759,192.618 226.548,192.026Z"/>
        <path d="M327.58,190.963C327.762,190.985 329.028,191.139 329.873,191.267C331.422,191.502 333.117,191.668 334.272,191.863C335.15,192.114 336.067,191.604 336.318,190.725C336.568,189.846 336.058,188.93 335.179,188.679C333.639,188.104 331.173,187.111 329.209,186.815C327.533,186.562 326.151,186.919 325.379,187.445L325.408,187.481C325.749,188.33 322.711,187.769 321.903,187.996C319.835,188.583 317.54,188.516 315.231,188.127C311.429,187.485 307.611,186.042 304.559,185.108C301.518,184.097 299.434,181.197 296.311,179.498C294.944,178.754 293.41,178.197 291.573,178.025C289.193,177.788 287.002,177.757 284.926,177.975C282.603,178.22 280.428,178.8 278.299,179.787C277.415,180.225 277.052,181.298 277.489,182.183C277.927,183.068 279,183.431 279.885,182.993C281.621,182.08 283.414,181.506 285.345,181.209C287.208,180.923 289.187,180.875 291.344,180.993C292.743,181.078 293.928,181.45 294.974,181.999C298.272,183.73 300.471,186.752 303.655,187.818C306.77,188.944 310.664,190.595 314.567,191.484C317.401,192.129 320.24,192.346 322.849,191.781C323.596,191.618 325.154,191.714 326.143,191.533C326.738,191.424 327.22,191.207 327.58,190.963ZM325.379,187.445C325.239,187.537 325.12,187.637 325.023,187.739C325.104,187.654 325.292,187.382 325.379,187.445Z"/>
        <path d="M202.099,178.087C204.974,176.224 207.637,173.892 210.673,172.058C212.495,170.958 214.454,170.043 216.686,169.549C218.153,169.241 220.654,169.118 223.14,169.285C225.524,169.445 227.896,169.858 229.276,170.561C231.361,171.636 234.264,173.036 237.228,173.669C239.326,174.117 241.454,174.167 243.397,173.552L250.963,170.151C252.606,169.359 255.76,168.442 258.941,168.03C260.328,167.85 261.717,167.839 262.991,167.857C264.342,167.877 265.564,167.861 266.46,168.363C267.14,168.827 268.069,168.65 268.533,167.969C268.996,167.288 268.819,166.359 268.138,165.896C266.367,164.562 263.432,164.009 260.289,164.212C256.102,164.481 251.616,166.033 249.463,167.15L242.413,170.6C240.975,171.104 239.38,171.073 237.802,170.782C235.088,170.282 232.423,169.042 230.501,168.11C229.149,167.449 227.014,167.014 224.73,166.773C221.543,166.437 218.06,166.47 216.144,166.839C213.574,167.298 211.3,168.255 209.16,169.409C206.02,171.103 203.198,173.267 200.205,174.975C199.346,175.498 199.073,176.619 199.596,177.478C200.118,178.337 201.24,178.61 202.099,178.087Z"/>
        <path d="M144.693,249.248C145.089,249.108 146.536,248.605 146.97,248.493L158.6,246.369C161.213,245.699 164.081,245.876 166.924,246.471C171.491,247.428 175.992,249.463 179.395,251.139L185.12,252.478C186.547,253.181 188.107,253.436 189.75,253.384C194.781,253.224 200.69,249.67 205.001,251.078C205.75,251.328 206.561,250.922 206.811,250.173C207.061,249.423 206.655,248.612 205.906,248.362C201.354,246.814 195.007,250.224 189.671,250.329C188.548,250.352 187.478,250.195 186.508,249.702L180.814,248.301C177.223,246.478 172.463,244.281 167.628,243.207C164.267,242.461 160.869,242.266 157.763,243.023L146.1,245.01C145.314,245.201 143.475,245.577 142.412,246.378C141.523,247.048 141.025,247.954 141.068,249.073C141.113,250.078 141.965,250.858 142.971,250.813C143.861,250.773 144.575,250.1 144.693,249.248Z"/>
    </g>
    <g transform="matrix(-0.502388,-0.967007,0.967007,-0.502388,284.019,657.762)">
        <path d="M127.132,185.51C133.061,176.872 143.17,169.839 154.101,165.705C165.033,161.571 176.378,162.224 184.068,160.402C191.757,158.579 209.327,154.47 217.781,152.882C226.234,151.295 233.375,152.823 239.268,151.797C245.161,150.77 258.406,147.61 267.16,148.984C298.147,153.85 315.271,158.636 332.63,168.657C342.113,174.131 349.092,176.585 352.747,183.579C356.403,190.573 359.026,195.308 357.21,199.997C355.393,204.685 356.937,217.221 354.202,221.559C349.992,228.236 341.736,236.059 335.938,239.464C330.141,242.869 311.286,253.115 302.558,256.556C293.831,259.997 278.173,264.295 267.498,266.984C256.823,269.673 241.709,271.533 227.121,272.616C212.533,273.698 208.96,274.989 195.311,274.748C181.663,274.507 167.277,276.261 158.641,273.306C148.657,269.891 129.754,268.918 125.47,260.575C121.187,252.232 122.531,247.061 122.087,241.311C121.643,235.561 116.972,235.117 116.339,228.488C115.706,221.86 114.337,211.695 116.734,205.93C119.131,200.165 121.203,194.148 127.132,185.51Z" style="fill:none;stroke:black;stroke-width:9.33px;"/>
        <path d="M144.916,192.55C145.44,192.235 148.238,190.563 149.154,190.102C150.428,189.46 152.861,188.932 155.327,188.628C157.745,188.33 160.203,188.239 161.645,188.595L168.123,189.05C171.642,189.742 175.888,192.767 179.971,194.145C182.206,194.899 184.401,195.201 186.442,194.684C189.946,193.797 194.619,191.517 199.337,190.33C202.121,189.631 204.921,189.308 207.457,190.071C208.29,190.325 209.172,189.855 209.426,189.022C209.679,188.189 209.209,187.307 208.376,187.053C206.029,186.33 203.491,186.322 200.915,186.733C195.423,187.61 189.736,190.477 185.642,191.487C184.187,191.845 182.634,191.539 181.046,190.992C176.83,189.54 172.429,186.442 168.793,185.703L162.483,185.244C160.757,184.807 157.811,184.817 154.91,185.156C151.973,185.499 149.091,186.18 147.57,186.935C146.458,187.487 143.833,188.962 142.82,189.647C141.266,190.698 141.872,192.356 142.023,192.553C142.238,192.833 142.712,193.363 143.714,193.242C144.211,193.181 144.635,192.92 144.916,192.55Z"/>
        <path d="M194.78,208.789C196.795,208.38 199.408,207.729 201.935,207.359C203.52,207.128 205.067,207.001 206.377,207.161C209.118,207.497 212.364,208.26 215.503,209.321C218.614,210.372 221.623,211.712 223.917,213.233C225.801,214.483 227.644,216.276 229.648,217.511C230.694,218.156 231.782,218.661 232.926,218.93C237.083,219.904 242.662,219.103 249.419,219.92C251.5,220.171 253.698,220.585 256.006,221.276C256.864,221.535 257.771,221.048 258.03,220.19C258.289,219.332 257.802,218.425 256.944,218.166C254.45,217.406 252.072,216.945 249.821,216.661C243.221,215.83 237.761,216.628 233.702,215.655C232.905,215.464 232.156,215.091 231.43,214.638C229.462,213.411 227.662,211.63 225.812,210.39C223.307,208.711 220.024,207.21 216.621,206.041C213.249,204.882 209.76,204.049 206.813,203.673C205.228,203.471 203.352,203.585 201.431,203.856C198.835,204.222 196.149,204.873 194.079,205.282C193.111,205.475 192.482,206.418 192.676,207.386C192.869,208.354 193.812,208.982 194.78,208.789Z"/>
        <path d="M137.496,221.552L137.484,221.555C137.247,221.627 137.05,221.723 136.845,221.863L136.506,222.134C127.993,227.184 124.278,231.099 125.071,231.959C124.11,233.132 125.003,232.996 127.566,231.649C129.776,230.794 133.381,228.756 138.331,225.197L138.928,224.82C139.835,224.242 142.564,222.365 144.029,222.128C146.2,221.783 148.241,221.616 150.279,221.632C152.337,221.649 154.39,221.848 156.566,222.19C162.03,223.113 168.095,225.743 174.057,226.598C176.85,226.999 179.622,227.028 182.319,226.378C185.457,225.63 190.136,223.507 194.648,222.39C197.348,221.721 199.976,221.388 202.051,222.214C203.003,222.579 204.072,222.103 204.437,221.151C204.802,220.199 204.326,219.13 203.375,218.765C201.237,217.975 198.688,217.979 196.004,218.496C190.872,219.484 185.186,222.325 181.544,223.279C179.246,223.874 176.87,223.882 174.475,223.565C168.535,222.778 162.497,220.14 157.057,219.246C154.736,218.837 152.544,218.6 150.344,218.527C148.137,218.453 145.922,218.551 143.561,218.85C141.927,219.053 138.919,220.726 137.496,221.552Z"/>
        <path d="M193.782,243.638C194.149,243.02 195.036,242.552 196,242.072C197.783,241.183 199.885,240.44 201.166,239.776C203.621,238.525 207.396,237.451 211.216,237.045C214.908,236.652 218.646,236.855 221.181,238.132C222.911,239.032 225.457,239.727 228.089,240.088C230.623,240.436 233.234,240.456 235.269,240.085C238.85,239.392 243.827,237.071 248.267,236.042C250.023,235.634 251.673,235.34 253.118,235.752C253.98,236.039 254.912,235.573 255.199,234.712C255.487,233.85 255.02,232.917 254.159,232.63C252.227,231.89 249.914,231.85 247.477,232.319C243.01,233.178 238.121,235.783 234.556,236.519C232.849,236.891 230.644,236.927 228.496,236.705C226.266,236.474 224.093,235.987 222.61,235.275C219.619,233.79 215.238,233.492 210.892,233.934C206.647,234.365 202.44,235.48 199.692,236.828C198.173,237.56 195.537,238.369 193.576,239.407C192.292,240.086 191.282,240.906 190.736,241.764C190.219,242.605 190.481,243.707 191.322,244.224C192.163,244.741 193.265,244.479 193.782,243.638Z"/>
        <path d="M251.947,251.78L255.536,247.578C257.144,246.747 260.264,244.694 263.283,243.493C264.997,242.812 266.645,242.292 267.803,242.858C269.606,243.945 271.731,244.503 274.024,244.754C276.871,245.067 279.961,244.821 282.869,244.921C284.617,244.969 286.676,245.193 288.538,244.988C289.605,244.871 290.61,244.6 291.514,244.174C295.025,242.335 299.433,239.94 304.769,237.824C307.569,236.713 310.58,235.59 313.963,234.849C314.806,234.722 315.387,233.934 315.259,233.091C315.132,232.248 314.343,231.667 313.501,231.794C308.793,232.203 304.569,233.132 300.844,234.44C296.233,236.06 292.454,238.201 289.296,239.737C288.705,240.05 288.007,240.188 287.277,240.26C285.8,240.405 284.228,240.323 282.869,240.361C279.088,240.579 275.051,241.418 271.564,240.852C270.718,240.715 269.911,240.487 269.162,240.14C267.731,239.409 265.786,239.46 263.686,240.051C260.114,241.055 255.988,243.604 254.024,244.555C253.601,244.758 252.894,245.347 252.129,246.142C251.114,247.197 249.906,248.644 249.165,249.532C248.545,250.299 248.664,251.426 249.432,252.047C250.199,252.667 251.326,252.548 251.947,251.78Z"/>
        <path d="M283.514,227.809C284.423,228.499 287.419,225.882 288.055,225.704L294.303,223.506C295.507,223.116 296.899,223.015 298.36,223.086C302.023,223.266 306.048,224.381 309.131,224.502C312.13,224.606 314.781,224.265 317.268,223.576C320.956,222.554 324.239,220.803 328.05,219.47L338.012,217.475C338.836,217.405 339.449,216.678 339.378,215.853C339.307,215.028 338.58,214.416 337.756,214.486C336.166,214.533 333.645,214.602 331.288,214.818C329.553,214.976 327.917,215.242 326.751,215.572C322.966,216.771 319.643,218.224 316.037,219.302C313.916,219.936 311.703,220.498 309.131,220.588C306.092,220.707 302.052,220.024 298.437,220.02C296.601,220.017 294.861,220.155 293.358,220.67L287.274,222.582C286.418,222.771 282.506,224.007 281.236,224.953C280.247,225.69 280.136,226.625 280.254,227.244C280.468,228.208 281.423,228.817 282.387,228.604C282.873,228.496 283.268,228.2 283.514,227.809Z"/>
        <path d="M249.441,210.456L256.238,205.857C257.692,205.546 259.961,204.365 262.143,203.723C263.223,203.405 264.269,203.158 265.076,203.551C267.921,205.017 271.278,206.161 274.745,207.008C278.138,207.837 281.639,208.369 284.924,208.468C286.37,208.447 287.757,208.289 289.104,208.023C294.163,207.024 298.606,204.537 303.879,204.423L312.902,202.519C313.596,202.371 314.04,201.687 313.892,200.993C313.744,200.298 313.06,199.855 312.366,200.003L303.879,201.387C302.456,201.351 301.081,201.472 299.732,201.692C294.798,202.494 290.28,204.751 284.924,204.65C281.28,204.766 277.295,204.407 273.561,203.488C270.991,202.855 268.552,201.947 266.407,200.889C265.295,200.319 263.915,200.253 262.439,200.518C260.013,200.955 257.261,202.385 255.606,202.693C255.008,202.801 253.913,203.316 252.663,204.058C250.887,205.112 248.697,206.624 247.352,207.553C246.551,208.129 246.368,209.247 246.945,210.049C247.521,210.85 248.64,211.032 249.441,210.456Z"/>
        <path d="M226.548,192.026C228.195,190.724 230.434,189.541 232.736,188.714C235.178,187.836 237.675,187.328 239.55,187.447C240.225,187.495 240.953,187.763 241.695,188.116C243.804,189.12 245.998,190.685 247.784,191.155C251.644,192.184 255.955,193.757 260.19,194.658C262.147,195.074 264.089,195.345 265.97,195.376C268.233,195.415 270.489,195.207 272.734,194.879C275.976,194.404 279.19,193.665 282.365,193.079C283.165,192.929 284.051,192.957 284.957,192.976C287.52,193.029 290.23,193.397 291.821,193.682C292.691,193.901 293.574,193.372 293.793,192.502C294.011,191.632 293.482,190.749 292.613,190.53C291.364,190.079 289.498,189.303 287.425,188.921C285.438,188.555 283.319,188.604 281.546,188.981C278.434,189.652 275.288,190.472 272.11,191.041C270.076,191.406 268.03,191.673 265.97,191.708C263.762,191.745 261.448,191.403 259.128,190.898C255.489,190.107 251.84,188.938 248.531,188.165C246.623,187.712 244.195,185.931 241.992,185.071C241.229,184.773 240.487,184.561 239.782,184.496C237.582,184.29 234.631,184.779 231.719,185.695C229.027,186.541 226.377,187.762 224.402,189.165C223.613,189.757 223.452,190.879 224.045,191.668C224.637,192.458 225.759,192.618 226.548,192.026Z"/>
        <path d="M325.379,187.445C325.292,187.382 325.104,187.654 325.023,187.739C325.12,187.637 325.239,187.537 325.379,187.445L325.408,187.481C325.749,188.33 322.711,187.769 321.903,187.996C319.835,188.583 317.54,188.516 315.231,188.127C311.429,187.485 307.611,186.042 304.559,185.108C301.518,184.097 299.434,181.197 296.311,179.498C294.944,178.754 293.41,178.197 291.573,178.025C289.193,177.788 287.002,177.757 284.926,177.975C282.603,178.22 280.428,178.8 278.299,179.787C277.415,180.225 277.052,181.298 277.489,182.183C277.927,183.068 279,183.431 279.885,182.993C281.621,182.08 283.414,181.506 285.345,181.209C287.208,180.923 289.187,180.875 291.344,180.993C292.743,181.078 293.928,181.45 294.974,181.999C298.272,183.73 300.471,186.752 303.655,187.818C306.77,188.944 310.664,190.595 314.567,191.484C317.401,192.129 320.24,192.346 322.849,191.781C323.596,191.618 325.154,191.714 326.143,191.533C326.738,191.424 327.22,191.207 327.58,190.963C327.762,190.985 329.028,191.139 329.873,191.267C331.422,191.502 333.117,191.668 334.272,191.863C335.15,192.114 336.067,191.604 336.318,190.725C336.568,189.846 336.058,188.93 335.179,188.679C333.639,188.104 331.173,187.111 329.209,186.815C327.533,186.562 326.151,186.919 325.379,187.445Z"/>
        <path d="M202.099,178.087C204.974,176.224 207.637,173.892 210.673,172.058C212.495,170.958 214.454,170.043 216.686,169.549C218.153,169.241 220.654,169.118 223.14,169.285C225.524,169.445 227.896,169.858 229.276,170.561C231.361,171.636 234.264,173.036 237.228,173.669C239.326,174.117 241.454,174.167 243.397,173.552L250.963,170.151C252.606,169.359 255.76,168.442 258.941,168.03C260.328,167.85 261.717,167.839 262.991,167.857C264.342,167.877 265.564,167.861 266.46,168.363C267.14,168.827 268.069,168.65 268.533,167.969C268.996,167.288 268.819,166.359 268.138,165.896C266.367,164.562 263.432,164.009 260.289,164.212C256.102,164.481 251.616,166.033 249.463,167.15L242.413,170.6C240.975,171.104 239.38,171.073 237.802,170.782C235.088,170.282 232.423,169.042 230.501,168.11C229.149,167.449 227.014,167.014 224.73,166.773C221.543,166.437 218.06,166.47 216.144,166.839C213.574,167.298 211.3,168.255 209.16,169.409C206.02,171.103 203.198,173.267 200.205,174.975C199.346,175.498 199.073,176.619 199.596,177.478C200.118,178.337 201.24,178.61 202.099,178.087Z"/>
        <path d="M144.693,249.248C145.089,249.108 146.536,248.605 146.97,248.493L158.6,246.369C161.213,245.699 164.081,245.876 166.924,246.471C171.491,247.428 175.992,249.463 179.395,251.139L185.12,252.478C186.547,253.181 188.107,253.436 189.75,253.384C194.781,253.224 200.69,249.67 205.001,251.078C205.75,251.328 206.561,250.922 206.811,250.173C207.061,249.423 206.655,248.612 205.906,248.362C201.354,246.814 195.007,250.224 189.671,250.329C188.548,250.352 187.478,250.195 186.508,249.702L180.814,248.301C177.223,246.478 172.463,244.281 167.628,243.207C164.267,242.461 160.869,242.266 157.763,243.023L146.1,245.01C145.314,245.201 143.475,245.577 142.412,246.378C141.523,247.048 141.025,247.954 141.068,249.073C141.113,250.078 141.965,250.858 142.971,250.813C143.861,250.773 144.575,250.1 144.693,249.248Z"/>
    </g>
    <g transform="matrix(-0.627907,-0.724902,0.724902,-0.627907,392.691,438.255)">
        <path d="M127.132,185.51C133.061,176.872 143.17,169.839 154.101,165.705C165.033,161.571 176.378,162.224 184.068,160.402C191.757,158.579 209.327,154.47 217.781,152.882C226.234,151.295 233.375,152.823 239.268,151.797C245.161,150.77 258.406,147.61 267.16,148.984C298.147,153.85 315.271,158.636 332.63,168.657C342.113,174.131 349.092,176.585 352.747,183.579C356.403,190.573 359.026,195.308 357.21,199.997C355.393,204.685 356.937,217.221 354.202,221.559C349.992,228.236 341.736,236.059 335.938,239.464C330.141,242.869 311.286,253.115 302.558,256.556C293.831,259.997 278.173,264.295 267.498,266.984C256.823,269.673 241.709,271.533 227.121,272.616C212.533,273.698 208.96,274.989 195.311,274.748C181.663,274.507 167.277,276.261 158.641,273.306C148.657,269.891 129.754,268.918 125.47,260.575C121.187,252.232 122.531,247.061 122.087,241.311C121.643,235.561 116.972,235.117 116.339,228.488C115.706,221.86 114.337,211.695 116.734,205.93C119.131,200.165 121.203,194.148 127.132,185.51Z" style="fill:none;stroke:black;stroke-width:10.6px;"/>
        <path d="M145.081,192.735C145.666,192.383 148.367,190.768 149.262,190.317C150.519,189.683 152.921,189.166 155.355,188.865C157.741,188.57 160.166,188.473 161.588,188.823L168.078,189.278C171.588,189.967 175.824,192.987 179.898,194.36C182.177,195.128 184.416,195.43 186.496,194.902C190,194.013 194.672,191.731 199.39,190.543C202.134,189.852 204.894,189.525 207.394,190.277C208.341,190.565 209.343,190.031 209.631,189.085C209.919,188.138 209.385,187.136 208.439,186.848C206.061,186.114 203.49,186.102 200.88,186.518C195.381,187.394 189.686,190.26 185.588,191.269C184.173,191.617 182.664,191.31 181.119,190.777C176.894,189.32 172.483,186.217 168.838,185.475L162.54,185.016C160.795,184.573 157.816,184.578 154.882,184.92C151.913,185.265 149,185.957 147.462,186.719C146.343,187.274 143.702,188.757 142.683,189.446C140.947,190.619 141.661,192.482 141.83,192.702C142.074,193.02 142.609,193.621 143.744,193.484C144.292,193.416 144.762,193.136 145.081,192.735Z"/>
        <path d="M194.828,209.028C196.839,208.619 199.447,207.968 201.969,207.598C203.531,207.369 205.056,207.241 206.347,207.399C209.075,207.732 212.303,208.49 215.427,209.544C218.518,210.588 221.508,211.917 223.788,213.427C225.675,214.677 227.52,216.471 229.527,217.707C230.594,218.365 231.705,218.879 232.873,219.153C237.036,220.128 242.624,219.326 249.392,220.142C251.461,220.391 253.647,220.802 255.942,221.488C256.917,221.782 257.947,221.229 258.242,220.254C258.536,219.279 257.983,218.249 257.008,217.954C254.501,217.19 252.111,216.725 249.849,216.439C243.259,215.607 237.807,216.405 233.755,215.432C232.704,215.179 231.739,214.605 230.801,213.941C229.127,212.755 227.55,211.276 225.941,210.196C223.422,208.506 220.12,206.994 216.697,205.817C213.309,204.652 209.804,203.815 206.843,203.436C205.239,203.231 203.341,203.344 201.397,203.617C198.796,203.983 196.105,204.634 194.031,205.043C192.931,205.263 192.217,206.334 192.437,207.434C192.657,208.533 193.728,209.248 194.828,209.028Z"/>
        <path d="M137.419,221.32L137.234,221.377C137.038,221.459 136.872,221.55 136.697,221.669L136.373,221.929C126.351,227.831 122.126,232.379 123.342,233.193C122.243,234.56 123.433,234.302 126.677,232.544C129.236,231.458 133.17,229.188 138.432,225.421L139.054,225.027C139.946,224.456 142.62,222.588 144.061,222.351C146.219,222.004 148.248,221.831 150.275,221.844C152.323,221.857 154.366,222.053 156.533,222.39C161.998,223.315 168.065,225.945 174.028,226.805C176.849,227.212 179.648,227.242 182.372,226.589C185.511,225.846 190.193,223.73 194.708,222.619C197.354,221.968 199.929,221.636 201.961,222.448C203.042,222.863 204.257,222.323 204.672,221.241C205.087,220.16 204.546,218.945 203.465,218.53C201.288,217.729 198.692,217.728 195.961,218.259C190.825,219.257 185.136,222.107 181.491,223.068C179.22,223.659 176.871,223.67 174.504,223.358C168.565,222.575 162.529,219.938 157.09,219.045C154.759,218.631 152.558,218.392 150.348,218.315C148.13,218.238 145.904,218.331 143.529,218.627C141.889,218.827 138.878,220.479 137.419,221.32Z"/>
        <path d="M193.99,243.766C194.337,243.178 195.187,242.743 196.103,242.284C197.885,241.392 199.986,240.644 201.267,239.977C203.701,238.733 207.447,237.661 211.238,237.257C214.886,236.868 218.58,237.064 221.084,238.327C222.83,239.24 225.401,239.948 228.061,240.319C230.622,240.676 233.26,240.698 235.318,240.328C238.899,239.638 243.883,237.337 248.321,236.295C250.032,235.894 251.635,235.572 253.047,235.965C254.026,236.291 255.086,235.761 255.412,234.782C255.738,233.804 255.209,232.744 254.23,232.417C252.266,231.652 249.908,231.594 247.423,232.065C242.954,232.913 238.071,235.537 234.507,236.276C232.823,236.647 230.645,236.688 228.523,236.474C226.321,236.252 224.173,235.78 222.707,235.08C219.685,233.582 215.261,233.276 210.87,233.722C206.596,234.155 202.359,235.273 199.592,236.627C198.068,237.357 195.428,238.163 193.462,239.198C192.133,239.898 191.094,240.75 190.528,241.636C189.941,242.592 190.239,243.844 191.194,244.432C192.15,245.019 193.402,244.721 193.99,243.766Z"/>
        <path d="M252.136,251.934L255.639,247.784C257.242,246.951 260.349,244.896 263.36,243.693C265.01,243.034 266.594,242.499 267.71,243.043C269.531,244.167 271.681,244.75 274.009,245.024C276.86,245.359 279.956,245.118 282.869,245.232C284.63,245.286 286.705,245.515 288.582,245.316C289.688,245.198 290.728,244.914 291.666,244.477C295.162,242.633 299.557,240.248 304.868,238.106C307.652,236.984 310.63,235.825 313.995,235.057C314.952,234.912 315.612,234.017 315.467,233.059C315.322,232.101 314.427,231.441 313.469,231.586C308.731,231.956 304.48,232.847 300.727,234.143C296.097,235.743 292.313,237.9 289.145,239.435C288.592,239.73 287.937,239.863 287.254,239.932C285.784,240.082 284.22,240.007 282.869,240.05C279.102,240.297 275.088,241.18 271.608,240.637C270.78,240.508 269.989,240.291 269.254,239.955C267.784,239.201 265.785,239.243 263.626,239.847C260.04,240.849 255.894,243.398 253.921,244.349L248.976,249.378C248.271,250.251 248.406,251.531 249.278,252.236C250.15,252.941 251.431,252.806 252.136,251.934Z"/>
        <path d="M283.675,228.004C284.582,228.646 287.488,226.093 288.108,225.917L294.368,223.699C295.551,223.317 296.92,223.22 298.355,223.295C302.023,223.487 306.044,224.631 309.131,224.768C312.159,224.889 314.839,224.56 317.352,223.867C321.046,222.849 324.325,221.078 328.138,219.735L338.029,217.679C338.966,217.599 339.662,216.773 339.582,215.836C339.501,214.898 338.675,214.203 337.738,214.283C336.143,214.318 333.618,214.367 331.252,214.567C329.497,214.715 327.844,214.98 326.662,215.306C322.879,216.497 319.553,217.929 315.954,219.011C313.857,219.641 311.675,220.22 309.131,220.321C306.094,220.456 302.056,219.804 298.442,219.811C296.58,219.814 294.816,219.953 293.293,220.476L287.221,222.369C286.351,222.558 282.38,223.808 281.087,224.764C279.992,225.573 279.889,226.613 280.016,227.297C280.259,228.392 281.345,229.084 282.44,228.842C282.964,228.725 283.396,228.416 283.675,228.004Z"/>
        <path d="M249.583,210.654L256.281,206.073C257.738,205.758 260.013,204.571 262.199,203.924C263.225,203.62 264.218,203.36 264.986,203.732C267.843,205.211 271.215,206.361 274.697,207.222C278.106,208.065 281.622,208.615 284.924,208.728C286.385,208.704 287.787,208.544 289.149,208.271C294.194,207.262 298.617,204.759 303.879,204.63L312.938,202.691C313.728,202.523 314.232,201.745 314.064,200.956C313.896,200.167 313.118,199.663 312.329,199.831L303.879,201.18C302.442,201.138 301.054,201.257 299.692,201.475C294.771,202.26 290.263,204.504 284.924,204.39C281.299,204.52 277.332,204.191 273.615,203.286C271.057,202.663 268.632,201.758 266.498,200.708C265.35,200.117 263.925,200.043 262.4,200.315C259.973,200.748 257.218,202.172 255.562,202.478C254.95,202.586 253.826,203.109 252.544,203.865C250.76,204.917 248.561,206.428 247.21,207.355C246.299,208.01 246.092,209.28 246.747,210.191C247.402,211.101 248.673,211.309 249.583,210.654Z"/>
        <path d="M226.695,192.221C228.319,190.927 230.53,189.745 232.805,188.919C235.216,188.045 237.681,187.534 239.534,187.648L247.733,191.359C251.595,192.397 255.907,193.98 260.145,194.891C262.117,195.315 264.074,195.59 265.97,195.626C268.247,195.67 270.517,195.466 272.777,195.14C276.022,194.672 279.242,193.939 282.421,193.359L291.767,193.897C292.755,194.145 293.759,193.545 294.008,192.556C294.256,191.568 293.655,190.564 292.667,190.315C291.414,189.843 289.553,189.028 287.466,188.63C285.448,188.246 283.291,188.316 281.49,188.702C278.383,189.378 275.242,190.204 272.067,190.78C270.047,191.146 268.017,191.419 265.97,191.458C263.78,191.5 261.484,191.167 259.181,190.671C255.541,189.888 251.892,188.727 248.582,187.961C246.68,187.513 244.258,185.744 242.063,184.886C241.281,184.58 240.521,184.363 239.797,184.295C237.576,184.082 234.594,184.572 231.65,185.489C228.93,186.335 226.254,187.561 224.256,188.97C223.359,189.643 223.177,190.917 223.85,191.815C224.523,192.712 225.797,192.894 226.695,192.221Z"/>
        <path d="M325.279,187.178C325.173,187.079 324.927,187.43 324.823,187.54C324.944,187.413 325.095,187.288 325.279,187.178L325.31,187.218C325.651,188.058 322.638,187.51 321.839,187.738C319.807,188.325 317.549,188.272 315.277,187.898C311.481,187.273 307.668,185.845 304.621,184.923C301.59,183.916 299.513,181.024 296.402,179.328C295.013,178.57 293.456,178.001 291.588,177.823C289.193,177.577 286.988,177.542 284.898,177.755C282.547,177.995 280.347,178.577 278.191,179.569C277.186,180.066 276.773,181.286 277.271,182.291C277.768,183.296 278.988,183.709 279.993,183.212C281.703,182.305 283.469,181.728 285.373,181.429C287.222,181.139 289.187,181.085 291.329,181.195C292.697,181.275 293.859,181.633 294.883,182.169C298.193,183.903 300.4,186.933 303.593,188.002C306.713,189.143 310.612,190.807 314.521,191.713C317.392,192.378 320.267,192.6 322.914,192.039C323.66,191.879 325.213,191.984 326.201,191.807C326.793,191.701 327.278,191.49 327.654,191.25L329.816,191.556C331.364,191.781 333.054,191.902 334.21,192.08C335.208,192.365 336.25,191.786 336.535,190.787C336.819,189.789 336.24,188.747 335.241,188.462C333.695,187.865 331.223,186.833 329.244,186.527C327.526,186.261 326.103,186.634 325.279,187.178Z"/>
        <path d="M202.228,178.299C205.095,176.425 207.746,174.082 210.776,172.239C212.577,171.143 214.514,170.229 216.723,169.733C218.179,169.426 220.66,169.299 223.128,169.464C225.484,169.622 227.83,170.032 229.192,170.728C231.288,171.813 234.208,173.223 237.189,173.865C239.322,174.325 241.486,174.374 243.464,173.753L251.065,170.355C252.695,169.574 255.823,168.675 258.976,168.274C260.347,168.099 261.72,168.1 262.979,168.112C264.288,168.125 265.472,168.055 266.345,168.532C267.119,169.058 268.174,168.857 268.701,168.083C269.227,167.31 269.026,166.254 268.253,165.728C266.457,164.356 263.472,163.764 260.269,163.962C256.047,164.224 251.529,165.815 249.36,166.946L242.346,170.399C240.942,170.894 239.383,170.867 237.841,170.586C235.144,170.094 232.496,168.866 230.584,167.943C229.217,167.276 227.059,166.837 224.749,166.594C221.541,166.256 218.036,166.285 216.107,166.654C213.514,167.11 211.219,168.072 209.057,169.229C205.909,170.913 203.078,173.065 200.076,174.763C199.1,175.357 198.79,176.631 199.384,177.607C199.978,178.583 201.252,178.893 202.228,178.299Z"/>
        <path d="M144.916,249.409C145.359,249.259 146.64,248.831 147.03,248.73L158.657,246.597C161.236,245.933 164.068,246.108 166.876,246.694C171.424,247.643 175.908,249.667 179.298,251.333L185.025,252.667C186.484,253.384 188.077,253.646 189.755,253.592C194.765,253.429 200.645,249.864 204.939,251.263C205.791,251.547 206.712,251.086 206.996,250.234C207.28,249.383 206.819,248.461 205.968,248.177C201.399,246.62 195.022,250.02 189.666,250.121C188.578,250.142 187.541,249.991 186.602,249.513L180.911,248.107C177.307,246.275 172.53,244.067 167.676,242.985C164.28,242.228 160.846,242.033 157.706,242.795L146.04,244.772C145.234,244.968 143.352,245.361 142.262,246.181C141.304,246.902 140.775,247.88 140.82,249.084C140.871,250.226 141.84,251.112 142.982,251.061C143.949,251.018 144.732,250.317 144.916,249.409Z"/>
    </g>
    <g transform="matrix(0.839603,-0.694668,0.694668,0.839603,-191.328,337.671)">
        <path d="M127.132,185.51C133.061,176.872 143.17,169.839 154.101,165.705C165.033,161.571 176.378,162.224 184.068,160.402C191.757,158.579 209.327,154.47 217.781,152.882C226.234,151.295 233.375,152.823 239.268,151.797C245.161,150.77 258.406,147.61 267.16,148.984C298.147,153.85 315.271,158.636 332.63,168.657C342.113,174.131 349.092,176.585 352.747,183.579C356.403,190.573 359.026,195.308 357.21,199.997C355.393,204.685 356.937,217.221 354.202,221.559C349.992,228.236 341.736,236.059 335.938,239.464C330.141,242.869 311.286,253.115 302.558,256.556C293.831,259.997 278.173,264.295 267.498,266.984C256.823,269.673 241.709,271.533 227.121,272.616C212.533,273.698 208.96,274.989 195.311,274.748C181.663,274.507 167.277,276.261 158.641,273.306C148.657,269.891 129.754,268.918 125.47,260.575C121.187,252.232 122.531,247.061 122.087,241.311C121.643,235.561 116.972,235.117 116.339,228.488C115.706,221.86 114.337,211.695 116.734,205.93C119.131,200.165 121.203,194.148 127.132,185.51Z" style="fill:none;stroke:black;stroke-width:9.33px;"/>
        <path d="M144.916,192.55C145.44,192.235 148.238,190.563 149.154,190.102C150.428,189.46 152.861,188.932 155.327,188.628C157.745,188.33 160.203,188.239 161.645,188.595L168.123,189.05C171.642,189.742 175.888,192.767 179.971,194.145C182.206,194.899 184.401,195.201 186.442,194.684C189.946,193.797 194.619,191.517 199.337,190.33C202.121,189.631 204.921,189.308 207.457,190.071C208.29,190.325 209.172,189.855 209.426,189.022C209.679,188.189 209.209,187.307 208.376,187.053C206.029,186.33 203.491,186.322 200.915,186.733C195.423,187.61 189.736,190.477 185.642,191.487C184.187,191.845 182.634,191.539 181.046,190.992C176.83,189.54 172.429,186.442 168.793,185.703L162.483,185.244C160.757,184.807 157.811,184.817 154.91,185.156C151.973,185.499 149.091,186.18 147.57,186.935C146.458,187.487 143.833,188.962 142.82,189.647C141.266,190.698 141.872,192.356 142.023,192.553C142.238,192.833 142.712,193.363 143.714,193.242C144.211,193.181 144.635,192.92 144.916,192.55Z"/>
        <path d="M194.78,208.789C196.795,208.38 199.408,207.729 201.935,207.359C203.52,207.128 205.067,207.001 206.377,207.161C209.118,207.497 212.364,208.26 215.503,209.321C218.614,210.372 221.623,211.712 223.917,213.233C225.801,214.483 227.644,216.276 229.648,217.511C230.694,218.156 231.782,218.661 232.926,218.93C237.083,219.904 242.662,219.103 249.419,219.92C251.5,220.171 253.698,220.585 256.006,221.276C256.864,221.535 257.771,221.048 258.03,220.19C258.289,219.332 257.802,218.425 256.944,218.166C254.45,217.406 252.072,216.945 249.821,216.661C243.221,215.83 237.761,216.628 233.702,215.655C232.905,215.464 232.156,215.091 231.43,214.638C229.462,213.411 227.662,211.63 225.812,210.39C223.307,208.711 220.024,207.21 216.621,206.041C213.249,204.882 209.76,204.049 206.813,203.673C205.228,203.471 203.352,203.585 201.431,203.856C198.835,204.222 196.149,204.873 194.079,205.282C193.111,205.475 192.482,206.418 192.676,207.386C192.869,208.354 193.812,208.982 194.78,208.789Z"/>
        <path d="M137.496,221.552L137.484,221.555C137.247,221.627 137.05,221.723 136.845,221.863L136.506,222.134C127.993,227.184 124.278,231.099 125.071,231.959C124.11,233.132 125.003,232.996 127.566,231.649C129.776,230.794 133.381,228.756 138.331,225.197L138.928,224.82C139.835,224.242 142.564,222.365 144.029,222.128C146.2,221.783 148.241,221.616 150.279,221.632C152.337,221.649 154.39,221.848 156.566,222.19C162.03,223.113 168.095,225.743 174.057,226.598C176.85,226.999 179.622,227.028 182.319,226.378C185.457,225.63 190.136,223.507 194.648,222.39C197.348,221.721 199.976,221.388 202.051,222.214C203.003,222.579 204.072,222.103 204.437,221.151C204.802,220.199 204.326,219.13 203.375,218.765C201.237,217.975 198.688,217.979 196.004,218.496C190.872,219.484 185.186,222.325 181.544,223.279C179.246,223.874 176.87,223.882 174.475,223.565C168.535,222.778 162.497,220.14 157.057,219.246C154.736,218.837 152.544,218.6 150.344,218.527C148.137,218.453 145.922,218.551 143.561,218.85C141.927,219.053 138.919,220.726 137.496,221.552Z"/>
        <path d="M193.782,243.638C194.149,243.02 195.036,242.552 196,242.072C197.783,241.183 199.885,240.44 201.166,239.776C203.621,238.525 207.396,237.451 211.216,237.045C214.908,236.652 218.646,236.855 221.181,238.132C222.911,239.032 225.457,239.727 228.089,240.088C230.623,240.436 233.234,240.456 235.269,240.085C238.85,239.392 243.827,237.071 248.267,236.042C250.023,235.634 251.673,235.34 253.118,235.752C253.98,236.039 254.912,235.573 255.199,234.712C255.487,233.85 255.02,232.917 254.159,232.63C252.227,231.89 249.914,231.85 247.477,232.319C243.01,233.178 238.121,235.783 234.556,236.519C232.849,236.891 230.644,236.927 228.496,236.705C226.266,236.474 224.093,235.987 222.61,235.275C219.619,233.79 215.238,233.492 210.892,233.934C206.647,234.365 202.44,235.48 199.692,236.828C198.173,237.56 195.537,238.369 193.576,239.407C192.292,240.086 191.282,240.906 190.736,241.764C190.219,242.605 190.481,243.707 191.322,244.224C192.163,244.741 193.265,244.479 193.782,243.638Z"/>
        <path d="M251.947,251.78L255.536,247.578C257.144,246.747 260.264,244.694 263.283,243.493C264.997,242.812 266.645,242.292 267.803,242.858C269.606,243.945 271.731,244.503 274.024,244.754C276.871,245.067 279.961,244.821 282.869,244.921C284.617,244.969 286.676,245.193 288.538,244.988C289.605,244.871 290.61,244.6 291.514,244.174C295.025,242.335 299.433,239.94 304.769,237.824C307.569,236.713 310.58,235.59 313.963,234.849C314.806,234.722 315.387,233.934 315.259,233.091C315.132,232.248 314.343,231.667 313.501,231.794C308.793,232.203 304.569,233.132 300.844,234.44C296.233,236.06 292.454,238.201 289.296,239.737C288.705,240.05 288.007,240.188 287.277,240.26C285.8,240.405 284.228,240.323 282.869,240.361C279.088,240.579 275.051,241.418 271.564,240.852C270.718,240.715 269.911,240.487 269.162,240.14C267.731,239.409 265.786,239.46 263.686,240.051C260.114,241.055 255.988,243.604 254.024,244.555C253.601,244.758 252.894,245.347 252.129,246.142C251.114,247.197 249.906,248.644 249.165,249.532C248.545,250.299 248.664,251.426 249.432,252.047C250.199,252.667 251.326,252.548 251.947,251.78Z"/>
        <path d="M283.514,227.809C284.423,228.499 287.419,225.882 288.055,225.704L294.303,223.506C295.507,223.116 296.899,223.015 298.36,223.086C302.023,223.266 306.048,224.381 309.131,224.502C312.13,224.606 314.781,224.265 317.268,223.576C320.956,222.554 324.239,220.803 328.05,219.47L338.012,217.475C338.836,217.405 339.449,216.678 339.378,215.853C339.307,215.028 338.58,214.416 337.756,214.486C336.166,214.533 333.645,214.602 331.288,214.818C329.553,214.976 327.917,215.242 326.751,215.572C322.966,216.771 319.643,218.224 316.037,219.302C313.916,219.936 311.703,220.498 309.131,220.588C306.092,220.707 302.052,220.024 298.437,220.02C296.601,220.017 294.861,220.155 293.358,220.67L287.274,222.582C286.418,222.771 282.506,224.007 281.236,224.953C280.247,225.69 280.136,226.625 280.254,227.244C280.468,228.208 281.423,228.817 282.387,228.604C282.873,228.496 283.268,228.2 283.514,227.809Z"/>
        <path d="M249.441,210.456L256.238,205.857C257.692,205.546 259.961,204.365 262.143,203.723C263.223,203.405 264.269,203.158 265.076,203.551C267.921,205.017 271.278,206.161 274.745,207.008C278.138,207.837 281.639,208.369 284.924,208.468C286.37,208.447 287.757,208.289 289.104,208.023C294.163,207.024 298.606,204.537 303.879,204.423L312.902,202.519C313.596,202.371 314.04,201.687 313.892,200.993C313.744,200.298 313.06,199.855 312.366,200.003L303.879,201.387C302.456,201.351 301.081,201.472 299.732,201.692C294.798,202.494 290.28,204.751 284.924,204.65C281.28,204.766 277.295,204.407 273.561,203.488C270.991,202.855 268.552,201.947 266.407,200.889C265.295,200.319 263.915,200.253 262.439,200.518C260.013,200.955 257.261,202.385 255.606,202.693C255.008,202.801 253.913,203.316 252.663,204.058C250.887,205.112 248.697,206.624 247.352,207.553C246.551,208.129 246.368,209.247 246.945,210.049C247.521,210.85 248.64,211.032 249.441,210.456Z"/>
        <path d="M226.548,192.026C228.195,190.724 230.434,189.541 232.736,188.714C235.178,187.836 237.675,187.328 239.55,187.447C240.225,187.495 240.953,187.763 241.695,188.116C243.804,189.12 245.998,190.685 247.784,191.155C251.644,192.184 255.955,193.757 260.19,194.658C262.147,195.074 264.089,195.345 265.97,195.376C268.233,195.415 270.489,195.207 272.734,194.879C275.976,194.404 279.19,193.665 282.365,193.079C283.165,192.929 284.051,192.957 284.957,192.976C287.52,193.029 290.23,193.397 291.821,193.682C292.691,193.901 293.574,193.372 293.793,192.502C294.011,191.632 293.482,190.749 292.613,190.53C291.364,190.079 289.498,189.303 287.425,188.921C285.438,188.555 283.319,188.604 281.546,188.981C278.434,189.652 275.288,190.472 272.11,191.041C270.076,191.406 268.03,191.673 265.97,191.708C263.762,191.745 261.448,191.403 259.128,190.898C255.489,190.107 251.84,188.938 248.531,188.165C246.623,187.712 244.195,185.931 241.992,185.071C241.229,184.773 240.487,184.561 239.782,184.496C237.582,184.29 234.631,184.779 231.719,185.695C229.027,186.541 226.377,187.762 224.402,189.165C223.613,189.757 223.452,190.879 224.045,191.668C224.637,192.458 225.759,192.618 226.548,192.026Z"/>
        <path d="M325.379,187.445L325.408,187.481C325.749,188.33 322.711,187.769 321.903,187.996C319.835,188.583 317.54,188.516 315.231,188.127C311.429,187.485 307.611,186.042 304.559,185.108C301.518,184.097 299.434,181.197 296.311,179.498C294.944,178.754 293.41,178.197 291.573,178.025C289.193,177.788 287.002,177.757 284.926,177.975C282.603,178.22 280.428,178.8 278.299,179.787C277.415,180.225 277.052,181.298 277.489,182.183C277.927,183.068 279,183.431 279.885,182.993C281.621,182.08 283.414,181.506 285.345,181.209C287.208,180.923 289.187,180.875 291.344,180.993C292.743,181.078 293.928,181.45 294.974,181.999C298.272,183.73 300.471,186.752 303.655,187.818C306.77,188.944 310.664,190.595 314.567,191.484C317.401,192.129 320.24,192.346 322.849,191.781C323.596,191.618 325.154,191.714 326.143,191.533C326.738,191.424 327.22,191.207 327.58,190.963C327.762,190.985 329.028,191.139 329.873,191.267C331.422,191.502 333.117,191.668 334.272,191.863C335.15,192.114 336.067,191.604 336.318,190.725C336.568,189.846 336.058,188.93 335.179,188.679C333.639,188.104 331.173,187.111 329.209,186.815C327.533,186.562 326.151,186.919 325.379,187.445ZM325.379,187.445C325.239,187.537 325.12,187.637 325.023,187.739C325.104,187.654 325.292,187.382 325.379,187.445Z"/>
        <path d="M202.099,178.087C204.974,176.224 207.637,173.892 210.673,172.058C212.495,170.958 214.454,170.043 216.686,169.549C218.153,169.241 220.654,169.118 223.14,169.285C225.524,169.445 227.896,169.858 229.276,170.561C231.361,171.636 234.264,173.036 237.228,173.669C239.326,174.117 241.454,174.167 243.397,173.552L250.963,170.151C252.606,169.359 255.76,168.442 258.941,168.03C260.328,167.85 261.717,167.839 262.991,167.857C264.342,167.877 265.564,167.861 266.46,168.363C267.14,168.827 268.069,168.65 268.533,167.969C268.996,167.288 268.819,166.359 268.138,165.896C266.367,164.562 263.432,164.009 260.289,164.212C256.102,164.481 251.616,166.033 249.463,167.15L242.413,170.6C240.975,171.104 239.38,171.073 237.802,170.782C235.088,170.282 232.423,169.042 230.501,168.11C229.149,167.449 227.014,167.014 224.73,166.773C221.543,166.437 218.06,166.47 216.144,166.839C213.574,167.298 211.3,168.255 209.16,169.409C206.02,171.103 203.198,173.267 200.205,174.975C199.346,175.498 199.073,176.619 199.596,177.478C200.118,178.337 201.24,178.61 202.099,178.087Z"/>
        <path d="M144.693,249.248C145.089,249.108 146.536,248.605 146.97,248.493L158.6,246.369C161.213,245.699 164.081,245.876 166.924,246.471C171.491,247.428 175.992,249.463 179.395,251.139L185.12,252.478C186.547,253.181 188.107,253.436 189.75,253.384C194.781,253.224 200.69,249.67 205.001,251.078C205.75,251.328 206.561,250.922 206.811,250.173C207.061,249.423 206.655,248.612 205.906,248.362C201.354,246.814 195.007,250.224 189.671,250.329C188.548,250.352 187.478,250.195 186.508,249.702L180.814,248.301C177.223,246.478 172.463,244.281 167.628,243.207C164.267,242.461 160.869,242.266 157.763,243.023L146.1,245.01C145.314,245.201 143.475,245.577 142.412,246.378C141.523,247.048 141.025,247.954 141.068,249.073C141.113,250.078 141.965,250.858 142.971,250.813C143.861,250.773 144.575,250.1 144.693,249.248Z"/>
    </g>
</svg>
