<?xml version="1.0" encoding="UTF-8" standalone="no"?>
<!DOCTYPE svg PUBLIC "-//W3C//DTD SVG 1.1//EN" "http://www.w3.org/Graphics/SVG/1.1/DTD/svg11.dtd">
<svg width="100%" height="100%" viewBox="0 0 512 512" version="1.1" xmlns="http://www.w3.org/2000/svg" xmlns:xlink="http://www.w3.org/1999/xlink" xml:space="preserve" xmlns:serif="http://www.serif.com/" style="fill-rule:evenodd;clip-rule:evenodd;stroke-linecap:round;stroke-linejoin:round;stroke-miterlimit:1.5;">
    <g transform="matrix(-1,0.000890587,-0.000890587,-1,496.838,525.565)">
        <path d="M77.542,218.009C65.677,220.096 41.945,224.268 26.51,213.013C11.849,202.323 11.288,170.526 28.152,159.258C42.763,149.495 63.005,154.81 68.396,165.498C74.281,177.168 67.518,192.527 56.619,194.787C16.588,203.091 -9.406,165.818 0.073,137.35" style="fill:none;stroke:black;stroke-width:12.5px;"/>
    </g>
    <g transform="matrix(-1,0.000890587,-0.000890587,-1,496.838,525.565)">
        <path d="M384.901,308.321C372.244,327.57 352.338,342.919 328.402,348.232L327.85,438.681L282.035,438.742L280.46,345.174L158.137,344.904L157.39,439.967L111.611,439.633L112.352,333.024C112.352,333.024 68.081,304.342 69.845,259.617C71.61,214.891 84.295,207.652 91.676,197.966C99.057,188.279 117.497,172.383 134.651,168.121C151.804,163.859 283.805,165.747 283.805,165.747C283.805,165.747 284.404,224.522 285.644,235.693C286.883,246.865 289.561,260.256 302.905,277.126C312.624,289.412 323.652,298.185 338.079,303.039C356.618,309.276 384.901,308.321 384.901,308.321ZM368.682,327.201L367.972,420.012L327.965,419.892M157.546,420.031L197.484,420.291L197.983,344.992M283.805,165.747C282.251,166.72 255.333,148.855 252.317,130.714C251.432,125.388 248.851,101.228 251.414,100.813C257.246,99.869 270.21,99.233 273.835,99.699C300.86,103.172 317.966,137.074 317.966,137.074C317.966,137.074 343.86,127.756 364.511,127.614C388.404,127.449 415.327,138.53 415.327,138.53C415.327,138.53 424.559,110.307 449.485,102.432C465.875,97.254 481.534,101.418 481.534,101.418C481.534,101.418 485.293,119.306 481.896,129.896C473.133,157.221 450.097,164.946 450.097,164.946C450.097,164.946 448.46,239.547 448.038,241.353C446.406,248.337 440.452,270.253 425.015,284.113C407.635,299.719 392.479,305.454 384.901,308.321" style="fill:none;stroke:black;stroke-width:20.83px;"/>
    </g>
    <g transform="matrix(-1.09011,0.000970837,-0.00103665,-1.164,533.432,564.072)">
        <ellipse cx="370.43" cy="242.175" rx="34.786" ry="27.58" style="fill:none;stroke:black;stroke-width:10.14px;"/>
    </g>
    <g transform="matrix(-1,0.000890587,-0.000890587,-1,499.06,525.773)">
        <circle cx="354.03" cy="243.472" r="7.747"/>
    </g>
    <g transform="matrix(-1,0.000890587,-0.000890587,-1,468.214,525.709)">
        <circle cx="354.03" cy="243.472" r="7.747"/>
    </g>
    <g transform="matrix(-0.706904,0.707309,-0.707309,-0.706904,524.379,237.956)">
        <path d="M333.433,160.724L333.652,194.027" style="fill:none;stroke:black;stroke-width:6.25px;"/>
    </g>
    <g transform="matrix(-0.706904,0.707309,-0.707309,-0.706904,455.676,237.953)">
        <path d="M333.433,160.724L333.652,194.027" style="fill:none;stroke:black;stroke-width:6.25px;"/>
    </g>
    <g transform="matrix(-0.702661,-0.711525,0.711525,-0.702661,271.298,710.445)">
        <path d="M333.433,160.724L333.652,194.027" style="fill:none;stroke:black;stroke-width:6.25px;"/>
    </g>
    <g transform="matrix(-0.702661,-0.711525,0.711525,-0.702661,202.595,710.442)">
        <path d="M333.433,160.724L333.652,194.027" style="fill:none;stroke:black;stroke-width:6.25px;"/>
    </g>
</svg>
