<?xml version="1.0" encoding="UTF-8" standalone="no"?>
<!DOCTYPE svg PUBLIC "-//W3C//DTD SVG 1.1//EN" "http://www.w3.org/Graphics/SVG/1.1/DTD/svg11.dtd">
<svg width="100%" height="100%" viewBox="0 0 512 512" version="1.1" xmlns="http://www.w3.org/2000/svg" xmlns:xlink="http://www.w3.org/1999/xlink" xml:space="preserve" xmlns:serif="http://www.serif.com/" style="fill-rule:evenodd;clip-rule:evenodd;stroke-linejoin:round;stroke-miterlimit:2;">
    <g>
        <g transform="matrix(1.05392,0,0,1.07829,-13.8133,-0.0164417)">
            <path d="M366.91,119.8L336.68,119.8C336.68,70.53 300.49,30.44 256.01,30.44C211.53,30.44 175.34,70.52 175.34,119.8L145.11,119.8C145.09,53.86 194.85,0.21 256,0.21C317.15,0.21 366.91,53.86 366.91,119.8Z" style="fill-rule:nonzero;"/>
        </g>
        <g transform="matrix(1.14408,0,0,0.941548,-36.8848,29.9554)">
            <path d="M407.24,512.48L104.76,512.48L104.76,104.68L407.24,104.68L407.24,512.48ZM134.99,482.24L377,482.24L377,134.92L134.99,134.92L134.99,482.24Z" style="fill-rule:nonzero;"/>
        </g>
        <path d="M254.026,445.109C247.335,445.109 241.494,443.015 236.503,438.826C231.513,434.638 229.017,428.779 229.017,421.251C229.017,414.57 231.43,408.95 236.256,404.391C241.083,399.831 247.006,397.551 254.026,397.551C260.936,397.551 266.749,399.831 271.466,404.391C276.182,408.95 278.541,414.57 278.541,421.251C278.541,428.673 276.073,434.505 271.137,438.747C266.201,442.988 260.497,445.109 254.026,445.109ZM173.735,270.784C173.735,260.711 177.081,250.504 183.772,240.166C190.463,229.827 200.225,221.265 213.058,214.478C225.891,207.692 240.863,204.299 257.974,204.299C273.879,204.299 287.919,207.135 300.094,212.808C312.269,218.481 321.675,226.195 328.311,235.951C334.947,245.706 338.265,256.31 338.265,267.762C338.265,276.775 336.373,284.675 332.588,291.461C328.804,298.248 324.307,304.106 319.097,309.037C313.887,313.968 304.536,322.265 291.045,333.929C287.315,337.216 284.326,340.106 282.078,342.598C279.829,345.089 278.157,347.369 277.06,349.437C275.963,351.505 275.113,353.572 274.51,355.64C273.906,357.708 273.001,361.34 271.795,366.535C269.711,377.563 263.184,383.077 252.216,383.077C246.512,383.077 241.713,381.275 237.82,377.669C233.926,374.064 231.979,368.709 231.979,361.605C231.979,352.698 233.405,344.983 236.256,338.462C239.108,331.941 242.893,326.215 247.609,321.284C252.326,316.353 258.687,310.495 266.694,303.709C273.714,297.77 278.787,293.29 281.913,290.268C285.039,287.246 287.672,283.88 289.811,280.168C291.95,276.457 293.019,272.428 293.019,268.08C293.019,259.597 289.756,252.44 283.23,246.608C276.703,240.776 268.285,237.86 257.974,237.86C245.909,237.86 237.024,240.802 231.321,246.687C225.617,252.572 220.791,261.241 216.842,272.693C213.113,284.675 206.038,290.666 195.618,290.666C189.475,290.666 184.293,288.572 180.07,284.383C175.847,280.195 173.735,275.662 173.735,270.784Z" style="fill-rule:nonzero;"/>
    </g>
</svg>
