<?xml version="1.0" encoding="UTF-8" standalone="no"?>
<!DOCTYPE svg PUBLIC "-//W3C//DTD SVG 1.1//EN" "http://www.w3.org/Graphics/SVG/1.1/DTD/svg11.dtd">
<svg width="100%" height="100%" viewBox="0 0 512 512" version="1.1" xmlns="http://www.w3.org/2000/svg" xmlns:xlink="http://www.w3.org/1999/xlink" xml:space="preserve" xmlns:serif="http://www.serif.com/" style="fill-rule:evenodd;clip-rule:evenodd;stroke-linecap:round;stroke-linejoin:round;stroke-miterlimit:1.5;">
    <g transform="matrix(1.03514,0,0,1.03514,-4.15187,31.8787)">
        <path d="M29.824,152.573C22.931,232.716 26.182,320.442 36.026,403.879C36.026,403.879 151.888,177.396 301.244,172.837C428.643,168.949 476.481,248.061 476.481,248.061C476.481,248.061 359.79,334.421 271.978,335.646C135.09,337.555 29.824,152.573 29.824,152.573Z" style="fill:none;stroke:black;stroke-width:20.13px;"/>
    </g>
    <g transform="matrix(-0.999542,0.0302516,-0.0302516,-0.999542,834.252,179.693)">
        <path d="M395.159,106.175C379.996,106.175 367.686,118.486 367.686,133.648C367.686,148.811 379.996,161.122 395.159,161.122C410.322,161.122 422.632,148.811 422.632,133.648C422.632,118.486 410.322,106.175 395.159,106.175ZM395.159,112.527C406.816,112.527 416.28,121.991 416.28,133.648C416.28,145.306 406.816,154.77 395.159,154.77C383.502,154.77 374.037,145.306 374.037,133.648C374.037,121.991 383.502,112.527 395.159,112.527Z"/>
    </g>
    <g transform="matrix(-0.753162,0.0227948,-0.0227948,-0.753162,714.454,223.323)">
        <path d="M395.159,106.175C379.996,106.175 367.686,118.486 367.686,133.648C367.686,148.811 379.996,161.122 395.159,161.122C410.322,161.122 422.632,148.811 422.632,133.648C422.632,118.486 410.322,106.175 395.159,106.175ZM395.159,112.527C406.816,112.527 416.28,121.991 416.28,133.648C416.28,145.306 406.816,154.77 395.159,154.77C383.502,154.77 374.037,145.306 374.037,133.648C374.037,121.991 383.502,112.527 395.159,112.527Z"/>
    </g>
    <g transform="matrix(-0.567512,0.017176,-0.017176,-0.567512,671.521,268.389)">
        <path d="M395.159,106.175C379.996,106.175 367.686,118.486 367.686,133.648C367.686,148.811 379.996,161.122 395.159,161.122C410.322,161.122 422.632,148.811 422.632,133.648C422.632,118.486 410.322,106.175 395.159,106.175ZM395.159,112.527C406.816,112.527 416.28,121.991 416.28,133.648C416.28,145.306 406.816,154.77 395.159,154.77C383.502,154.77 374.037,145.306 374.037,133.648C374.037,121.991 383.502,112.527 395.159,112.527Z"/>
    </g>
    <g transform="matrix(1.20676,0,0,1.20676,-93.6656,-90.6104)">
        <circle cx="394.857" cy="295.838" r="13.217"/>
    </g>
    <path d="M343.546,211.396C315.135,264.687 321.023,314.388 359.698,360.622" style="fill:none;stroke:black;stroke-width:11.43px;"/>
</svg>
