<?xml version="1.0" encoding="utf-8"?>
<!-- Generator: Adobe Adobe Illustrator 24.2.0, SVG Export Plug-In . SVG Version: 6.00 Build 0)  -->
<svg version="1.1" id="Ebene_1" xmlns="http://www.w3.org/2000/svg" xmlns:xlink="http://www.w3.org/1999/xlink" x="0px" y="0px"
	 width="512px" height="512px" viewBox="0 0 512 512" style="enable-background:new 0 0 512 512;" xml:space="preserve">
<style type="text/css">
	.st0{fill:none;stroke:#000000;stroke-width:30;stroke-linecap:round;stroke-miterlimit:10;}
</style>
<path d="M34.88,511.34c-1.37,0-2.77-0.19-4.15-0.59c-7.96-2.29-12.56-10.6-10.27-18.56c13.95-48.5,57-113.29,127.96-192.56
	c68-75.96,139.08-140.2,166.49-164.3c9.89-8.69,19.49-18.98,29.66-29.88c29.49-31.6,62.9-67.41,115.6-75.2
	c8.19-1.21,15.82,4.45,17.03,12.65c1.21,8.2-4.45,15.82-12.65,17.03c-42.31,6.25-70.65,36.62-98.05,65.99
	c-10.22,10.95-20.78,22.27-31.78,31.94c-27,23.74-97.02,87.02-163.94,161.78C103.8,394.44,61.79,456.98,49.29,500.48
	C47.4,507.06,41.4,511.34,34.88,511.34z"/>
<path d="M310.65,174.25c-5.14,0-10.15-2.65-12.94-7.4c-4.2-7.14-1.82-16.33,5.33-20.53c51.67-30.39,81.56-28.71,116.17-26.77
	c16.69,0.94,33.94,1.9,56.18-0.71c8.22-0.96,15.68,4.92,16.65,13.15c0.97,8.23-4.92,15.68-13.15,16.65
	c-24.83,2.91-44.23,1.83-61.36,0.86c-32.18-1.81-55.43-3.11-99.28,22.68C315.85,173.58,313.23,174.25,310.65,174.25z"/>
<path d="M240.43,240.94c-4.85,0-9.6-2.34-12.49-6.68c-4.6-6.89-2.74-16.21,4.15-20.8c49.52-33.04,106.75-42.49,165.5-27.34
	c8.02,2.07,12.85,10.25,10.78,18.27c-2.07,8.02-10.25,12.85-18.27,10.78c-50.25-12.96-99.14-4.92-141.36,23.25
	C246.18,240.12,243.29,240.94,240.43,240.94z"/>
<path d="M152.68,322.85c-3.84,0-7.68-1.46-10.61-4.39c-5.86-5.86-5.86-15.36,0-21.21c48.23-48.23,118.68-64.22,209.39-47.52
	c8.15,1.5,13.54,9.32,12.04,17.47c-1.5,8.15-9.33,13.53-17.47,12.04c-37.3-6.87-70.85-7.75-99.72-2.63
	c-33.21,5.9-61.15,19.98-83.03,41.86C160.36,321.39,156.52,322.85,152.68,322.85z"/>
<path d="M300.96,183.05c-3.13,0-6.29-0.98-8.98-3c-6.63-4.97-7.98-14.37-3.01-21c27.66-36.91,25.38-59.67,22.49-88.48
	c-1.64-16.38-3.51-34.94,0.06-57.28c1.31-8.18,9-13.75,17.18-12.44c8.18,1.31,13.75,9,12.45,17.18
	c-2.96,18.49-1.37,34.28,0.16,49.55c3.12,31.07,6.34,63.2-28.33,109.47C310.03,180.98,305.52,183.05,300.96,183.05z"/>
<path d="M217.2,262.61c-3.35,0-6.71-1.11-9.5-3.4c-6.41-5.25-7.34-14.7-2.09-21.11c23.56-28.72,36.64-55.27,41.16-83.54
	c4.13-25.8,0.96-50.92-5.07-80.7c-1.64-8.12,3.61-16.03,11.73-17.68c8.12-1.64,16.03,3.61,17.68,11.73
	c11.77,58.18,17.4,116.43-42.3,189.22C225.85,260.74,221.54,262.61,217.2,262.61z"/>
<path d="M124.53,364.56c-3.32,0-6.66-1.1-9.44-3.35c-6.43-5.22-7.42-14.67-2.2-21.1c25.68-31.65,42.2-65.72,49.1-101.27
	c6.14-31.63,4.85-65.41-3.83-100.4c-1.99-8.04,2.91-16.18,10.95-18.17c8.04-1.99,16.17,2.91,18.17,10.95
	c20.77,83.77,3.58,160.41-51.09,227.79C133.23,362.67,128.9,364.56,124.53,364.56z"/>
</svg>
