<?xml version="1.0" encoding="utf-8"?>
<!-- Generator: Adobe Adobe Illustrator 24.2.0, SVG Export Plug-In . SVG Version: 6.00 Build 0)  -->
<svg version="1.1" id="Ebene_1" xmlns="http://www.w3.org/2000/svg" xmlns:xlink="http://www.w3.org/1999/xlink" x="0px" y="0px"
	 width="512px" height="512px" viewBox="0 0 512 512" style="enable-background:new 0 0 512 512;" xml:space="preserve">
<path d="M201.15,511.52l-75.05-0.13c-4.07-0.01-7.96-1.67-10.78-4.6c-2.67-2.77-65.54-68.88-86.76-156.76
	C17.89,305.82,17.9,272.54,17.9,217.41v-3.55c0-8.28,6.72-15,15-15h336.44c8.28,0,15,6.72,15,15v3.13c0,18.2,0,33.92-0.37,48.5v0
	c-0.72,28.17-2.75,53.32-10.29,84.54c-3.43,14.2-8.2,28.76-14.19,43.26c-27.1,65.81-70.73,111.58-72.57,113.5
	c-2.82,2.93-6.71,4.59-10.78,4.6L201.15,511.52z M132.78,481.4l68.37,0.12l68.31-0.12c11.12-12.68,42.11-50.5,62.3-99.54
	c5.4-13.09,9.69-26.16,12.76-38.87c6.92-28.66,8.79-52.01,9.46-78.27c0.28-10.97,0.34-22.76,0.36-35.86H47.9
	c0.04,47.65,0.7,76.33,9.82,114.13C74.05,410.62,118.89,465.58,132.78,481.4z M368.98,265.11L368.98,265.11L368.98,265.11z"/>
<path d="M396.59,428.7c-3.28,0-6.57-0.2-9.86-0.59c-21.02-2.54-39.95-13.31-53.31-30.33c-5.11-6.52-3.98-15.95,2.54-21.06
	c6.52-5.11,15.95-3.98,21.06,2.54c8.53,10.87,20.04,17.46,33.3,19.06c32.87,3.96,65.37-24.06,72.42-62.48
	c3.68-20.08-0.33-39.92-11.01-54.42c-8.61-11.69-20.49-18.76-34.34-20.43c-13.52-1.63-27.27,2.07-39.77,10.71
	c-6.82,4.71-16.16,3-20.87-3.82c-4.71-6.82-3-16.16,3.82-20.87c18.36-12.68,39.82-18.29,60.41-15.81
	c21.96,2.65,41.46,14.17,54.91,32.43c15.56,21.14,21.53,49.43,16.36,77.62c-4.72,25.75-18.05,48.92-37.52,65.27
	C437.48,421,417.15,428.7,396.59,428.7z"/>
<path d="M121.41,150.84c-2.78,0-5.54-1.15-7.52-3.4c-10.71-12.2-22.97-32.81-22.29-50.77c0.53-13.87,8.26-21.7,14.48-28
	c5.54-5.61,8.43-8.8,8.43-14.52c0-11.55-13.68-29.91-20.7-36.12c-4.14-3.65-4.54-9.97-0.88-14.11c3.65-4.14,9.97-4.54,14.11-0.88
	c8.61,7.6,27.47,31.01,27.47,51.11c0,14.2-7.87,22.17-14.19,28.58c-5.58,5.65-8.5,8.87-8.72,14.7c-0.36,9.48,6.93,24.97,17.33,36.81
	c3.64,4.15,3.23,10.47-0.92,14.11C126.11,150.02,123.76,150.84,121.41,150.84z"/>
<path d="M212.07,150.84c-2.78,0-5.54-1.15-7.52-3.4c-10.71-12.2-22.97-32.81-22.29-50.77c0.53-13.87,8.26-21.7,14.48-28
	c5.54-5.61,8.43-8.8,8.43-14.52c0-11.55-13.68-29.92-20.7-36.12c-4.14-3.65-4.54-9.97-0.88-14.11c3.65-4.14,9.97-4.54,14.11-0.88
	c8.61,7.59,27.47,31.01,27.47,51.11c0,14.2-7.87,22.17-14.19,28.58c-5.58,5.65-8.5,8.87-8.72,14.7
	c-0.36,9.48,6.93,24.97,17.33,36.81c3.64,4.15,3.23,10.47-0.92,14.11C216.77,150.02,214.42,150.84,212.07,150.84z"/>
<path d="M300.25,155.8c-2.78,0-5.54-1.15-7.52-3.4c-10.71-12.2-22.97-32.81-22.29-50.77c0.53-13.87,8.26-21.7,14.48-28
	c5.54-5.61,8.43-8.8,8.43-14.52c0-11.55-13.68-29.92-20.7-36.12c-4.14-3.65-4.54-9.97-0.88-14.11c3.65-4.14,9.97-4.54,14.11-0.88
	c8.61,7.6,27.47,31.01,27.47,51.11c0,14.2-7.87,22.17-14.19,28.58c-5.58,5.65-8.5,8.87-8.72,14.7c-0.36,9.48,6.93,24.97,17.33,36.82
	c3.64,4.15,3.23,10.47-0.92,14.11C304.94,154.99,302.59,155.8,300.25,155.8z"/>
</svg>
