<?xml version="1.0" encoding="utf-8"?>
<!-- Generator: Adobe Adobe Illustrator 24.2.0, SVG Export Plug-In . SVG Version: 6.00 Build 0)  -->
<svg version="1.1" id="Ebene_1" xmlns="http://www.w3.org/2000/svg" xmlns:xlink="http://www.w3.org/1999/xlink" x="0px" y="0px"
	 width="512px" height="512px" viewBox="0 0 512 512" style="enable-background:new 0 0 512 512;" xml:space="preserve">
<style type="text/css">
	.st0{fill:none;stroke:#000000;stroke-width:30;stroke-linejoin:round;stroke-miterlimit:10;}
	.st1{fill:none;stroke:#000000;stroke-width:20;stroke-linejoin:round;stroke-miterlimit:10;}
</style>
<path d="M345.87,349.39H166.19c-8.28,0-15-6.72-15-15V138.22c-0.26-6.35-1.89-70.7,34.81-109.27c17.87-18.78,41.46-28.3,70.13-28.3
	c27.56,0,50.48,9.21,68.14,27.36c37.36,38.42,36.72,103.73,36.61,108.93v197.45C360.87,342.67,354.16,349.39,345.87,349.39z
	 M181.19,319.39h149.68V136.76c0-0.14,0-0.28,0.01-0.42c0.01-0.55,1.08-57.48-28.19-87.48c-11.95-12.25-27.18-18.21-46.56-18.21
	c-20.37,0-36.18,6.18-48.32,18.91c-28.94,30.32-26.66,87.05-26.63,87.62c0.01,0.23,0.02,0.49,0.02,0.72V319.39z"/>
<path d="M262.97,511.25h-13.34c-13.95,0-25.3-11.35-25.3-25.3V334.39c0-5.52,4.48-10,10-10h43.34c5.52,0,10,4.48,10,10v152.17
	C287.67,500.17,276.59,511.25,262.97,511.25z M244.33,344.39v141.56c0,2.92,2.38,5.3,5.3,5.3h13.34c2.59,0,4.7-2.11,4.7-4.7V344.39
	H244.33z"/>
</svg>
