<?xml version="1.0" encoding="utf-8"?>
<!-- Generator: Adobe Adobe Illustrator 24.2.0, SVG Export Plug-In . SVG Version: 6.00 Build 0)  -->
<svg version="1.1" id="Ebene_1" xmlns="http://www.w3.org/2000/svg" xmlns:xlink="http://www.w3.org/1999/xlink" x="0px" y="0px"
	 width="512px" height="512px" viewBox="0 0 512 512" style="enable-background:new 0 0 512 512;" xml:space="preserve">
<style type="text/css">
	.st0{fill:none;stroke:#000000;stroke-width:30;stroke-linejoin:round;stroke-miterlimit:10;}
	.st1{fill:none;stroke:#000000;stroke-width:20;stroke-linecap:round;stroke-linejoin:round;stroke-miterlimit:10;}
</style>
<g>
	<path d="M91.25,491.81c-3.88,0-7.67-1.34-10.71-3.82l-57.59-47.15c-6.92-5.67-8.23-15.75-2.98-23l148.51-205.02
		c2.43-3.36,6.01-5.7,10.05-6.59l274.09-60.39c4.56-1,9.34-0.08,13.2,2.57c3.86,2.65,6.44,6.77,7.15,11.39l10.32,67.65
		c1.34,8.78-4.35,17.1-13.02,19.04l-223.35,50.04c-23.02,30.23-42.08,55.68-62.2,82.55c-23.3,31.11-47.39,63.28-80.03,106.07
		c-2.78,3.65-6.92,6-11.47,6.54C92.57,491.77,91.91,491.81,91.25,491.81z M56.7,424.77l31.71,25.96
		c27.31-35.91,48.59-64.33,69.24-91.91c21.24-28.37,41.31-55.16,66.12-87.69c2.41-3.16,5.86-5.37,9.74-6.24l213.97-47.94
		l-5.22-34.21l-250.18,55.12L56.7,424.77z"/>
	<path d="M203.02,224.13l-33.52-4.38l25.09-191.91c0.61-4.64,3.11-8.82,6.91-11.54c3.8-2.73,8.56-3.76,13.15-2.84l72.86,14.48
		c8.73,1.74,14.62,9.94,13.47,18.77L279.54,210.6l-33.52-4.38L265.4,58l-39.63-7.87L203.02,224.13z"/>
	<path d="M289.41,210.12l-33.63-3.49l19.85-191.4c0.5-4.84,3.07-9.23,7.04-12.05c3.97-2.82,8.97-3.78,13.7-2.65l63.83,15.25
		c8.25,1.97,13.76,9.75,12.89,18.19l-16.96,163.47l-33.63-3.49l15.43-148.73l-30.66-7.32L289.41,210.12z"/>
	<path d="M359.43,196.77l-7.97-32.86l123.29-29.9l-7.51-30.95l-123.29,29.9l-7.97-32.86l139.72-33.88
		c9.07-2.2,18.21,3.37,20.41,12.44l15.47,63.81c2.2,9.07-3.37,18.21-12.44,20.41L359.43,196.77z"/>
	<path d="M11.2,469.31c-4.25,0-8.32-2.42-10.23-6.53c-2.62-5.64-0.17-12.35,5.48-14.97l33.47-15.54c5.64-2.62,12.35-0.17,14.97,5.48
		c2.62,5.64,0.17,12.35-5.48,14.97l-33.47,15.54C14.41,468.97,12.79,469.31,11.2,469.31z"/>
	<path d="M29.9,495.37c-2.91,0-5.82-1.12-8.02-3.35c-4.37-4.43-4.33-11.56,0.1-15.94l31.14-30.74c4.43-4.37,11.56-4.33,15.94,0.1
		c4.37,4.43,4.33,11.56-0.1,15.94l-31.14,30.74C35.62,494.29,32.76,495.37,29.9,495.37z"/>
	<path d="M58.7,511.93c-1.11,0-2.23-0.16-3.34-0.51c-5.94-1.84-9.27-8.16-7.43-14.1l8.53-27.51c1.84-5.94,8.15-9.27,14.1-7.43
		c5.94,1.84,9.27,8.16,7.43,14.1l-8.53,27.51C67.97,508.82,63.51,511.93,58.7,511.93z"/>
</g>
</svg>
