<?xml version="1.0" encoding="utf-8"?>
<!-- Generator: Adobe Adobe Illustrator 24.2.0, SVG Export Plug-In . SVG Version: 6.00 Build 0)  -->
<svg version="1.1" id="Ebene_1" xmlns="http://www.w3.org/2000/svg" xmlns:xlink="http://www.w3.org/1999/xlink" x="0px" y="0px"
	 width="512px" height="512px" viewBox="0 0 512 512" style="enable-background:new 0 0 512 512;" xml:space="preserve">
<style type="text/css">
	.st0{fill:none;stroke:#000000;stroke-width:30;stroke-miterlimit:10;}
	.st1{fill:none;stroke:#000000;stroke-width:15;stroke-linecap:round;stroke-miterlimit:10;}
</style>
<g>
	<path d="M49.22,512c-16.89,0-28.08-8.13-34.81-15.63h0c-11-12.27-14.7-27.45-10.99-45.12c2.75-13.1,9.12-25.28,14.24-35.07
		c1.95-3.73,4.5-8.6,5.56-11.39c-14.58-37.3-15.61-87.3-2.75-137.84c10.3-40.48,34.23-100.38,89.75-155.9
		c45.66-45.66,102.69-79.86,160.59-96.29c53.68-15.23,102.78-13.37,135.92,4.96c2.37-1.07,5.56-2.7,8.13-4.01
		c18.85-9.61,53.94-27.51,82.34-4.4c8.52,6.93,17.68,20.08,12.94,43.32c-2.64,12.91-8.85,25.8-13.84,36.16
		c-1.69,3.51-3.83,7.95-5.06,10.99c21.77,33.63,24.59,82.78,7.84,139.24c-16.99,57.28-51.87,114.34-98.2,160.67
		c-43.81,43.81-99.05,76.68-155.54,92.57c-52.23,14.69-102.52,13.78-138.66-2.4c-2.86,1.05-7.8,3.55-11.6,5.48
		c-10.07,5.1-22.6,11.45-35.86,13.76C55.68,511.72,52.35,512,49.22,512z M36.71,476.36c7.09,7.9,15.6,9.06,44.82-5.74
		c13.07-6.62,24.35-12.33,35.15-7.13c58.43,28.16,175.59,4.44,263-82.97c42.87-42.87,75.06-95.43,90.66-148.01
		c14.59-49.18,12.24-92.04-6.44-117.6c-7.53-10.3-1.82-22.13,5.4-37.12c6.97-14.46,17.5-36.31,8.98-43.24
		c-12.26-9.98-29.81-2.35-49.82,7.86c-12.36,6.3-23.03,11.75-33.01,5.45c-25.52-16.13-69.06-17.73-116.47-4.27
		c-53.06,15.06-105.47,46.54-147.58,88.65C80.7,182.94,58.88,237.5,49.51,274.34c-11.63,45.7-10.7,90.09,2.53,121.8
		c4.4,10.54-1.27,21.37-7.83,33.92C27.49,462.05,30.73,469.69,36.71,476.36L36.71,476.36z"/>
	<path d="M85.14,358.92c-3.51,0-6.64-2.48-7.34-6.05c-9.55-48.78,1.08-90.29,34.45-134.58c2.49-3.3,7.19-3.96,10.49-1.47
		c3.3,2.49,3.96,7.19,1.47,10.49c-30.6,40.6-40.38,78.43-31.72,122.68c0.79,4.06-1.85,8-5.91,8.79
		C86.1,358.87,85.62,358.92,85.14,358.92z"/>
	<path d="M419.66,282.67c-1.32,0-2.66-0.35-3.87-1.08c-3.54-2.14-4.67-6.75-2.53-10.29c26.34-43.48,32.25-82.11,19.16-125.26
		c-1.2-3.96,1.03-8.14,4.99-9.34c3.96-1.2,8.14,1.04,9.34,4.99c14.43,47.57,8.05,89.94-20.69,137.37
		C424.67,281.39,422.2,282.67,419.66,282.67z"/>
</g>
</svg>
