<?xml version="1.0" encoding="UTF-8" standalone="no"?>
<!DOCTYPE svg PUBLIC "-//W3C//DTD SVG 1.1//EN" "http://www.w3.org/Graphics/SVG/1.1/DTD/svg11.dtd">
<svg width="100%" height="100%" viewBox="0 0 512 512" version="1.1" xmlns="http://www.w3.org/2000/svg" xmlns:xlink="http://www.w3.org/1999/xlink" xml:space="preserve" xmlns:serif="http://www.serif.com/" style="fill-rule:evenodd;clip-rule:evenodd;stroke-linejoin:round;stroke-miterlimit:2;">
    <g>
        <g transform="matrix(1.15017,0,0,1.15017,-21.5337,-60.612)">
            <path d="M87.6,474.665C70.71,474.665 59.52,466.535 52.79,459.035C41.79,446.765 38.09,431.585 41.8,413.915C44.55,400.815 43.845,397.8 48.965,388.01C50.915,384.28 53.465,379.41 54.525,376.62C39.945,339.32 28.634,298.558 35.4,258.803C42.497,217.102 79.392,161.137 110.11,128.981C139.23,98.497 181.844,73.865 219.707,65.863C257.57,57.861 304.149,62.638 337.289,80.968C339.659,79.898 342.849,78.268 345.419,76.958C364.269,67.348 391.966,54.519 420.366,77.629C428.886,84.559 437.878,100.437 433.138,123.677C430.498,136.587 431.849,141.678 426.859,152.038C425.169,155.548 423.029,159.988 421.799,163.028C443.569,196.658 452.741,251.675 447.977,292.123C443.212,332.571 422.799,375.857 393.212,405.715C361.216,438.005 313.758,475.486 256,485.858C207.97,494.483 174.125,479.87 137.985,463.69C135.125,464.74 130.185,467.24 126.385,469.17C116.315,474.27 110.86,471.455 97.6,473.765C94.06,474.385 90.73,474.665 87.6,474.665ZM75.09,439.025C82.18,446.925 83.615,457.25 112.835,442.45C125.905,435.83 137.185,430.12 147.985,435.32C206.415,463.48 279.943,478.137 372.012,384.545C397.282,358.857 415.496,318.345 419.237,283.613C422.978,248.882 413.139,201.718 394.459,176.158C386.929,165.858 392.639,154.028 399.859,139.038C406.829,124.578 409.966,107.799 401.446,100.869C389.186,90.889 379.029,93.448 359.019,103.658C346.659,109.958 335.989,115.408 326.009,109.108C300.489,92.978 260.227,87.871 227.877,94.693C195.424,101.537 156.904,123.293 131.29,150.171C104.051,178.754 69.851,229.42 64.44,266.193C59.429,300.243 70.115,336.26 83.345,367.97C87.745,378.51 82.075,389.34 75.515,401.89C58.795,433.88 69.11,432.355 75.09,439.025Z" style="fill-rule:nonzero;"/>
        </g>
        <g transform="matrix(1.14013,0.151626,-0.151626,1.14013,45.7409,-132.07)">
            <path d="M85.14,358.92C81.63,358.92 78.5,356.44 77.8,352.87C68.25,304.09 78.88,262.58 112.25,218.29C114.74,214.99 119.44,214.33 122.74,216.82C126.04,219.31 126.7,224.01 124.21,227.31C93.61,267.91 83.83,305.74 92.49,349.99C93.28,354.05 90.64,357.99 86.58,358.78C86.1,358.87 85.62,358.92 85.14,358.92Z" style="fill-rule:nonzero;"/>
        </g>
        <g transform="matrix(1.1329,0.198573,-0.198573,1.1329,-44.7867,-40.8274)">
            <path d="M419.66,282.67C418.34,282.67 417,282.32 415.79,281.59C412.25,279.45 411.12,274.84 413.26,271.3C439.6,227.82 445.51,189.19 432.42,146.04C431.22,142.08 433.45,137.9 437.41,136.7C441.37,135.5 445.55,137.74 446.75,141.69C461.18,189.26 454.8,231.63 426.06,279.06C424.67,281.39 422.2,282.67 419.66,282.67Z" style="fill-rule:nonzero;"/>
        </g>
    </g>
</svg>
