<?xml version="1.0" encoding="UTF-8" standalone="no"?>
<!DOCTYPE svg PUBLIC "-//W3C//DTD SVG 1.1//EN" "http://www.w3.org/Graphics/SVG/1.1/DTD/svg11.dtd">
<svg width="100%" height="100%" viewBox="0 0 512 512" version="1.1" xmlns="http://www.w3.org/2000/svg" xmlns:xlink="http://www.w3.org/1999/xlink" xml:space="preserve" xmlns:serif="http://www.serif.com/" style="fill-rule:evenodd;clip-rule:evenodd;stroke-linejoin:round;stroke-miterlimit:2;">
    <g id="g971" transform="matrix(1.16865,0.126258,-0.126258,1.16865,-1019.03,-124.237)">
        <g id="Layer-1" serif:id="Layer 1">
            <g id="g9711" serif:id="g971">
                <g>
                    <path id="path570" d="M983.469,104.909C983.005,104.445 982.625,103.371 982.625,102.523C982.625,99.424 986.943,98.209 989.361,100.628C990.897,102.163 990.99,102.922 989.843,104.559C988.813,106.03 984.81,106.25 983.469,104.909Z" style="fill-rule:nonzero;"/>
                    <path id="path568" d="M990.489,114.638C988.779,113.053 988.679,111.512 990.189,110.002C991.51,108.681 993.484,108.951 995.368,110.71C996.927,112.165 997.323,113.503 996.596,114.86C995.729,116.481 992.345,116.357 990.489,114.638Z" style="fill-rule:nonzero;"/>
                    <path id="path566" d="M957.204,119.268C955.061,116.9 956.927,113.775 962.174,110.942C963.568,110.19 964.289,110.084 965.195,110.497C966.026,110.875 966.568,110.857 966.988,110.436C967.434,109.991 967.591,110.001 967.591,110.478C967.591,110.832 967.35,111.122 967.054,111.122C966.759,111.122 966.517,111.799 966.517,112.626C966.517,114.835 961.589,120.25 959.578,120.25C958.761,120.25 957.693,119.808 957.204,119.268L957.204,119.268Z" style="fill-rule:nonzero;"/>
                    <path id="path564" d="M959.108,129.27C957.285,127.448 959.429,124.412 961.685,125.619C963.58,126.634 962.76,129.915 960.611,129.915C960.139,129.915 959.462,129.625 959.108,129.27Z" style="fill-rule:nonzero;"/>
                    <path id="path562" d="M977.977,134.98C976.863,133.866 976.663,133.275 976.934,131.893C977.565,128.668 978.902,127.517 982.223,127.339L985.201,127.18L984.913,125.036C984.68,123.293 984.857,122.645 985.867,121.571C986.912,120.459 987.606,120.25 990.26,120.25C992.861,120.25 993.635,120.473 994.686,121.523C995.843,122.68 995.982,122.708 996.211,121.834C996.35,121.305 997.445,120.37 998.645,119.758C1001.28,118.415 1003.35,118.92 1003.88,121.035C1004.35,122.916 1003.89,123.826 1001.84,125.077C999.692,126.386 998.326,126.44 997.03,125.268C996.116,124.44 996.049,124.441 996.049,125.292C996.049,125.794 995.456,126.798 994.731,127.523C993.622,128.632 992.897,128.841 990.167,128.841C988.381,128.841 986.921,129.031 986.921,129.262C986.921,129.925 983.267,135.423 982.506,135.907C981.204,136.733 979.35,136.354 977.977,134.98L977.977,134.98Z" style="fill-rule:nonzero;"/>
                    <path id="path560" d="M949.604,137.349C946.786,135.807 946.336,132.81 948.65,130.99C951.451,128.787 955.958,130.806 955.958,134.264C955.958,137.249 952.495,138.93 949.604,137.349Z" style="fill-rule:nonzero;"/>
                    <path id="path558" d="M1003.03,138.506C1000.73,136.205 1002.31,133.249 1006.07,132.801C1008.95,132.46 1010.81,133.547 1010.81,135.568C1010.81,136.918 1010.45,137.349 1008.42,138.371C1005.47,139.859 1004.41,139.885 1003.03,138.506Z" style="fill-rule:nonzero;"/>
                    <path id="path556" d="M954.965,144.084C953.127,142.101 952.825,140.767 953.934,139.541C955.231,138.109 956.568,138.246 958.173,139.977C959.817,141.75 959.974,144.14 958.499,144.93C956.95,145.759 956.394,145.625 954.965,144.084Z" style="fill-rule:nonzero;"/>
                    <path id="path554" d="M1008.17,146.79C1007.7,146.326 1007.32,145.497 1007.32,144.949C1007.32,143.973 1008.64,142.264 1009.39,142.264C1010.33,142.264 1012.16,144.034 1012.16,144.949C1012.16,145.864 1010.33,147.633 1009.39,147.633C1009.18,147.633 1008.63,147.254 1008.17,146.79Z" style="fill-rule:nonzero;"/>
                    <path id="path552" d="M997.337,147.941C994.771,146.823 994.099,143.76 996.037,142.007C996.849,141.271 997.635,141.118 999.387,141.353C1003.17,141.86 1004.86,145.27 1002.49,147.633C1001.25,148.874 999.694,148.967 997.337,147.941Z" style="fill-rule:nonzero;"/>
                    <path id="path550" d="M1024.92,160.538C1024.18,159.957 1023.27,158.734 1022.89,157.819C1022.28,156.35 1022.32,155.988 1023.27,154.714C1024.66,152.839 1027.24,152.519 1028.76,154.031C1031,156.27 1030.87,159.894 1028.52,160.965C1026.69,161.797 1026.49,161.772 1024.92,160.538Z" style="fill-rule:nonzero;"/>
                    <path id="path548" d="M1003.03,161.201C1001.28,160.557 999.17,158.714 998.672,157.405C997.94,155.48 998.973,153.256 1000.99,152.422C1002.38,151.846 1002.87,151.89 1004.42,152.722C1006.98,154.101 1008.04,155.452 1008.04,157.335C1008.04,159.815 1005.2,162.003 1003.03,161.201Z" style="fill-rule:nonzero;"/>
                    <path id="path546" d="M975.067,162.709C972.67,160.312 973.124,157.537 976.171,155.961C979.357,154.314 981.158,155.376 981.744,159.245C982.437,163.818 978.315,165.956 975.067,162.709Z" style="fill-rule:nonzero;"/>
                    <path id="path544" d="M976.182,170.185C976.182,169.889 976.424,169.648 976.719,169.648C977.014,169.648 977.256,169.889 977.256,170.185C977.256,170.48 977.014,170.722 976.719,170.722C976.424,170.722 976.182,170.48 976.182,170.185Z" style="fill-rule:nonzero;"/>
                    <path id="path542" d="M959.657,170.423C958.815,169.833 958.463,169.04 958.463,167.73C958.463,166.212 958.781,165.68 960.208,164.809C963.454,162.83 968.176,163.822 968.109,166.468C968.078,167.668 965.863,170.06 964.2,170.688C962.134,171.468 961.06,171.405 959.657,170.423Z" style="fill-rule:nonzero;"/>
                    <path id="path540" d="M936.503,171.055C935.789,170.195 936.078,165.976 936.964,164.321C937.726,162.895 939.671,162.823 939.671,164.22C939.671,164.856 940.173,165.362 941.013,165.573C943.113,166.1 943.025,168.771 940.849,170.585C939.208,171.952 937.409,172.147 936.503,171.055Z" style="fill-rule:nonzero;"/>
                    <path id="path538" d="M1005.48,176.47C1005.68,175.941 1005.98,175.643 1006.15,175.808C1006.31,175.973 1006.15,176.407 1005.78,176.771C1005.25,177.297 1005.19,177.236 1005.48,176.47Z" style="fill-rule:nonzero;"/>
                    <path id="path536" d="M986.408,178C984.469,175.663 987.745,172.926 990.578,174.516C992.316,175.492 992.644,176.734 991.473,177.905C990.393,178.985 987.274,179.043 986.408,178L986.408,178Z" style="fill-rule:nonzero;"/>
                    <path id="path534" d="M927.966,182.964C926.815,181.812 927.178,178.024 928.564,176.721C930,175.373 932.261,175.194 933.224,176.354C933.968,177.251 933.521,181.788 932.575,182.937C931.871,183.792 928.812,183.809 927.966,182.964L927.966,182.964Z" style="fill-rule:nonzero;"/>
                    <path id="path532" d="M1037.12,182.532C1035.79,181.145 1035.65,180.711 1036.09,179.444C1036.49,178.295 1037,177.932 1038.4,177.797C1041.68,177.481 1044.04,181.174 1041.92,183.301C1040.62,184.598 1038.83,184.309 1037.12,182.532Z" style="fill-rule:nonzero;"/>
                    <path id="path530" d="M980.184,187.556C978.277,185.499 978.409,183.015 980.519,181.239C981.427,180.475 982.492,179.849 982.884,179.849C983.846,179.849 986.384,184.271 986.384,185.947C986.384,189.065 982.513,190.07 980.184,187.556Z" style="fill-rule:nonzero;"/>
                    <path id="path528" d="M1022.2,187.478C1019.75,184.975 1019.53,182.633 1021.53,180.63C1023.92,178.243 1027.71,179.397 1029.62,183.092C1030.75,185.28 1030.61,186.685 1029.09,188.196C1027.06,190.236 1024.65,189.985 1022.2,187.478Z" style="fill-rule:nonzero;"/>
                    <path id="path526" d="M958.732,194.8C956.989,193.847 956.316,192.657 956.316,190.529C956.316,187.707 956.78,186.808 958.64,186.026C960.566,185.216 963.027,185.86 963.844,187.388C964.435,188.491 964.543,191.658 964.036,192.98C963.72,193.804 961.156,195.439 960.235,195.404C959.999,195.395 959.323,195.123 958.732,194.8Z" style="fill-rule:nonzero;"/>
                    <path id="path524" d="M1003.27,194.639C1001.66,193.029 1001.59,191.195 1003.07,189.318C1004.46,187.545 1007.34,187.378 1008.94,188.977C1010.53,190.576 1010.37,193.45 1008.59,194.844C1006.72,196.321 1004.88,196.25 1003.27,194.639Z" style="fill-rule:nonzero;"/>
                    <path id="path522" d="M969.634,195.673C969.117,194.538 969.189,194.083 970.075,192.896C971.8,190.586 972.759,190.201 974.442,191.143C976.381,192.227 976.54,193.804 974.889,195.585C973.081,197.536 970.502,197.579 969.634,195.673L969.634,195.673Z" style="fill-rule:nonzero;"/>
                    <path id="path520" d="M991.216,201.327C988.396,198.506 992.018,192.916 995.747,194.334C998.437,195.357 998.914,198.244 996.806,200.748C995.154,202.712 992.841,202.951 991.216,201.327Z" style="fill-rule:nonzero;"/>
                    <path id="path518" d="M1027.23,206.892C1024.89,203.924 1026.7,200.253 1030.5,200.253C1032.93,200.253 1034.38,201.798 1034.38,204.376C1034.38,208.108 1029.53,209.815 1027.23,206.892Z" style="fill-rule:nonzero;"/>
                    <path id="path516" d="M928.905,207.742C927.731,206.569 927.831,205.351 929.29,203.039C930.192,201.611 932.507,201.582 933.387,202.989C934.086,204.106 933.478,206.446 932.14,207.784C930.803,209.121 930.276,209.114 928.905,207.742L928.905,207.742Z" style="fill-rule:nonzero;"/>
                    <path id="path514" d="M1049.86,211.766C1049.2,211.302 1048.67,210.364 1048.67,209.657C1048.67,206.87 1052.17,205.649 1053.74,207.889C1054.84,209.466 1054.79,210.236 1053.5,211.528C1052.21,212.821 1051.44,212.871 1049.86,211.766Z" style="fill-rule:nonzero;"/>
                    <path id="path512" d="M1019.56,213.645C1018.33,212.926 1017.41,209.531 1018.1,208.242C1018.39,207.701 1019.1,207.002 1019.69,206.689C1022.76,205.044 1025.67,211.348 1022.78,213.377C1021.4,214.341 1020.84,214.388 1019.56,213.645Z" style="fill-rule:nonzero;"/>
                    <path id="path510" d="M986.477,213.507C983.691,210.541 986.138,206.31 990.318,206.868C993.047,207.232 994.438,208.561 994.438,210.806C994.438,213.362 992.865,214.75 989.968,214.75C988.234,214.75 987.349,214.435 986.477,213.507Z" style="fill-rule:nonzero;"/>
                    <path id="path506" d="M976.793,225.562C975.186,223.955 974.825,220.754 976.064,219.093C978.7,215.56 983.162,218.05 983.162,223.055C983.162,226.062 978.951,227.72 976.793,225.562Z" style="fill-rule:nonzero;"/>
                    <path id="path504" d="M957.251,228.844C954.161,225.615 953.733,221.727 956.469,221.732C957.924,221.732 961.087,223.567 962.344,225.136C965.328,228.86 960.577,232.319 957.251,228.844Z" style="fill-rule:nonzero;"/>
                    <path id="path494" d="M1004.44,270.993C1003,268.723 1002.89,266.621 1004.12,265.052C1005.58,263.201 1007.45,263.19 1008.9,265.025C1010.31,266.826 1010.38,270.088 1009.03,271.313C1007.61,272.598 1005.35,272.441 1004.44,270.993L1004.44,270.993Z" style="fill-rule:nonzero;"/>
                    <path id="path502" d="M1005.14,238.873C1000.99,234.428 1004.22,227.029 1009.26,229.434C1010.53,230.043 1011.14,230.866 1011.81,232.927C1013,236.566 1012.93,237.654 1011.38,239.205C1009.49,241.093 1007.1,240.966 1005.14,238.873Z" style="fill-rule:nonzero;"/>
                    <path id="path500" d="M1041.13,251.23C1040.34,249.75 1040.98,247.093 1042.3,246.386C1043.11,245.953 1043.68,246.021 1044.68,246.672C1046.08,247.591 1046.39,249.499 1045.43,251.297C1044.66,252.737 1041.92,252.694 1041.13,251.23Z" style="fill-rule:nonzero;"/>
                    <path id="path498" d="M971.948,255.244C971.348,254.481 970.706,253.382 970.522,252.801C970.065,251.361 971.483,249.359 973.447,248.675C975.037,248.12 975.088,248.159 976.491,251.027C977.846,253.797 977.874,254.011 977.038,255.287C975.833,257.126 973.412,257.105 971.948,255.244L971.948,255.244Z" style="fill-rule:nonzero;"/>
                    <path id="path508" d="M1001.15,222.215C998.484,220.68 998.086,218.784 999.97,216.594C1001.08,215.305 1001.44,215.196 1003.48,215.541C1007.64,216.243 1010.36,219.883 1008.11,221.745C1006.99,222.673 1002.47,222.978 1001.15,222.215Z" style="fill-rule:nonzero;"/>
                    <path id="path496" d="M1023.78,269.072C1021.08,266.087 1025.77,262.564 1029.22,264.983C1030.67,265.997 1030.77,267.957 1029.43,269.165C1028.1,270.366 1024.91,270.313 1023.78,269.072L1023.78,269.072Z" style="fill-rule:nonzero;"/>
                </g>
                <path id="path492" d="M930.34,107.116C930.408,106.917 930.494,106.703 930.602,106.476C931.304,104.998 934.942,99.199 937.934,94.887C939.497,92.634 941.134,90.136 941.554,89.324C942.9,86.721 955.508,74.204 962.767,68.451C963.789,67.641 967.172,64.494 970.295,61.467C973.588,58.276 977.467,54.599 978.913,53.296L979.62,52.659C978.798,49.433 977.353,46.684 972.682,38.756C969.391,33.17 967.603,29.547 966.919,26.95C965.843,22.864 966.701,20.357 968.894,17.808C970.668,15.745 971.087,14.965 978.525,14.57C981.996,14.386 982.491,14.475 984.003,13.393C985.431,12.372 987.97,10.842 989.648,9.996C990.886,9.371 992.528,7.766 992.986,7.306C993.222,5.991 993.952,4.548 995.213,3.338C996.886,1.732 999.462,0.587 1001.6,0.587C1003.92,0.587 1005.64,1.19 1006.99,2.224C1008.7,3.537 1010.02,5.804 1010.5,9.826C1010.9,13.154 1012.28,15.97 1014.79,18.814C1015.45,19.556 1016.25,20.379 1016.66,20.793C1017.46,20.46 1019.77,19.469 1022.03,18.327L1030.02,14.289L1047.01,14.122C1065.38,13.943 1072.97,14.691 1085.92,17.868C1089.46,18.738 1095.97,20.329 1100.39,21.404C1110.53,23.871 1114.81,25.412 1132.5,33.108C1145.84,38.909 1150.06,41.245 1156.96,46.489C1158.16,47.408 1160.26,48.812 1161.61,49.61C1163.2,50.545 1166.75,53.189 1169.48,55.504C1171.88,57.54 1174.91,59.931 1176.21,60.809C1177.82,61.892 1180.32,64.121 1181.77,65.772C1185.05,69.513 1193.9,77.544 1197.02,79.584C1201.4,82.445 1203.08,83.902 1217.54,98.142C1229.23,109.651 1232.35,112.495 1241.05,119.576C1243.04,121.19 1247.45,125.101 1250.86,128.271C1254.08,131.268 1258.34,134.952 1260.34,136.454C1265.12,140.044 1274.88,150.04 1279.51,156.104C1281.09,158.176 1282.83,160.326 1283.42,160.847C1284.69,161.971 1290.91,169.759 1296.03,176.755C1299.11,180.964 1309.26,196.233 1311.73,200.374C1321.42,216.6 1330.35,233.906 1331.83,239.102C1332.42,241.191 1333.85,246.687 1335,251.315L1337.2,260.146L1337.14,277.584C1337.08,296.788 1336.58,301.424 1333.5,313.019C1332.59,316.408 1331.42,320.868 1330.88,322.931C1330.31,325.125 1328.78,329.489 1327.47,332.625C1326.28,335.457 1324.9,339.048 1324.4,340.606C1321,351.218 1307.79,372.271 1301.01,377.981C1292.43,385.208 1287.85,388.182 1281.61,390.776C1279.67,391.58 1277.49,392.609 1276.78,393.109C1275.91,393.724 1271.02,396.394 1265.9,399.012C1254.13,405.033 1244.46,408.227 1233.35,409.805C1228.35,410.516 1217.92,410.863 1215.46,410.507C1215.24,410.476 1215.04,410.436 1214.85,410.389C1214.61,410.329 1214.39,410.258 1214.18,410.18C1214.08,410.165 1213.85,410.131 1213.51,410.081C1210.46,409.636 1198.73,407.936 1191.29,407.106C1182.56,406.132 1180.2,405.672 1170.25,402.978C1166.28,401.902 1161.29,400.741 1159.16,400.407C1153.68,399.548 1149.68,398.567 1141.91,396.153C1127.65,391.719 1122.71,389.942 1112.52,385.61C1108.59,383.938 1101.92,381.314 1097.7,379.778C1093.3,378.181 1085.33,374.685 1079.97,372.006C1075.78,369.911 1071.2,367.813 1070.61,367.542C1070.39,367.486 1070.14,367.409 1069.87,367.306C1067.98,366.583 1060.34,362.898 1057.54,361.318C1057.02,361.024 1054.77,359.96 1052.55,358.945C1050.17,357.857 1044.83,355.335 1040.67,353.339C1036.57,351.373 1032.02,349.226 1030.56,348.568C1021.99,344.716 1012.82,339.553 1007.75,335.763C999.975,329.953 987.871,320.74 985.494,318.825C984.125,317.722 981.549,316.08 979.774,315.17C976.061,313.267 971.122,310.218 961.768,304.017C952.223,297.689 930.584,278.171 924.661,270.565C922.709,268.058 918.965,263.509 916.342,260.456C913.547,257.201 910.203,252.883 908.901,250.868C906.371,246.953 903.254,239.18 900.895,230.64C900.166,228 899.292,224.881 898.953,223.708C898.514,222.189 898.161,214.817 898.149,201.33L898.131,181.548L901.382,172.277C903.071,167.463 905.463,161.161 906.695,158.273C907.85,155.568 909.291,151.765 909.895,149.82C914.035,136.47 918.749,125.134 922.094,120.179C922.645,119.362 923.829,117.607 924.725,116.279C926.368,113.84 929.846,107.954 930.34,107.116ZM1234.93,390.572C1234.98,390.562 1235.02,390.553 1235.06,390.544C1242.97,388.862 1250.51,385.989 1258.81,381.535C1270.29,375.371 1272.13,374.432 1276.21,372.604C1279.25,371.245 1283.11,368.569 1288.06,364.511C1293.19,360.294 1303.1,344.381 1306.41,335.221C1307.19,333.051 1308.8,328.899 1309.98,325.996C1311.09,323.285 1312.6,318.769 1313.34,315.962C1314.12,312.994 1315.22,308.875 1315.79,306.809C1317.8,299.507 1318.44,291.989 1318.5,277.019L1318.55,262.771L1316.63,254.952C1315.54,250.487 1314.27,245.654 1313.81,244.214C1312.28,239.364 1305.21,226.174 1295.26,209.385C1289.17,199.089 1275.89,180.4 1270.21,174.145C1268.64,172.418 1266.12,169.363 1264.61,167.356C1261.34,163.011 1252.63,153.977 1249.78,152.018C1248.38,151.058 1244.17,147.483 1240.44,144.054C1233.55,137.712 1229.39,134.108 1223.24,129.168C1221.01,127.372 1212.8,119.644 1205.02,111.984C1196.89,103.988 1189.82,97.458 1187.27,95.662C1182.04,91.991 1171.52,82.619 1168.54,79.01C1167.75,78.052 1166.46,76.824 1165.65,76.304C1164.52,75.577 1160.96,72.803 1157.74,70.124C1155.68,68.411 1153.13,66.452 1152.62,66.056C1152.54,66.022 1152.47,65.984 1152.39,65.943C1151.64,65.555 1148.62,63.513 1145.21,61.043C1138.57,56.23 1135.81,54.833 1121.38,48.685C1106.47,42.335 1105.1,41.821 1096.81,39.819C1092.36,38.746 1085.93,37.154 1082.51,36.282C1071.3,33.419 1063.16,32.619 1047.6,32.779L1034.34,32.915L1031.24,34.516C1030.2,35.051 1028.97,35.712 1027.8,36.351C1028.2,37.14 1028.46,38.137 1028.46,39.676L1028.46,45.044L1018.25,46.817C1014.32,47.499 1011.75,48.124 1010.21,48.964C1008.95,49.646 1007.62,50.173 1006.56,50.506C1005.95,51.041 1002.71,53.926 999.899,56.776C992.041,64.751 976.47,79.582 972.42,82.956C967.87,86.747 959.311,94.714 957.859,96.548C955.715,99.255 951.131,106.147 948.514,110.583C943.114,119.738 939.636,125.492 938.227,127.614C935.329,131.982 932.172,139.111 929.94,146.214C928.577,150.55 925.907,158.258 924.006,163.341C922.148,168.311 919.718,175.128 918.606,178.49L916.779,184.019L916.779,218.193L918.135,223C920.335,230.801 922.925,237.929 924.723,240.842C925.612,242.281 928.132,245.516 930.307,248.044C932.676,250.798 936.375,255.299 938.526,258.046C943.168,263.976 957.209,277.148 966.97,284.773C971.822,288.564 983.425,296.054 988.144,298.437C990.651,299.702 994.418,302.094 996.517,303.749C1004.24,309.841 1020.29,321.726 1023.51,323.725C1027.26,326.049 1033.3,329.195 1038.87,331.731C1040.96,332.679 1046.07,335.105 1050.24,337.122C1057.94,340.85 1063.74,343.493 1064.49,343.834C1064.64,343.875 1064.8,343.927 1064.98,343.993C1065.42,344.165 1067.12,345.048 1068.98,346.141C1070.6,347.092 1073.68,348.558 1075.81,349.406C1078.2,350.352 1083.76,352.947 1088.16,355.179C1096.86,359.584 1097.62,359.913 1106.47,363.078C1110.24,364.427 1115.87,366.639 1118.98,367.993C1126.51,371.271 1137.19,375.263 1142.62,376.824C1145.21,377.567 1149.39,378.806 1151.92,379.579C1154.31,380.307 1158.9,381.348 1162.13,381.896C1165.7,382.503 1170.27,383.498 1172.29,384.098C1178.55,385.959 1185.88,387.655 1189.22,387.983C1194.56,388.506 1209.04,390.44 1213.95,391.286C1219.13,392.177 1228.98,391.829 1234.93,390.572Z" style="fill-rule:nonzero;"/>
            </g>
        </g>
    </g>
</svg>
