<?xml version="1.0" encoding="UTF-8" standalone="no"?>
<!DOCTYPE svg PUBLIC "-//W3C//DTD SVG 1.1//EN" "http://www.w3.org/Graphics/SVG/1.1/DTD/svg11.dtd">
<svg width="100%" height="100%" viewBox="0 0 512 512" version="1.1" xmlns="http://www.w3.org/2000/svg" xmlns:xlink="http://www.w3.org/1999/xlink" xml:space="preserve" xmlns:serif="http://www.serif.com/" style="fill-rule:evenodd;clip-rule:evenodd;stroke-linecap:round;stroke-linejoin:round;stroke-miterlimit:1.5;">
    <g>
        <g transform="matrix(0.98986,-0.992289,0.947268,0.944949,-265.081,296.876)">
            <path d="M283.211,83.185C390.724,83.185 478.01,159.788 478.01,254.143C478.01,348.497 390.724,425.101 283.211,425.101C175.699,425.101 88.413,348.497 88.413,254.143C88.413,159.788 175.699,83.185 283.211,83.185ZM283.211,93.87C384.004,93.87 465.835,165.686 465.835,254.143C465.835,342.6 384.004,414.416 283.211,414.416C182.419,414.416 100.588,342.6 100.588,254.143C100.588,165.686 182.419,93.87 283.211,93.87Z" style="stroke:black;stroke-width:0.73px;"/>
        </g>
        <g transform="matrix(1.35427,0.36112,-0.36112,1.35427,10.6741,-184.474)">
            <path d="M153.446,415.311C145.956,406.647 144.29,392.324 140.703,383.13C135.893,370.801 133.874,360.725 139.845,350.773C142.972,345.562 137.272,338.87 140.297,333.424C143.514,327.633 148.685,322.75 150.834,316.302C153.205,309.189 152.829,301.525 154.785,294.352C156.193,289.187 159.131,285.253 160.931,280.303C163.779,272.472 164.39,264.321 167.955,256.597C171.109,249.765 176.997,245.818 180.687,239.914C185.753,231.808 188.685,221.722 192.979,213.134C195.77,207.552 201.502,207.063 203.954,202.159C208.397,193.273 211.645,181.298 218.881,174.062C222.773,170.17 227.8,168.186 231.612,163.526C235.552,158.711 237.881,149.755 243.466,146.404C248.507,143.38 252.815,142.856 257.075,138.063C260.825,133.845 264.299,126.218 269.806,124.015C272.185,123.063 275.261,124.8 277.709,123.576C285.707,119.576 291.553,111.854 300.098,108.649C307.898,105.724 332.406,102.063 340.72,99.985" style="fill:none;stroke:black;stroke-width:5.22px;"/>
        </g>
        <g transform="matrix(1.35427,0.36112,-0.36112,1.35427,10.6741,-184.474)">
            <path d="M100.094,349.735C99.353,345.391 101.021,321.77 101.664,316.302C104.25,294.327 111.841,281.069 124.054,263.621C130.735,254.076 134.274,242.584 140.736,232.89C143.01,229.48 146.694,227.727 149.078,224.549C154.21,217.705 155.246,208.679 157.858,200.842C159.858,194.841 162.494,197.962 165.321,195.135C168.806,191.65 176.882,167.301 180.687,160.453C183.77,154.903 190.35,151.228 194.735,146.843C208.913,132.666 231.451,109.157 250.051,101.186C256.688,98.342 262.698,100.658 269.367,98.991C278.788,96.636 297.531,88.342 307.717,86.645" style="fill:none;stroke:black;stroke-width:5.22px;"/>
        </g>
        <g transform="matrix(1.35427,0.36112,-0.36112,1.35427,10.6741,-184.474)">
            <path d="M186.368,427.557C186.37,427.962 186.077,430.329 186.371,430.035C187.7,428.705 186.891,424.895 186.688,423.372C185.888,417.377 182.418,404.39 190.178,401.48C194.115,400.004 200.427,404.873 203.821,401.48C205.835,399.466 204.772,394.358 204.772,391.962C204.772,382.822 203.767,373.061 205.407,364.042C207.594,352.011 217.457,340.777 222.222,329.459C224.935,323.017 225.171,313.962 229.202,308.202C233.06,302.69 239.834,306.883 244.749,303.443C252.234,298.203 254.35,285.363 259.661,278.061C264.981,270.745 274.734,266.759 279.649,259.659C285.639,251.007 281.934,241.039 285.677,232.056C287.118,228.598 291.523,227.615 294.243,225.711C299.022,222.366 300.24,216.055 303.762,211.751C307.071,207.706 312.98,206.794 316.452,202.55C320.69,197.37 321.432,190.025 325.653,185.1C329.943,180.095 335.981,183.609 340.883,180.341C348.778,175.077 355.231,167.181 362.457,160.987C364.59,159.159 367.883,158.243 369.437,155.911C372.707,151.006 379.263,138.939 380.069,133.293" style="fill:none;stroke:black;stroke-width:5.22px;"/>
        </g>
        <g transform="matrix(1.35427,0.36112,-0.36112,1.35427,10.6741,-184.474)">
            <path d="M224.01,432.055C220.923,430.267 217.636,416.191 219.05,411.95C219.952,409.244 225.085,410.318 226.981,410.047C230.461,409.549 233.206,406.23 234.913,403.384C239.681,395.438 238.982,385.644 242.845,377.367C246.612,369.295 255.786,366.825 259.978,358.966C265.076,349.406 265.176,338.043 268.227,327.873C270.878,319.035 278.836,314.9 283.139,307.25C287.367,299.733 287.205,290.551 291.071,282.82C293.909,277.144 297.929,270.406 302.175,265.687C305.753,261.712 310.81,259.652 313.914,255.217C317.467,250.143 317.678,242.887 322.163,238.402C325.238,235.327 329.651,235.103 332.316,231.105C335.993,225.59 335.561,218.082 338.979,212.385C342.141,207.115 348.54,210.348 352.622,206.675C358.84,201.078 359.755,192.041 364.995,186.052C367.619,183.053 371.506,183.14 374.831,181.293C384.082,176.153 393.488,164.98 396.723,155.276" style="fill:none;stroke:black;stroke-width:5.22px;"/>
        </g>
        <g transform="matrix(1.35427,0.36112,-0.36112,1.35427,10.6741,-184.474)">
            <path d="M282.588,422.138C280.623,421.964 279.404,416.423 279.014,415.123C277.123,408.817 273.376,400.724 277.111,394.5C281.788,386.705 292.283,394.048 297.416,387.203C302.161,380.876 296.247,366.299 301.541,357.696C305.777,350.812 314.184,348.298 317.404,340.246C320.298,333.013 318.368,322.781 323.115,316.451C327.141,311.084 335.052,314.371 338.488,308.356C342.692,300.999 340.862,290.908 345.007,283.137C346.918,279.554 350.029,274.384 353.891,272.667C356.917,271.322 360.684,271.2 362.457,267.908C366.554,260.299 364.202,250.392 369.067,243.095C372.819,237.466 382.85,234.302 388.473,230.787C397.695,225.024 406.587,212.795 410.274,202.787" style="fill:none;stroke:black;stroke-width:5.22px;"/>
        </g>
        <g transform="matrix(1.35427,0.36112,-0.36112,1.35427,10.6741,-184.474)">
            <path d="M168.044,419.91C167.189,415.983 168.819,409.904 169.238,405.922C170.567,393.295 170.706,375.083 177.804,364.042C183.42,355.306 189.16,348.937 193.033,338.977C198.18,325.744 197.219,310.519 203.186,297.732C206.17,291.337 212.968,288.731 215.877,282.186C220.086,272.715 222.186,262.45 226.664,252.996C230.612,244.662 237.871,238.351 242.211,230.153C250.664,214.185 260.638,199.034 273.621,186.052C277.916,181.757 287.063,180.208 292.34,176.851C300.161,171.873 306.477,165.021 314.232,160.035C320.083,156.274 326.867,154.044 332.633,150.2C339.205,145.819 343.22,137.515 348.497,131.798C355.432,124.286 362.955,117.185 370.706,110.541" style="fill:none;stroke:black;stroke-width:5.22px;"/>
        </g>
    </g>
</svg>
