<?xml version="1.0" encoding="UTF-8" standalone="no"?>
<!DOCTYPE svg PUBLIC "-//W3C//DTD SVG 1.1//EN" "http://www.w3.org/Graphics/SVG/1.1/DTD/svg11.dtd">
<svg width="100%" height="100%" viewBox="0 0 512 512" version="1.1" xmlns="http://www.w3.org/2000/svg" xmlns:xlink="http://www.w3.org/1999/xlink" xml:space="preserve" xmlns:serif="http://www.serif.com/" style="fill-rule:evenodd;clip-rule:evenodd;stroke-linecap:round;stroke-linejoin:round;stroke-miterlimit:1.5;">
    <g transform="matrix(0.967399,0,0,0.967399,1.1438,8.69854)">
        <path d="M208.357,209.563C175.101,322.497 156.635,429.429 197.508,471.756C240.698,480.853 283.478,479.249 325.916,468.774C364.59,432.631 355.74,306.549 328.684,215.777C381.11,230.871 368.555,218.092 448.406,241.839C509.814,260.101 516.538,198.594 476.736,145.918C442.383,100.455 356.693,30.138 265.447,33.696C149.577,38.214 91.175,90.502 57.813,128.226C-12.998,208.297 33.004,253.046 98.429,234.296C201.373,204.794 208.357,209.563 208.357,209.563ZM208.357,209.563C248.327,200.77 284.434,206.566 328.684,215.777" style="fill:none;stroke:black;stroke-width:40.71px;"/>
    </g>
</svg>
