<?xml version="1.0" encoding="UTF-8" standalone="no"?>
<!DOCTYPE svg PUBLIC "-//W3C//DTD SVG 1.1//EN" "http://www.w3.org/Graphics/SVG/1.1/DTD/svg11.dtd">
<svg width="100%" height="100%" viewBox="0 0 512 512" version="1.1" xmlns="http://www.w3.org/2000/svg" xmlns:xlink="http://www.w3.org/1999/xlink" xml:space="preserve" xmlns:serif="http://www.serif.com/" style="fill-rule:evenodd;clip-rule:evenodd;stroke-linejoin:round;stroke-miterlimit:2;">
    <path d="M71.566,76.418C71.551,93.356 71.268,415.47 71.394,422.637C71.946,453.996 93.608,474.047 114.89,484.519C147.844,500.735 168.848,501.356 187.237,501.499C260.829,502.07 305.928,477.982 361.909,476.74C397.97,475.94 424.928,487.974 424.928,487.974C428.266,489.479 432.14,489.189 435.218,487.203C438.295,485.218 440.156,481.808 440.162,478.146L440.706,111.062C440.712,106.595 437.967,102.585 433.801,100.974C433.801,100.974 400.292,88.086 369.536,88.314C357.154,88.405 336.888,90.872 323.127,92.757C323.203,87.003 323.169,80.266 322.836,74.46C322.402,66.905 321.083,60.632 319.626,57.872C311.686,42.837 297.22,30.756 275.283,22.626C255.428,15.268 229.073,11.05 195.804,10.521C144.558,9.707 105.334,25.455 86.345,43.119C76.095,52.654 71.244,63.136 71.295,72.53C71.302,73.826 71.392,75.123 71.566,76.418ZM93.136,107.96C93.062,192.813 92.881,416.304 92.986,422.257C93.374,444.303 109.464,457.78 124.425,465.142C153.11,479.257 171.398,479.78 187.405,479.904C260.729,480.473 305.652,456.388 361.43,455.15C385.245,454.622 405.591,459.04 418.589,462.893C418.589,462.893 419.099,118.708 419.098,118.708C408.815,115.372 388.664,109.768 369.696,109.909C354.393,110.022 326.391,114.014 315.916,115.592C315.29,115.838 314.635,116.025 313.954,116.151C268.688,124.484 260.455,131.753 197.585,134.453C160.658,136.039 123.988,126.878 100.491,112.848C97.875,111.286 95.42,109.654 93.136,107.96ZM300.324,67.58C294.494,56.818 283.571,48.728 267.779,42.876C249.722,36.184 225.716,32.595 195.461,32.114C157.383,31.509 126.766,40.735 108.451,53.115C103.116,56.721 98.907,60.537 96.098,64.46C94.156,67.172 92.876,69.81 92.89,72.414L92.89,72.414C92.892,72.829 92.914,73.241 92.959,73.649L93.039,74.101C93.062,74.281 93.085,74.461 93.107,74.641L93.121,74.819C94.485,82.175 101.836,88.499 111.562,94.307C132.137,106.592 164.324,114.266 196.658,112.878C253.742,110.426 264.588,103.997 301.48,96.563C301.61,90.58 301.664,82.46 301.276,75.698C301.09,72.466 300.436,68.278 300.324,67.58ZM197.121,43.059C178.288,43.059 162.125,48.643 154.008,55.842C148.479,60.747 145.856,66.571 145.856,72.472C145.856,78.374 148.479,84.198 154.008,89.103C162.125,96.302 178.288,101.886 197.121,101.886C215.955,101.886 232.118,96.302 240.234,89.103C245.764,84.198 248.387,78.374 248.387,72.472C248.387,66.571 245.764,60.747 240.234,55.842C232.118,48.643 215.955,43.059 197.121,43.059ZM226.364,72.472C226.213,72.645 226.049,72.818 225.905,72.946C224.683,74.03 223.078,74.968 221.218,75.824C215.055,78.659 206.518,80.291 197.121,80.291C187.724,80.291 179.188,78.659 173.024,75.824C171.165,74.968 169.56,74.03 168.338,72.946C168.194,72.818 168.03,72.645 167.879,72.472C168.03,72.299 168.194,72.126 168.338,71.998C169.56,70.915 171.165,69.976 173.024,69.121C179.188,66.286 187.724,64.654 197.121,64.654C206.518,64.654 215.055,66.286 221.218,69.121C223.078,69.976 224.683,70.915 225.905,71.998C226.049,72.126 226.213,72.299 226.364,72.472Z"/>
</svg>
