<?xml version="1.0" encoding="utf-8"?>
<!-- Generator: Adobe Adobe Illustrator 24.2.0, SVG Export Plug-In . SVG Version: 6.00 Build 0)  -->
<svg version="1.1" id="Ebene_1" xmlns="http://www.w3.org/2000/svg" xmlns:xlink="http://www.w3.org/1999/xlink" x="0px" y="0px"
	 width="512px" height="512px" viewBox="0 0 512 512" style="enable-background:new 0 0 512 512;" xml:space="preserve">
<style type="text/css">
	.st0{fill:none;stroke:#000000;stroke-width:5;stroke-linecap:round;stroke-linejoin:round;stroke-miterlimit:10;}
	.st1{fill:none;stroke:#000000;stroke-width:10;stroke-miterlimit:10;stroke-dasharray:0,0,0,0,0,0;}
</style>
<g>
	<path d="M138.94,447.21l-8.78-8.78l18.33-18.33l8.78,8.78L138.94,447.21z M117,425.26l-8.78-8.78l18.33-18.33l8.78,8.78L117,425.26
		z M95.05,403.32l-8.78-8.78l18.33-18.33l8.78,8.78L95.05,403.32z M73.1,381.37l-8.78-8.78l18.33-18.33l8.78,8.78L73.1,381.37z"/>
	<path d="M259.87,161.4c-1.28,0-2.55-0.49-3.52-1.46c-1.95-1.95-1.95-5.1,0-7.05L406.35,2.88c1.94-1.95,5.1-1.95,7.05,0
		c1.95,1.95,1.95,5.1,0,7.05L263.39,159.94C262.42,160.91,261.14,161.4,259.87,161.4z"/>
	<path d="M272.02,169.63c-1.28,0-2.55-0.49-3.52-1.46c-1.95-1.95-1.95-5.1,0-7.05L418.51,11.11c1.94-1.95,5.1-1.95,7.05,0
		c1.95,1.95,1.95,5.1,0,7.05L275.55,168.17C274.57,169.15,273.3,169.63,272.02,169.63z"/>
	<path d="M280.26,181.79c-1.28,0-2.55-0.49-3.52-1.46c-1.95-1.95-1.95-5.1,0-7.05L443.65,6.37c1.94-1.95,5.1-1.95,7.05,0
		c1.95,1.95,1.95,5.1,0,7.05L283.78,180.33C282.81,181.3,281.53,181.79,280.26,181.79z"/>
	<path d="M290.39,191.92c-1.28,0-2.55-0.49-3.52-1.46c-1.95-1.95-1.95-5.1,0-7.05L453.78,16.5c1.94-1.95,5.1-1.95,7.05,0
		c1.95,1.95,1.95,5.1,0,7.05L293.91,190.46C292.94,191.43,291.66,191.92,290.39,191.92z"/>
	<path d="M300.52,202.05c-1.28,0-2.55-0.49-3.52-1.46c-1.95-1.95-1.95-5.1,0-7.05l181.7-181.7c1.94-1.95,5.1-1.95,7.05,0
		c1.95,1.95,1.95,5.1,0,7.05l-181.7,181.7C303.07,201.56,301.79,202.05,300.52,202.05z"/>
	<path d="M311.62,213.16c-1.28,0-2.55-0.49-3.52-1.46c-1.95-1.95-1.95-5.1,0-7.05l181.7-181.7c1.94-1.95,5.1-1.95,7.05,0
		c1.95,1.95,1.95,5.1,0,7.05l-181.7,181.7C314.18,212.67,312.9,213.16,311.62,213.16z"/>
	<path d="M323.18,224.71c-1.28,0-2.55-0.49-3.52-1.46c-1.95-1.95-1.95-5.1,0-7.05L486.57,49.29c1.94-1.95,5.1-1.95,7.05,0
		c1.95,1.95,1.95,5.1,0,7.05L326.7,223.25C325.73,224.22,324.45,224.71,323.18,224.71z"/>
	<path d="M334.73,236.26c-1.28,0-2.55-0.49-3.52-1.46c-1.95-1.95-1.95-5.1,0-7.05L498.12,60.84c1.94-1.95,5.1-1.95,7.05,0
		c1.95,1.95,1.95,5.1,0,7.05L338.25,234.8C337.28,235.78,336,236.26,334.73,236.26z"/>
	<path d="M344.92,246.46c-1.28,0-2.55-0.49-3.52-1.46c-1.95-1.95-1.95-5.1,0-7.05L491.41,87.94c1.94-1.95,5.1-1.95,7.05,0
		c1.95,1.95,1.95,5.1,0,7.05L348.45,245C347.47,245.97,346.2,246.46,344.92,246.46z"/>
	<path d="M355.12,256.65c-1.28,0-2.55-0.49-3.52-1.46c-1.95-1.95-1.95-5.1,0-7.05L501.61,98.13c1.94-1.95,5.1-1.95,7.05,0
		c1.95,1.95,1.95,5.1,0,7.05L358.64,255.19C357.67,256.17,356.39,256.65,355.12,256.65z"/>
	<path d="M4.98,364.7 M22.62,377.75c-1.88,1.3-1.71,5.23-0.64,6.78c1.38,2,4.7,1.23,6.76,0.43c3.8-1.44,8.01-0.53,10.81,2.29
		c2.8,2.82,3.67,7.04,2.22,10.74c-0.87,2.22-1.11,5.27,0.8,7.18c1.9,1.9,4.94,1.67,7.14,0.82c3.71-1.44,7.94-0.56,10.77,2.27
		c2.83,2.82,3.72,7.05,2.28,10.78c-0.85,2.21-1.09,5.24,0.82,7.15c1.92,1.92,4.83,0.99,7.22,0.79c2.75-0.23,7.29,0.57,9.8,3.25
		c3.09,3.3,3.44,7.23,3.19,9.79c-0.17,1.8-1.12,5.26,0.8,7.18c1.92,1.92,4.83,0.99,7.22,0.79c2.75-0.23,7.48-1.32,10.8,2.26
		c2.72,2.93,2.39,8.05,2.18,10.8c-0.14,1.8-1.11,5.24,0.81,7.16c1.52,1.51,4.06,1.52,6.84,0.93c2.36-0.5,8.06-1.78,11.55,1.71
		c3.38,3.38,1.25,10.21,1.4,12.64c0.18,2.77,0.37,4.89,1.22,5.74c1.6,1.6,2.93,1.37,5.75,0.23 M148.6,502.11
		c-5.01,5.51-14.45,8.47-18.02,8.47c-6.8,0-13.31-2.51-18.07-7.27c-3.78-3.78-6.05-8.66-6.72-14c-5.4-0.76-10.42-3.14-14.29-7.01
		c-3.8-3.8-6.17-8.73-6.97-14.04c-5.31-0.8-10.24-3.16-14.04-6.97c-3.8-3.81-6.17-8.73-6.97-14.04c-5.31-0.8-10.24-3.16-14.04-6.97
		c-3.85-3.85-6.23-8.73-7.02-13.99c-5.27-0.79-10.14-3.17-13.99-7.02c-3.85-3.85-6.23-8.72-7.02-13.98
		c-5.26-0.79-10.13-3.17-13.99-7.03c-7.43-7.43-6.54-29.48-2.47-33.55 M56.92,424.56c-0.02,0.01-0.04,0.02-0.06,0.02
		C56.88,424.58,56.9,424.57,56.92,424.56z M4.98,364.7l40.61-17.48l179.56-179.29l24.71-36.15l131.61,134.6l-37.93,20.66
		l-179.4,179.4c0,0-11.09,27.01-15.54,35.65 M132.36,489.44c0,0,15.02-34.41,15.02-34.41l184.11-184.11l17.32-9.43l-96.2-98.38
		l-12.04,17.62L56.98,364.03l-34.37,13.72"/>
</g>
</svg>
