<?xml version="1.0" encoding="utf-8"?>
<!-- Generator: Adobe Adobe Illustrator 24.2.0, SVG Export Plug-In . SVG Version: 6.00 Build 0)  -->
<svg version="1.1" id="Ebene_1" xmlns="http://www.w3.org/2000/svg" xmlns:xlink="http://www.w3.org/1999/xlink" x="0px" y="0px"
	 width="512px" height="512px" viewBox="0 0 512 512" style="enable-background:new 0 0 512 512;" xml:space="preserve">
<style type="text/css">
	.st0{fill:none;stroke:#000000;stroke-width:30;stroke-linecap:round;stroke-linejoin:round;stroke-miterlimit:10;}
</style>
<g>
	<path d="M249.03,184.51c-0.22,0-0.44,0-0.66-0.01c-9.25-0.36-16.46-8.14-16.11-17.4c1.14-29.62,0.32-81.3-5.06-98.16
		c-5.91-18.53-19.02-32.59-33.4-35.81c-9.04-2.02-14.72-10.99-12.7-20.02s10.99-14.72,20.02-12.7c26.18,5.86,48.4,28.22,58.01,58.34
		c9.56,29.97,6.65,108.85,6.62,109.64C265.42,177.42,257.99,184.51,249.03,184.51z"/>
	<path d="M183.93,496.1c-30.86,0-63.06-15.01-85.48-41.16c-21.82-25.46-35.37-60.5-40.28-104.14c-0.78-6.94-1.81-14.56-2.89-22.62
		c-4.03-29.93-9.04-67.17-5.68-102.6c4.11-43.34,20.43-76.48,48.5-98.49c21.08-16.53,44.43-21.5,69.4-14.77
		c19.33,5.21,34.93,16.26,45.25,23.57c1.98,1.4,3.69,2.61,5.09,3.54c7.86,5.21,16.16,9.92,24.68,13.99c8.35,3.99,11.89,14,7.9,22.36
		c-3.99,8.35-14,11.89-22.36,7.9c-9.92-4.74-19.59-10.22-28.75-16.3c-1.83-1.21-3.83-2.63-5.94-4.13
		c-23.13-16.39-47.95-30.65-74.57-9.77c-20.84,16.34-32.55,40.96-35.81,75.27c-3,31.6,1.53,65.26,5.53,94.96
		c1.11,8.25,2.16,16.04,2.98,23.34c4.14,36.84,15.05,65.8,32.42,86.07c20.03,23.38,50.17,34.41,75.01,27.46
		c8.91-2.5,18.17,2.71,20.66,11.63c2.49,8.92-2.71,18.17-11.63,20.66C200.18,495.04,192.1,496.1,183.93,496.1z"/>
	<path d="M163.57,142.98c-4.29,0-8.58-1.64-11.85-4.91c-6.55-6.55-6.55-17.16,0-23.71c48.58-48.58,136.11-44.79,179-9.11
		c7.12,5.92,8.09,16.49,2.17,23.61c-5.92,7.12-16.49,8.09-23.61,2.17c-27.88-23.19-96.36-30.44-133.85,7.04
		C172.15,141.34,167.86,142.98,163.57,142.98z"/>
	<path d="M244.81,507.01c-2.58,0-5.17-0.17-7.78-0.52c-23.25-3.08-55.36-25.67-68.85-58.12c-3.55-8.55,0.5-18.36,9.05-21.92
		c8.55-3.55,18.36,0.5,21.92,9.05c8.76,21.08,30.54,36.19,42.29,37.75c19.44,2.58,41.09-19.27,64.34-64.93
		c39.01-76.64,54.32-141.9,41.99-179.06c-4.35-13.1-12.07-22.25-23.6-27.96c-10.92-5.4-33.65-1.72-47.23,0.47
		c-12.4,2.01-19.23,3.11-25.8,0.38c-14.07-5.86-25.92-5.16-36.24,2.14c-17.63,12.47-25.72,39.51-25.11,50.5
		c0.51,9.24-6.57,17.15-15.81,17.67c-9.25,0.51-17.15-6.57-17.67-15.81c-1.12-20.17,10.58-59.46,39.22-79.73
		c13.52-9.56,35.8-18.31,65.92-6.76c2.42-0.24,6.78-0.95,10.14-1.49c18.68-3.02,46.91-7.59,67.45,2.57
		c19.7,9.75,33.35,25.71,40.56,47.45c20.71,62.44-18.64,155.13-43.94,204.83c-12.68,24.9-24.97,43.48-37.6,56.81
		C281.27,498.07,263.39,507.01,244.81,507.01z"/>
	<path d="M319.09,512c-19.89,0-37.18-3.82-44.38-5.41c-0.62-0.14-1.16-0.26-1.62-0.35c-9.05-1.93-14.83-10.84-12.9-19.9
		c1.93-9.05,10.84-14.82,19.9-12.9c0.52,0.11,1.14,0.25,1.85,0.4c32.12,7.09,73.89,9.36,90.53-20.12
		c32.95-58.38,53.15-124.72,56.87-186.81c2.33-38.9-2.69-88.3-19.22-104.84c-32.16-32.15-94.45-21.42-124.95,0.44
		c-5.75,4.12-12.78,9.71-16.07,16.44c-4.07,8.32-14.11,11.76-22.43,7.7c-8.32-4.07-11.76-14.11-7.7-22.43
		c6.59-13.47,17.71-22.56,26.67-28.97c40.32-28.88,121.2-43.87,168.19,3.11c21.75,21.75,32.58,70.55,28.98,130.55
		c-4.02,67.07-25.74,138.56-61.15,201.28c-13.83,24.51-38.54,38.81-71.44,41.37C326.47,511.87,322.73,512,319.09,512z"/>
</g>
</svg>
