<?xml version="1.0" encoding="utf-8"?>
<!-- Generator: Adobe Adobe Illustrator 24.2.0, SVG Export Plug-In . SVG Version: 6.00 Build 0)  -->
<svg version="1.1" id="Ebene_1" xmlns="http://www.w3.org/2000/svg" xmlns:xlink="http://www.w3.org/1999/xlink" x="0px" y="0px"
	 width="512px" height="512px" viewBox="0 0 512 512" style="enable-background:new 0 0 512 512;" xml:space="preserve">
<style type="text/css">
	.st0{fill:none;stroke:#000000;stroke-miterlimit:10;}
	.st1{fill:none;stroke:#000000;stroke-width:30;stroke-miterlimit:10;}
	.st2{fill:none;stroke:#000000;stroke-width:15;stroke-miterlimit:10;}
	.st3{fill:none;stroke:#000000;stroke-width:20;stroke-miterlimit:10;}
</style>
<path d="M256,510.88c-68.08,0-132.09-26.51-180.23-74.65C27.63,388.09,1.12,324.08,1.12,256S27.63,123.91,75.77,75.77
	C123.91,27.63,187.92,1.12,256,1.12c33.56,0,66.18,6.43,96.97,19.1l-11.42,27.74C314.41,36.78,285.62,31.12,256,31.12
	c-60.07,0-116.54,23.39-159.02,65.87S31.12,195.93,31.12,256c0,60.07,23.39,116.54,65.87,159.02
	c42.48,42.48,98.95,65.87,159.02,65.87c60.07,0,116.54-23.39,159.02-65.87c42.48-42.47,65.87-98.95,65.87-159.02
	c0-30.37-5.94-59.82-17.67-87.53l27.63-11.69c13.29,31.43,20.04,64.81,20.04,99.22c0,68.08-26.51,132.09-74.65,180.23
	C388.09,484.37,324.08,510.88,256,510.88z"/>
<path d="M234.79,233.23c-20.85,0-37.81-16.96-37.81-37.81s16.96-37.81,37.81-37.81s37.81,16.96,37.81,37.81
	S255.64,233.23,234.79,233.23z M234.79,172.61c-12.58,0-22.81,10.23-22.81,22.81s10.23,22.81,22.81,22.81S257.6,208,257.6,195.42
	S247.37,172.61,234.79,172.61z"/>
<path d="M298.9,313.21c-18.53,0-33.6-15.08-33.6-33.6s15.07-33.6,33.6-33.6s33.6,15.07,33.6,33.6S317.43,313.21,298.9,313.21z
	 M298.9,266c-7.5,0-13.6,6.1-13.6,13.6c0,7.5,6.1,13.6,13.6,13.6s13.6-6.1,13.6-13.6C312.5,272.1,306.4,266,298.9,266z"/>
<path d="M157.84,352.7c-13.12,0-23.8-10.77-23.8-24c0-13.23,10.68-24,23.8-24s23.8,10.77,23.8,24
	C181.64,341.93,170.96,352.7,157.84,352.7z M157.84,319.7c-4.85,0-8.8,4.04-8.8,9s3.95,9,8.8,9s8.8-4.04,8.8-9
	S162.69,319.7,157.84,319.7z"/>
<path d="M107.18,233.23c-9.1,0-16.5-7.4-16.5-16.5s7.4-16.5,16.5-16.5s16.5,7.4,16.5,16.5S116.28,233.23,107.18,233.23z
	 M107.18,215.23c-0.83,0-1.5,0.67-1.5,1.5s0.67,1.5,1.5,1.5s1.5-0.67,1.5-1.5S108.01,215.23,107.18,215.23z"/>
<path d="M208.96,143.81c-15.6,0-28.29-12.69-28.29-28.29s12.69-28.29,28.29-28.29s28.29,12.69,28.29,28.29
	S224.56,143.81,208.96,143.81z M208.96,102.22c-7.33,0-13.29,5.96-13.29,13.29s5.96,13.29,13.29,13.29s13.29-5.96,13.29-13.29
	S216.29,102.22,208.96,102.22z"/>
<path d="M426.38,322.4c-18.24,0-33.07-14.83-33.07-33.07s14.83-33.07,33.07-33.07s33.07,14.84,33.07,33.07
	S444.62,322.4,426.38,322.4z M426.38,271.25c-9.96,0-18.07,8.11-18.07,18.07c0,9.96,8.11,18.07,18.07,18.07
	c9.96,0,18.07-8.11,18.07-18.07C444.45,279.36,436.35,271.25,426.38,271.25z"/>
<path d="M315.02,446.84c-15.45,0-28.01-12.57-28.01-28.01c0-15.45,12.57-28.01,28.01-28.01s28.01,12.57,28.01,28.01
	C343.03,434.27,330.47,446.84,315.02,446.84z M315.02,405.81c-7.17,0-13.01,5.84-13.01,13.01c0,7.18,5.84,13.01,13.01,13.01
	s13.01-5.84,13.01-13.01C328.03,411.65,322.2,405.81,315.02,405.81z"/>
<path d="M166.27,291.98c-17.77,0-32.23-14.46-32.23-32.23s14.46-32.23,32.23-32.23s32.23,14.46,32.23,32.23
	S184.04,291.98,166.27,291.98z M166.27,242.52c-9.5,0-17.23,7.73-17.23,17.23c0,9.5,7.73,17.23,17.23,17.23s17.23-7.73,17.23-17.23
	C183.5,250.25,175.77,242.52,166.27,242.52z"/>
<path d="M343.25,345.12c-8.39,0-15.22-6.83-15.22-15.22s6.83-15.22,15.22-15.22s15.22,6.83,15.22,15.22S351.65,345.12,343.25,345.12
	z M343.25,329.67c-0.12,0-0.22,0.1-0.22,0.22c0,0.25,0.44,0.24,0.44,0C343.48,329.77,343.38,329.67,343.25,329.67z"/>
<path d="M247.57,329.25c-6.77,0-12.28-5.51-12.28-12.28s5.51-12.28,12.28-12.28s12.28,5.51,12.28,12.28S254.34,329.25,247.57,329.25
	z M247.57,314.25c-1.5,0-2.72,1.22-2.72,2.72s1.22,2.72,2.72,2.72s2.72-1.22,2.72-2.72S249.07,314.25,247.57,314.25z"/>
<path d="M151.52,178.9c-6.61,0-12-5.38-12-12s5.38-12,12-12c6.61,0,12,5.38,12,12S158.13,178.9,151.52,178.9z M151.52,163.9
	c-1.66,0-3,1.35-3,3s1.35,3,3,3c1.66,0,3-1.35,3-3S153.18,163.9,151.52,163.9z"/>
<path d="M219.64,407.87c-12.49,0-22.65-10.16-22.65-22.66s10.16-22.66,22.65-22.66c12.49,0,22.66,10.16,22.66,22.66
	S232.13,407.87,219.64,407.87z M219.64,377.56c-4.22,0-7.65,3.43-7.65,7.66s3.43,7.66,7.65,7.66c4.22,0,7.66-3.43,7.66-7.66
	S223.86,377.56,219.64,377.56z"/>
<path d="M147.59,128.9c-10.26,0-18.6-8.34-18.6-18.6c0-10.26,8.34-18.6,18.6-18.6c10.26,0,18.6,8.34,18.6,18.6
	C166.19,120.56,157.84,128.9,147.59,128.9z M147.59,106.7c-1.98,0-3.6,1.61-3.6,3.6c0,1.98,1.61,3.6,3.6,3.6
	c1.98,0,3.6-1.61,3.6-3.6C151.19,108.32,149.57,106.7,147.59,106.7z"/>
<path d="M431.54,215.23c-11.57,0-20.99-8.52-20.99-18.99s9.42-18.99,20.99-18.99c11.57,0,20.99,8.52,20.99,18.99
	S443.11,215.23,431.54,215.23z M431.54,192.25c-3.53,0-5.99,2.1-5.99,3.99s2.46,3.99,5.99,3.99c3.53,0,5.99-2.1,5.99-3.99
	S435.07,192.25,431.54,192.25z"/>
<path d="M72.86,305.09c-9.71,0-17.62-7.4-17.62-16.49s7.9-16.49,17.62-16.49s17.62,7.4,17.62,16.49S82.58,305.09,72.86,305.09z
	 M72.86,287.1c-1.62,0-2.62,0.97-2.62,1.49s0.99,1.49,2.62,1.49c1.62,0,2.62-0.97,2.62-1.49S74.48,287.1,72.86,287.1z"/>
<path d="M151.38,442.29c-12.35,0-22.39-10.04-22.39-22.39c0-12.35,10.04-22.39,22.39-22.39s22.39,10.04,22.39,22.39
	C173.77,432.25,163.72,442.29,151.38,442.29z M151.38,412.51c-4.07,0-7.39,3.32-7.39,7.39c0,4.07,3.32,7.39,7.39,7.39
	s7.39-3.32,7.39-7.39C158.77,415.83,155.45,412.51,151.38,412.51z"/>
<path d="M382.45,383.09c-8.78,0-15.93-7.4-15.93-16.49s7.15-16.49,15.93-16.49c8.78,0,15.93,7.4,15.93,16.49
	S391.23,383.09,382.45,383.09z M382.45,365.11c-0.38,0-0.93,0.58-0.93,1.49c0,0.91,0.55,1.49,0.93,1.49c0.38,0,0.93-0.58,0.93-1.49
	C383.38,365.69,382.83,365.11,382.45,365.11z"/>
<path d="M237.41,274.59l60.76-145.64c-11.67-4.84-19.89-16.36-19.89-29.75c0-17.75,14.44-32.2,32.2-32.2
	c4.35,0,8.58,0.88,12.49,2.52L344.92,17l18.45,7.71l-33.04,79.06l-10.56-12.45c-2.33-2.75-5.72-4.32-9.3-4.32
	c-6.73,0-12.2,5.47-12.2,12.2s5.47,12.2,12.2,12.2c0.32,0,0.63-0.03,0.95-0.06l16.28-1.25l-53.12,127.31l95.58-39.88l2.23,3
	l-0.56-3.7l7.28-3.04l108.6-44.39l7.57,18.51l-103.13,42.15c-2.42,7.72-9.63,13.33-18.13,13.33c-3.08,0-6.08-0.76-8.76-2.16
	L237.41,274.59z"/>
</svg>
