<?xml version="1.0" encoding="UTF-8" standalone="no"?>
<!DOCTYPE svg PUBLIC "-//W3C//DTD SVG 1.1//EN" "http://www.w3.org/Graphics/SVG/1.1/DTD/svg11.dtd">
<svg width="100%" height="100%" viewBox="0 0 512 512" version="1.1" xmlns="http://www.w3.org/2000/svg" xmlns:xlink="http://www.w3.org/1999/xlink" xml:space="preserve" xmlns:serif="http://www.serif.com/" style="fill-rule:evenodd;clip-rule:evenodd;stroke-linejoin:round;stroke-miterlimit:2;">
    <g id="g861" transform="matrix(1.13159,0,0,1.13159,-29.6199,-34.6355)">
        <g id="Layer-1" serif:id="Layer 1">
            <g id="g8611" serif:id="g861">
                <g>
                    <path id="path680" d="M193.914,123.286C192.546,122.131 191.981,120.488 192.116,119.222C192.247,118.003 192.925,117.031 194.098,116.581C195.15,116.177 196.431,116.327 197.573,116.975C199.084,117.832 200.247,119.533 200.247,121.156C200.247,122.729 199.55,123.714 198.673,124.224C197.58,124.86 195.754,124.84 193.914,123.286Z" style="fill-rule:nonzero;"/>
                    <path id="path678" d="M132.728,123.715C132.155,122.098 132.428,120.89 133.079,120.07C133.689,119.303 134.825,118.709 136.639,118.709C139.023,118.709 140.541,119.749 141.08,120.819C141.583,121.819 141.575,123.062 140.536,124.314C140.137,124.795 139.503,125.215 138.714,125.475C137.855,125.757 136.793,125.864 135.867,125.776C134.483,125.644 133.438,124.98 132.965,124.229C132.976,124.244 132.987,124.26 132.999,124.274C132.939,124.189 132.886,124.099 132.841,124.003C132.877,124.079 132.918,124.154 132.965,124.229C132.863,124.084 132.78,123.914 132.728,123.715C132.748,123.77 132.768,123.826 132.79,123.883L134.48,125.044C135.076,125.044 135.634,124.751 135.971,124.26C136.032,124.171 136.085,124.078 136.128,123.982C136.007,123.972 135.887,123.959 135.773,123.941C135.238,124.465 134.48,125.044 134.48,125.044C134.48,125.044 132.67,122.808 132.67,123.234C132.67,123.411 132.691,123.57 132.728,123.715Z" style="fill-rule:nonzero;"/>
                    <path id="path676" d="M357.526,137.426C357.037,136.353 356.934,135.641 357.028,135.034C357.129,134.385 357.453,133.746 358.28,132.926C359.463,131.752 361.642,130.988 363.542,130.945C365.083,130.91 366.415,131.377 367.147,132.109C368.57,133.532 368.809,135.011 368.394,136.244C367.899,137.712 366.063,139.197 362.838,139.579C360.549,139.85 359.552,139.674 358.919,139.27C358.393,138.935 357.972,138.404 357.526,137.426Z" style="fill-rule:nonzero;"/>
                    <path id="path674" d="M409.832,152.929C408.097,151.779 407.058,150.828 406.55,150.046C406.088,149.334 405.937,148.662 405.977,148.031C406.017,147.393 406.258,146.761 406.768,146.147C407.461,145.312 408.406,144.868 409.701,144.952C410.83,145.026 412.416,145.628 414.489,146.937C416.453,148.177 417.423,149.926 417.494,151.234C417.568,152.614 416.935,153.787 415.425,154.367C414.84,154.591 414.408,154.714 413.994,154.747C413.152,154.812 412.251,154.534 409.832,152.929Z" style="fill-rule:nonzero;"/>
                    <path id="path672" d="M119.925,162.614C118.548,161.237 118.597,159.044 119.712,157.341C120.794,155.691 122.752,154.712 124.581,155.292C126.895,156.027 127.847,159.042 125.792,161.976C124.929,163.208 123.957,163.755 123.043,163.872C122.066,163.997 120.988,163.677 119.925,162.614Z" style="fill-rule:nonzero;"/>
                    <path id="path670" d="M266.674,165.727C266.316,165.149 266.192,164.045 266.877,162.873C267.402,161.975 268.403,160.915 269.279,160.357C269.913,159.954 270.536,159.784 271.016,159.784C271.645,159.784 272.148,159.989 272.546,160.304C273.049,160.701 273.415,161.319 273.499,162.119C273.611,163.184 273.118,164.758 271.961,165.805C270.77,166.883 269.65,167.201 268.817,167.117C267.968,167.032 267.219,166.609 266.674,165.727Z" style="fill-rule:nonzero;"/>
                    <path id="path668" d="M252.032,176.494C251.242,175.704 250.939,174.237 251.283,173.035C251.565,172.051 252.23,171.316 253.007,171.018C254.236,170.547 255.419,170.834 256.239,171.516C257.064,172.203 257.559,173.317 257.31,174.612C257.051,175.958 255.913,176.972 254.712,177.235C253.729,177.451 252.742,177.204 252.032,176.494Z" style="fill-rule:nonzero;"/>
                    <path id="path666" d="M96.11,179.129C93.87,177.848 92.822,176.691 92.463,175.58C92.159,174.64 92.23,173.63 92.777,172.429C94.128,169.465 97.697,168.891 101.354,172.102C103.294,173.805 103.917,175.37 103.777,176.606C103.665,177.599 103.112,178.575 101.903,179.422C100.991,180.06 100.432,180.359 99.9,180.452C99.406,180.539 98.894,180.509 98.236,180.254C97.767,180.073 97.129,179.713 96.11,179.129Z" style="fill-rule:nonzero;"/>
                    <path id="path664" d="M80.145,195.856C78.266,193.978 78.389,191.26 80.204,189.754C81.231,188.902 82.408,188.679 83.547,188.977C84.502,189.227 85.472,189.888 86.226,191.025C86.933,192.093 87.07,192.813 86.975,193.45C86.89,194.02 86.568,194.677 85.658,195.587C84.557,196.688 83.696,197.096 82.982,197.162C82.136,197.239 81.231,196.943 80.145,195.856Z" style="fill-rule:nonzero;"/>
                    <path id="path662" d="M100.978,209.092C100.08,208.73 99.36,207.777 99.221,206.484C99.075,205.118 99.624,203.456 100.613,202.636C101.148,202.192 102.05,201.886 103.153,201.934C104.922,202.012 107.279,202.989 108.258,204.168C108.809,204.831 108.977,205.513 108.934,206.149C108.893,206.758 108.643,207.363 108.151,207.9C107.622,208.476 106.727,209.007 105.628,209.302C104.206,209.684 102.443,209.684 100.978,209.092Z" style="fill-rule:nonzero;"/>
                    <path id="path660" d="M433.136,211.44C431.409,209.247 431.655,206.408 432.788,204.91C433.801,203.57 435.415,202.953 437.339,203.983C439.417,205.095 440.276,207.817 439.806,209.844C439.4,211.594 438.169,212.801 436.353,212.801C435.084,212.801 433.666,212.113 433.136,211.44Z" style="fill-rule:nonzero;"/>
                    <path id="path658" d="M106.528,216.768C105.863,216.103 105.483,214.694 105.699,213.477C105.875,212.484 106.418,211.699 107.017,211.328C108.133,210.638 109.554,210.722 110.649,211.37C111.815,212.06 112.526,213.324 112.338,214.649C112.169,215.833 111.247,216.875 110.078,217.343C108.809,217.85 107.394,217.634 106.528,216.768Z" style="fill-rule:nonzero;"/>
                    <path id="path656" d="M81.153,245.174C80.205,243.403 80.628,241.676 81.691,240.568C82.704,239.513 84.388,238.967 86.234,239.676C87.341,240.101 88.183,241.12 88.507,242.304C88.837,243.508 88.616,244.818 87.858,245.731C87.034,246.724 85.69,247.217 84.382,247.127C83.016,247.033 81.762,246.312 81.153,245.174Z" style="fill-rule:nonzero;"/>
                    <path id="path654" d="M108.282,253.626C106.416,252.262 106.439,250.069 107.507,248.513C108.571,246.963 110.605,246.147 112.553,247.374C113.74,248.122 114.325,249.13 114.452,250.136C114.582,251.166 114.252,252.288 113.259,253.281C112.282,254.259 111.535,254.584 110.849,254.627C110.185,254.668 109.402,254.445 108.282,253.626Z" style="fill-rule:nonzero;"/>
                    <path id="path652" d="M440.71,259.506C437.631,257.989 436.561,255.592 437.255,253.406C437.994,251.078 440.345,249.928 444.588,251.495C447.559,252.593 448.71,253.457 449.211,254.38C449.511,254.931 449.651,255.545 449.651,256.32C449.651,259.964 445.637,261.934 440.71,259.506Z" style="fill-rule:nonzero;"/>
                    <path id="path650" d="M445.698,282.7C444.48,280.423 445.305,277.7 447.597,276.473C449.601,275.401 451.779,276.265 453.003,277.966C454.211,279.644 454.366,281.982 452.773,283.576C451.898,284.45 450.45,284.874 449.055,284.725C447.585,284.567 446.276,283.78 445.698,282.7Z" style="fill-rule:nonzero;"/>
                    <path id="path648" d="M438.869,293.091C437.607,292.311 437.224,290.847 437.641,289.544C438.041,288.297 439.155,287.305 440.6,287.305C441.448,287.305 442.137,287.6 442.661,288.086C443.143,288.533 443.502,289.166 443.621,289.999C443.828,291.448 443.186,292.552 442.276,293.139C441.375,293.72 440.109,293.858 438.869,293.091Z" style="fill-rule:nonzero;"/>
                    <path id="path646" d="M424.245,297.884C423.168,297.257 422.49,295.993 422.438,294.622C422.39,293.331 422.899,292.015 423.86,291.217C424.654,290.558 426.163,290.17 428.03,290.52C430.792,291.038 431.96,293.109 431.886,294.912C431.807,296.808 430.41,298.728 427.486,298.694C426.414,298.681 424.96,298.3 424.245,297.884Z" style="fill-rule:nonzero;"/>
                    <path id="path644" d="M138.028,297.718C137.691,297.089 137.54,296.545 137.516,296.012C137.484,295.268 137.694,294.491 138.372,293.456C139.277,292.075 140.432,291.459 141.569,291.39C142.678,291.322 143.904,291.777 145.014,293.003C145.736,293.802 146.039,294.439 146.134,295.075C146.229,295.704 146.13,296.402 145.682,297.384C144.996,298.89 143.502,299.75 141.958,299.831C140.379,299.913 138.811,299.182 138.028,297.718Z" style="fill-rule:nonzero;"/>
                    <path id="path642" d="M97.914,326.28C96.882,325.247 96.765,323.602 97.357,322.444C97.85,321.482 98.751,320.863 99.853,320.863C101.282,320.863 102.297,321.66 102.754,322.629C103.246,323.672 103.159,324.99 102.114,326.035C101.174,326.975 100.333,327.194 99.644,327.136C99.075,327.089 98.489,326.854 97.914,326.28Z" style="fill-rule:nonzero;"/>
                    <path id="path640" d="M409.803,327.201C408.631,325.906 408.247,324.425 408.486,323.049C408.717,321.719 409.551,320.431 411.06,319.513L412.804,318.453C413.268,318.171 413.833,318.112 414.345,318.292C414.857,318.472 415.261,318.872 415.446,319.382L416.077,321.121C417.338,324.596 416.931,325.998 415.525,327.405C414.511,328.418 413.525,328.771 412.608,328.73C411.722,328.691 410.768,328.267 409.803,327.201Z" style="fill-rule:nonzero;"/>
                    <path id="path638" d="M187.117,327.863C186.443,327.05 186.086,325.492 186.438,324.086C186.75,322.843 187.246,322.231 187.875,321.863C188.395,321.558 189.156,321.386 190.441,321.51C191.871,321.648 192.661,322.074 193.165,322.63C193.567,323.073 193.846,323.646 193.961,324.462C194.253,326.517 193.223,328.112 191.876,328.845C190.405,329.645 188.498,329.527 187.117,327.863Z" style="fill-rule:nonzero;"/>
                    <path id="path636" d="M109.388,329.141C107.982,328.614 107.127,327.793 106.709,326.901C106.235,325.891 106.227,324.696 106.926,323.391C107.852,321.661 110.14,320.797 113.878,322.101C115.159,322.547 115.8,323.029 116.174,323.576C116.571,324.159 116.77,324.932 116.641,326.267C116.512,327.587 116.165,328.304 115.703,328.769C115.221,329.254 114.502,329.599 113.182,329.684C112.077,329.756 110.37,329.509 109.388,329.141Z" style="fill-rule:nonzero;"/>
                    <path id="path634" d="M379.531,330.211C376.252,328.933 375.38,326.494 376.484,324.43C376.897,323.659 377.584,323.093 378.466,322.771C379.418,322.423 380.637,322.378 381.791,322.633C382.96,322.891 384.043,323.455 384.737,324.174C385.398,324.858 385.757,325.683 385.757,326.579C385.757,327.876 385.198,329.112 384.438,329.88C383.727,330.598 382.843,330.941 381.985,330.889C381.588,330.865 380.477,330.58 379.531,330.211Z" style="fill-rule:nonzero;"/>
                    <path id="path632" d="M368.669,332.779C368.184,332.195 367.645,330.88 367.527,329.835C367.271,327.566 368.606,326.51 369.872,326.337C370.946,326.19 372.47,326.721 373.309,328.562C373.984,330.044 373.931,331.411 373.595,332.289C373.351,332.928 372.952,333.391 372.501,333.685C371.562,334.296 370.076,334.474 368.669,332.779Z" style="fill-rule:nonzero;"/>
                    <path id="path630" d="M430.384,334.871C428.181,333.756 427.581,331.826 427.96,330.281C428.337,328.745 429.756,327.306 432.217,327.306C433.724,327.306 435.346,327.99 436.4,328.917C437.35,329.753 437.839,330.794 437.839,331.724C437.839,335.078 434.458,336.932 430.384,334.871Z" style="fill-rule:nonzero;"/>
                    <path id="path628" d="M147.956,335.409C145.404,334.122 144.663,330.744 146.329,328.736C146.98,327.952 148.068,327.435 149.329,327.348C150.904,327.24 152.711,327.812 153.809,328.91C154.909,330.01 155.286,330.793 155.341,331.512C155.395,332.215 155.146,333.051 154.25,334.331C153.609,335.245 152.889,335.784 152.089,336.051C151.03,336.405 149.709,336.293 147.956,335.409Z" style="fill-rule:nonzero;"/>
                    <path id="path626" d="M404.881,342.788C404.496,342.633 404.099,342.343 403.777,341.893C403.385,341.343 403.077,340.456 403.077,339.552C403.077,338.491 403.381,337.784 403.881,337.246C404.311,336.784 404.958,336.403 406.002,336.19C406.788,336.03 408.191,335.696 409.12,335.449C410.803,335.001 411.691,335.246 412.121,335.525C412.683,335.89 413.14,336.497 413.14,337.629C413.14,339.335 411.964,341.071 410.229,342.117C408.573,343.116 406.499,343.441 404.881,342.788Z" style="fill-rule:nonzero;"/>
                    <path id="path624" d="M311.76,345.081C309.972,344.161 309.074,343.019 308.787,341.812C308.578,340.932 308.669,339.957 309.161,338.878C309.601,337.911 310.116,337.34 310.771,336.963C311.356,336.626 312.105,336.434 313.209,336.434C315.663,336.434 317.534,337.577 318.465,338.999C319.571,340.688 319.565,342.825 317.803,344.586C317.121,345.269 316.379,345.668 315.561,345.833C314.511,346.045 313.27,345.857 311.76,345.081Z" style="fill-rule:nonzero;"/>
                    <path id="path622" d="M276.807,344.535C275.891,343.431 275.705,341.903 276.172,340.552C276.629,339.229 277.696,338.129 279.088,337.779C280.744,337.364 282.069,337.779 282.962,338.628C283.797,339.421 284.327,340.7 284.161,342.401C284.034,343.7 283.688,344.415 283.21,344.893C282.732,345.371 282.017,345.718 280.718,345.845C279.018,346.011 277.51,345.383 276.807,344.535Z" style="fill-rule:nonzero;"/>
                    <path id="path620" d="M334.402,347.154C331.797,345.197 331.483,341.512 333.576,339.419C334.971,338.024 336.385,337.891 337.513,338.368C338.173,338.646 338.803,339.184 339.286,340.045C339.762,340.894 340.123,342.145 340.221,343.753C340.294,344.956 340.221,345.852 340.051,346.459C339.812,347.309 339.365,347.831 338.866,348.145C338.309,348.496 337.611,348.653 336.735,348.426C336.142,348.272 335.356,347.871 334.402,347.154Z" style="fill-rule:nonzero;"/>
                    <path id="path618" d="M192.557,347.296C192.225,346.429 192.414,344.893 193.136,343.909C194.169,342.498 195.706,342.289 196.895,342.778C198.079,343.266 199.027,344.492 198.78,346.219C198.54,347.904 196.927,349.057 195.414,349.109C194.148,349.153 193.033,348.537 192.557,347.296Z" style="fill-rule:nonzero;"/>
                    <path id="path616" d="M242.123,357.16C240.574,355.611 240.569,353.832 241.434,352.466C242.148,351.338 243.641,350.394 245.729,350.394C247.308,350.394 248.487,350.903 249.253,351.662C250.11,352.51 250.556,353.716 250.339,355.248C250.21,356.158 249.898,356.75 249.428,357.199C248.919,357.684 248.062,358.069 246.355,358.195C245.247,358.277 244.123,358.138 243.378,357.89C242.807,357.7 242.387,357.424 242.123,357.16Z" style="fill-rule:nonzero;"/>
                    <path id="path614" d="M200.471,358.757C196.954,356.293 198.485,350.931 202.59,350.931C203.971,350.931 205.615,351.721 206.686,352.8C207.563,353.682 208.032,354.744 208.032,355.649C208.032,357.75 206.886,359.121 205.311,359.665C203.971,360.127 202.181,359.955 200.471,358.757Z" style="fill-rule:nonzero;"/>
                    <path id="path612" d="M143.425,360.144C142.497,359.625 141.832,358.591 141.664,357.264C141.478,355.798 141.919,353.963 142.97,352.664C143.731,351.725 144.353,351.334 144.918,351.182C145.574,351.005 146.316,351.061 147.378,351.63C148.318,352.133 148.915,352.826 149.233,353.691C149.6,354.69 149.573,356.05 148.892,357.84C148.39,359.161 147.607,359.966 146.77,360.362C145.794,360.824 144.649,360.829 143.425,360.144Z" style="fill-rule:nonzero;"/>
                    <path id="path610" d="M207.948,366.544C207.448,365.24 207.65,364.054 208.227,363.188C208.818,362.302 209.848,361.67 211.249,361.67C212.65,361.67 213.681,362.302 214.271,363.188C214.849,364.054 215.05,365.24 214.549,366.544C214.362,367.034 213.976,367.529 213.398,367.898C212.823,368.263 212.034,368.511 211.249,368.511C210.464,368.511 209.675,368.263 209.1,367.898C208.522,367.529 208.136,367.034 207.948,366.544Z" style="fill-rule:nonzero;"/>
                    <path id="path608" d="M292.378,369.185C291.518,366.943 291.806,365.2 293.748,362.893C295.055,361.339 296.388,360.683 297.516,360.632C298.5,360.587 299.443,360.93 300.284,361.771C301.903,363.39 301.929,366.044 299.368,368.859C296.428,372.092 293.285,371.548 292.378,369.185Z" style="fill-rule:nonzero;"/>
                    <path id="path606" d="M242.858,368.257C241.769,365.974 241.936,364.787 242.618,363.698C243.488,362.311 244.76,361.731 246.069,361.8C247.2,361.86 248.448,362.455 249.464,363.746C250.87,365.535 251.135,367.293 250.747,368.55C250.288,370.035 248.96,371.196 246.645,371.196C245.152,371.196 243.95,370.548 242.858,368.257Z" style="fill-rule:nonzero;"/>
                    <path id="path604" d="M385.378,372.461C384.164,371.375 383.669,370.699 383.477,369.99C383.289,369.295 383.369,368.45 383.842,366.869C384.174,365.763 384.442,365.107 384.665,364.772C385.054,364.188 385.512,363.944 385.931,363.833C386.498,363.682 387.379,363.739 388.354,364.714C388.726,365.086 389.9,365.711 390.935,366.155C393.807,367.386 394.348,368.51 394.348,370.065C394.348,372.059 393.363,373.368 391.978,374.01C390.286,374.794 387.657,374.497 385.378,372.461Z" style="fill-rule:nonzero;"/>
                    <path id="path602" d="M366.763,373.209C365.26,372.277 364.489,371.296 364.182,370.278C363.946,369.497 363.953,368.652 364.258,367.69C364.557,366.748 365.073,366.088 365.722,365.654C366.365,365.225 367.168,365 368.152,365.075C369.395,365.17 371.094,365.831 373.175,367.198L376.419,369.329C376.965,369.689 377.275,370.315 377.23,370.967C377.185,371.619 376.791,372.197 376.2,372.477L374.34,373.36C371.297,374.804 369.172,374.703 366.763,373.209ZM367.717,373.481C368.44,373.481 369.085,373.052 369.371,372.406C369.271,372.38 369.17,372.351 369.07,372.318C368.534,372.857 367.717,373.481 367.717,373.481ZM368.16,371.926L367.717,373.481C367.717,373.481 368.107,372.738 368.524,372.105C368.403,372.051 368.282,371.991 368.16,371.926ZM367.717,373.481C367.717,373.481 365.907,371.245 365.907,371.671C365.907,372.578 366.458,373.035 366.951,373.263L367.717,373.481Z" style="fill-rule:nonzero;"/>
                    <path id="path600" d="M324.407,372.342C322.526,369.256 322.837,367.478 324.249,366.066C325.171,365.144 326.252,364.786 327.344,364.876C328.68,364.987 330.163,365.861 331.281,367.669C332.109,369.009 332.401,369.868 332.427,370.64C332.447,371.26 332.313,371.861 331.98,372.592C331.145,374.426 329.652,375.132 328.126,374.978C326.865,374.851 325.438,374.032 324.407,372.342Z" style="fill-rule:nonzero;"/>
                    <path id="path598" d="M293.107,378.612C291.644,377.149 291.559,375.608 292.17,374.367C292.853,372.98 294.927,371.684 298,371.812C299.392,371.871 301.557,371.962 302.812,372.016L305.092,372.114C305.915,372.149 306.61,372.735 306.784,373.539C306.958,374.344 306.566,375.165 305.832,375.537L304.357,376.283C303.691,376.62 302.695,377.371 302.141,377.949C300.874,379.269 299.674,379.787 297.318,379.787C296.215,379.787 295.076,379.595 294.338,379.336C293.763,379.133 293.349,378.855 293.107,378.612Z" style="fill-rule:nonzero;"/>
                    <path id="path596" d="M350.649,379.885C350.16,379.768 349.66,379.495 349.211,379.04C348.615,378.437 348.062,377.415 347.743,376.303C347.43,375.213 347.343,374.055 347.512,373.2C347.63,372.602 347.869,372.108 348.176,371.738C348.933,370.826 350.173,370.301 351.438,370.29C352.719,370.279 353.967,370.796 354.722,371.706C355.243,372.334 355.81,373.911 355.874,375.244C356.026,378.384 353.45,380.555 350.649,379.885ZM351.07,379.935C351.07,379.935 349.26,377.698 349.26,378.125C349.26,379.77 351.07,379.935 351.07,379.935Z" style="fill-rule:nonzero;"/>
                    <path id="path594" d="M200.322,379.836C199.933,379.683 199.533,379.394 199.209,378.943C198.815,378.394 198.506,377.507 198.506,376.601C198.506,375.419 199.324,374.049 200.764,373.058C202.511,371.855 205.066,371.231 206.783,371.766C208.013,372.149 208.6,372.655 208.894,373.128C209.265,373.724 209.428,374.522 208.954,375.772C208.522,376.913 207.023,378.28 205.257,379.131C203.436,380.008 201.418,380.27 200.322,379.836Z" style="fill-rule:nonzero;"/>
                    <path id="path592" d="M209.625,384.189C209.078,383.53 208.846,382.915 208.797,382.32C208.747,381.698 208.887,381.048 209.344,380.324C210.886,377.875 213.997,377.758 215.547,379.878C216.25,380.839 216.401,381.81 216.257,382.656C216.037,383.95 215.063,385.025 213.797,385.446C212.476,385.885 210.843,385.657 209.625,384.189Z" style="fill-rule:nonzero;"/>
                    <path id="path590" d="M237.465,387.004C235.995,385.534 235.799,382.827 236.674,380.882C237.381,379.309 238.699,378.315 240.197,378.315C241.696,378.315 242.765,378.833 243.496,379.704C244.135,380.465 244.544,381.588 244.544,383.147C244.544,384.718 243.914,386.19 243.032,387.123C242.259,387.943 241.291,388.378 240.318,388.378C239.607,388.378 238.289,387.827 237.465,387.004Z" style="fill-rule:nonzero;"/>
                    <path id="path588" d="M312.458,391.526C311.83,390.893 311.262,389.5 311.262,388.406C311.262,387.675 311.379,387.087 311.647,386.555C311.921,386.01 312.357,385.496 313.142,385.007C314.066,384.432 315.721,383.807 318.686,382.842C322.192,381.701 324.842,381.257 326.299,381.429L328.308,381.666C328.943,381.74 329.491,382.145 329.751,382.729C330.01,383.314 329.941,383.992 329.57,384.513L328.449,386.087C327.695,387.147 325.376,388.844 322.79,390.073C319.242,391.76 316.652,392.519 315.068,392.503C313.866,392.49 313.021,392.093 312.458,391.526Z" style="fill-rule:nonzero;"/>
                    <path id="path586" d="M249.743,391.847C247.139,390.331 247.392,386.151 250.266,384.841C252.51,383.819 254.692,384.369 255.945,385.481C256.729,386.176 257.19,387.096 257.248,388.089C257.302,389.022 257.01,390.061 256.122,391.042C254.537,392.794 252.018,393.173 249.743,391.847Z" style="fill-rule:nonzero;"/>
                    <path id="path584" d="M154.042,392.036C153.563,391.558 153.254,391.055 153.076,390.51C152.75,389.507 152.866,388.224 153.855,386.312C155.574,382.989 158.191,382.79 159.736,383.733C161.159,384.602 162.303,386.97 160.962,390.179C160.294,391.778 159.178,392.734 158.04,393.099C156.716,393.524 155.261,393.255 154.042,392.036Z" style="fill-rule:nonzero;"/>
                    <path id="path582" d="M205.376,393.373C204.931,392.836 204.694,392.338 204.589,391.818C204.453,391.145 204.53,390.371 205.037,389.259C205.408,388.444 205.802,387.943 206.26,387.602C206.901,387.125 207.767,386.874 209.412,387.014C212.579,387.284 213.9,389.241 213.933,390.822C213.966,392.43 212.708,394.43 209.499,394.707C207.531,394.877 206.117,394.265 205.376,393.373Z" style="fill-rule:nonzero;"/>
                    <path id="path580" d="M290.014,397.653C289.039,395.829 289.343,394.279 290.278,393.221C291.06,392.338 292.499,391.697 294.528,391.848C296.872,392.023 298.351,393.036 298.936,394.131C299.468,395.126 299.505,396.326 298.709,397.596C298.141,398.502 296.641,399.386 294.528,399.543C292.964,399.66 292.061,399.486 291.427,399.142C290.846,398.829 290.399,398.372 290.014,397.653Z" style="fill-rule:nonzero;"/>
                    <path id="path578" d="M214.965,398.765C214.35,398.15 214.021,397.231 214.078,396.246C214.151,394.976 214.894,393.676 215.974,393.097C217.115,392.487 220.027,392.022 222.069,392.201C222.857,392.27 223.394,392.6 223.758,393C224.171,393.453 224.41,394.049 224.373,394.781C224.329,395.668 223.662,397.085 222.193,398.291C221.138,399.156 218.868,399.739 217.268,399.643C216.21,399.579 215.398,399.198 214.965,398.765Z" style="fill-rule:nonzero;"/>
                    <path id="path576" d="M262.921,398.765C262.584,398.22 262.368,396.753 262.683,395.494L262.683,395.493C263.176,393.531 264.892,392.268 268.736,392.761C269.151,392.814 270.377,392.877 271.46,392.905L273.561,392.959C274.385,392.98 275.09,393.556 275.277,394.359C275.464,395.161 275.084,395.989 274.354,396.371L272.937,397.114C272.467,397.36 271.896,397.817 271.707,398.171C271.016,399.463 270.05,400.19 267.177,400.19C265.794,400.19 264.489,399.912 263.887,399.613C263.389,399.366 263.09,399.039 262.921,398.765ZM264.422,396.004C262.1,396.053 264.46,399.623 264.46,399.623C264.46,399.623 264.586,398.822 264.656,397.973C264.562,397.922 264.495,397.869 264.46,397.813C264.274,397.511 264.259,396.709 264.422,396.004Z" style="fill-rule:nonzero;"/>
                    <path id="path574" d="M235.441,398.738C234.652,397.788 234.457,396.809 234.67,395.867C234.898,394.852 235.769,393.696 237.584,392.758C239.587,391.722 240.679,391.794 241.982,392.492C243.287,393.19 243.829,394.135 243.933,395.023C244.061,396.117 243.444,397.608 241.394,398.858C239.577,399.966 238.437,400.23 237.6,400.097C236.831,399.976 236.14,399.58 235.441,398.738Z" style="fill-rule:nonzero;"/>
                    <path id="path572" d="M287.643,400.412C286.944,399.281 287.385,398.444 287.801,397.985C288.116,397.638 288.991,397.044 290.336,397.56C291.375,397.958 291.891,398.543 292.068,398.866C292.327,399.337 292.355,399.787 292.277,400.182C292.174,400.708 291.697,401.801 290.016,401.801C289.242,401.801 288.145,401.224 287.643,400.412ZM289.215,400.985C289.469,401.022 289.664,400.92 289.777,400.882C290.079,400.78 290.306,400.611 290.481,400.418C290.703,400.174 290.853,399.878 290.906,399.523C290.942,399.281 290.975,398.918 290.722,398.509C290.58,398.279 290.235,398.181 290.016,398.181C289.491,398.181 289.269,398.522 289.142,398.661C288.913,398.909 288.784,399.189 288.726,399.484C288.663,399.804 288.676,400.162 288.859,400.538C288.907,400.637 289.117,400.877 289.215,400.985ZM289.182,399.46C288.994,399.156 289.209,399.066 289.688,399.249C290.618,399.606 290.788,399.991 290.016,399.991C289.738,399.991 289.363,399.752 289.182,399.46Z" style="fill-rule:nonzero;"/>
                    <path id="path490" d="M291.838,240.903C290.958,239.843 290.895,238.672 291.242,237.795C291.626,236.822 292.544,236.028 293.985,236.028C295.12,236.028 295.992,236.641 296.47,237.521C297.101,238.684 296.958,240.338 295.743,241.346C294.972,241.986 294.265,242.115 293.624,242.018C293.074,241.934 292.455,241.647 291.838,240.903Z" style="fill-rule:nonzero;"/>
                    <path id="path488" d="M412.596,250.17C411.741,249.628 411.201,248.591 411.21,247.353C411.221,245.954 411.977,244.37 413.16,243.628C414.331,242.894 416.336,242.955 417.832,243.71C419.015,244.306 419.805,245.286 419.992,246.258C420.29,247.801 419.623,249.16 418.381,250.041C416.884,251.101 414.476,251.362 412.596,250.17Z" style="fill-rule:nonzero;"/>
                    <path id="path486" d="M247.711,213.779C246.382,212.848 245.756,211.715 245.756,209.453C245.756,207.082 246.472,205.556 247.508,204.729C248.322,204.08 249.39,203.757 250.75,203.912C251.923,204.045 252.583,204.332 253.024,204.757C253.388,205.109 253.684,205.584 253.824,206.352C253.917,206.856 253.94,207.614 253.94,208.778C253.94,212.125 253.306,213.058 252.032,213.903C251.128,214.504 250.47,214.68 249.839,214.652C249.255,214.627 248.611,214.409 247.711,213.779ZM248.749,214.106C248.749,214.106 246.94,211.87 246.94,212.296L248.749,214.106ZM248.749,214.106C249.539,214.106 250.238,213.594 250.475,212.84C250.49,212.794 250.503,212.747 250.514,212.7C250.415,212.747 250.322,212.783 250.232,212.807C249.711,213.371 248.749,214.106 248.749,214.106ZM249.223,212.603L248.749,214.106L250.012,212.844C249.768,212.857 249.527,212.778 249.223,212.603Z" style="fill-rule:nonzero;"/>
                    <path id="path484" d="M218.005,239.671C216.395,238.831 215.285,238.022 214.645,237.317C213.889,236.485 213.628,235.663 213.643,234.958C213.666,233.853 214.384,232.605 216.441,231.888C217.268,231.599 217.904,231.477 218.536,231.495C219.408,231.519 220.309,231.817 221.798,232.638C223.807,233.746 224.8,235.03 225.063,236.161C225.306,237.204 225.087,238.266 224.239,239.288C222.942,240.85 221.141,241.306 218.005,239.671ZM218.842,239.876C218.842,239.876 217.032,237.639 217.032,238.066C217.032,239.711 218.842,239.876 218.842,239.876Z" style="fill-rule:nonzero;"/>
                    <path id="path482" d="M173.557,258.548C172.891,256.813 173.804,254.819 175.517,253.679C177.176,252.574 179.358,252.43 180.768,253.6C182.987,255.442 182.679,258.526 180.265,259.818C178.674,260.67 176.633,260.745 175.366,260.257C174.447,259.903 173.837,259.277 173.557,258.548Z" style="fill-rule:nonzero;"/>
                </g>
                <path id="path480" d="M259.395,115.828C259.507,115.86 259.626,115.903 259.749,115.963C260.003,116.086 260.444,116.403 260.952,116.938C262.514,118.581 265.667,122.91 266.783,125.103C267.264,126.05 267.897,127.097 268.251,127.391C268.828,127.87 269.14,128.347 269.304,128.844C269.52,129.498 269.517,130.296 268.977,131.482C268.482,132.567 267.858,133.264 267.126,133.688C266.101,134.283 264.736,134.407 262.768,133.758C261.001,133.175 259.93,132.26 258.195,128.978C255.168,123.251 246.481,115.989 236.643,110.792C232.741,108.731 228.809,106.404 227.891,105.643C224.033,102.446 212.14,99.223 200.953,98.179C196.085,97.725 191.233,97.093 190.168,96.798C189.153,96.516 184.407,95.659 179.623,94.884C171.263,93.529 170.272,93.488 156.592,93.754C142.709,94.025 142.457,94.005 138.087,95.517C135.488,96.416 131.234,97.469 128.635,97.857C121.457,98.929 118.415,99.818 111.715,102.797C108.037,104.432 104.403,105.944 103.644,106.168C102.975,106.365 101.022,107.48 99.282,108.606C96,110.729 88.314,115.1 81.441,118.748C80.355,119.325 79.563,119.753 78.978,120.118C78.138,120.642 77.964,120.93 77.785,121.649C77.067,124.53 73.416,129.503 67.045,135.843C59.214,143.637 55.033,150.036 50.452,161.207C45.952,172.181 45.768,172.845 45.335,181.55C45.098,186.312 44.622,191.086 44.314,192.161C42.828,197.336 40.859,204.373 40.496,205.81C40.243,206.811 39.723,208.204 39.334,208.951C39.316,209.024 39.193,209.552 39.137,209.961C38.992,211.012 38.899,212.445 38.899,213.856C38.899,217.534 39.27,219.344 41.177,225.577C42.48,229.84 44.552,237.436 45.779,242.457C48.05,251.749 48.529,253.031 52.34,259.766C53.708,262.184 55.807,266.634 57.004,269.656C59.762,276.621 62.128,282.158 65.532,289.615C67.077,292.999 69.042,297.643 69.9,299.934C77.773,320.965 81.838,330.375 84.959,334.471C89.535,340.477 92.189,343.504 99.38,350.933C103.307,354.989 107.628,359.783 108.989,361.583C115.004,369.534 122.313,375.094 134.853,381.359C137.038,382.45 140.068,384.301 141.589,385.468C149.904,391.844 153.846,394.724 158.594,397.887C161.532,399.845 164.924,402.123 166.13,402.949C172.838,407.542 182.229,411.125 190.918,412.419C194.018,412.881 201.459,413.98 207.452,414.861C213.499,415.75 219.469,416.697 220.72,416.963C221.914,417.216 224.985,417.548 227.544,417.708C234.1,418.117 295.772,417.121 302.433,416.498C316.42,415.189 332.179,411.051 348.091,404.524C350.765,403.428 356.608,401.22 361.078,399.618C365.457,398.048 369.984,396.336 371.135,395.807C373.634,394.661 378.582,391.423 381.738,388.884C383.088,387.798 386.277,385.47 388.825,383.712C391.311,381.998 395.497,378.898 398.129,376.824C400.852,374.679 403.825,372.463 404.732,371.895C406.448,370.822 414.64,364.645 418.683,361.382C420.098,360.241 423.044,358.119 425.233,356.668C430.369,353.264 434.714,349.328 438.852,344.338C444.593,337.413 445.728,335.831 446.935,332.569C447.611,330.742 449.05,327.257 450.133,324.825C451.185,322.464 452.854,318.181 453.844,315.308C454.866,312.339 456.221,308.73 456.854,307.286C457.454,305.916 458.51,302.65 459.208,300.029C459.95,297.242 461.342,293.102 462.298,290.829C466.569,280.682 467.354,272.028 465.975,252.462C465.345,243.522 464.178,236.164 461.895,226.719C461.17,223.719 460.186,218.319 459.708,214.72C458.614,206.477 457.174,202.439 452.782,195.294C450.673,191.864 448.106,187.47 447.077,185.53C446.086,183.664 444.104,180.492 442.675,178.482C441.19,176.392 438.918,173.017 437.628,170.98C436.388,169.024 434.256,166.091 432.889,164.463C431.476,162.781 428.372,158.979 425.991,156.016C417.362,145.275 417.843,145.646 409.804,141.769C398.833,136.479 383.691,130.919 375.744,129.277C362.121,126.464 335.712,126.99 321.132,130.358C317.929,131.098 313.236,132.072 310.704,132.522C308.205,132.966 303.877,133.796 301.084,134.366C298.262,134.942 293.645,135.804 290.823,136.281C277.22,138.583 272.528,140.003 268.441,143.515C266.047,145.573 264.44,146.79 263.25,147.406C261.412,148.358 260.19,148.222 258.99,147.58C258.975,147.572 258.96,147.564 258.943,147.556C258.811,147.644 258.603,147.787 258.435,147.923C257.654,148.553 254.826,150.728 252.149,152.757C246.972,156.679 241.735,161.926 240.467,164.599C239.302,167.052 238.505,173.008 238.867,176.33C239.035,177.868 239.5,179.097 240.345,179.976C241.182,180.849 242.372,181.351 243.871,181.559C245.327,181.762 248.718,182.394 251.407,182.965C253.893,183.492 256.534,183.946 257.28,183.946C258.378,183.946 264.151,185.707 268.751,187.457C268.722,186.645 268.663,185.579 268.583,184.188L268.206,177.602L270.342,173.218C271.454,170.935 272.874,168.369 273.487,167.508C273.914,166.908 274.931,165.997 276.304,165.021C279.121,163.018 283.506,160.555 286.178,159.613C287.295,159.219 288.924,158.202 289.8,157.356C291.151,156.05 300.437,150.897 304.803,148.906C306.098,148.316 307.088,148.024 307.517,147.978C307.474,147.981 307.435,147.985 307.435,147.985C307.435,147.985 310.488,146.933 315.624,144.889C317.028,144.33 319.706,143.564 321.577,143.191C326.534,142.202 340.832,141.817 344.247,142.564C345.734,142.89 348.837,143.382 351.142,143.66C370.44,145.987 372.951,146.661 380.804,151.055C391.599,157.096 394.628,159.138 396.016,160.866C396.789,161.829 398.643,164.005 400.136,165.702C401.724,167.508 403.733,170.232 404.607,171.752C405.436,173.194 407.554,176.779 409.313,179.718C411.114,182.728 413.312,186.798 414.201,188.761C415.069,190.676 418.431,197.553 421.672,204.043C427.395,215.504 427.784,216.705 428.016,220.306C428.453,227.065 428.63,230.302 428.584,232.036C428.555,233.166 428.425,233.828 428.242,234.325C428.373,234.399 428.516,234.476 428.657,234.548C432.474,236.506 433.981,238.612 434.416,242.286C434.983,247.074 433.495,250.173 428.085,254.284C426.566,255.439 425.034,256.768 424.7,257.06C424.6,257.236 424.462,257.418 424.271,257.597C423.914,257.933 422.923,258.552 421.739,259.086C421.354,259.259 421.046,259.414 420.808,259.572C420.759,259.605 420.697,259.654 420.657,259.687C420.657,259.69 420.657,259.694 420.657,259.697C420.657,260.641 419.83,262.656 418.669,264.104C417.825,265.154 416.256,267.463 415.178,269.232C411.346,275.52 408.182,278.612 399.787,284.124C395.827,286.725 392.207,289.219 391.788,289.729C390.716,291.032 379.314,298.536 375.183,300.618C371.698,302.375 356.903,307.628 348.745,309.996C345.803,310.85 341.108,312.267 338.312,313.144C335.242,314.107 332.425,314.825 332.076,314.822C331.736,314.82 330.689,315.09 329.182,315.476C322.278,317.245 307.107,321.848 303.026,323.539C299.136,325.151 292.881,326.506 279.52,328.555C263.676,330.984 247.244,331.566 236.103,330.112C228.824,329.162 228.031,328.939 219.203,325.165C209.805,321.148 201.662,316.764 196.791,313.236C194.503,311.579 192.903,310.063 192.109,308.852C191.622,308.109 189.973,306.156 188.454,304.503C186.781,302.684 184.632,299.918 183.674,298.36C182.708,296.79 180.855,294.963 178.621,293.311C175.775,291.206 169.511,285.025 165.773,280.849C164.172,279.061 163.035,277.563 162.642,276.808C160.742,277.206 156.336,278.578 154.004,279.506C150.618,280.853 141.312,283.374 136.475,284.25C128.907,285.62 116.413,280.989 111.14,274.828C110.304,273.852 109.799,273.173 109.468,272.464C108.974,271.405 108.839,270.255 108.839,267.796C108.839,263.975 109.033,263.29 111.271,259.747C115.327,253.325 120.748,249.487 125.062,249.461C125.239,249.414 127.597,248.789 129.387,248.171L130.783,247.687L130.4,247.276L127.631,244.308L127.631,234.793C127.631,231.037 127.57,228.474 127.332,226.641C127.06,224.542 126.578,223.657 125.463,222.878C121.195,219.899 119.685,217.917 119.296,215.842C118.979,214.153 119.295,212.714 119.864,211.888C119.779,211.582 119.506,210.641 119.106,209.669C117.539,205.862 117.265,199.573 118.489,195.92C118.825,194.915 119.685,190.482 120.417,186.072C121.929,176.959 122.88,174.567 126.277,170.376C129.745,166.098 131.402,163.695 132.018,161.795C133.457,157.357 138.436,149.012 142.821,143.744C147.084,138.623 157.647,131.934 166.939,128.547L171.808,126.773L185.55,126.768C192.644,126.764 196.641,126.858 198.715,127.09C199.962,127.229 200.698,127.473 201.083,127.693C201.703,128.047 205.071,128.831 208.549,129.511C214.159,130.607 216.518,131.392 219.45,133.045C223.727,135.456 226.462,136.814 231.646,139.102C234.65,140.428 237.238,142.172 240.451,145.074C241.771,146.267 243.215,147.465 244.043,148.14C244.932,147.556 246.473,146.527 247.889,145.498C255.31,140.108 258.482,138.373 260.888,137.978C261.914,137.809 263.237,137.043 264.388,136.047C265.783,134.839 268.721,133.168 270.924,132.347C274.667,130.953 284.148,128.671 290.764,127.582C296.09,126.705 309.469,124.034 317.511,122.243C326.401,120.263 342.553,118.44 351.195,118.44C358.644,118.44 372.879,119.724 378.223,120.872C384.711,122.265 404.632,129.284 410.015,132.071C411.619,132.901 414.745,134.4 416.96,135.403C421.828,137.604 424.769,140.004 428.42,144.802C432.551,150.233 435.329,153.605 437.434,155.721C438.635,156.929 441.295,160.433 443.332,163.517C445.263,166.441 447.487,169.667 448.278,170.685C449.703,172.517 453.762,178.955 457.191,184.836C458.07,186.345 460.159,189.748 461.831,192.399C465.733,198.584 467.513,203.751 468.936,213.213C469.509,217.023 470.478,222.006 471.092,224.287C471.732,226.662 472.469,229.842 472.732,231.353C472.987,232.814 473.553,235.682 473.991,237.728C474.446,239.857 474.952,242.967 475.118,244.64C477.005,263.704 476.997,273.861 475.168,282.767C474.452,286.254 472.876,291.586 471.667,294.618C470.528,297.474 469.302,301.094 468.951,302.665C468.577,304.336 467.156,308.554 465.782,312.035C464.463,315.378 462.912,319.56 462.337,321.327C461.742,323.153 460.402,326.601 459.358,328.99C458.344,331.308 456.806,335.022 455.941,337.244C454.686,340.467 453.042,343.083 449.115,347.965C443.516,354.926 437.419,361 434.129,362.987C433.027,363.653 429.528,366.213 426.35,368.67C417.989,375.135 414.765,377.539 410.747,380.311C408.852,381.619 405.632,384.006 403.592,385.616C401.512,387.257 397.068,390.592 393.714,393.027C377.229,404.998 377.355,404.916 363.097,410.192C359.133,411.659 353.247,413.973 350.017,415.334C337.857,420.458 318.545,425.75 307.371,427.029C304.578,427.348 300.368,427.875 298.016,428.199C295.432,428.556 281.291,428.881 262.879,428.99C246.089,429.09 231.146,429.233 229.673,429.31C228.18,429.388 226.002,429.393 224.749,429.324C224.71,429.322 224.672,429.319 224.635,429.317C223.417,429.242 220.301,428.801 217.712,428.331C215.211,427.877 206.36,426.551 198.044,425.383C181.021,422.993 175.411,421.518 167.26,417.431C162.813,415.2 146.642,404.605 140.95,400.188C133.936,394.745 131.741,393.237 128.104,391.444C116.587,385.766 106.673,378.189 100.791,370.629C98.809,368.081 94.415,363.137 91.028,359.639C83.73,352.102 78.775,346.386 73.123,338.987C71.741,337.178 64.636,320.061 59.538,306.113C58.309,302.752 55.929,297.014 54.248,293.362C52.534,289.638 49.743,282.813 48.046,278.195C46.394,273.701 43.962,268.007 42.636,265.542C41.279,263.021 39.855,260.351 39.472,259.609C38.822,258.353 38.04,255.579 34.102,239.614C33.38,236.687 32.256,232.495 31.602,230.3C27.561,216.717 27.359,211.832 30.07,204.431C31.756,199.83 33.999,192.572 34.89,188.827C35.162,187.683 35.556,183.236 35.786,178.947L36.233,170.595L39.674,161.995C43.218,153.141 47.744,144.168 51.21,139.095C53.082,136.356 54.8,134.52 64.329,125.287C66.228,123.447 67.653,121.423 68.879,118.841C71.018,114.333 72.321,113.006 76.308,111.096C77.892,110.337 92.959,101.798 96.732,99.522C97.866,98.839 100.806,97.474 103.271,96.499C105.605,95.576 108.946,94.161 110.696,93.354C114.984,91.377 120.642,89.772 126.228,88.96C128.515,88.628 132.492,87.682 135.065,86.86C139.13,85.561 141.663,85.155 148.664,84.74C163.198,83.878 171.587,84.249 182.647,86.223C193.79,88.212 196.95,88.666 205.324,89.481C209.13,89.851 213.714,90.731 216.693,91.657C219.288,92.463 222.204,93.297 223.172,93.505C225.965,94.105 231.558,96.696 232.958,97.995C233.523,98.52 237.437,100.779 241.629,103.058C248.862,106.991 252.375,109.495 258.056,114.762C258.514,115.186 259.188,115.679 259.395,115.828ZM360.378,253.987C360.356,253.461 360.485,253.011 360.7,252.63C361.07,251.974 361.943,251.28 363.67,250.854C365.397,250.428 367.515,251.245 368.794,252.614C369.651,253.532 370.109,254.653 370.068,255.719C371.058,255.942 373.01,256.611 374.439,257.226C378.761,259.086 387.762,259.124 393.28,257.36C394.886,256.847 397.43,256.432 398.932,256.432C401.365,256.432 404.731,255.378 412.365,252.435C414.451,251.63 416.333,250.944 417.098,250.702C417.178,250.676 417.254,250.654 417.325,250.635C417.734,250.338 419.529,249.026 421.141,247.719C422.504,246.614 423.544,245.717 424.267,244.958C424.587,244.621 424.882,244.187 425.025,243.966C424.908,243.865 424.734,243.723 424.582,243.628C424.189,243.382 423.702,243.137 423.124,242.872C420.869,241.84 420.105,241.724 417.456,241.954C413.604,242.289 405.419,244.321 399.957,246.284C392.225,249.062 389.071,249.494 378.255,249.147C371.626,248.935 366.67,248.464 363.173,247.733C358.178,246.689 356.356,246.408 343.705,244.713C332.125,243.16 320.799,239.266 311.418,233.621C309.733,232.607 305.816,230.669 302.717,229.31C299.431,227.869 295.645,225.941 294.297,225.037C293.05,224.2 290.293,222.748 288.173,221.802C285.917,220.796 282.593,219.159 280.788,218.165C279.074,217.222 276.788,216.079 275.707,215.627L275.343,215.475L275.262,215.671C274.671,217.085 273.611,218.426 272.98,218.831C272.996,218.821 273.017,218.808 273.017,218.808C273.017,218.808 271.586,220.206 270.699,221.275C269.492,222.729 267.459,224.602 266.188,225.446C264.961,226.261 262.105,229.061 260.53,230.639C272.316,238.364 274.177,239.24 280.854,240.354C282.353,240.604 286.976,241.451 291.126,242.237C306.875,245.217 316.541,246.777 322.604,247.309C325.454,247.558 328.011,247.85 329.039,248.029C329.447,248.1 329.745,248.2 329.932,248.28C329.879,248.255 329.836,248.235 329.836,248.235C329.836,248.235 334.014,249.088 337.877,249.743C342.292,250.492 347.604,251.458 349.683,251.89C351.743,252.318 355.774,253.113 358.641,253.657L360.378,253.987ZM396.225,237.026C402.994,234.611 412.221,232.294 416.648,231.881C416.648,231.881 417.91,231.763 417.91,231.763L417.892,231.568C417.809,230.711 417.565,229.612 417.31,229.136C416.911,228.39 416.501,226.227 416.501,224.312C416.501,222.908 416.301,221.014 416.041,220.107C415.442,218.016 415.627,216.947 416.486,215.627C416.451,215.478 416.36,215.106 416.234,214.771C415.699,213.355 414.523,210.986 412.331,206.638C409.636,201.29 406.978,195.729 406.419,194.283C405.511,191.934 404.089,189.4 399.071,181.05C397.98,179.234 396.723,177.018 396.276,176.127C395.878,175.332 394.417,173.469 393.055,171.968C391.485,170.236 389.783,168.135 389.262,167.308C388.974,166.851 388.286,166.309 387.157,165.514C385.06,164.037 381.622,161.983 376.348,159.018C371.133,156.085 368.397,155.044 364.406,154.574C361.502,154.232 356.496,153.495 345.915,151.851C339.884,150.914 328.929,150.794 324.443,151.63C322.715,151.952 319.32,152.921 316.897,153.778C314.383,154.668 311.359,155.732 310.176,156.143C306.003,157.593 297.307,162.223 294.849,164.321C293.216,165.715 290.719,167.173 289.32,167.592C288.166,167.938 285.681,169.159 283.789,170.287C281.119,171.88 280.178,172.768 278.755,175.12L277.054,177.932L277.115,186.817C277.162,193.893 277.336,196.465 278.063,198.821C278.979,201.795 279.018,203.053 278.488,205.042C278.488,205.042 278.355,205.54 278.355,205.54L279.279,205.881C280.7,206.405 283.549,207.795 285.609,208.977C287.217,209.899 289.22,210.84 289.22,210.84C289.581,210.912 290.114,211.069 290.758,211.343C293.247,212.4 298.488,215.187 300.429,216.567C301.545,217.36 304.354,218.782 306.663,219.74C309.151,220.773 313.826,223.087 317.052,224.884C320.153,226.611 324.818,228.853 327.419,229.864C336.299,233.313 338.59,233.812 355.196,236.065C357.782,236.416 360.836,236.943 361.983,237.232C367.606,238.646 373.612,239.187 382.041,239.065C390.717,238.939 390.866,238.938 396.225,237.026ZM173.743,273.286C175.747,275.598 179.634,280.029 181.708,282.036C182.955,283.242 184.946,284.845 186.135,285.595C187.75,286.613 189.905,288.915 192.109,292.115C193.746,294.491 195.689,297.02 196.445,297.718C197.313,298.519 198.787,300.266 199.714,301.606C202.663,305.865 209.531,309.76 225.692,316.827C233.924,320.426 240.328,321.412 252.809,321.094C257.881,320.965 264.339,320.614 267.159,320.312C273.091,319.677 282.22,318.391 285.802,317.684C287.174,317.413 290.476,316.783 293.141,316.284C295.633,315.817 298.584,315.033 299.692,314.519C300.939,313.941 303.234,313.104 304.793,312.663C306.265,312.246 310.641,310.941 314.518,309.763C318.446,308.569 324.485,306.959 327.937,306.185C331.241,305.444 334.823,304.499 335.893,304.072C337.035,303.616 340.338,302.638 343.233,301.905C349.527,300.313 368.07,293.977 371.491,292.244C374.266,290.838 384.557,284.082 387.936,281.452C389.134,280.52 393.162,277.761 396.889,275.324C402.835,271.438 403.404,270.953 406.148,266.893C406.775,265.964 407.442,264.891 407.997,263.973C407.321,264.202 406.615,264.474 406.045,264.733C404.441,265.461 402.076,265.937 399.876,265.946C398.28,265.951 395.417,266.438 393.513,267.017C388.091,268.663 377.601,268.357 372.063,266.383C370.22,265.725 367.204,264.908 365.361,264.566C354.708,262.591 349.001,261.455 345.141,260.544C342.846,260.003 339.679,259.41 338.101,259.229C336.435,259.037 333.373,258.519 331.298,258.075C329.321,257.653 325.189,257.082 322.116,256.804C316.785,256.321 305.378,254.538 296.348,252.773C294.284,252.369 289.096,251.388 284.82,250.592C271.698,248.151 268.675,247.038 261.236,242.123C257.234,239.478 255.092,237.976 253.924,236.937C253.529,236.586 253.221,236.266 252.977,235.969C252.276,236.306 251.181,236.86 250.06,237.531C243.574,241.414 233.026,245.956 227.845,247.117C226.736,247.366 224.547,248.38 222.97,249.344C220.146,251.071 206.917,257.707 198.394,261.667C196.837,262.391 194.981,263.33 194.273,263.759C191.296,265.56 180.448,270.699 176.163,272.336C175.332,272.653 174.478,272.991 173.743,273.286ZM141.361,275.552C141.072,275.257 140.848,275.078 140.848,275.228C140.848,275.386 140.865,275.531 140.895,275.663C141.051,275.626 141.206,275.589 141.361,275.552ZM142.204,273.476C142.355,273.437 142.506,273.398 142.658,273.358C146.249,272.414 150.062,271.251 151.286,270.71C152.665,270.1 155.693,269.142 158.017,268.589C161.939,267.656 167.201,265.92 173.897,263.359C175.793,262.634 181.637,259.883 186.887,257.249C192.207,254.581 201.034,250.21 206.501,247.537C211.876,244.908 217.519,241.946 219.036,240.944C220.896,239.717 223.67,238.567 226.086,238.033C236.009,235.841 249.984,228.625 256.184,222.464C258.092,220.567 260.38,218.684 261.235,218.242C262.284,217.699 264.434,215.307 266.109,213.178C267.126,211.885 268.008,210.729 268.139,210.147C268.32,209.343 268.942,207.032 269.523,205.011C270.028,203.251 270.301,202.115 270.127,201.113C269.964,200.176 269.379,199.411 268.428,198.3C267.151,196.807 265.936,196.168 262.652,194.967C260.188,194.065 256.909,193.135 255.361,192.911C251.943,192.416 246.969,191.503 243.318,190.744C243.433,191.078 243.525,191.443 243.592,191.842C243.817,193.187 243.753,195.02 243.362,197.388C242.449,202.915 240.578,206.185 237.102,208.699C235.699,209.713 232.146,212.725 229.203,215.388C220.652,223.123 213.209,227.094 188.898,236.664C184.748,238.297 177.713,240.917 173.266,242.484C168.883,244.029 163.624,246.025 161.578,246.921C159.459,247.851 154.876,249.39 151.394,250.337C144.589,252.188 143.54,252.524 135.155,255.541C131.818,256.741 127.678,258.009 125.957,258.366C123.909,258.791 123.17,259.217 121.724,260.786C119.351,263.36 117.828,266.065 117.828,268.15C117.828,268.484 117.817,268.734 117.915,268.955C118.108,269.387 118.577,269.673 119.366,270.248C123.736,273.433 128.36,275.129 132.992,275.189C134.416,275.207 138.558,274.421 142.204,273.476ZM236.475,188.295C234.448,186.794 232.099,184.47 231.009,182.707C229.911,180.93 229.656,180.003 229.941,174.333C230.356,166.102 232.008,161.037 235.518,156.68C236.166,155.877 236.821,154.98 237.267,154.355C236.608,153.688 235.55,152.64 234.5,151.7C231.734,149.223 229.71,147.966 225.793,146.266C222.782,144.959 218.482,142.875 216.238,141.636C213.155,139.934 211.251,139.332 206.24,138.394C202.492,137.693 198.673,136.786 197.748,136.405C197.232,136.193 195.712,136.08 193.719,135.96C188.488,135.643 180.31,135.633 176.538,136.088C172.239,136.607 165.99,138.885 161.723,141.471C159.886,142.584 157.866,143.694 157.241,143.949C156.707,144.167 154.864,145.593 153.107,147.066C148.55,150.886 142.79,159.542 140.893,165.406C140.528,166.535 138.71,169.666 136.813,172.34C135.046,174.829 133.003,177.715 132.273,178.752C131.335,180.085 130.935,181.927 130.172,186.847C129.571,190.727 128.717,195.489 128.277,197.431C127.326,201.623 127.298,203.945 128.42,206.416C129.066,207.84 129.767,210.432 129.972,212.178C130.094,213.213 130.101,213.774 130.398,214.17C130.564,214.392 130.823,214.528 131.173,214.735C132.521,215.53 133.967,217.234 135.159,219.669C136.719,222.853 136.88,223.44 137.154,232.871L137.401,241.346L138.285,242.05C139.447,242.976 140.622,243.301 142.572,243.117C144.191,242.964 146.245,242.496 149.025,241.73C152.51,240.769 156.682,239.401 158.294,238.682C159.963,237.938 167.023,235.255 173.984,232.724C180.857,230.225 188.283,227.423 190.487,226.497C192.71,225.563 196.954,223.837 199.918,222.662C204.556,220.824 207.531,219.29 216.869,213.956C217.986,213.318 220.601,211.155 222.695,209.167C224.964,207.014 228.325,204.159 230.162,202.82C231.653,201.733 233.184,200.402 233.474,199.767C233.769,199.119 233.944,197.201 233.944,195.514C233.944,191.433 234.864,189.245 236.475,188.295Z" style="fill-rule:nonzero;"/>
            </g>
        </g>
    </g>
</svg>
