<?xml version="1.0" encoding="UTF-8" standalone="no"?>
<!DOCTYPE svg PUBLIC "-//W3C//DTD SVG 1.1//EN" "http://www.w3.org/Graphics/SVG/1.1/DTD/svg11.dtd">
<svg width="100%" height="100%" viewBox="0 0 512 512" version="1.1" xmlns="http://www.w3.org/2000/svg" xmlns:xlink="http://www.w3.org/1999/xlink" xml:space="preserve" xmlns:serif="http://www.serif.com/" style="fill-rule:evenodd;clip-rule:evenodd;stroke-linecap:round;stroke-linejoin:round;stroke-miterlimit:1.5;">
    <g transform="matrix(1.09664,0,0,1.09664,-7.58654,-3.33027)">
        <path d="M156.906,138.928C156.906,138.928 136.245,133.697 118.306,136.25C100.367,138.804 77.403,153.288 65.206,166.546C50.047,183.025 37.013,200.784 26.953,234.503C19.795,258.493 18.187,274.262 19.441,295.708C20.741,317.934 25.588,340.115 34.967,359.811C44.151,379.096 48.469,389.999 64.685,404.636C75.088,414.027 84.963,423.099 107.181,430.196C125.76,436.131 156.464,431.8 156.464,431.8C156.464,431.8 123.147,416.031 113.324,401.996C102.623,386.704 98.677,386.331 89.177,365.19C79.677,344.05 82.861,352.607 76.915,332.129C70.968,311.65 70.661,297.17 71.142,279.399C71.623,261.628 73.223,247.583 79.507,228.387C85.791,209.191 92.808,197.452 101.138,184.556C122.179,151.982 156.906,138.928 156.906,138.928Z" style="fill:none;stroke:black;stroke-width:19px;"/>
    </g>
    <g transform="matrix(-1.09664,0,0,1.09664,519.587,-3.46787)">
        <path d="M156.906,138.928C156.906,138.928 136.245,133.697 118.306,136.25C100.367,138.804 77.403,153.288 65.206,166.546C50.047,183.025 37.013,200.784 26.953,234.503C19.795,258.493 18.187,274.262 19.441,295.708C20.741,317.934 25.588,340.115 34.967,359.811C44.151,379.096 48.469,389.999 64.685,404.636C75.088,414.027 84.963,423.099 107.181,430.196C125.76,436.131 156.464,431.8 156.464,431.8C156.464,431.8 123.147,416.031 113.324,401.996C102.623,386.704 98.677,386.331 89.177,365.19C79.677,344.05 82.861,352.607 76.915,332.129C70.968,311.65 70.661,297.17 71.142,279.399C71.623,261.628 73.223,247.583 79.507,228.387C85.791,209.191 92.808,197.452 101.138,184.556C122.179,151.982 156.906,138.928 156.906,138.928Z" style="fill:none;stroke:black;stroke-width:19px;"/>
    </g>
    <g transform="matrix(1.09664,0,0,1.09664,48.1255,-0.744461)">
        <path d="M151.826,144.476C151.826,144.476 130.316,139.657 112.377,142.211C94.438,144.764 75.466,152.525 63.27,165.783C48.11,182.263 37.013,200.784 26.953,234.503C19.795,258.493 19.054,274.348 20.438,294.976C21.526,311.187 26.347,340.341 35.203,359.812C44.047,379.255 48.469,389.999 64.685,404.636C75.088,414.027 93.321,427.645 108.273,429.515C128.113,431.997 137.892,430.799 137.892,430.799C137.892,430.799 129.712,416.143 122.533,405.818C111.878,390.494 103.691,366.411 95.033,333.987C89.532,313.385 89.874,297.242 90.355,279.471C90.836,261.7 92.436,247.655 98.721,228.459C105.005,209.263 111.377,196.31 119.707,183.414C140.748,150.84 151.826,144.476 151.826,144.476Z" style="fill:none;stroke:black;stroke-width:19px;"/>
    </g>
    <g transform="matrix(-1.09664,0,0,1.09664,463.479,-0.882061)">
        <path d="M151.826,144.476C151.826,144.476 130.316,139.657 112.377,142.211C94.438,144.764 75.466,152.525 63.27,165.783C48.11,182.263 37.013,200.784 26.953,234.503C19.795,258.493 19.054,274.348 20.438,294.976C21.526,311.187 26.347,340.341 35.203,359.812C44.047,379.255 48.469,389.999 64.685,404.636C75.088,414.027 93.321,427.645 108.273,429.515C128.113,431.997 137.892,430.799 137.892,430.799C137.892,430.799 129.712,416.143 122.533,405.818C111.878,390.494 103.691,366.411 95.033,333.987C89.532,313.385 89.874,297.242 90.355,279.471C90.836,261.7 92.436,247.655 98.721,228.459C105.005,209.263 111.377,196.31 119.707,183.414C140.748,150.84 151.826,144.476 151.826,144.476Z" style="fill:none;stroke:black;stroke-width:19px;"/>
    </g>
    <g transform="matrix(1.09664,0,0,1.09664,-25.0066,-3.33027)">
        <path d="M256,143.822C246.761,143.998 231.228,148.488 225.085,153.024C218.941,157.56 205.907,166.597 198.606,179.778C189.019,197.086 181.41,212.237 177.693,227.824C173.094,247.11 167.883,271.765 168.081,288.634C168.277,305.443 168.612,320.552 172.087,338.872C174.925,353.836 179.007,367.897 185.135,381.829C191.697,396.749 198.344,408.218 208.273,418.006C218.201,427.795 231.715,438.515 242.405,440.369C253.094,442.223 270.405,441.656 277.598,438.324C289.719,432.71 295.419,429.628 303.188,419.673C310.958,409.717 317.914,400.414 325.036,384.762C332.158,369.11 333.799,365.74 336.49,351.854C339.18,337.968 342.838,318.025 343.317,303.214C343.796,288.404 344.533,270.324 341.773,256C337.988,236.351 337.567,233.244 330.149,212.912C322.746,192.622 314.497,176.782 303.657,166.092C291.022,153.632 276.943,143.424 256,143.822Z" style="fill:none;stroke:black;stroke-width:19px;"/>
    </g>
    <g transform="matrix(1.09664,0,0,1.09664,-25.0066,-3.33027)">
        <path d="M205.121,46.101C204.819,41.694 208.974,37.668 215.371,35.878C221.557,34.146 229.493,29.363 236.745,32.685C243.996,36.007 248.931,39.638 251.607,43.674C255.997,50.297 259.529,58.101 262.309,65.654C265.09,73.208 267.442,78.149 269.778,87.092C272.115,96.036 272.805,104.126 272.858,110.157C272.91,116.187 273.107,128.298 272.442,130.14C271.224,133.518 270.91,134.052 268.09,135.423C265.269,136.793 251.983,136.41 251.983,136.41C251.49,135.493 251.822,122.378 251.889,119.062C252.016,112.716 251.021,108.37 249.108,100.857C247.602,94.945 244.396,86.111 241.714,81.401C238.462,75.688 234.23,68.489 228.95,64.148C223.67,59.808 218.121,56.793 212.47,53.772C206.82,50.751 205.423,50.508 205.121,46.101Z"/>
    </g>
</svg>
