<?xml version="1.0" encoding="UTF-8" standalone="no"?>
<!DOCTYPE svg PUBLIC "-//W3C//DTD SVG 1.1//EN" "http://www.w3.org/Graphics/SVG/1.1/DTD/svg11.dtd">
<svg width="100%" height="100%" viewBox="0 0 512 512" version="1.1" xmlns="http://www.w3.org/2000/svg" xmlns:xlink="http://www.w3.org/1999/xlink" xml:space="preserve" xmlns:serif="http://www.serif.com/" style="fill-rule:evenodd;clip-rule:evenodd;stroke-linecap:round;stroke-linejoin:round;stroke-miterlimit:1.5;">
    <g transform="matrix(1.06946,0,0,1.06946,-9.1761,-41.4826)">
        <path d="M242.771,245.443L19.239,470.167C23.893,486.997 34.093,496.528 49.041,499.811L272.379,277.817C272.379,277.817 281.38,273.568 295.951,272.836C312.986,271.98 356.619,292.607 367.022,290.431C393.847,284.819 388.719,263.492 388.719,263.492C388.719,263.492 403.855,276.074 422.213,271.703C444.597,266.373 438.728,246.494 438.728,246.494C438.728,246.494 458.393,243.957 469.125,230.518C482.576,213.673 476.265,197.918 464.04,188.206C453.194,179.589 425.618,180.684 425.618,180.684C425.618,180.684 431.609,161.803 418.601,155.148C409.171,150.323 392.617,148.913 381.018,159.504C369.844,169.707 375.058,183.788 371.187,185.672C361.094,190.584 347.889,195.455 335.175,203.714C321.427,212.645 298.999,232.252 290.4,241.301C289.586,240.476 310.458,220.234 335.175,203.714C346.851,195.91 360.447,190.554 371.187,185.672C373.527,180.805 372.857,172.539 375.753,164.158C375.753,164.158 390.761,152.369 391.449,143.558C392.508,130.008 381.338,123.433 378.503,122.08C378.503,122.08 395.009,100.414 383.444,78.986C374.26,61.973 360.841,57.587 351.679,56.621C331.533,54.496 315.671,83.782 312.908,95.07C312.908,95.07 295.613,83.332 286.528,94.217C278.535,103.793 289.403,131.283 289.403,131.283C289.403,131.283 271.579,134.209 265.039,146.982C258.189,160.361 265.816,181.286 264.804,196.846C262.437,233.236 242.771,245.443 242.771,245.443Z" style="fill:none;stroke:black;stroke-width:15.58px;"/>
    </g>
    <g transform="matrix(1.06946,0,0,1.06946,-14.9477,-33.3109)">
        <path d="M328.731,236.271C363.532,221.577 399.861,214.404 437.384,213.106" style="fill:none;stroke:black;stroke-width:9.74px;"/>
        <path d="M396.786,201.532L391.33,217.872L401.671,233.66" style="fill:none;stroke:black;stroke-width:9.74px;"/>
        <path d="M361.379,248.205L348.446,228.318L355.205,207.957" style="fill:none;stroke:black;stroke-width:9.74px;"/>
    </g>
    <g transform="matrix(1.06946,0,0,1.06946,-12.634,-42.546)">
        <path d="M348.446,98.349C335.259,146.909 315.61,183.628 298.223,204.709" style="fill:none;stroke:black;stroke-width:9.74px;"/>
        <path d="M354.912,137.4L335.644,139.73L323.334,122.444" style="fill:none;stroke:black;stroke-width:9.74px;"/>
        <path d="M298.223,160.24L315.268,179.728L335.644,177.193" style="fill:none;stroke:black;stroke-width:9.74px;"/>
    </g>
    <g transform="matrix(1.06946,0,0,1.06946,-9.1761,-41.6478)">
        <path d="M45.74,473.081L251.574,267.012" style="fill:none;stroke:black;stroke-width:7.79px;"/>
    </g>
</svg>
