<?xml version="1.0" encoding="utf-8"?>
<!-- Generator: Adobe Adobe Illustrator 24.2.0, SVG Export Plug-In . SVG Version: 6.00 Build 0)  -->
<svg version="1.1" id="Ebene_1" xmlns="http://www.w3.org/2000/svg" xmlns:xlink="http://www.w3.org/1999/xlink" x="0px" y="0px"
	 width="512px" height="512px" viewBox="0 0 512 512" style="enable-background:new 0 0 512 512;" xml:space="preserve">
<style type="text/css">
	.st0{fill:none;stroke:#000000;stroke-width:30;stroke-miterlimit:10;}
	.st1{stroke:#000000;stroke-width:30;stroke-miterlimit:10;}
</style>
<g>
	<path d="M256,511.34c-68.2,0-132.33-26.56-180.55-74.79S0.66,324.2,0.66,256c0-68.2,26.56-132.33,74.79-180.55S187.8,0.66,256,0.66
		c108.69,0,135.67,46.26,153.52,76.86c4.22,7.23,7.86,13.48,11.6,17.22c4.38,4.38,10.5,8.63,17.59,13.56
		c14.83,10.3,33.28,23.12,47.9,45.9c16.64,25.93,24.73,59.23,24.73,101.8c0,68.2-26.56,132.33-74.79,180.55S324.2,511.34,256,511.34
		z M256,34.74C134,34.74,34.74,134,34.74,256S134,477.26,256,477.26S477.26,378,477.26,256c0-79.42-30.81-100.83-57.99-119.71
		c-8.08-5.61-15.71-10.92-22.24-17.45c-6.85-6.85-11.75-15.25-16.94-24.15c-8.06-13.82-16.4-28.12-33.35-39.43
		C326.02,41.46,296.34,34.74,256,34.74z"/>
	<g>
		<path d="M407.69,112.4c0-9.04-7.36-16.4-16.4-16.4 M391.29,130.08c-9.75,0-17.69-7.93-17.69-17.69s7.93-17.69,17.69-17.69
			c9.75,0,17.69,7.93,17.69,17.69S401.04,130.08,391.29,130.08z"/>
	</g>
</g>
</svg>
