<?xml version="1.0" encoding="UTF-8" standalone="no"?>
<!DOCTYPE svg PUBLIC "-//W3C//DTD SVG 1.1//EN" "http://www.w3.org/Graphics/SVG/1.1/DTD/svg11.dtd">
<svg width="100%" height="100%" viewBox="0 0 512 512" version="1.1" xmlns="http://www.w3.org/2000/svg" xmlns:xlink="http://www.w3.org/1999/xlink" xml:space="preserve" xmlns:serif="http://www.serif.com/" style="fill-rule:evenodd;clip-rule:evenodd;stroke-linejoin:round;stroke-miterlimit:2;">
    <g transform="matrix(0.692399,0,0,0.665062,78.7459,85.7442)">
        <path d="M256,511.34C187.8,511.34 123.67,484.78 75.45,436.55C27.23,388.32 0.66,324.2 0.66,256C0.66,187.8 27.22,123.67 75.45,75.45C123.68,27.23 187.8,0.66 256,0.66C364.69,0.66 391.67,46.92 409.52,77.52C413.74,84.75 417.38,91 421.12,94.74C425.5,99.12 431.62,103.37 438.71,108.3C453.54,118.6 471.99,131.42 486.61,154.2C503.25,180.13 511.34,213.43 511.34,256C511.34,324.2 484.78,388.33 436.55,436.55C388.32,484.77 324.2,511.34 256,511.34ZM256,34.74C134,34.74 34.74,134 34.74,256C34.74,378 134,477.26 256,477.26C378,477.26 477.26,378 477.26,256C477.26,176.58 446.45,155.17 419.27,136.29C411.19,130.68 403.56,125.37 397.03,118.84C390.18,111.99 385.28,103.59 380.09,94.69C372.03,80.87 363.69,66.57 346.74,55.26C326.02,41.46 296.34,34.74 256,34.74Z" style="fill-rule:nonzero;"/>
        <g>
            <path d="M407.69,112.4C407.69,103.36 400.33,96 391.29,96M391.29,130.08C381.54,130.08 373.6,122.15 373.6,112.39C373.6,102.63 381.53,94.7 391.29,94.7C401.04,94.7 408.98,102.63 408.98,112.39C408.98,122.15 401.04,130.08 391.29,130.08Z" style="fill-rule:nonzero;"/>
        </g>
    </g>
</svg>
