<?xml version="1.0" encoding="utf-8"?>
<!-- Generator: Adobe Adobe Illustrator 24.2.0, SVG Export Plug-In . SVG Version: 6.00 Build 0)  -->
<svg version="1.1" id="Ebene_1" xmlns="http://www.w3.org/2000/svg" xmlns:xlink="http://www.w3.org/1999/xlink" x="0px" y="0px"
	 width="512px" height="512px" viewBox="0 0 512 512" style="enable-background:new 0 0 512 512;" xml:space="preserve">
<style type="text/css">
	.st0{fill:none;stroke:#000000;stroke-width:30;stroke-linecap:round;stroke-linejoin:round;stroke-miterlimit:10;}
	.st1{fill:none;stroke:#000000;stroke-width:30;stroke-miterlimit:10;}
	.st2{fill:none;stroke:#000000;stroke-width:15;stroke-linecap:round;stroke-linejoin:round;stroke-miterlimit:10;}
</style>
<g>
	<path d="M358.96,494.98c-6.14,0-13.77-1.61-23.79-4.89c-11.44-3.74-25.67-9.61-42.29-17.44c-30.41-14.32-64.9-33.43-87.87-48.69
		c-25.8-17.14-52.11-56.59-67.84-80.16c-3.19-4.78-6.72-10.07-8.72-12.8c-1.01-0.38-2.21-0.84-3.34-1.26
		c-31.29-11.75-47.01-19.38-51.7-30.92c-7.72-19.02,1.85-39.42,9.41-54.71c-0.86-0.14-1.74-0.27-2.62-0.41
		c-23.79-3.71-46.25-7.21-54.6-21.08c-8.55-14.21,1.21-32.79,15.94-57.49c0.02-0.03,0.03-0.06,0.05-0.08
		c-6.99-5.33-16.18-13.58-24.05-25.54C3.25,117.79-1.8,91.65,2.52,61.82c1.27-8.77,7.11-15.39,15.61-17.7
		c16.06-4.37,38.88,8.86,46.38,13.2c5.68,3.29,12.47,7.67,18.88,12.43C86.58,63.45,90.2,57,93.52,51.33
		c5.38-9.17,18.99-31.44,29.2-40.19c4.44-3.8,12.39-7.95,25.08-6.17c16.41,2.31,33.84,13.57,42.76,20.09
		c14.34,10.46,26.95,23.1,34.58,34.67c4.56,6.91,2.66,16.22-4.25,20.78c-6.91,4.56-16.22,2.66-20.78-4.25
		c-6.58-9.96-18.9-21.61-32.17-30.4c-13.94-9.23-23.33-11.56-26.36-11.32c-3.79,3.67-11.76,14.38-21.35,30.57
		c-9.72,16.4-15.24,28.59-16,31.86c-0.72,5.92-4.88,10.86-10.61,12.57c-5.85,1.74-12.17-0.24-15.99-5
		c-3.36-4.2-13.42-12.43-26.16-20.06c-9.04-5.41-15.76-8.35-20.18-9.85c-3.17,45.75,25.2,64.64,34.89,71.09
		c3.69,2.46,8.73,5.82,9.59,13.02c0.76,6.31-1.94,10.83-8.46,21.77c-3.4,5.7-11.58,19.43-14.1,26.93
		c7.11,2.81,22.65,5.23,31.62,6.63c8.52,1.33,16.56,2.58,22.98,4.26c7.89,2.07,12.69,10.06,10.79,18
		c-1.46,6.12-4.71,12.67-8.16,19.61c-4.78,9.63-11.21,22.58-9.69,30.07c2.9,2.19,11.22,6.75,34.9,15.65
		c5.99,2.25,7.8,2.93,9.68,4.11c4.19,2.63,6.73,6.29,16.79,21.38c13.53,20.27,38.7,58.01,59.49,71.82
		c20.26,13.47,51.28,30.8,79.02,44.15c35.67,17.17,53.05,21.74,57.92,21.85c7.03-2.42,14.92,0.7,18.31,7.53
		c3.68,7.42,0.64,16.42-6.78,20.1C366.89,494.18,363.29,494.98,358.96,494.98z M356.78,465.71c-0.01,0-0.01,0-0.02,0.01
		C356.77,465.72,356.77,465.72,356.78,465.71z M359.12,464.96L359.12,464.96L359.12,464.96z M99.82,285.22L99.82,285.22z
		 M104.27,96.6c-0.01,0.06-0.01,0.12-0.02,0.18C104.26,96.71,104.27,96.65,104.27,96.6z"/>
	<path d="M431.31,507.46c-14,0-29.96-3.53-40.34-6.3c-15.77-4.21-46.53-14.15-75.4-33.34c-25.8-17.15-52.12-56.6-67.85-80.17
		c-3.19-4.78-6.72-10.07-8.72-12.79c-1.01-0.38-2.21-0.83-3.33-1.26c-31.29-11.75-47.01-19.38-51.7-30.92
		c-7.72-19.01,1.85-39.42,9.41-54.7c-0.86-0.13-1.72-0.27-2.59-0.41c-23.8-3.71-46.28-7.21-54.63-21.08
		c-8.35-13.87,0.77-31.92,14.92-55.77c-9.68-5.99-22.54-17.25-33.74-39.55c-8.95-17.82-10.69-33.32-10.57-43.2
		c0.1-8.51,1.77-23.97,11.88-31.92c12.16-9.57,32.86-1.92,51.5,6.82c6.23,2.92,13.44,6.66,20.21,10.68
		c1.82-5.96,4.11-12.39,6.89-18.74c10.98-25.09,25.38-39.6,42.81-43.12c17.4-3.52,33.98,0.35,49.28,11.49
		c7.47,5.44,14.55,12.44,22.06,21.91c0.72-0.54,1.46-1.09,2.25-1.65c8.49-6.16,19.01-12.84,29.62-18.8
		c20.84-11.72,49.86-25.17,69.75-22.74c13.9,1.7,23.27,10.78,25.07,24.27c4.87,36.51-8.81,72.32-18.79,98.47
		c-3.49,9.15-8.03,21.02-9.22,27.64c7.58,1.3,20.65,2.73,30.86,3.86c13.21,1.45,26.86,2.96,37.9,4.79
		c16.78,2.79,26.63,6,30.67,14.97c2.44,5.43,1.81,11.62-1.69,16.56c-15.47,21.85-77.55,64.71-96.99,77.85
		c-2.28,26.53-3.68,70.19,3.53,91.97c6.86,20.72,17.47,38.4,29.75,58.86c4.2,6.99,8.54,14.23,12.93,21.93
		c2.05,3.59,2.52,7.86,1.32,11.81s-3.99,7.23-7.69,9.06C445.49,506.48,438.67,507.46,431.31,507.46z M437.6,476.92L437.6,476.92
		C437.6,476.92,437.6,476.92,437.6,476.92z M211.31,329.86c2.89,2.19,11.22,6.75,34.9,15.65c5.99,2.25,7.79,2.93,9.67,4.11
		c4.19,2.64,6.73,6.3,16.79,21.38c13.53,20.27,38.71,58.01,59.5,71.83c18.23,12.12,41.24,22.37,64.8,28.87
		c8.31,2.29,15.43,3.76,21.29,4.64c-12.61-21-24.51-40.86-32.39-64.67c-11.32-34.21-5.58-98.14-4.31-110.61
		c0.53-5.23,3.55-9.94,8.01-12.64c23.22-15.47,58.69-40.77,79.29-58.71c-10.13-1.46-22.31-2.8-31.2-3.78
		c-37.96-4.18-45.89-5.57-51.57-12.2c-12.22-14.27-4.54-34.37,5.18-59.82c9.18-24.03,20.57-53.85,17.26-82.38
		c-4.9-0.27-18.42,2.12-43.95,15.62c-21.37,11.3-38.68,23.95-42.46,27.91c-2.37,4.04-6.53,6.78-11.28,7.3
		c-5.53,0.61-10.93-1.88-14.05-6.47c-19.15-28.15-33.86-38.24-50.78-34.82c-6.98,1.41-14.73,10.79-21.28,25.74
		c-6.44,14.71-9.56,30-9.91,33.62c-0.58,5.96-4.65,11.01-10.35,12.84c-5.71,1.83-11.95,0.09-15.88-4.43
		c-1.79-2.06-11.44-9.04-26.63-16.63c-11.17-5.58-19.63-8.62-24.66-9.9c-1.11,6.58-0.95,19.82,6.86,35.38
		c11.88,23.66,24.57,28.86,29.99,31.08c3.31,1.36,11.08,4.53,12.18,13.79c0.76,6.32-1.94,10.85-8.46,21.8
		c-3.4,5.7-11.58,19.43-14.1,26.93c7.11,2.81,22.66,5.23,31.64,6.63c8.51,1.33,16.54,2.58,22.96,4.26c7.89,2.06,12.69,10.06,10.8,18
		c-1.46,6.12-4.71,12.68-8.16,19.62C216.23,309.42,209.8,322.37,211.31,329.86z M210.38,329.06
		C210.38,329.06,210.38,329.06,210.38,329.06z M403.94,314.72c-0.01,0-0.02,0.01-0.03,0.01
		C403.92,314.73,403.93,314.72,403.94,314.72z M138.48,118.3L138.48,118.3z M323.14,112.98c0,0.01-0.01,0.02-0.01,0.02
		C323.13,113,323.13,112.99,323.14,112.98z M408.3,69.81C408.3,69.81,408.3,69.81,408.3,69.81L408.3,69.81z"/>
	<path d="M400.22,216.68c-3.35,0-6.69-1.11-9.42-3.33c-6.37-5.01-7.62-14.22-2.75-20.75c4.91-6.58,14.18-7.99,20.81-3.19
		c0.81,0.58,1.53,1.2,2.2,1.9c5.73,5.99,5.51,15.48-0.47,21.21C407.68,215.3,403.94,216.68,400.22,216.68z M391.41,213.82
		c0.01,0.01,0.02,0.02,0.04,0.02C391.43,213.84,391.42,213.83,391.41,213.82z M389.4,212.07C389.4,212.08,389.4,212.08,389.4,212.07
		C389.4,212.08,389.4,212.08,389.4,212.07z M389.37,212.05c0,0.01,0.01,0.01,0.01,0.02C389.38,212.06,389.38,212.06,389.37,212.05z"
		/>
	<path d="M427.7,487.52c-0.61,0-1.23-0.08-1.84-0.23c-14.97-3.79-29.21-13.29-43.52-29.06c-23.46-25.84-38.76-57.13-53.55-87.39
		c-20.91-42.77-23.01-54.96-26.49-75.14c-1.74-10.12-3.91-22.71-9.27-42.87c-0.17-0.63-0.25-1.28-0.25-1.93
		c0-0.56-0.03-1.35-0.06-2.35c-0.26-7.64-0.85-25.52,4.85-45.12c7.29-25.01,22.03-43.71,43.84-55.59c3.64-1.98,8.19-0.64,10.17,3
		c1.98,3.64,0.64,8.19-3,10.17c-28.54,15.55-42.29,44.83-40.88,87.04c0.02,0.69,0.04,1.29,0.06,1.82
		c5.36,20.29,7.55,33.03,9.32,43.29c3.36,19.51,5.21,30.26,25.18,71.1c14.33,29.31,29.15,59.63,51.18,83.89
		c12.27,13.52,24.08,21.57,36.1,24.6c4.02,1.02,6.45,5.09,5.43,9.11C434.11,485.26,431.05,487.52,427.7,487.52z"/>
	<path d="M298.68,244.99c-2.96,0-5.77-1.77-6.95-4.68c-0.96-2.36-1.8-6.11-3.08-11.8c-4.21-18.7-12.05-53.5-32.24-76.73
		c-2.72-3.13-2.38-7.86,0.74-10.58c3.13-2.72,7.86-2.38,10.58,0.74c22.67,26.09,31.37,64.71,35.55,83.28
		c0.91,4.05,1.86,8.24,2.35,9.45c1.56,3.84-0.29,8.21-4.13,9.77C300.57,244.81,299.62,244.99,298.68,244.99z"/>
	<path d="M332.47,368.71c-2.55,0-5.01-1.31-6.4-3.6c-0.3-0.48-30.81-49.24-81.14-46.46c-4.13,0.23-7.67-2.94-7.9-7.07
		s2.94-7.67,7.07-7.9c36.76-2.03,63.79,18.11,79.38,34.3c0.13-7.2,0.79-15.51,2.45-24.3c6.66-35.22,26.33-61.04,56.89-74.67
		c3.78-1.69,8.22,0.01,9.9,3.79c1.69,3.78-0.01,8.22-3.79,9.9c-26.1,11.64-42.31,32.94-48.17,63.31
		c-4.51,23.39-0.93,43.63-0.9,43.84c0.65,3.56-1.33,7.07-4.71,8.36C334.26,368.55,333.36,368.71,332.47,368.71z"/>
	<path d="M304.61,275.95c-3.14,0-6.06-1.99-7.11-5.13c-5.27-15.79-32.42-57.8-73.23-53.49c-4.12,0.44-7.81-2.55-8.24-6.67
		c-0.43-4.12,2.55-7.81,6.67-8.24c48.99-5.17,81.65,41.55,89.03,63.66c1.31,3.93-0.81,8.18-4.74,9.49
		C306.2,275.83,305.39,275.95,304.61,275.95z"/>
</g>
</svg>
