<?xml version="1.0" encoding="UTF-8" standalone="no"?>
<!DOCTYPE svg PUBLIC "-//W3C//DTD SVG 1.1//EN" "http://www.w3.org/Graphics/SVG/1.1/DTD/svg11.dtd">
<svg width="100%" height="100%" viewBox="0 0 512 512" version="1.1" xmlns="http://www.w3.org/2000/svg" xmlns:xlink="http://www.w3.org/1999/xlink" xml:space="preserve" xmlns:serif="http://www.serif.com/" style="fill-rule:evenodd;clip-rule:evenodd;stroke-linejoin:round;stroke-miterlimit:2;">
    <g transform="matrix(1.01841,0,0,0.943457,-0.027738,18.2065)">
        <path d="M153.898,144.096C133.255,165.331 210.739,251.794 234.097,230.95C260,207.834 179.631,117.626 153.898,144.096Z"/>
    </g>
    <g transform="matrix(1.01412,0.0933806,-0.0865083,0.939483,180.546,-68.0492)">
        <path d="M153.898,144.096C133.255,165.331 210.739,251.794 234.097,230.95C260,207.834 179.631,117.626 153.898,144.096Z"/>
    </g>
    <g transform="matrix(-0.836583,-0.58076,0.538019,-0.775014,98.5657,556.802)">
        <path d="M153.898,144.096C133.255,165.331 210.739,251.794 234.097,230.95C260,207.834 179.631,117.626 153.898,144.096Z"/>
    </g>
    <g transform="matrix(0.875868,-0.519623,0.481381,0.811408,-69.7148,56.4966)">
        <path d="M153.898,144.096C133.255,165.331 210.739,251.794 234.097,230.95C260,207.834 179.631,117.626 153.898,144.096Z"/>
    </g>
    <g transform="matrix(0.858013,-0.548604,0.50823,0.794867,40.6746,329.248)">
        <path d="M153.898,144.096C133.255,165.331 210.739,251.794 234.097,230.95C260,207.834 179.631,117.626 153.898,144.096Z"/>
    </g>
    <g transform="matrix(0.824077,0.598372,-0.554334,0.76343,400.046,9.09077)">
        <path d="M153.898,144.096C133.255,165.331 210.739,251.794 234.097,230.95C260,207.834 179.631,117.626 153.898,144.096Z"/>
    </g>
    <g transform="matrix(1.01841,0,0,0.943457,-61.6361,272.304)">
        <path d="M153.898,144.096C133.255,165.331 210.739,251.794 234.097,230.95C260,207.834 179.631,117.626 153.898,144.096Z"/>
    </g>
    <g transform="matrix(0.857894,0.54879,-0.508402,0.794757,208.971,1.47784)">
        <path d="M153.898,144.096C133.255,165.331 210.739,251.794 234.097,230.95C260,207.834 179.631,117.626 153.898,144.096Z"/>
    </g>
    <g transform="matrix(0.613771,0.812673,-0.752864,0.568601,125.375,-81.2406)">
        <path d="M153.898,144.096C133.255,165.331 210.739,251.794 234.097,230.95C260,207.834 179.631,117.626 153.898,144.096Z"/>
    </g>
    <g transform="matrix(1.01841,0,0,0.943457,-80.6004,179.776)">
        <path d="M153.898,144.096C133.255,165.331 210.739,251.794 234.097,230.95C260,207.834 179.631,117.626 153.898,144.096Z"/>
    </g>
    <g transform="matrix(0.700557,-0.73917,0.684771,0.648999,-101.358,310.411)">
        <path d="M153.898,144.096C133.255,165.331 210.739,251.794 234.097,230.95C260,207.834 179.631,117.626 153.898,144.096Z"/>
    </g>
    <g transform="matrix(0.855613,0.55234,-0.51169,0.792644,203.728,-180.166)">
        <path d="M153.898,144.096C133.255,165.331 210.739,251.794 234.097,230.95C260,207.834 179.631,117.626 153.898,144.096Z"/>
    </g>
    <g transform="matrix(0.866736,0.534716,-0.495364,0.802948,327.326,115.945)">
        <path d="M153.898,144.096C133.255,165.331 210.739,251.794 234.097,230.95C260,207.834 179.631,117.626 153.898,144.096Z"/>
    </g>
    <g transform="matrix(1.01841,0,0,0.943457,259.425,-47.8872)">
        <path d="M153.898,144.096C133.255,165.331 210.739,251.794 234.097,230.95C260,207.834 179.631,117.626 153.898,144.096Z"/>
    </g>
    <g transform="matrix(1.01841,0,0,0.943457,22.4315,240.962)">
        <path d="M153.898,144.096C133.255,165.331 210.739,251.794 234.097,230.95C260,207.834 179.631,117.626 153.898,144.096Z"/>
    </g>
    <g transform="matrix(1.01841,0,0,0.943457,166.839,49.2776)">
        <path d="M153.898,144.096C133.255,165.331 210.739,251.794 234.097,230.95C260,207.834 179.631,117.626 153.898,144.096Z"/>
    </g>
</svg>
