<?xml version="1.0" encoding="UTF-8" standalone="no"?>
<!DOCTYPE svg PUBLIC "-//W3C//DTD SVG 1.1//EN" "http://www.w3.org/Graphics/SVG/1.1/DTD/svg11.dtd">
<svg width="100%" height="100%" viewBox="0 0 512 512" version="1.1" xmlns="http://www.w3.org/2000/svg" xmlns:xlink="http://www.w3.org/1999/xlink" xml:space="preserve" xmlns:serif="http://www.serif.com/" style="fill-rule:evenodd;clip-rule:evenodd;stroke-linejoin:round;stroke-miterlimit:2;">
    <g transform="matrix(0.994819,0,0,0.994819,0.28454,5.46554)">
        <g transform="matrix(1.26217,0,0,1.26217,-66.821,-68.9834)">
            <path d="M168.99,227.523C169.089,229.679 170.138,233.434 173.086,237.985C179.298,247.574 196.17,266.186 213.672,284.613C230.003,301.808 246.95,318.805 257.981,327.209C262.326,330.519 266.066,332.659 268.794,333.627C271.51,334.59 273.868,334.749 275.754,334.53C278.106,334.257 282.944,332.327 289.119,327.885C305.272,316.265 339.125,285.363 371.975,255.07C402.505,226.917 432.325,199.371 443.164,186.714C448.221,180.809 449.832,175.911 449.918,173.885C450.014,171.619 449.04,167.162 445.209,161.798C437.777,151.392 416.754,130.119 394.636,107.816C373.465,86.469 351.211,63.979 340.006,56.774C333.524,52.606 328.085,52.488 325.196,53.379C323.312,53.96 319.405,56.229 314.47,60.65C301.463,72.302 274.185,101.815 247.307,130.355C216.27,163.312 185.605,196.016 174.764,212.377C170.309,219.102 168.853,224.553 168.99,227.523ZM329.737,75.506C331.466,76.714 333.743,78.378 335.7,80.039C347.22,89.818 363.704,106.641 379.629,122.699C398.408,141.635 419.199,164.731 426.521,172.939C416.92,182.554 385.317,214.016 357.647,239.532C329.454,265.53 300.541,292.024 283.137,305.874C279.93,308.426 276.277,310.949 274.034,312.452C271.541,310.713 266.963,307.405 263.235,304.087C253.378,295.313 241.028,282.725 228.997,270.058C213.643,253.893 196.042,232.423 191.12,226.36C192.404,224.254 194.575,220.835 196.831,217.899C210.037,200.714 236.265,172.909 262.693,144.845C285.866,120.24 309.32,94.88 323.408,81.235C325.55,79.16 327.935,77.053 329.737,75.506Z"/>
        </g>
        <g transform="matrix(1.26217,0,0,1.26217,-66.821,-68.9834)">
            <path d="M253.951,219.298L335.378,128.367C339.269,124.022 338.9,117.335 334.555,113.444C330.21,109.553 323.523,109.922 319.632,114.267L238.205,205.198C234.314,209.543 234.683,216.23 239.028,220.121C243.373,224.012 250.06,223.643 253.951,219.298Z"/>
        </g>
        <g transform="matrix(1.26217,0,0,1.26217,-66.821,-68.9834)">
            <path d="M297.81,263.879L389.056,182.324C393.404,178.437 393.779,171.75 389.892,167.402C386.005,163.053 379.319,162.678 374.971,166.565L283.725,248.121C279.377,252.008 279.002,258.694 282.889,263.042C286.775,267.391 293.462,267.766 297.81,263.879Z"/>
        </g>
        <g transform="matrix(1.26217,0,0,1.26217,-66.821,-68.9834)">
            <path d="M168.283,251.108C164.74,247.505 159.143,246.914 154.925,249.698C154.925,249.698 143.237,257.477 136.508,264.75C131.305,270.373 129.191,276.537 129.669,280.686C132.034,301.185 146.722,323.334 165.541,340.836C184.056,358.056 206.337,370.68 223.007,373.711C227.617,374.549 233.978,372.525 239.541,366.97C246.314,360.205 253.08,348.143 253.08,348.143C255.347,344.049 254.651,338.951 251.371,335.614L168.283,251.108ZM223.952,352.294C210.682,348.933 194.107,338.54 179.935,325.359C165.697,312.117 153.653,295.998 150.984,280.43C152.015,279.274 154.158,276.929 155.831,275.478C157.077,274.398 158.357,273.358 159.58,272.403L159.58,272.403L230.037,344.063L223.952,352.294Z"/>
        </g>
        <g transform="matrix(1.26217,0,0,1.26217,-66.821,-68.9834)">
            <path d="M179.172,277.952L201.175,258.23C205.518,254.337 205.884,247.651 201.991,243.307C198.098,238.964 191.411,238.599 187.068,242.492L165.065,262.213C160.722,266.106 160.357,272.793 164.25,277.136C168.143,281.479 174.829,281.845 179.172,277.952Z"/>
        </g>
        <g transform="matrix(1.26217,0,0,1.26217,-66.821,-68.9834)">
            <path d="M238.143,333.4L258.483,315.161C261.585,312.38 261.845,307.603 259.064,304.502C256.282,301.4 251.506,301.14 248.404,303.921L228.064,322.161C224.962,324.942 224.702,329.718 227.483,332.82C230.265,335.922 235.041,336.182 238.143,333.4Z"/>
        </g>
        <g transform="matrix(1.45559,0,0,1.29378,-129.562,-108.362)">
            <ellipse cx="179.766" cy="390.114" rx="7.377" ry="8.055"/>
        </g>
        <g transform="matrix(1.45559,0,0,1.29378,-176.51,-133.053)">
            <ellipse cx="179.766" cy="390.114" rx="7.377" ry="8.055"/>
        </g>
        <g transform="matrix(1.45559,0,0,1.29378,-193.429,-78.0514)">
            <ellipse cx="179.766" cy="390.114" rx="7.377" ry="8.055"/>
        </g>
        <g transform="matrix(1.45559,0,0,1.29378,-151.388,-50.7592)">
            <ellipse cx="179.766" cy="390.114" rx="7.377" ry="8.055"/>
        </g>
        <g transform="matrix(1.45559,0,0,1.29378,-194.205,-9.29094)">
            <ellipse cx="179.766" cy="390.114" rx="7.377" ry="8.055"/>
        </g>
        <g transform="matrix(1.45559,0,0,1.29378,-237.896,-45.3712)">
            <ellipse cx="179.766" cy="390.114" rx="7.377" ry="8.055"/>
        </g>
    </g>
</svg>
