<?xml version="1.0" encoding="UTF-8" standalone="no"?>
<!DOCTYPE svg PUBLIC "-//W3C//DTD SVG 1.1//EN" "http://www.w3.org/Graphics/SVG/1.1/DTD/svg11.dtd">
<svg width="100%" height="100%" viewBox="0 0 512 512" version="1.1" xmlns="http://www.w3.org/2000/svg" xmlns:xlink="http://www.w3.org/1999/xlink" xml:space="preserve" xmlns:serif="http://www.serif.com/" style="fill-rule:evenodd;clip-rule:evenodd;stroke-linecap:round;stroke-linejoin:round;stroke-miterlimit:1.5;">
    <g transform="matrix(1,0,0,1,0.444783,-31.3989)">
        <path d="M18.322,181.64L118.148,77.576L264.083,88.116L164.368,193.544L18.322,181.64ZM18.322,181.64L72.898,327.46L209.087,341.729M164.368,193.544L214.137,319.584M264.083,88.116L314.38,209.671M199.962,381.75L234.832,228.818L349.504,316.453L317.842,469.831L199.962,381.75ZM234.832,228.818L375.853,194.875L492.788,281.977L349.504,316.453L234.832,228.818ZM492.788,281.977L462.378,432.754L317.842,469.831" style="fill:none;stroke:black;stroke-width:20.83px;"/>
    </g>
    <g transform="matrix(1.74706,0,0,1.74706,-70.8526,-325.24)">
        <circle cx="140.911" cy="416.919" r="3.283"/>
    </g>
    <g transform="matrix(1.74706,0,0,1.74706,205.147,-269.692)">
        <circle cx="140.911" cy="416.919" r="3.283"/>
    </g>
    <g transform="matrix(1.74706,0,0,1.74706,-32.2957,-292.758)">
        <circle cx="140.911" cy="416.919" r="3.283"/>
    </g>
    <g transform="matrix(1.74706,0,0,1.74706,-161.786,-389.325)">
        <circle cx="140.911" cy="416.919" r="3.283"/>
    </g>
    <g transform="matrix(1.74706,0,0,1.74706,184.263,-289.696)">
        <circle cx="140.911" cy="416.919" r="3.283"/>
    </g>
    <g transform="matrix(1.74706,0,0,1.74706,-43.6066,-329.471)">
        <circle cx="140.911" cy="416.919" r="3.283"/>
    </g>
    <g transform="matrix(1.74706,0,0,1.74706,-100.454,-351.68)">
        <circle cx="140.911" cy="416.919" r="3.283"/>
    </g>
    <g transform="matrix(1.74706,0,0,1.74706,230.568,-293.272)">
        <circle cx="140.911" cy="416.919" r="3.283"/>
    </g>
    <g transform="matrix(1.74706,0,0,1.74706,10.2642,-280.823)">
        <circle cx="140.911" cy="416.919" r="3.283"/>
    </g>
    <g transform="matrix(1.74706,0,0,1.74706,-130.116,-391.336)">
        <circle cx="140.911" cy="416.919" r="3.283"/>
    </g>
    <g transform="matrix(1.74706,0,0,1.74706,115.516,-268.296)">
        <circle cx="140.911" cy="416.919" r="3.283"/>
    </g>
    <g transform="matrix(1.74706,0,0,1.74706,-88.6316,-378.803)">
        <circle cx="140.911" cy="416.919" r="3.283"/>
    </g>
    <g transform="matrix(1.74706,0,0,1.74706,152.303,-268.296)">
        <circle cx="140.911" cy="416.919" r="3.283"/>
    </g>
</svg>
