<?xml version="1.0" encoding="UTF-8" standalone="no"?>
<!DOCTYPE svg PUBLIC "-//W3C//DTD SVG 1.1//EN" "http://www.w3.org/Graphics/SVG/1.1/DTD/svg11.dtd">
<svg width="100%" height="100%" viewBox="0 0 512 512" version="1.1" xmlns="http://www.w3.org/2000/svg" xmlns:xlink="http://www.w3.org/1999/xlink" xml:space="preserve" xmlns:serif="http://www.serif.com/" style="fill-rule:evenodd;clip-rule:evenodd;stroke-linecap:round;stroke-linejoin:round;stroke-miterlimit:1.5;">
    <g transform="matrix(1.21061,1.04469,-0.923811,1.07053,221.002,-181.272)">
        <path d="M156.82,324.544C156.82,324.544 144.649,10.283 206.198,10.682C264.578,11.06 256,323.56 256,323.56L156.82,324.544Z" style="fill:none;stroke:black;stroke-width:14.34px;"/>
    </g>
    <g transform="matrix(0.783697,0.676291,-0.676291,0.783697,264.612,-100.934)">
        <path d="M236.904,413.142C247.317,488.924 188.034,450.909 189.353,476.518C190.554,499.825 231.961,512.4 224.41,537.47C215.92,565.657 155.734,526.826 129.75,473.907" style="fill:none;stroke:black;stroke-width:14.43px;"/>
    </g>
    <g transform="matrix(1.03516,0,0,1.03516,0.431348,-0.403309)">
        <path d="M141.734,346.438C141.734,346.438 312.115,146.246 360.843,104.054C411.238,60.42 443.573,47.111 443.573,47.111" style="fill:none;stroke:black;stroke-width:12.37px;"/>
    </g>
    <g transform="matrix(1.03516,0,0,1.03516,0.431348,-0.403309)">
        <path d="M188.491,387.355C188.491,387.355 357.663,187.834 395.953,136.557C435.459,83.652 443.573,47.111 443.573,47.111" style="fill:none;stroke:black;stroke-width:12.37px;"/>
    </g>
</svg>
