<?xml version="1.0" encoding="UTF-8" standalone="no"?>
<!DOCTYPE svg PUBLIC "-//W3C//DTD SVG 1.1//EN" "http://www.w3.org/Graphics/SVG/1.1/DTD/svg11.dtd">
<svg width="100%" height="100%" viewBox="0 0 512 512" version="1.1" xmlns="http://www.w3.org/2000/svg" xmlns:xlink="http://www.w3.org/1999/xlink" xml:space="preserve" xmlns:serif="http://www.serif.com/" style="fill-rule:evenodd;clip-rule:evenodd;stroke-linejoin:round;stroke-miterlimit:2;">
    <g>
        <g transform="matrix(1.15369,0,0,1.15369,-63.0483,-50.8678)">
            <path d="M64.85,143.317C64.936,159.308 76.75,175.247 97.258,187.492C124.162,203.557 166.162,213.995 208.444,212.179C281.355,209.048 290.899,200.598 343.395,190.935C347.679,190.146 350.853,186.505 351.05,182.152C351.05,182.152 351.992,161.128 351.11,145.763C350.64,137.58 349.319,130.765 347.74,127.775C338.823,110.888 322.507,97.406 297.869,88.275C275.035,79.813 244.719,74.999 206.459,74.391C156.559,73.598 116.602,86.359 92.6,102.583C74.074,115.105 64.78,130.236 64.85,143.317L64.85,143.317ZM331.093,136.342C331.184,136.853 332.173,142.508 332.422,146.836C332.937,155.805 332.79,166.809 332.602,173.935C287.422,182.83 275.597,190.559 207.641,193.478C169.34,195.122 131.226,185.973 106.854,171.421C93.164,163.246 83.626,153.891 83.568,143.216L83.568,143.216C83.523,134.773 91.125,126.173 103.083,118.091C124.786,103.421 161.041,92.391 206.161,93.108C241.81,93.674 270.089,97.943 291.364,105.827C310.749,113.012 324.024,123.082 331.093,136.342Z"/>
        </g>
        <g transform="matrix(1.15369,0,0,1.15369,-63.0483,-50.8678)">
            <path d="M65.166,147.059C65.166,147.059 65.083,360.436 65.234,369.002C65.851,404.105 90.229,426.459 114.052,438.182C151.76,456.737 175.795,457.446 196.836,457.609C282.418,458.273 334.864,430.248 399.967,428.803C442.72,427.855 474.675,442.156 474.675,442.156L487.879,433.637L488.253,181.733L482.258,179.416C482.258,179.416 443.888,164.64 408.666,164.901C385.405,165.073 338.073,172.509 338.073,172.509L328.828,173.968L331.747,192.458L340.991,190.998C340.991,190.998 386.457,183.785 408.805,183.619C432.711,183.442 458.206,190.959 469.514,194.75C469.515,194.75 469.181,420.231 469.181,420.231C454.72,415.601 429.538,409.424 399.551,410.089C334.625,411.53 282.332,439.553 196.982,438.891C178.005,438.743 156.324,438.121 122.316,421.386C103.972,412.36 84.425,395.703 83.949,368.673C83.799,360.12 83.885,147.066 83.885,147.066L83.889,137.707L65.17,137.7L65.166,147.059Z"/>
        </g>
        <g transform="matrix(1.19989,0,0,1.27569,-75.8837,-70.7721)">
            <path d="M210.729,117.116C193.752,117.116 178.748,120.925 169.416,126.433C160.762,131.539 156.46,138.356 156.46,145.168C156.46,151.979 160.762,158.796 169.416,163.903C178.748,169.41 193.752,173.22 210.729,173.22C227.707,173.22 242.71,169.41 252.043,163.903C260.697,158.796 264.999,151.979 264.999,145.168C264.999,138.356 260.697,131.539 252.043,126.433C242.71,120.925 227.707,117.116 210.729,117.116ZM210.729,134.044C223.735,134.044 235.329,136.554 242.478,140.773C243.87,141.594 245.059,142.464 245.955,143.421C246.489,143.992 247.001,144.515 247.001,145.168C247.001,145.821 246.489,146.344 245.955,146.915C245.059,147.872 243.87,148.742 242.478,149.563C235.329,153.782 223.735,156.291 210.729,156.291C197.724,156.291 186.13,153.782 178.981,149.563C177.589,148.742 176.4,147.872 175.504,146.915C174.97,146.344 174.458,145.821 174.458,145.168C174.458,144.515 174.97,143.992 175.504,143.421C176.4,142.464 177.589,141.594 178.981,140.773C186.13,136.554 197.724,134.044 210.729,134.044Z"/>
        </g>
    </g>
</svg>
