<?xml version="1.0" encoding="UTF-8" standalone="no"?>
<!DOCTYPE svg PUBLIC "-//W3C//DTD SVG 1.1//EN" "http://www.w3.org/Graphics/SVG/1.1/DTD/svg11.dtd">
<svg width="100%" height="100%" viewBox="0 0 512 512" version="1.1" xmlns="http://www.w3.org/2000/svg" xmlns:xlink="http://www.w3.org/1999/xlink" xml:space="preserve" xmlns:serif="http://www.serif.com/" style="fill-rule:evenodd;clip-rule:evenodd;stroke-linecap:round;stroke-linejoin:round;stroke-miterlimit:1.5;">
    <g transform="matrix(1.03436,0,0,1.03436,0.727971,-11.7395)">
        <path d="M41.918,126.267C41.918,126.267 42.998,131.038 46.884,137.814C54.452,151.009 97.845,198.765 103.916,205.331C109.986,211.897 245.178,351.867 258.029,364.624C271.428,377.925 332.822,439.248 343.257,449.598C353.692,459.949 373.373,474.6 384.148,479.787C394.274,484.661 411.797,490.619 428.124,486.927C438.178,484.653 447.18,479.595 454.046,474.595C457.935,471.763 466.38,462.066 469.513,456.719C473.392,450.098 475.634,440.099 474.919,430.949C474.431,424.701 469.981,412.637 466.541,403.886C463.179,395.336 453.916,381.067 450.34,375.883C446.764,370.699 375.522,289.097 369.073,282.331C362.624,275.565 255.164,160.153 246.657,151.131C238.149,142.109 202.762,108.373 197.948,104.707C192.885,100.851 166.832,83.791 159.559,79.376C152.287,74.96 126.543,61.777 120.609,59.532C111.31,56.014 102.847,53.991 102.847,53.991C102.847,53.991 102.873,53.348 101.679,52.48C99.133,50.628 93.871,47.564 90.875,46.208C86.474,44.215 79.98,42.102 76.994,40.167C74.008,38.232 70.722,36.663 67.057,35.846C63.382,35.027 59.205,34.095 56.978,33.341C52.714,31.896 49.874,29.731 47.498,29.622C45.123,29.513 44.273,30.304 42.719,31.825C40.235,34.258 38.875,37.004 36.69,39.119C34.505,41.235 32.151,44.386 29.259,46.403C26.363,48.424 26.245,50.409 25.344,52.404C24.036,55.304 23.384,56.662 22.307,58.773C20.319,62.673 20.561,61.784 19.361,65.59C18.161,69.396 18.453,69.849 19.045,72.594C20.455,79.142 20.496,78.953 21.093,84.572C21.684,90.137 23.13,96.383 23.287,99.398C23.48,103.088 24.244,105.505 26.343,109.59C28.325,113.445 30.343,116.612 32.595,119.249C34.847,121.887 35.046,121.616 37.449,123.554C39.851,125.493 41.918,126.267 41.918,126.267Z" style="fill:none;stroke:black;stroke-width:6.48px;"/>
    </g>
    <g transform="matrix(1.03436,0,0,1.03436,0.727971,-11.7395)">
        <path d="M41.779,126.15C42.19,126.246 43.52,113.829 43.396,111.39C43.275,108.996 42.605,103.229 43.298,101.713C43.991,100.198 46.305,97.984 47.741,97.411C49.177,96.838 55.67,94.391 58.398,93.478C61.126,92.564 69.243,89.298 70.619,88.297C71.995,87.296 74.53,84.934 75.379,83.563C76.227,82.193 76.74,75.494 76.857,73.678C76.974,71.862 77.698,68.565 78.664,67.102C79.629,65.639 81.301,63.327 82.871,62.574C84.441,61.822 86.367,60.566 88.205,60.074C90.042,59.582 91.452,60.443 92.78,60.262C94.108,60.08 97.156,59.01 98.485,58.335C99.814,57.659 101.39,57.059 102.289,56.019C102.624,55.631 102.934,55.184 102.936,55.02C102.939,54.775 102.57,53.94 102.57,53.94" style="fill:none;stroke:black;stroke-width:5.01px;"/>
    </g>
    <g transform="matrix(1.03436,0,0,1.03436,0.727971,-11.7395)">
        <path d="M43.319,111.859C43.319,111.859 50.256,129.302 52.892,133.722C55.529,138.143 146.024,236.327 149.293,238.259C152.563,240.19 279.872,372.158 286.601,379.286C293.029,386.094 364.557,458.179 377.458,465.651C379.963,467.101 401.008,478.799 406.699,480.542C412.224,482.234 426.16,484.328 435.928,484.566" style="fill:none;stroke:black;stroke-width:2.9px;"/>
    </g>
    <g transform="matrix(1.03436,0,0,1.03436,0.727971,-11.7395)">
        <path d="M52.564,96.139C52.564,96.139 54.509,101.502 56.402,104.22C58.296,106.937 63.192,116.552 67.844,119.938C76.059,125.918 151.437,204.41 157.479,209.854C163.52,215.299 253.04,308.536 258.492,313.941C263.944,319.346 349.908,406.752 354.719,411.82C359.269,416.614 385.617,442.078 391.598,446.101C393.881,447.637 413.542,462.716 426.339,467.796C434.537,471.05 458.126,474.047 456.23,472.747" style="fill:none;stroke:black;stroke-width:2.9px;"/>
    </g>
    <g transform="matrix(1.03436,0,0,1.03436,0.727971,-11.7395)">
        <path d="M76.323,80.551C76.728,79.893 148.087,150.456 151.97,155.008C156.354,160.147 256.243,259.959 262.573,265.907C268.904,271.855 348.967,355.194 355.83,361.401C362.692,367.608 432.725,440.859 438.571,445.665C444.416,450.47 459.078,469.9 459.078,469.9" style="fill:none;stroke:black;stroke-width:2.9px;"/>
    </g>
    <g transform="matrix(1.03436,0,0,1.03436,0.727971,-11.7395)">
        <path d="M80.552,64.616C82.175,63.651 97.22,71.097 100.081,72.599C101.933,73.572 120.101,83.793 126.954,88.613C131.865,92.067 153.371,106.808 156.733,109.283C160.077,111.744 170.735,120.55 175.495,124.29C183.801,130.817 245.724,193.212 254.143,202.14C262.584,211.091 347.343,301.036 353.917,307.07C360.492,313.103 430.944,392.76 435.751,398.355C440.557,403.951 447.91,413.567 449.896,418.176C451.882,422.784 456.619,429.908 457.882,434.901C459.145,439.894 462.125,450.688 462.528,454.39C462.892,457.734 462.498,462.699 461.535,467.205" style="fill:none;stroke:black;stroke-width:2.9px;"/>
    </g>
</svg>
